<?xml version="1.0" encoding="UTF-8" standalone="no"?>
<svg
   xmlns:dc="http://purl.org/dc/elements/1.1/"
   xmlns:cc="http://creativecommons.org/ns#"
   xmlns:rdf="http://www.w3.org/1999/02/22-rdf-syntax-ns#"
   xmlns:svg="http://www.w3.org/2000/svg"
   xmlns="http://www.w3.org/2000/svg"
   viewBox="0 0 241.88933 204.09467"
   height="204.09467"
   width="241.88933"
   xml:space="preserve"
   id="svg2"
   version="1.1"><metadata
     id="metadata8"><rdf:RDF><cc:Work
         rdf:about=""><dc:format>image/svg+xml</dc:format><dc:type
           rdf:resource="http://purl.org/dc/dcmitype/StillImage" /></cc:Work></rdf:RDF></metadata><defs
     id="defs6" /><g
     transform="matrix(1.3333333,0,0,-1.3333333,0,204.09467)"
     id="g10"><g
       transform="translate(90.709,90.709)"
       id="g12"><g
         id="g14"><g
           id="g16"><g
             id="g18"><path
               id="path20"
               style="fill:#ffffff;fill-opacity:0;fill-rule:nonzero;stroke:none"
               d="M -90.7097,-90.7097 V 62.36288 H 90.7097 V -90.7097 Z" /></g><g
             id="g22"><path
               id="path24"
               style="fill:none;stroke:#808080;stroke-width:0.19925;stroke-linecap:butt;stroke-linejoin:miter;stroke-miterlimit:10;stroke-dasharray:none;stroke-opacity:1"
               d="M -85.04042,-85.04042 H 85.04042 m -170.08084,28.3468 H 85.04042 M -85.04042,-28.3468 H 85.04042 M -85.04042,0 H 85.04042 M -85.04042,28.3468 H 85.04042 M -85.04042,56.68365 H 85.04042 M -85.04042,-85.04042 V 56.69362 m 28.3468,-141.73404 V 56.69362 M -28.3468,-85.04042 V 56.69362 M 0,-85.04042 V 56.69362 M 28.3468,-85.04042 V 56.69362 M 56.69362,-85.04042 V 56.69362 M 85.03047,-85.04042 V 56.69362" /></g><path
             id="path26"
             style="fill:none;stroke:#000000;stroke-width:0.3985;stroke-linecap:butt;stroke-linejoin:miter;stroke-miterlimit:10;stroke-dasharray:none;stroke-opacity:1"
             d="M -85.04042,0 H 84.58214" /><g
             transform="translate(84.58214)"
             id="g28"><g
               id="g30"><path
                 id="path32"
                 style="fill:none;stroke:#000000;stroke-width:0.31878999;stroke-linecap:round;stroke-linejoin:round;stroke-miterlimit:10;stroke-dasharray:none;stroke-opacity:1"
                 d="M -1.19551,1.59401 C -1.09587,0.99626 0,0.09961 0.29886,0 0,-0.09961 -1.09587,-0.99626 -1.19551,-1.59401" /></g></g><path
             id="path34"
             style="fill:none;stroke:#000000;stroke-width:0.3985;stroke-linecap:butt;stroke-linejoin:miter;stroke-miterlimit:10;stroke-dasharray:none;stroke-opacity:1"
             d="M 0,-85.04042 V 56.23534" /><g
             transform="rotate(90,-28.11767,28.11767)"
             id="g36"><g
               id="g38"><path
                 id="path40"
                 style="fill:none;stroke:#000000;stroke-width:0.31878999;stroke-linecap:round;stroke-linejoin:round;stroke-miterlimit:10;stroke-dasharray:none;stroke-opacity:1"
                 d="M -1.19551,1.59401 C -1.09587,0.99626 0,0.09961 0.29886,0 0,-0.09961 -1.09587,-0.99626 -1.19551,-1.59401" /></g></g><g
             id="g42"><path
               id="path44"
               style="fill:#2bffff;fill-opacity:0.5;fill-rule:nonzero;stroke:#199696;stroke-width:1.19553006;stroke-linecap:butt;stroke-linejoin:miter;stroke-miterlimit:10;stroke-dasharray:none;stroke-opacity:1"
               d="m -56.19548,-28.3468 h 55.69734 c 0.27512,0 0.72116,0 0.99628,0 15.15756,0 27.84866,12.6911 27.84866,28.3468 0,15.6557 -12.6911,28.3468 -27.84866,28.3468 C 0.22302,28.3468 0,28.56982 0,28.84494 v 0 C 0,28.56982 -0.22302,28.3468 -0.49814,28.3468 h -55.69734 c -0.2751,0 -0.49814,-0.22302 -0.49814,-0.49814 v -55.69732 c 0,-0.27512 0.22304,-0.49814 0.49814,-0.49814 z" /></g></g></g></g></g></svg>