<?xml version="1.0" encoding="utf-8" standalone="no"?>
<!DOCTYPE svg PUBLIC "-//W3C//DTD SVG 1.1//EN"
  "http://www.w3.org/Graphics/SVG/1.1/DTD/svg11.dtd">
<svg xmlns:xlink="http://www.w3.org/1999/xlink" width="460.8pt" height="345.6pt" viewBox="0 0 460.8 345.6" xmlns="http://www.w3.org/2000/svg" version="1.1">
 <metadata>
  <rdf:RDF xmlns:dc="http://purl.org/dc/elements/1.1/" xmlns:cc="http://creativecommons.org/ns#" xmlns:rdf="http://www.w3.org/1999/02/22-rdf-syntax-ns#">
   <cc:Work>
    <dc:type rdf:resource="http://purl.org/dc/dcmitype/StillImage"/>
    <dc:date>2023-09-16T21:16:16.499010</dc:date>
    <dc:format>image/svg+xml</dc:format>
    <dc:creator>
     <cc:Agent>
      <dc:title>Matplotlib v3.7.0, https://matplotlib.org/</dc:title>
     </cc:Agent>
    </dc:creator>
   </cc:Work>
  </rdf:RDF>
 </metadata>
 <defs>
  <style type="text/css">*{stroke-linejoin: round; stroke-linecap: butt}</style>
 </defs>
 <g id="figure_1">
  <g id="patch_1">
   <path d="M 0 345.6 
L 460.8 345.6 
L 460.8 0 
L 0 0 
z
" style="fill: #ffffff"/>
  </g>
  <g id="axes_1">
   <g id="patch_2">
    <path d="M 14.4 334.8 
L 446.4 334.8 
L 446.4 10.8 
L 14.4 10.8 
z
" style="fill: #ffffff"/>
   </g>
   <g id="patch_3">
    <path d="M 230.4 25.527273 
L 228.877801 25.527273 
L 227.355603 25.527273 
L 225.833404 25.527273 
L 224.311205 25.527273 
L 222.789006 25.527273 
L 221.266808 25.527273 
L 219.744609 25.527273 
L 218.22241 25.527273 
L 216.700211 25.527273 
L 215.178013 25.527273 
L 213.655814 25.527273 
L 212.133615 25.527273 
L 210.611416 25.527273 
L 209.089218 25.527273 
L 207.567019 25.527273 
L 206.04482 25.527273 
L 204.522622 25.527273 
L 203.000423 25.527273 
L 201.478224 25.527273 
L 199.956025 25.527273 
L 198.433827 25.527273 
L 196.911628 25.527273 
L 195.389429 25.527273 
L 193.86723 25.527273 
L 192.345032 25.527273 
L 190.822833 25.527273 
L 189.300634 25.527273 
L 187.778436 25.527273 
L 186.256237 25.527273 
L 184.734038 25.527273 
L 183.211839 25.527273 
L 181.689641 25.527273 
L 180.167442 25.527273 
L 178.645243 25.527273 
L 177.123044 25.527273 
L 175.600846 25.527273 
L 174.078647 25.527273 
L 172.556448 25.527273 
L 171.034249 25.527273 
L 169.512051 25.527273 
L 167.989852 25.527273 
L 166.467653 25.527273 
L 164.945455 25.527273 
L 163.423256 25.527273 
L 161.901057 25.527273 
L 160.378858 25.527273 
L 158.85666 25.527273 
L 157.334461 25.527273 
L 155.812262 25.527273 
L 154.290063 25.527273 
L 152.767865 25.527273 
L 151.245666 25.527273 
L 149.723467 25.527273 
L 148.201268 25.527273 
L 146.67907 25.527273 
L 145.156871 25.527273 
L 143.634672 25.527273 
L 142.112474 25.527273 
L 140.590275 25.527273 
L 139.068076 25.527273 
L 137.545877 25.527273 
L 136.023679 25.527273 
L 134.50148 25.527273 
L 132.979281 25.527273 
L 131.457082 25.527273 
L 129.934884 25.527273 
L 128.412685 25.527273 
L 126.890486 25.527273 
L 125.368288 25.527273 
L 123.846089 25.527273 
L 122.32389 25.527273 
L 120.801691 25.527273 
L 119.279493 25.527273 
L 117.757294 25.527273 
L 116.235095 25.527273 
L 114.712896 25.527273 
L 113.190698 25.527273 
L 111.668499 25.527273 
L 110.1463 25.527273 
L 108.624101 25.527273 
L 107.101903 25.527273 
L 105.579704 25.527273 
L 104.057505 25.527273 
L 102.535307 25.527273 
L 101.013108 25.527273 
L 99.490909 25.527273 
L 97.96871 25.527273 
L 96.446512 25.527273 
L 94.924313 25.527273 
L 93.402114 25.527273 
L 91.879915 25.527273 
L 90.357717 25.527273 
L 88.835518 25.527273 
L 87.313319 25.527273 
L 85.791121 25.527273 
L 84.268922 25.527273 
L 82.746723 25.527273 
L 81.224524 25.527273 
L 79.702326 25.527273 
L 78.180127 25.527273 
L 76.657928 25.527273 
L 75.135729 25.527273 
L 73.613531 25.527273 
L 72.091332 25.527273 
L 70.569133 25.527273 
L 69.046934 25.527273 
L 67.524736 25.527273 
L 66.002537 25.527273 
L 64.480338 25.527273 
L 62.95814 25.527273 
L 61.435941 25.527273 
L 59.913742 25.527273 
L 58.391543 25.527273 
L 56.869345 25.527273 
L 55.347146 25.527273 
L 53.824947 25.527273 
L 52.302748 25.527273 
L 50.78055 25.527273 
L 49.258351 25.527273 
L 47.736152 25.527273 
L 46.213953 25.527273 
L 44.691755 25.527273 
L 43.169556 25.527273 
L 41.647357 25.527273 
L 40.125159 25.527273 
L 38.60296 25.527273 
L 37.080761 25.527273 
L 35.558562 25.527273 
L 34.036364 25.527273 
L 34.036364 27.049471 
L 34.036364 28.57167 
L 34.036364 30.093869 
L 34.036364 31.616068 
L 34.036364 33.138266 
L 34.036364 34.660465 
L 34.036364 36.182664 
L 34.036364 37.704863 
L 34.036364 39.227061 
L 34.036364 40.74926 
L 34.036364 42.271459 
L 34.036364 43.793658 
L 34.036364 45.315856 
L 34.036364 46.838055 
L 34.036364 48.360254 
L 34.036364 49.882452 
L 34.036364 51.404651 
L 34.036364 52.92685 
L 34.036364 54.449049 
L 34.036364 55.971247 
L 34.036364 57.493446 
L 34.036364 59.015645 
L 34.036364 60.537844 
L 34.036364 62.060042 
L 34.036364 63.582241 
L 34.036364 65.10444 
L 34.036364 66.626638 
L 34.036364 68.148837 
L 34.036364 69.671036 
L 34.036364 71.193235 
L 34.036364 72.715433 
L 34.036364 74.237632 
L 34.036364 75.759831 
L 34.036364 77.28203 
L 34.036364 78.804228 
L 34.036364 80.326427 
L 34.036364 81.848626 
L 34.036364 83.370825 
L 34.036364 84.893023 
L 34.036364 86.415222 
L 34.036364 87.937421 
L 34.036364 89.459619 
L 34.036364 90.981818 
L 34.036364 92.504017 
L 34.036364 94.026216 
L 34.036364 95.548414 
L 34.036364 97.070613 
L 34.036364 98.592812 
L 34.036364 100.115011 
L 34.036364 101.637209 
L 34.036364 103.159408 
L 34.036364 104.681607 
L 34.036364 106.203805 
L 34.036364 107.726004 
L 34.036364 109.248203 
L 34.036364 110.770402 
L 34.036364 112.2926 
L 34.036364 113.814799 
L 34.036364 115.336998 
L 34.036364 116.859197 
L 34.036364 118.381395 
L 34.036364 119.903594 
L 34.036364 121.425793 
L 34.036364 122.947992 
L 34.036364 124.47019 
L 34.036364 125.992389 
L 34.036364 127.514588 
L 34.036364 129.036786 
L 34.036364 130.558985 
L 34.036364 132.081184 
L 34.036364 133.603383 
L 34.036364 135.125581 
L 34.036364 136.64778 
L 34.036364 138.169979 
L 34.036364 139.692178 
L 34.036364 141.214376 
L 34.036364 142.736575 
L 34.036364 144.258774 
L 34.036364 145.780973 
L 34.036364 147.303171 
L 34.036364 148.82537 
L 34.036364 150.347569 
L 34.036364 151.869767 
L 34.036364 153.391966 
L 34.036364 154.914165 
L 34.036364 156.436364 
L 34.036364 157.958562 
L 34.036364 159.480761 
L 34.036364 161.00296 
L 34.036364 162.525159 
L 34.036364 164.047357 
L 34.036364 165.569556 
L 34.036364 167.091755 
L 34.036364 168.613953 
L 34.036364 170.136152 
L 34.036364 171.658351 
L 34.036364 173.18055 
L 34.036364 174.702748 
L 34.036364 176.224947 
L 34.036364 177.747146 
L 34.036364 179.269345 
L 34.036364 180.791543 
L 34.036364 182.313742 
L 34.036364 183.835941 
L 34.036364 185.35814 
L 34.036364 186.880338 
L 34.036364 188.402537 
L 34.036364 189.924736 
L 34.036364 191.446934 
L 34.036364 192.969133 
L 34.036364 194.491332 
L 34.036364 196.013531 
L 34.036364 197.535729 
L 34.036364 199.057928 
L 34.036364 200.580127 
L 34.036364 202.102326 
L 34.036364 203.624524 
L 34.036364 205.146723 
L 34.036364 206.668922 
L 34.036364 208.191121 
L 34.036364 209.713319 
L 34.036364 211.235518 
L 34.036364 212.757717 
L 34.036364 214.279915 
L 34.036364 215.802114 
L 34.036364 217.324313 
L 34.036364 218.846512 
L 34.036364 220.36871 
L 34.036364 221.890909 
L 35.558562 221.890909 
L 37.080761 221.890909 
L 38.60296 221.890909 
L 40.125159 221.890909 
L 41.647357 221.890909 
L 43.169556 221.890909 
L 44.691755 221.890909 
L 46.213953 221.890909 
L 47.736152 221.890909 
L 49.258351 221.890909 
L 50.78055 221.890909 
L 52.302748 221.890909 
L 53.824947 221.890909 
L 55.347146 221.890909 
L 56.869345 221.890909 
L 58.391543 221.890909 
L 59.913742 221.890909 
L 61.435941 221.890909 
L 62.95814 221.890909 
L 64.480338 221.890909 
L 66.002537 221.890909 
L 67.524736 221.890909 
L 69.046934 221.890909 
L 70.569133 221.890909 
L 72.091332 221.890909 
L 73.613531 221.890909 
L 75.135729 221.890909 
L 76.657928 221.890909 
L 78.180127 221.890909 
L 79.702326 221.890909 
L 81.224524 221.890909 
L 82.746723 221.890909 
L 84.268922 221.890909 
L 85.791121 221.890909 
L 87.313319 221.890909 
L 88.835518 221.890909 
L 90.357717 221.890909 
L 91.879915 221.890909 
L 93.402114 221.890909 
L 94.924313 221.890909 
L 96.446512 221.890909 
L 97.96871 221.890909 
L 99.490909 221.890909 
L 101.013108 221.890909 
L 102.535307 221.890909 
L 104.057505 221.890909 
L 105.579704 221.890909 
L 107.101903 221.890909 
L 108.624101 221.890909 
L 110.1463 221.890909 
L 111.668499 221.890909 
L 113.190698 221.890909 
L 114.712896 221.890909 
L 116.235095 221.890909 
L 117.757294 221.890909 
L 119.279493 221.890909 
L 120.801691 221.890909 
L 122.32389 221.890909 
L 123.846089 221.890909 
L 125.368288 221.890909 
L 126.890486 221.890909 
L 128.412685 221.890909 
L 129.934884 221.890909 
L 131.457082 221.890909 
L 132.979281 221.890909 
L 134.50148 221.890909 
L 136.023679 221.890909 
L 137.545877 221.890909 
L 139.068076 221.890909 
L 140.590275 221.890909 
L 142.112474 221.890909 
L 143.634672 221.890909 
L 145.156871 221.890909 
L 146.67907 221.890909 
L 148.201268 221.890909 
L 149.723467 221.890909 
L 151.245666 221.890909 
L 152.767865 221.890909 
L 154.290063 221.890909 
L 155.812262 221.890909 
L 157.334461 221.890909 
L 158.85666 221.890909 
L 160.378858 221.890909 
L 161.901057 221.890909 
L 163.423256 221.890909 
L 164.945455 221.890909 
L 166.467653 221.890909 
L 167.989852 221.890909 
L 169.512051 221.890909 
L 171.034249 221.890909 
L 172.556448 221.890909 
L 174.078647 221.890909 
L 175.600846 221.890909 
L 177.123044 221.890909 
L 178.645243 221.890909 
L 180.167442 221.890909 
L 181.689641 221.890909 
L 183.211839 221.890909 
L 184.734038 221.890909 
L 186.256237 221.890909 
L 187.778436 221.890909 
L 189.300634 221.890909 
L 190.822833 221.890909 
L 192.345032 221.890909 
L 193.86723 221.890909 
L 195.389429 221.890909 
L 196.911628 221.890909 
L 198.433827 221.890909 
L 199.956025 221.890909 
L 201.478224 221.890909 
L 203.000423 221.890909 
L 204.522622 221.890909 
L 206.04482 221.890909 
L 207.567019 221.890909 
L 209.089218 221.890909 
L 210.611416 221.890909 
L 212.133615 221.890909 
L 213.655814 221.890909 
L 215.178013 221.890909 
L 216.700211 221.890909 
L 218.22241 221.890909 
L 219.744609 221.890909 
L 221.266808 221.890909 
L 222.789006 221.890909 
L 224.311205 221.890909 
L 225.833404 221.890909 
L 227.355603 221.890909 
L 228.877801 221.890909 
L 230.4 221.890909 
L 230.702695 221.89046 
L 231.005211 221.889113 
L 231.307548 221.886867 
L 231.609707 221.883723 
L 231.911687 221.879681 
L 232.213489 221.874741 
L 232.515112 221.868903 
L 232.816556 221.862166 
L 233.117821 221.854531 
L 233.418908 221.845998 
L 233.719816 221.836567 
L 234.020546 221.826237 
L 234.321097 221.815009 
L 234.621469 221.802883 
L 234.921662 221.789859 
L 235.221677 221.775937 
L 235.521513 221.761116 
L 235.821171 221.745397 
L 236.120649 221.72878 
L 236.41995 221.711265 
L 236.719071 221.692851 
L 237.018014 221.67354 
L 237.316778 221.65333 
L 237.615364 221.632222 
L 237.91377 221.610215 
L 238.211998 221.58731 
L 238.510048 221.563508 
L 238.807919 221.538807 
L 239.105611 221.513207 
L 239.403124 221.48671 
L 239.700459 221.459314 
L 239.997615 221.43102 
L 240.294593 221.401828 
L 240.591392 221.371737 
L 240.888012 221.340749 
L 241.184453 221.308862 
L 241.480716 221.276077 
L 241.7768 221.242394 
L 242.072706 221.207812 
L 242.368432 221.172332 
L 242.66398 221.135955 
L 242.95935 221.098678 
L 243.254541 221.060504 
L 243.549553 221.021431 
L 243.844386 220.981461 
L 244.139041 220.940592 
L 244.433517 220.898824 
L 244.727815 220.856159 
L 245.021934 220.812595 
L 245.315874 220.768133 
L 245.609635 220.722773 
L 245.903218 220.676515 
L 246.196622 220.629358 
L 246.489847 220.581303 
L 246.782894 220.53235 
L 247.075762 220.482499 
L 247.368452 220.431749 
L 247.660963 220.380102 
L 247.953295 220.327556 
L 248.245448 220.274112 
L 248.537423 220.219769 
L 248.829219 220.164529 
L 249.120837 220.10839 
L 249.412275 220.051353 
L 249.703535 219.993418 
L 249.994617 219.934584 
L 250.28552 219.874853 
L 250.576244 219.814223 
L 250.866789 219.752695 
L 251.157156 219.690268 
L 251.447344 219.626944 
L 251.737354 219.562721 
L 252.027184 219.4976 
L 252.316836 219.431581 
L 252.60631 219.364663 
L 252.895605 219.296848 
L 253.184721 219.228134 
L 253.473658 219.158522 
L 253.762417 219.088011 
L 254.050997 219.016603 
L 254.339399 218.944296 
L 254.627621 218.871091 
L 254.915665 218.796988 
L 255.203531 218.721986 
L 255.491218 218.646087 
L 255.778726 218.569289 
L 256.066055 218.491593 
L 256.353206 218.412998 
L 256.640178 218.333506 
L 256.926972 218.253115 
L 257.213586 218.171826 
L 257.500022 218.089639 
L 257.78628 218.006553 
L 258.072359 217.92257 
L 258.358259 217.837688 
L 258.64398 217.751908 
L 258.929523 217.665229 
L 259.214887 217.577653 
L 259.500072 217.489178 
L 259.785079 217.399805 
L 260.069907 217.309534 
L 260.354557 217.218365 
L 260.639028 217.126297 
L 260.92332 217.033331 
L 261.207433 216.939467 
L 261.491368 216.844705 
L 261.775124 216.749044 
L 262.058701 216.652486 
L 262.3421 216.555029 
L 262.62532 216.456673 
L 262.908362 216.35742 
L 263.191224 216.257268 
L 263.473908 216.156219 
L 263.756414 216.054271 
L 264.038741 215.951424 
L 264.320889 215.84768 
L 264.602858 215.743037 
L 264.884649 215.637496 
L 265.166261 215.531057 
L 265.447694 215.42372 
L 265.728949 215.315484 
L 266.010025 215.20635 
L 266.290923 215.096318 
L 266.571641 214.985388 
L 266.852182 214.873559 
L 267.132543 214.760833 
L 267.412726 214.647208 
L 267.69273 214.532685 
L 267.972555 214.417263 
L 268.252037 214.301012 
L 268.53101 214.183999 
L 268.809474 214.066225 
L 269.087429 213.947689 
L 269.364876 213.828392 
L 269.641813 213.708334 
L 269.918242 213.587514 
L 270.194162 213.465932 
L 270.469573 213.343589 
L 270.744476 213.220485 
L 271.01887 213.096619 
L 271.292754 212.971991 
L 271.566131 212.846602 
L 271.838998 212.720452 
L 272.111356 212.59354 
L 272.383206 212.465867 
L 272.654547 212.337432 
L 272.925379 212.208236 
L 273.195702 212.078278 
L 273.465517 211.947559 
L 273.734822 211.816078 
L 274.003619 211.683836 
L 274.271907 211.550832 
L 274.539686 211.417067 
L 274.806957 211.28254 
L 275.073719 211.147252 
L 275.339971 211.011203 
L 275.605715 210.874392 
L 275.870951 210.736819 
L 276.135677 210.598485 
L 276.399895 210.45939 
L 276.663604 210.319533 
L 276.926804 210.178914 
L 277.189495 210.037534 
L 277.451677 209.895393 
L 277.713351 209.75249 
L 277.974516 209.608826 
L 278.235172 209.4644 
L 278.495319 209.319213 
L 278.754958 209.173264 
L 279.014087 209.026554 
L 279.272708 208.879082 
L 279.53082 208.730849 
L 279.788423 208.581855 
L 280.045518 208.432098 
L 280.302103 208.281581 
L 280.55818 208.130302 
L 280.813748 207.978261 
L 281.068807 207.825459 
L 281.323358 207.671896 
L 281.577399 207.517571 
L 281.830932 207.362484 
L 282.083956 207.206636 
L 282.336471 207.050027 
L 282.588478 206.892656 
L 282.839975 206.734524 
L 283.090964 206.57563 
L 283.341444 206.415975 
L 283.591416 206.255558 
L 283.840878 206.09438 
L 284.089832 205.93244 
L 284.338276 205.769739 
L 284.586212 205.606276 
L 284.83364 205.442052 
L 285.080558 205.277067 
L 285.326968 205.111319 
L 285.572868 204.944811 
L 285.81826 204.777541 
L 286.063144 204.609509 
L 286.307518 204.440716 
L 286.551384 204.271162 
L 286.79474 204.100846 
L 287.037588 203.929769 
L 287.279928 203.75793 
L 287.521758 203.585329 
L 287.76308 203.411968 
L 288.003892 203.237844 
L 288.244196 203.062959 
L 288.483992 202.887313 
L 288.723278 202.710906 
L 288.962056 202.533736 
L 289.200324 202.355806 
L 289.438084 202.177113 
L 289.675335 201.99766 
L 289.912078 201.817445 
L 290.148311 201.636468 
L 290.384036 201.45473 
L 290.619252 201.272231 
L 290.853959 201.08897 
L 291.088158 200.904947 
L 291.321847 200.720163 
L 291.555028 200.534618 
L 291.7877 200.348311 
L 292.019863 200.161243 
L 292.251518 199.973413 
L 292.482663 199.784821 
L 292.7133 199.595469 
L 292.943428 199.405354 
L 293.173047 199.214479 
L 293.402157 199.022841 
L 293.630759 198.830443 
L 293.858852 198.637282 
L 294.086436 198.443361 
L 294.313511 198.248678 
L 294.540077 198.053233 
L 294.766135 197.857027 
L 294.991684 197.660059 
L 295.216723 197.46233 
L 295.441255 197.26384 
L 295.665277 197.064588 
L 295.888791 196.864575 
L 296.111795 196.6638 
L 296.334291 196.462263 
L 296.556278 196.259965 
L 296.777757 196.056906 
L 296.998726 195.853085 
L 297.219187 195.648503 
L 297.439139 195.443159 
L 297.658582 195.237054 
L 297.877516 195.030187 
L 298.095942 194.822559 
L 298.313859 194.614169 
L 298.531267 194.405018 
L 298.748166 194.195106 
L 298.964556 193.984431 
L 299.180438 193.772996 
L 299.39581 193.560799 
L 299.610674 193.34784 
L 299.825029 193.13412 
L 300.038749 192.919765 
L 300.251708 192.704901 
L 300.463905 192.489529 
L 300.675341 192.273647 
L 300.886015 192.057257 
L 301.095927 191.840358 
L 301.305078 191.62295 
L 301.513468 191.405033 
L 301.721096 191.186607 
L 301.927963 190.967673 
L 302.134068 190.74823 
L 302.339412 190.528278 
L 302.543994 190.307817 
L 302.747815 190.086848 
L 302.950874 189.865369 
L 303.153172 189.643382 
L 303.354709 189.420886 
L 303.555484 189.197881 
L 303.755497 188.974368 
L 303.954749 188.750346 
L 304.15324 188.525814 
L 304.350969 188.300774 
L 304.547936 188.075226 
L 304.744142 187.849168 
L 304.939587 187.622602 
L 305.13427 187.395527 
L 305.328192 187.167943 
L 305.521352 186.93985 
L 305.71375 186.711248 
L 305.905388 186.482138 
L 306.096263 186.252519 
L 306.286378 186.022391 
L 306.47573 185.791754 
L 306.664322 185.560608 
L 306.852152 185.328954 
L 307.03922 185.096791 
L 307.225527 184.864119 
L 307.411072 184.630938 
L 307.595856 184.397249 
L 307.779879 184.16305 
L 307.96314 183.928343 
L 308.145639 183.693127 
L 308.327377 183.457402 
L 308.508354 183.221169 
L 308.688569 182.984426 
L 308.868023 182.747175 
L 309.046715 182.509415 
L 309.224645 182.271146 
L 309.401815 182.032369 
L 309.578222 181.793082 
L 309.753869 181.553287 
L 309.928753 181.312983 
L 310.102877 181.07217 
L 310.276238 180.830849 
L 310.448839 180.589018 
L 310.620678 180.346679 
L 310.791755 180.103831 
L 310.962071 179.860475 
L 311.131625 179.616609 
L 311.300418 179.372235 
L 311.46845 179.127351 
L 311.63572 178.881959 
L 311.802229 178.636058 
L 311.967976 178.389649 
L 312.132961 178.14273 
L 312.297185 177.895303 
L 312.460648 177.647367 
L 312.623349 177.398922 
L 312.785289 177.149969 
L 312.946467 176.900506 
L 313.106884 176.650535 
L 313.266539 176.400055 
L 313.425433 176.149066 
L 313.583565 175.897569 
L 313.740936 175.645562 
L 313.897546 175.393047 
L 314.053393 175.140023 
L 314.20848 174.88649 
L 314.362805 174.632449 
L 314.516368 174.377898 
L 314.66917 174.122839 
L 314.821211 173.867271 
L 314.97249 173.611194 
L 315.123007 173.354609 
L 315.272764 173.097514 
L 315.421758 172.839911 
L 315.569991 172.581799 
L 315.717463 172.323178 
L 315.864173 172.064048 
L 316.010122 171.80441 
L 316.155309 171.544263 
L 316.299735 171.283607 
L 316.443399 171.022442 
L 316.586302 170.760768 
L 316.728444 170.498586 
L 316.869823 170.235895 
L 317.010442 169.972694 
L 317.150299 169.708986 
L 317.289394 169.444768 
L 317.427728 169.180042 
L 317.565301 168.914806 
L 317.702112 168.649062 
L 317.838161 168.382809 
L 317.973449 168.116048 
L 318.107976 167.848777 
L 318.241741 167.580998 
L 318.374745 167.31271 
L 318.506987 167.043913 
L 318.638468 166.774607 
L 318.769187 166.504793 
L 318.899145 166.23447 
L 319.028341 165.963638 
L 319.156776 165.692297 
L 319.284449 165.420447 
L 319.411361 165.148089 
L 319.537511 164.875221 
L 319.6629 164.601845 
L 319.787528 164.327961 
L 319.911394 164.053567 
L 320.034498 163.778664 
L 320.156841 163.503253 
L 320.278423 163.227333 
L 320.399243 162.950904 
L 320.519301 162.673966 
L 320.638599 162.39652 
L 320.757134 162.118565 
L 320.874908 161.840101 
L 320.991921 161.561128 
L 321.108172 161.281646 
L 321.223594 161.001821 
L 321.338117 160.721817 
L 321.451742 160.441634 
L 321.564468 160.161272 
L 321.676297 159.880732 
L 321.787227 159.600014 
L 321.897259 159.319116 
L 322.006393 159.03804 
L 322.114629 158.756785 
L 322.221966 158.475352 
L 322.328405 158.19374 
L 322.433946 157.911949 
L 322.538589 157.62998 
L 322.642333 157.347832 
L 322.74518 157.065505 
L 322.847128 156.782999 
L 322.948178 156.500315 
L 323.048329 156.217453 
L 323.147583 155.934411 
L 323.245938 155.651191 
L 323.343395 155.367792 
L 323.439953 155.084215 
L 323.535614 154.800459 
L 323.630376 154.516524 
L 323.72424 154.232411 
L 323.817206 153.948118 
L 323.909274 153.663648 
L 324.000443 153.378998 
L 324.090714 153.09417 
L 324.180087 152.809163 
L 324.268562 152.523978 
L 324.356139 152.238614 
L 324.442817 151.953071 
L 324.528597 151.66735 
L 324.613479 151.38145 
L 324.697462 151.095371 
L 324.780548 150.809113 
L 324.862735 150.522677 
L 324.944024 150.236062 
L 325.024415 149.949269 
L 325.103907 149.662297 
L 325.182502 149.375146 
L 325.260198 149.087817 
L 325.336996 148.800309 
L 325.412895 148.512622 
L 325.487897 148.224756 
L 325.562 147.936712 
L 325.635205 147.64849 
L 325.707512 147.360088 
L 325.77892 147.071508 
L 325.849431 146.782749 
L 325.919043 146.493812 
L 325.987757 146.204696 
L 326.055572 145.915401 
L 326.12249 145.625927 
L 326.188509 145.336275 
L 326.25363 145.046445 
L 326.317853 144.756435 
L 326.381177 144.466247 
L 326.443604 144.17588 
L 326.505132 143.885335 
L 326.565762 143.594611 
L 326.625493 143.303708 
L 326.684327 143.012626 
L 326.742262 142.721366 
L 326.799299 142.429927 
L 326.855438 142.13831 
L 326.910678 141.846514 
L 326.965021 141.554539 
L 327.018465 141.262386 
L 327.071011 140.970054 
L 327.122659 140.677543 
L 327.173408 140.384853 
L 327.223259 140.091985 
L 327.272212 139.798938 
L 327.320267 139.505713 
L 327.367424 139.212309 
L 327.413682 138.918726 
L 327.459042 138.624965 
L 327.503504 138.331024 
L 327.547068 138.036906 
L 327.589733 137.742608 
L 327.631501 137.448132 
L 327.67237 137.153477 
L 327.71234 136.858644 
L 327.751413 136.563632 
L 327.789587 136.268441 
L 327.826864 135.973071 
L 327.863242 135.677523 
L 327.898721 135.381796 
L 327.933303 135.085891 
L 327.966986 134.789807 
L 327.999771 134.493544 
L 328.031658 134.197103 
L 328.062647 133.900482 
L 328.092737 133.603684 
L 328.121929 133.306706 
L 328.150223 133.00955 
L 328.177619 132.712215 
L 328.204116 132.414702 
L 328.229716 132.11701 
L 328.254417 131.819139 
L 328.27822 131.521089 
L 328.301124 131.222861 
L 328.323131 130.924454 
L 328.344239 130.625869 
L 328.364449 130.327105 
L 328.383761 130.028162 
L 328.402174 129.729041 
L 328.419689 129.42974 
L 328.436306 129.130262 
L 328.452025 128.830604 
L 328.466846 128.530768 
L 328.480768 128.230753 
L 328.493793 127.93056 
L 328.505919 127.630188 
L 328.517146 127.329637 
L 328.527476 127.028907 
L 328.536907 126.727999 
L 328.54544 126.426912 
L 328.553075 126.125647 
L 328.559812 125.824203 
L 328.56565 125.52258 
L 328.57059 125.220778 
L 328.574632 124.918798 
L 328.577776 124.616639 
L 328.580022 124.314302 
L 328.581369 124.011786 
L 328.581818 123.709091 
L 328.581369 123.406396 
L 328.580022 123.10388 
L 328.577776 122.801542 
L 328.574632 122.499384 
L 328.57059 122.197403 
L 328.56565 121.895602 
L 328.559812 121.593979 
L 328.553075 121.292535 
L 328.54544 120.99127 
L 328.536907 120.690183 
L 328.527476 120.389275 
L 328.517146 120.088545 
L 328.505919 119.787994 
L 328.493793 119.487622 
L 328.480768 119.187429 
L 328.466846 118.887414 
L 328.452025 118.587578 
L 328.436306 118.28792 
L 328.419689 117.988441 
L 328.402174 117.689141 
L 328.383761 117.39002 
L 328.364449 117.091077 
L 328.344239 116.792313 
L 328.323131 116.493727 
L 328.301124 116.195321 
L 328.27822 115.897092 
L 328.254417 115.599043 
L 328.229716 115.301172 
L 328.204116 115.00348 
L 328.177619 114.705967 
L 328.150223 114.408632 
L 328.121929 114.111476 
L 328.092737 113.814498 
L 328.062647 113.517699 
L 328.031658 113.221079 
L 327.999771 112.924638 
L 327.966986 112.628375 
L 327.933303 112.332291 
L 327.898721 112.036385 
L 327.863242 111.740659 
L 327.826864 111.44511 
L 327.789587 111.149741 
L 327.751413 110.85455 
L 327.71234 110.559538 
L 327.67237 110.264705 
L 327.631501 109.97005 
L 327.589733 109.675574 
L 327.547068 109.381276 
L 327.503504 109.087157 
L 327.459042 108.793217 
L 327.413682 108.499456 
L 327.367424 108.205873 
L 327.320267 107.912469 
L 327.272212 107.619243 
L 327.223259 107.326197 
L 327.173408 107.033329 
L 327.122659 106.740639 
L 327.071011 106.448128 
L 327.018465 106.155796 
L 326.965021 105.863643 
L 326.910678 105.571668 
L 326.855438 105.279872 
L 326.799299 104.988254 
L 326.742262 104.696816 
L 326.684327 104.405555 
L 326.625493 104.114474 
L 326.565762 103.823571 
L 326.505132 103.532847 
L 326.443604 103.242302 
L 326.381177 102.951935 
L 326.317853 102.661747 
L 326.25363 102.371737 
L 326.188509 102.081907 
L 326.12249 101.792254 
L 326.055572 101.502781 
L 325.987757 101.213486 
L 325.919043 100.92437 
L 325.849431 100.635433 
L 325.77892 100.346674 
L 325.707512 100.058094 
L 325.635205 99.769692 
L 325.562 99.48147 
L 325.487897 99.193425 
L 325.412895 98.90556 
L 325.336996 98.617873 
L 325.260198 98.330365 
L 325.182502 98.043036 
L 325.103907 97.755885 
L 325.024415 97.468913 
L 324.944024 97.182119 
L 324.862735 96.895505 
L 324.780548 96.609068 
L 324.697462 96.322811 
L 324.613479 96.036732 
L 324.528597 95.750832 
L 324.442817 95.465111 
L 324.356139 95.179568 
L 324.268562 94.894204 
L 324.180087 94.609018 
L 324.090714 94.324012 
L 324.000443 94.039184 
L 323.909274 93.754534 
L 323.817206 93.470063 
L 323.72424 93.185771 
L 323.630376 92.901658 
L 323.535614 92.617723 
L 323.439953 92.333967 
L 323.343395 92.05039 
L 323.245938 91.766991 
L 323.147583 91.483771 
L 323.048329 91.200729 
L 322.948178 90.917867 
L 322.847128 90.635182 
L 322.74518 90.352677 
L 322.642333 90.07035 
L 322.538589 89.788202 
L 322.433946 89.506233 
L 322.328405 89.224442 
L 322.221966 88.94283 
L 322.114629 88.661396 
L 322.006393 88.380142 
L 321.897259 88.099066 
L 321.787227 87.818168 
L 321.676297 87.537449 
L 321.564468 87.256909 
L 321.451742 86.976548 
L 321.338117 86.696365 
L 321.223594 86.416361 
L 321.108172 86.136536 
L 320.991921 85.857054 
L 320.874908 85.578081 
L 320.757134 85.299617 
L 320.638599 85.021662 
L 320.519301 84.744215 
L 320.399243 84.467278 
L 320.278423 84.190849 
L 320.156841 83.914929 
L 320.034498 83.639517 
L 319.911394 83.364615 
L 319.787528 83.090221 
L 319.6629 82.816336 
L 319.537511 82.54296 
L 319.411361 82.270093 
L 319.284449 81.997735 
L 319.156776 81.725885 
L 319.028341 81.454544 
L 318.899145 81.183712 
L 318.769187 80.913389 
L 318.638468 80.643574 
L 318.506987 80.374269 
L 318.374745 80.105472 
L 318.241741 79.837184 
L 318.107976 79.569405 
L 317.973449 79.302134 
L 317.838161 79.035372 
L 317.702112 78.76912 
L 317.565301 78.503376 
L 317.427728 78.23814 
L 317.289394 77.973414 
L 317.150299 77.709196 
L 317.010442 77.445487 
L 316.869823 77.182287 
L 316.728444 76.919596 
L 316.586302 76.657414 
L 316.443399 76.39574 
L 316.299735 76.134575 
L 316.155309 75.873919 
L 316.010122 75.613772 
L 315.864173 75.354133 
L 315.717463 75.095004 
L 315.569991 74.836383 
L 315.421758 74.578271 
L 315.272764 74.320668 
L 315.123007 74.063573 
L 314.97249 73.806988 
L 314.821211 73.550911 
L 314.66917 73.295343 
L 314.516368 73.040284 
L 314.362805 72.785733 
L 314.20848 72.531692 
L 314.053393 72.278159 
L 313.897546 72.025135 
L 313.740936 71.772619 
L 313.583565 71.520613 
L 313.425433 71.269115 
L 313.266539 71.018127 
L 313.106884 70.767647 
L 312.946467 70.517675 
L 312.785289 70.268213 
L 312.623349 70.019259 
L 312.460648 69.770815 
L 312.297185 69.522879 
L 312.132961 69.275451 
L 311.967976 69.028533 
L 311.802229 68.782123 
L 311.63572 68.536223 
L 311.46845 68.290831 
L 311.300418 68.045947 
L 311.131625 67.801573 
L 310.962071 67.557707 
L 310.791755 67.314351 
L 310.620678 67.071503 
L 310.448839 66.829163 
L 310.276238 66.587333 
L 310.102877 66.346011 
L 309.928753 66.105199 
L 309.753869 65.864895 
L 309.578222 65.625099 
L 309.401815 65.385813 
L 309.224645 65.147035 
L 309.046715 64.908767 
L 308.868023 64.671007 
L 308.688569 64.433755 
L 308.508354 64.197013 
L 308.327377 63.960779 
L 308.145639 63.725055 
L 307.96314 63.489839 
L 307.779879 63.255132 
L 307.595856 63.020933 
L 307.411072 62.787244 
L 307.225527 62.554063 
L 307.03922 62.321391 
L 306.852152 62.089228 
L 306.664322 61.857573 
L 306.47573 61.626428 
L 306.286378 61.395791 
L 306.096263 61.165663 
L 305.905388 60.936044 
L 305.71375 60.706933 
L 305.521352 60.478332 
L 305.328192 60.250239 
L 305.13427 60.022655 
L 304.939587 59.79558 
L 304.744142 59.569014 
L 304.547936 59.342956 
L 304.350969 59.117407 
L 304.15324 58.892367 
L 303.954749 58.667836 
L 303.755497 58.443814 
L 303.555484 58.2203 
L 303.354709 57.997296 
L 303.153172 57.7748 
L 302.950874 57.552813 
L 302.747815 57.331334 
L 302.543994 57.110365 
L 302.339412 56.889904 
L 302.134068 56.669952 
L 301.927963 56.450509 
L 301.721096 56.231574 
L 301.513468 56.013149 
L 301.305078 55.795232 
L 301.095927 55.577824 
L 300.886015 55.360925 
L 300.675341 55.144535 
L 300.463905 54.928653 
L 300.251708 54.713281 
L 300.038749 54.498417 
L 299.825029 54.284061 
L 299.610674 54.070341 
L 299.39581 53.857383 
L 299.180438 53.645186 
L 298.964556 53.43375 
L 298.748166 53.223076 
L 298.531267 53.013164 
L 298.313859 52.804013 
L 298.095942 52.595623 
L 297.877516 52.387995 
L 297.658582 52.181128 
L 297.439139 51.975023 
L 297.219187 51.769679 
L 296.998726 51.565097 
L 296.777757 51.361276 
L 296.556278 51.158216 
L 296.334291 50.955919 
L 296.111795 50.754382 
L 295.888791 50.553607 
L 295.665277 50.353594 
L 295.441255 50.154342 
L 295.216723 49.955851 
L 294.991684 49.758122 
L 294.766135 49.561155 
L 294.540077 49.364949 
L 294.313511 49.169504 
L 294.086436 48.974821 
L 293.858852 48.780899 
L 293.630759 48.587739 
L 293.402157 48.395341 
L 293.173047 48.203703 
L 292.943428 48.012828 
L 292.7133 47.822713 
L 292.482663 47.63336 
L 292.251518 47.444769 
L 292.019863 47.256939 
L 291.7877 47.069871 
L 291.555028 46.883564 
L 291.321847 46.698019 
L 291.088158 46.513235 
L 290.853959 46.329212 
L 290.619252 46.145951 
L 290.384036 45.963452 
L 290.148311 45.781714 
L 289.912078 45.600737 
L 289.675335 45.420522 
L 289.438084 45.241068 
L 289.200324 45.062376 
L 288.962056 44.884446 
L 288.723278 44.707276 
L 288.483992 44.530869 
L 288.244196 44.355222 
L 288.003892 44.180338 
L 287.76308 44.006214 
L 287.521758 43.832852 
L 287.279928 43.660252 
L 287.037588 43.488413 
L 286.79474 43.317336 
L 286.551384 43.14702 
L 286.307518 42.977465 
L 286.063144 42.808672 
L 285.81826 42.640641 
L 285.572868 42.473371 
L 285.326968 42.306862 
L 285.080558 42.141115 
L 284.83364 41.97613 
L 284.586212 41.811906 
L 284.338276 41.648443 
L 284.089832 41.485742 
L 283.840878 41.323802 
L 283.591416 41.162624 
L 283.341444 41.002207 
L 283.090964 40.842552 
L 282.839975 40.683658 
L 282.588478 40.525526 
L 282.336471 40.368155 
L 282.083956 40.211545 
L 281.830932 40.055697 
L 281.577399 39.900611 
L 281.323358 39.746286 
L 281.068807 39.592723 
L 280.813748 39.439921 
L 280.55818 39.28788 
L 280.302103 39.136601 
L 280.045518 38.986083 
L 279.788423 38.836327 
L 279.53082 38.687333 
L 279.272708 38.5391 
L 279.014087 38.391628 
L 278.754958 38.244918 
L 278.495319 38.098969 
L 278.235172 37.953782 
L 277.974516 37.809356 
L 277.713351 37.665692 
L 277.451677 37.522789 
L 277.189495 37.380647 
L 276.926804 37.239267 
L 276.663604 37.098649 
L 276.399895 36.958792 
L 276.135677 36.819697 
L 275.870951 36.681363 
L 275.605715 36.54379 
L 275.339971 36.406979 
L 275.073719 36.27093 
L 274.806957 36.135641 
L 274.539686 36.001115 
L 274.271907 35.86735 
L 274.003619 35.734346 
L 273.734822 35.602104 
L 273.465517 35.470623 
L 273.195702 35.339904 
L 272.925379 35.209946 
L 272.654547 35.08075 
L 272.383206 34.952315 
L 272.111356 34.824642 
L 271.838998 34.69773 
L 271.566131 34.571579 
L 271.292754 34.446191 
L 271.01887 34.321563 
L 270.744476 34.197697 
L 270.469573 34.074593 
L 270.194162 33.95225 
L 269.918242 33.830668 
L 269.641813 33.709848 
L 269.364876 33.589789 
L 269.087429 33.470492 
L 268.809474 33.351957 
L 268.53101 33.234183 
L 268.252037 33.11717 
L 267.972555 33.000919 
L 267.69273 32.885497 
L 267.412726 32.770974 
L 267.132543 32.657349 
L 266.852182 32.544622 
L 266.571641 32.432794 
L 266.290923 32.321864 
L 266.010025 32.211832 
L 265.728949 32.102698 
L 265.447694 31.994462 
L 265.166261 31.887125 
L 264.884649 31.780686 
L 264.602858 31.675145 
L 264.320889 31.570502 
L 264.038741 31.466758 
L 263.756414 31.363911 
L 263.473908 31.261963 
L 263.191224 31.160913 
L 262.908362 31.060762 
L 262.62532 30.961508 
L 262.3421 30.863153 
L 262.058701 30.765696 
L 261.775124 30.669138 
L 261.491368 30.573477 
L 261.207433 30.478715 
L 260.92332 30.384851 
L 260.639028 30.291885 
L 260.354557 30.199817 
L 260.069907 30.108648 
L 259.785079 30.018377 
L 259.500072 29.929004 
L 259.214887 29.840529 
L 258.929523 29.752952 
L 258.64398 29.666274 
L 258.358259 29.580494 
L 258.072359 29.495612 
L 257.78628 29.411628 
L 257.500022 29.328543 
L 257.213586 29.246356 
L 256.926972 29.165067 
L 256.640178 29.084676 
L 256.353206 29.005184 
L 256.066055 28.926589 
L 255.778726 28.848893 
L 255.491218 28.772095 
L 255.203531 28.696196 
L 254.915665 28.621194 
L 254.627621 28.547091 
L 254.339399 28.473886 
L 254.050997 28.401579 
L 253.762417 28.330171 
L 253.473658 28.25966 
L 253.184721 28.190048 
L 252.895605 28.121334 
L 252.60631 28.053519 
L 252.316836 27.986601 
L 252.027184 27.920582 
L 251.737354 27.855461 
L 251.447344 27.791238 
L 251.157156 27.727914 
L 250.866789 27.665487 
L 250.576244 27.603959 
L 250.28552 27.543329 
L 249.994617 27.483598 
L 249.703535 27.424764 
L 249.412275 27.366829 
L 249.120837 27.309792 
L 248.829219 27.253653 
L 248.537423 27.198412 
L 248.245448 27.14407 
L 247.953295 27.090626 
L 247.660963 27.03808 
L 247.368452 26.986432 
L 247.075762 26.935683 
L 246.782894 26.885832 
L 246.489847 26.836879 
L 246.196622 26.788824 
L 245.903218 26.741667 
L 245.609635 26.695409 
L 245.315874 26.650049 
L 245.021934 26.605587 
L 244.727815 26.562023 
L 244.433517 26.519358 
L 244.139041 26.47759 
L 243.844386 26.436721 
L 243.549553 26.39675 
L 243.254541 26.357678 
L 242.95935 26.319503 
L 242.66398 26.282227 
L 242.368432 26.245849 
L 242.072706 26.21037 
L 241.7768 26.175788 
L 241.480716 26.142105 
L 241.184453 26.10932 
L 240.888012 26.077433 
L 240.591392 26.046444 
L 240.294593 26.016354 
L 239.997615 25.987162 
L 239.700459 25.958868 
L 239.403124 25.931472 
L 239.105611 25.904975 
L 238.807919 25.879375 
L 238.510048 25.854674 
L 238.211998 25.830871 
L 237.91377 25.807967 
L 237.615364 25.78596 
L 237.316778 25.764852 
L 237.018014 25.744642 
L 236.719071 25.72533 
L 236.41995 25.706917 
L 236.120649 25.689402 
L 235.821171 25.672784 
L 235.521513 25.657066 
L 235.221677 25.642245 
L 234.921662 25.628323 
L 234.621469 25.615298 
L 234.321097 25.603172 
L 234.020546 25.591945 
L 233.719816 25.581615 
L 233.418908 25.572184 
L 233.117821 25.563651 
L 232.816556 25.556016 
L 232.515112 25.549279 
L 232.213489 25.543441 
L 231.911687 25.5385 
L 231.609707 25.534458 
L 231.307548 25.531315 
L 231.005211 25.529069 
L 230.702695 25.527722 
z
" clip-path="url(#p93963e6d91)" style="fill: #00ffff; opacity: 0.5; stroke: #00ffff; stroke-linejoin: miter"/>
   </g>
   <g id="patch_4">
    <path d="M 426.763636 123.709091 
L 425.241438 123.709091 
L 423.719239 123.709091 
L 422.19704 123.709091 
L 420.674841 123.709091 
L 419.152643 123.709091 
L 417.630444 123.709091 
L 416.108245 123.709091 
L 414.586047 123.709091 
L 413.063848 123.709091 
L 411.541649 123.709091 
L 410.01945 123.709091 
L 408.497252 123.709091 
L 406.975053 123.709091 
L 405.452854 123.709091 
L 403.930655 123.709091 
L 402.408457 123.709091 
L 400.886258 123.709091 
L 399.364059 123.709091 
L 397.84186 123.709091 
L 396.319662 123.709091 
L 394.797463 123.709091 
L 393.275264 123.709091 
L 391.753066 123.709091 
L 390.230867 123.709091 
L 388.708668 123.709091 
L 387.186469 123.709091 
L 385.664271 123.709091 
L 384.142072 123.709091 
L 382.619873 123.709091 
L 381.097674 123.709091 
L 379.575476 123.709091 
L 378.053277 123.709091 
L 376.531078 123.709091 
L 375.008879 123.709091 
L 373.486681 123.709091 
L 371.964482 123.709091 
L 370.442283 123.709091 
L 368.920085 123.709091 
L 367.397886 123.709091 
L 365.875687 123.709091 
L 364.353488 123.709091 
L 362.83129 123.709091 
L 361.309091 123.709091 
L 359.786892 123.709091 
L 358.264693 123.709091 
L 356.742495 123.709091 
L 355.220296 123.709091 
L 353.698097 123.709091 
L 352.175899 123.709091 
L 350.6537 123.709091 
L 349.131501 123.709091 
L 347.609302 123.709091 
L 346.087104 123.709091 
L 344.564905 123.709091 
L 343.042706 123.709091 
L 341.520507 123.709091 
L 339.998309 123.709091 
L 338.47611 123.709091 
L 336.953911 123.709091 
L 335.431712 123.709091 
L 333.909514 123.709091 
L 332.387315 123.709091 
L 330.865116 123.709091 
L 329.342918 123.709091 
L 327.820719 123.709091 
L 326.29852 123.709091 
L 324.776321 123.709091 
L 323.254123 123.709091 
L 321.731924 123.709091 
L 320.209725 123.709091 
L 318.687526 123.709091 
L 317.165328 123.709091 
L 315.643129 123.709091 
L 314.12093 123.709091 
L 312.598732 123.709091 
L 311.076533 123.709091 
L 309.554334 123.709091 
L 308.032135 123.709091 
L 306.509937 123.709091 
L 304.987738 123.709091 
L 303.465539 123.709091 
L 301.94334 123.709091 
L 300.421142 123.709091 
L 298.898943 123.709091 
L 297.376744 123.709091 
L 295.854545 123.709091 
L 294.332347 123.709091 
L 292.810148 123.709091 
L 291.287949 123.709091 
L 289.765751 123.709091 
L 288.243552 123.709091 
L 286.721353 123.709091 
L 285.199154 123.709091 
L 283.676956 123.709091 
L 282.154757 123.709091 
L 280.632558 123.709091 
L 279.110359 123.709091 
L 277.588161 123.709091 
L 276.065962 123.709091 
L 274.543763 123.709091 
L 273.021564 123.709091 
L 271.499366 123.709091 
L 269.977167 123.709091 
L 268.454968 123.709091 
L 266.93277 123.709091 
L 265.410571 123.709091 
L 263.888372 123.709091 
L 262.366173 123.709091 
L 260.843975 123.709091 
L 259.321776 123.709091 
L 257.799577 123.709091 
L 256.277378 123.709091 
L 254.75518 123.709091 
L 253.232981 123.709091 
L 251.710782 123.709091 
L 250.188584 123.709091 
L 248.666385 123.709091 
L 247.144186 123.709091 
L 245.621987 123.709091 
L 244.099789 123.709091 
L 242.57759 123.709091 
L 241.055391 123.709091 
L 239.533192 123.709091 
L 238.010994 123.709091 
L 236.488795 123.709091 
L 234.966596 123.709091 
L 233.444397 123.709091 
L 231.922199 123.709091 
L 230.4 123.709091 
L 230.097305 123.70954 
L 229.794789 123.710887 
L 229.492452 123.713133 
L 229.190293 123.716277 
L 228.888313 123.720319 
L 228.586511 123.725259 
L 228.284888 123.731097 
L 227.983444 123.737834 
L 227.682179 123.745469 
L 227.381092 123.754002 
L 227.080184 123.763433 
L 226.779454 123.773763 
L 226.478903 123.784991 
L 226.178531 123.797117 
L 225.878338 123.810141 
L 225.578323 123.824063 
L 225.278487 123.838884 
L 224.978829 123.854603 
L 224.679351 123.87122 
L 224.38005 123.888735 
L 224.080929 123.907149 
L 223.781986 123.92646 
L 223.483222 123.94667 
L 223.184636 123.967778 
L 222.88623 123.989785 
L 222.588002 124.01269 
L 222.289952 124.036492 
L 221.992081 124.061193 
L 221.694389 124.086793 
L 221.396876 124.11329 
L 221.099541 124.140686 
L 220.802385 124.16898 
L 220.505407 124.198172 
L 220.208608 124.228263 
L 219.911988 124.259251 
L 219.615547 124.291138 
L 219.319284 124.323923 
L 219.0232 124.357606 
L 218.727294 124.392188 
L 218.431568 124.427668 
L 218.13602 124.464045 
L 217.84065 124.501322 
L 217.545459 124.539496 
L 217.250447 124.578569 
L 216.955614 124.618539 
L 216.660959 124.659408 
L 216.366483 124.701176 
L 216.072185 124.743841 
L 215.778066 124.787405 
L 215.484126 124.831867 
L 215.190365 124.877227 
L 214.896782 124.923485 
L 214.603378 124.970642 
L 214.310153 125.018697 
L 214.017106 125.06765 
L 213.724238 125.117501 
L 213.431548 125.168251 
L 213.139037 125.219898 
L 212.846705 125.272444 
L 212.554552 125.325888 
L 212.262577 125.380231 
L 211.970781 125.435471 
L 211.679163 125.49161 
L 211.387725 125.548647 
L 211.096465 125.606582 
L 210.805383 125.665416 
L 210.51448 125.725147 
L 210.223756 125.785777 
L 209.933211 125.847305 
L 209.642844 125.909732 
L 209.352656 125.973056 
L 209.062646 126.037279 
L 208.772816 126.1024 
L 208.483164 126.168419 
L 208.19369 126.235337 
L 207.904395 126.303152 
L 207.615279 126.371866 
L 207.326342 126.441478 
L 207.037583 126.511989 
L 206.749003 126.583397 
L 206.460601 126.655704 
L 206.172379 126.728909 
L 205.884335 126.803012 
L 205.596469 126.878014 
L 205.308782 126.953913 
L 205.021274 127.030711 
L 204.733945 127.108407 
L 204.446794 127.187002 
L 204.159822 127.266494 
L 203.873028 127.346885 
L 203.586414 127.428174 
L 203.299978 127.510361 
L 203.01372 127.593447 
L 202.727641 127.67743 
L 202.441741 127.762312 
L 202.15602 127.848092 
L 201.870477 127.934771 
L 201.585113 128.022347 
L 201.299928 128.110822 
L 201.014921 128.200195 
L 200.730093 128.290466 
L 200.445443 128.381635 
L 200.160972 128.473703 
L 199.87668 128.566669 
L 199.592567 128.660533 
L 199.308632 128.755295 
L 199.024876 128.850956 
L 198.741299 128.947514 
L 198.4579 129.044971 
L 198.17468 129.143327 
L 197.891638 129.24258 
L 197.608776 129.342732 
L 197.326092 129.443781 
L 197.043586 129.545729 
L 196.761259 129.648576 
L 196.479111 129.75232 
L 196.197142 129.856963 
L 195.915351 129.962504 
L 195.633739 130.068943 
L 195.352306 130.17628 
L 195.071051 130.284516 
L 194.789975 130.39365 
L 194.509077 130.503682 
L 194.228359 130.614612 
L 193.947818 130.726441 
L 193.667457 130.839167 
L 193.387274 130.952792 
L 193.10727 131.067315 
L 192.827445 131.182737 
L 192.547963 131.298988 
L 192.26899 131.416001 
L 191.990526 131.533775 
L 191.712571 131.652311 
L 191.435124 131.771608 
L 191.158187 131.891666 
L 190.881758 132.012486 
L 190.605838 132.134068 
L 190.330427 132.256411 
L 190.055524 132.379515 
L 189.78113 132.503381 
L 189.507246 132.628009 
L 189.233869 132.753398 
L 188.961002 132.879548 
L 188.688644 133.00646 
L 188.416794 133.134133 
L 188.145453 133.262568 
L 187.874621 133.391764 
L 187.604298 133.521722 
L 187.334483 133.652441 
L 187.065178 133.783922 
L 186.796381 133.916164 
L 186.528093 134.049168 
L 186.260314 134.182933 
L 185.993043 134.31746 
L 185.726281 134.452748 
L 185.460029 134.588797 
L 185.194285 134.725608 
L 184.929049 134.863181 
L 184.664323 135.001515 
L 184.400105 135.14061 
L 184.136396 135.280467 
L 183.873196 135.421086 
L 183.610505 135.562466 
L 183.348323 135.704607 
L 183.086649 135.84751 
L 182.825484 135.991174 
L 182.564828 136.1356 
L 182.304681 136.280787 
L 182.045042 136.426736 
L 181.785913 136.573446 
L 181.527292 136.720918 
L 181.26918 136.869151 
L 181.011577 137.018145 
L 180.754482 137.167902 
L 180.497897 137.318419 
L 180.24182 137.469698 
L 179.986252 137.621739 
L 179.731193 137.774541 
L 179.476642 137.928104 
L 179.222601 138.082429 
L 178.969068 138.237516 
L 178.716044 138.393364 
L 178.463529 138.549973 
L 178.211522 138.707344 
L 177.960025 138.865476 
L 177.709036 139.02437 
L 177.458556 139.184025 
L 177.208584 139.344442 
L 176.959122 139.50562 
L 176.710168 139.66756 
L 176.461724 139.830261 
L 176.213788 139.993724 
L 175.96636 140.157948 
L 175.719442 140.322933 
L 175.473032 140.488681 
L 175.227132 140.655189 
L 174.98174 140.822459 
L 174.736856 140.990491 
L 174.492482 141.159284 
L 174.248616 141.328838 
L 174.00526 141.499154 
L 173.762412 141.670231 
L 173.520072 141.84207 
L 173.278242 142.014671 
L 173.03692 142.188032 
L 172.796108 142.362156 
L 172.555804 142.537041 
L 172.316008 142.712687 
L 172.076722 142.889094 
L 171.837944 143.066264 
L 171.599676 143.244194 
L 171.361916 143.422887 
L 171.124665 143.60234 
L 170.887922 143.782555 
L 170.651689 143.963532 
L 170.415964 144.14527 
L 170.180748 144.327769 
L 169.946041 144.51103 
L 169.711842 144.695053 
L 169.478153 144.879837 
L 169.244972 145.065382 
L 169.0123 145.251689 
L 168.780137 145.438757 
L 168.548482 145.626587 
L 168.317337 145.815179 
L 168.0867 146.004531 
L 167.856572 146.194646 
L 167.626953 146.385521 
L 167.397843 146.577159 
L 167.169241 146.769557 
L 166.941148 146.962718 
L 166.713564 147.156639 
L 166.486489 147.351322 
L 166.259923 147.546767 
L 166.033865 147.742973 
L 165.808316 147.939941 
L 165.583277 148.13767 
L 165.358745 148.33616 
L 165.134723 148.535412 
L 164.911209 148.735425 
L 164.688205 148.9362 
L 164.465709 149.137737 
L 164.243722 149.340035 
L 164.022243 149.543094 
L 163.801274 149.746915 
L 163.580813 149.951497 
L 163.360861 150.156841 
L 163.141418 150.362946 
L 162.922484 150.569813 
L 162.704058 150.777441 
L 162.486141 150.985831 
L 162.268733 151.194982 
L 162.051834 151.404894 
L 161.835444 151.615569 
L 161.619562 151.827004 
L 161.40419 152.039201 
L 161.189326 152.25216 
L 160.974971 152.46588 
L 160.761251 152.680235 
L 160.548292 152.895099 
L 160.336095 153.110471 
L 160.124659 153.326353 
L 159.913985 153.542743 
L 159.704073 153.759642 
L 159.494922 153.97705 
L 159.286532 154.194967 
L 159.078904 154.413393 
L 158.872037 154.632327 
L 158.665932 154.85177 
L 158.460588 155.071722 
L 158.256006 155.292183 
L 158.052185 155.513152 
L 157.849126 155.734631 
L 157.646828 155.956618 
L 157.445291 156.179114 
L 157.244516 156.402119 
L 157.044503 156.625632 
L 156.845251 156.849654 
L 156.64676 157.074186 
L 156.449031 157.299226 
L 156.252064 157.524774 
L 156.055858 157.750832 
L 155.860413 157.977398 
L 155.66573 158.204473 
L 155.471808 158.432057 
L 155.278648 158.66015 
L 155.08625 158.888752 
L 154.894612 159.117862 
L 154.703737 159.347481 
L 154.513622 159.577609 
L 154.32427 159.808246 
L 154.135678 160.039392 
L 153.947848 160.271046 
L 153.76078 160.503209 
L 153.574473 160.735881 
L 153.388928 160.969062 
L 153.204144 161.202751 
L 153.020121 161.43695 
L 152.83686 161.671657 
L 152.654361 161.906873 
L 152.472623 162.142598 
L 152.291646 162.378831 
L 152.111431 162.615574 
L 151.931977 162.852825 
L 151.753285 163.090585 
L 151.575355 163.328854 
L 151.398185 163.567631 
L 151.221778 163.806918 
L 151.046131 164.046713 
L 150.871247 164.287017 
L 150.697123 164.52783 
L 150.523762 164.769151 
L 150.351161 165.010982 
L 150.179322 165.253321 
L 150.008245 165.496169 
L 149.837929 165.739525 
L 149.668375 165.983391 
L 149.499582 166.227765 
L 149.33155 166.472649 
L 149.16428 166.718041 
L 148.997771 166.963942 
L 148.832024 167.210351 
L 148.667039 167.45727 
L 148.502815 167.704697 
L 148.339352 167.952633 
L 148.176651 168.201078 
L 148.014711 168.450031 
L 147.853533 168.699494 
L 147.693116 168.949465 
L 147.533461 169.199945 
L 147.374567 169.450934 
L 147.216435 169.702431 
L 147.059064 169.954438 
L 146.902454 170.206953 
L 146.746607 170.459977 
L 146.59152 170.71351 
L 146.437195 170.967551 
L 146.283632 171.222102 
L 146.13083 171.477161 
L 145.978789 171.732729 
L 145.82751 171.988806 
L 145.676993 172.245391 
L 145.527236 172.502486 
L 145.378242 172.760089 
L 145.230009 173.018201 
L 145.082537 173.276822 
L 144.935827 173.535952 
L 144.789878 173.79559 
L 144.644691 174.055737 
L 144.500265 174.316393 
L 144.356601 174.577558 
L 144.213698 174.839232 
L 144.071556 175.101414 
L 143.930177 175.364105 
L 143.789558 175.627306 
L 143.649701 175.891014 
L 143.510606 176.155232 
L 143.372272 176.419958 
L 143.234699 176.685194 
L 143.097888 176.950938 
L 142.961839 177.217191 
L 142.826551 177.483952 
L 142.692024 177.751223 
L 142.558259 178.019002 
L 142.425255 178.28729 
L 142.293013 178.556087 
L 142.161532 178.825393 
L 142.030813 179.095207 
L 141.900855 179.36553 
L 141.771659 179.636362 
L 141.643224 179.907703 
L 141.515551 180.179553 
L 141.388639 180.451911 
L 141.262489 180.724779 
L 141.1371 180.998155 
L 141.012472 181.272039 
L 140.888606 181.546433 
L 140.765502 181.821336 
L 140.643159 182.096747 
L 140.521577 182.372667 
L 140.400757 182.649096 
L 140.280699 182.926034 
L 140.161401 183.20348 
L 140.042866 183.481435 
L 139.925092 183.759899 
L 139.808079 184.038872 
L 139.691828 184.318354 
L 139.576406 184.598179 
L 139.461883 184.878183 
L 139.348258 185.158366 
L 139.235532 185.438728 
L 139.123703 185.719268 
L 139.012773 185.999986 
L 138.902741 186.280884 
L 138.793607 186.56196 
L 138.685371 186.843215 
L 138.578034 187.124648 
L 138.471595 187.40626 
L 138.366054 187.688051 
L 138.261411 187.97002 
L 138.157667 188.252168 
L 138.05482 188.534495 
L 137.952872 188.817001 
L 137.851822 189.099685 
L 137.751671 189.382547 
L 137.652417 189.665589 
L 137.554062 189.948809 
L 137.456605 190.232208 
L 137.360047 190.515785 
L 137.264386 190.799541 
L 137.169624 191.083476 
L 137.07576 191.367589 
L 136.982794 191.651882 
L 136.890726 191.936352 
L 136.799557 192.221002 
L 136.709286 192.50583 
L 136.619913 192.790837 
L 136.531438 193.076022 
L 136.443861 193.361386 
L 136.357183 193.646929 
L 136.271403 193.93265 
L 136.186521 194.21855 
L 136.102538 194.504629 
L 136.019452 194.790887 
L 135.937265 195.077323 
L 135.855976 195.363938 
L 135.775585 195.650731 
L 135.696093 195.937703 
L 135.617498 196.224854 
L 135.539802 196.512183 
L 135.463004 196.799691 
L 135.387105 197.087378 
L 135.312103 197.375244 
L 135.238 197.663288 
L 135.164795 197.95151 
L 135.092488 198.239912 
L 135.02108 198.528492 
L 134.950569 198.817251 
L 134.880957 199.106188 
L 134.812243 199.395304 
L 134.744428 199.684599 
L 134.67751 199.974073 
L 134.611491 200.263725 
L 134.54637 200.553555 
L 134.482147 200.843565 
L 134.418823 201.133753 
L 134.356396 201.42412 
L 134.294868 201.714665 
L 134.234238 202.005389 
L 134.174507 202.296292 
L 134.115673 202.587374 
L 134.057738 202.878634 
L 134.000701 203.170073 
L 133.944562 203.46169 
L 133.889322 203.753486 
L 133.834979 204.045461 
L 133.781535 204.337614 
L 133.728989 204.629946 
L 133.677341 204.922457 
L 133.626592 205.215147 
L 133.576741 205.508015 
L 133.527788 205.801062 
L 133.479733 206.094287 
L 133.432576 206.387691 
L 133.386318 206.681274 
L 133.340958 206.975035 
L 133.296496 207.268976 
L 133.252932 207.563094 
L 133.210267 207.857392 
L 133.168499 208.151868 
L 133.12763 208.446523 
L 133.08766 208.741356 
L 133.048587 209.036368 
L 133.010413 209.331559 
L 132.973136 209.626929 
L 132.936758 209.922477 
L 132.901279 210.218204 
L 132.866697 210.514109 
L 132.833014 210.810193 
L 132.800229 211.106456 
L 132.768342 211.402897 
L 132.737353 211.699518 
L 132.707263 211.996316 
L 132.678071 212.293294 
L 132.649777 212.59045 
L 132.622381 212.887785 
L 132.595884 213.185298 
L 132.570284 213.48299 
L 132.545583 213.780861 
L 132.52178 214.078911 
L 132.498876 214.377139 
L 132.476869 214.675546 
L 132.455761 214.974131 
L 132.435551 215.272895 
L 132.416239 215.571838 
L 132.397826 215.870959 
L 132.380311 216.17026 
L 132.363694 216.469738 
L 132.347975 216.769396 
L 132.333154 217.069232 
L 132.319232 217.369247 
L 132.306207 217.66944 
L 132.294081 217.969812 
L 132.282854 218.270363 
L 132.272524 218.571093 
L 132.263093 218.872001 
L 132.25456 219.173088 
L 132.246925 219.474353 
L 132.240188 219.775797 
L 132.23435 220.07742 
L 132.22941 220.379222 
L 132.225368 220.681202 
L 132.222224 220.983361 
L 132.219978 221.285698 
L 132.218631 221.588214 
L 132.218182 221.890909 
L 132.218631 222.193604 
L 132.219978 222.49612 
L 132.222224 222.798458 
L 132.225368 223.100616 
L 132.22941 223.402597 
L 132.23435 223.704398 
L 132.240188 224.006021 
L 132.246925 224.307465 
L 132.25456 224.60873 
L 132.263093 224.909817 
L 132.272524 225.210725 
L 132.282854 225.511455 
L 132.294081 225.812006 
L 132.306207 226.112378 
L 132.319232 226.412571 
L 132.333154 226.712586 
L 132.347975 227.012422 
L 132.363694 227.31208 
L 132.380311 227.611559 
L 132.397826 227.910859 
L 132.416239 228.20998 
L 132.435551 228.508923 
L 132.455761 228.807687 
L 132.476869 229.106273 
L 132.498876 229.404679 
L 132.52178 229.702908 
L 132.545583 230.000957 
L 132.570284 230.298828 
L 132.595884 230.59652 
L 132.622381 230.894033 
L 132.649777 231.191368 
L 132.678071 231.488524 
L 132.707263 231.785502 
L 132.737353 232.082301 
L 132.768342 232.378921 
L 132.800229 232.675362 
L 132.833014 232.971625 
L 132.866697 233.267709 
L 132.901279 233.563615 
L 132.936758 233.859341 
L 132.973136 234.15489 
L 133.010413 234.450259 
L 133.048587 234.74545 
L 133.08766 235.040462 
L 133.12763 235.335295 
L 133.168499 235.62995 
L 133.210267 235.924426 
L 133.252932 236.218724 
L 133.296496 236.512843 
L 133.340958 236.806783 
L 133.386318 237.100544 
L 133.432576 237.394127 
L 133.479733 237.687531 
L 133.527788 237.980757 
L 133.576741 238.273803 
L 133.626592 238.566671 
L 133.677341 238.859361 
L 133.728989 239.151872 
L 133.781535 239.444204 
L 133.834979 239.736357 
L 133.889322 240.028332 
L 133.944562 240.320128 
L 134.000701 240.611746 
L 134.057738 240.903184 
L 134.115673 241.194445 
L 134.174507 241.485526 
L 134.234238 241.776429 
L 134.294868 242.067153 
L 134.356396 242.357698 
L 134.418823 242.648065 
L 134.482147 242.938253 
L 134.54637 243.228263 
L 134.611491 243.518093 
L 134.67751 243.807746 
L 134.744428 244.097219 
L 134.812243 244.386514 
L 134.880957 244.67563 
L 134.950569 244.964567 
L 135.02108 245.253326 
L 135.092488 245.541906 
L 135.164795 245.830308 
L 135.238 246.11853 
L 135.312103 246.406575 
L 135.387105 246.69444 
L 135.463004 246.982127 
L 135.539802 247.269635 
L 135.617498 247.556964 
L 135.696093 247.844115 
L 135.775585 248.131087 
L 135.855976 248.417881 
L 135.937265 248.704495 
L 136.019452 248.990932 
L 136.102538 249.277189 
L 136.186521 249.563268 
L 136.271403 249.849168 
L 136.357183 250.134889 
L 136.443861 250.420432 
L 136.531438 250.705796 
L 136.619913 250.990982 
L 136.709286 251.275988 
L 136.799557 251.560816 
L 136.890726 251.845466 
L 136.982794 252.129937 
L 137.07576 252.414229 
L 137.169624 252.698342 
L 137.264386 252.982277 
L 137.360047 253.266033 
L 137.456605 253.54961 
L 137.554062 253.833009 
L 137.652417 254.116229 
L 137.751671 254.399271 
L 137.851822 254.682133 
L 137.952872 254.964818 
L 138.05482 255.247323 
L 138.157667 255.52965 
L 138.261411 255.811798 
L 138.366054 256.093767 
L 138.471595 256.375558 
L 138.578034 256.65717 
L 138.685371 256.938604 
L 138.793607 257.219858 
L 138.902741 257.500934 
L 139.012773 257.781832 
L 139.123703 258.062551 
L 139.235532 258.343091 
L 139.348258 258.623452 
L 139.461883 258.903635 
L 139.576406 259.183639 
L 139.691828 259.463464 
L 139.808079 259.742946 
L 139.925092 260.021919 
L 140.042866 260.300383 
L 140.161401 260.578338 
L 140.280699 260.855785 
L 140.400757 261.132722 
L 140.521577 261.409151 
L 140.643159 261.685071 
L 140.765502 261.960483 
L 140.888606 262.235385 
L 141.012472 262.509779 
L 141.1371 262.783664 
L 141.262489 263.05704 
L 141.388639 263.329907 
L 141.515551 263.602265 
L 141.643224 263.874115 
L 141.771659 264.145456 
L 141.900855 264.416288 
L 142.030813 264.686611 
L 142.161532 264.956426 
L 142.293013 265.225731 
L 142.425255 265.494528 
L 142.558259 265.762816 
L 142.692024 266.030595 
L 142.826551 266.297866 
L 142.961839 266.564628 
L 143.097888 266.83088 
L 143.234699 267.096624 
L 143.372272 267.36186 
L 143.510606 267.626586 
L 143.649701 267.890804 
L 143.789558 268.154513 
L 143.930177 268.417713 
L 144.071556 268.680404 
L 144.213698 268.942586 
L 144.356601 269.20426 
L 144.500265 269.465425 
L 144.644691 269.726081 
L 144.789878 269.986228 
L 144.935827 270.245867 
L 145.082537 270.504996 
L 145.230009 270.763617 
L 145.378242 271.021729 
L 145.527236 271.279332 
L 145.676993 271.536427 
L 145.82751 271.793012 
L 145.978789 272.049089 
L 146.13083 272.304657 
L 146.283632 272.559716 
L 146.437195 272.814267 
L 146.59152 273.068308 
L 146.746607 273.321841 
L 146.902454 273.574865 
L 147.059064 273.827381 
L 147.216435 274.079387 
L 147.374567 274.330885 
L 147.533461 274.581873 
L 147.693116 274.832353 
L 147.853533 275.082325 
L 148.014711 275.331787 
L 148.176651 275.580741 
L 148.339352 275.829185 
L 148.502815 276.077121 
L 148.667039 276.324549 
L 148.832024 276.571467 
L 148.997771 276.817877 
L 149.16428 277.063777 
L 149.33155 277.309169 
L 149.499582 277.554053 
L 149.668375 277.798427 
L 149.837929 278.042293 
L 150.008245 278.285649 
L 150.179322 278.528497 
L 150.351161 278.770837 
L 150.523762 279.012667 
L 150.697123 279.253989 
L 150.871247 279.494801 
L 151.046131 279.735105 
L 151.221778 279.974901 
L 151.398185 280.214187 
L 151.575355 280.452965 
L 151.753285 280.691233 
L 151.931977 280.928993 
L 152.111431 281.166245 
L 152.291646 281.402987 
L 152.472623 281.639221 
L 152.654361 281.874945 
L 152.83686 282.110161 
L 153.020121 282.344868 
L 153.204144 282.579067 
L 153.388928 282.812756 
L 153.574473 283.045937 
L 153.76078 283.278609 
L 153.947848 283.510772 
L 154.135678 283.742427 
L 154.32427 283.973572 
L 154.513622 284.204209 
L 154.703737 284.434337 
L 154.894612 284.663956 
L 155.08625 284.893067 
L 155.278648 285.121668 
L 155.471808 285.349761 
L 155.66573 285.577345 
L 155.860413 285.80442 
L 156.055858 286.030986 
L 156.252064 286.257044 
L 156.449031 286.482593 
L 156.64676 286.707633 
L 156.845251 286.932164 
L 157.044503 287.156186 
L 157.244516 287.3797 
L 157.445291 287.602704 
L 157.646828 287.8252 
L 157.849126 288.047187 
L 158.052185 288.268666 
L 158.256006 288.489635 
L 158.460588 288.710096 
L 158.665932 288.930048 
L 158.872037 289.149491 
L 159.078904 289.368426 
L 159.286532 289.586851 
L 159.494922 289.804768 
L 159.704073 290.022176 
L 159.913985 290.239075 
L 160.124659 290.455465 
L 160.336095 290.671347 
L 160.548292 290.886719 
L 160.761251 291.101583 
L 160.974971 291.315939 
L 161.189326 291.529659 
L 161.40419 291.742617 
L 161.619562 291.954814 
L 161.835444 292.16625 
L 162.051834 292.376924 
L 162.268733 292.586836 
L 162.486141 292.795987 
L 162.704058 293.004377 
L 162.922484 293.212005 
L 163.141418 293.418872 
L 163.360861 293.624977 
L 163.580813 293.830321 
L 163.801274 294.034903 
L 164.022243 294.238724 
L 164.243722 294.441784 
L 164.465709 294.644081 
L 164.688205 294.845618 
L 164.911209 295.046393 
L 165.134723 295.246406 
L 165.358745 295.445658 
L 165.583277 295.644149 
L 165.808316 295.841878 
L 166.033865 296.038845 
L 166.259923 296.235051 
L 166.486489 296.430496 
L 166.713564 296.625179 
L 166.941148 296.819101 
L 167.169241 297.012261 
L 167.397843 297.204659 
L 167.626953 297.396297 
L 167.856572 297.587172 
L 168.0867 297.777287 
L 168.317337 297.96664 
L 168.548482 298.155231 
L 168.780137 298.343061 
L 169.0123 298.530129 
L 169.244972 298.716436 
L 169.478153 298.901981 
L 169.711842 299.086765 
L 169.946041 299.270788 
L 170.180748 299.454049 
L 170.415964 299.636548 
L 170.651689 299.818286 
L 170.887922 299.999263 
L 171.124665 300.179478 
L 171.361916 300.358932 
L 171.599676 300.537624 
L 171.837944 300.715554 
L 172.076722 300.892724 
L 172.316008 301.069131 
L 172.555804 301.244778 
L 172.796108 301.419662 
L 173.03692 301.593786 
L 173.278242 301.767148 
L 173.520072 301.939748 
L 173.762412 302.111587 
L 174.00526 302.282664 
L 174.248616 302.45298 
L 174.492482 302.622535 
L 174.736856 302.791328 
L 174.98174 302.959359 
L 175.227132 303.126629 
L 175.473032 303.293138 
L 175.719442 303.458885 
L 175.96636 303.62387 
L 176.213788 303.788094 
L 176.461724 303.951557 
L 176.710168 304.114258 
L 176.959122 304.276198 
L 177.208584 304.437376 
L 177.458556 304.597793 
L 177.709036 304.757448 
L 177.960025 304.916342 
L 178.211522 305.074474 
L 178.463529 305.231845 
L 178.716044 305.388455 
L 178.969068 305.544303 
L 179.222601 305.699389 
L 179.476642 305.853714 
L 179.731193 306.007277 
L 179.986252 306.160079 
L 180.24182 306.31212 
L 180.497897 306.463399 
L 180.754482 306.613917 
L 181.011577 306.763673 
L 181.26918 306.912667 
L 181.527292 307.0609 
L 181.785913 307.208372 
L 182.045042 307.355082 
L 182.304681 307.501031 
L 182.564828 307.646218 
L 182.825484 307.790644 
L 183.086649 307.934308 
L 183.348323 308.077211 
L 183.610505 308.219353 
L 183.873196 308.360733 
L 184.136396 308.501351 
L 184.400105 308.641208 
L 184.664323 308.780303 
L 184.929049 308.918637 
L 185.194285 309.05621 
L 185.460029 309.193021 
L 185.726281 309.32907 
L 185.993043 309.464359 
L 186.260314 309.598885 
L 186.528093 309.73265 
L 186.796381 309.865654 
L 187.065178 309.997896 
L 187.334483 310.129377 
L 187.604298 310.260096 
L 187.874621 310.390054 
L 188.145453 310.51925 
L 188.416794 310.647685 
L 188.688644 310.775358 
L 188.961002 310.90227 
L 189.233869 311.028421 
L 189.507246 311.153809 
L 189.78113 311.278437 
L 190.055524 311.402303 
L 190.330427 311.525407 
L 190.605838 311.64775 
L 190.881758 311.769332 
L 191.158187 311.890152 
L 191.435124 312.010211 
L 191.712571 312.129508 
L 191.990526 312.248043 
L 192.26899 312.365817 
L 192.547963 312.48283 
L 192.827445 312.599081 
L 193.10727 312.714503 
L 193.387274 312.829026 
L 193.667457 312.942651 
L 193.947818 313.055378 
L 194.228359 313.167206 
L 194.509077 313.278136 
L 194.789975 313.388168 
L 195.071051 313.497302 
L 195.352306 313.605538 
L 195.633739 313.712875 
L 195.915351 313.819314 
L 196.197142 313.924855 
L 196.479111 314.029498 
L 196.761259 314.133242 
L 197.043586 314.236089 
L 197.326092 314.338037 
L 197.608776 314.439087 
L 197.891638 314.539238 
L 198.17468 314.638492 
L 198.4579 314.736847 
L 198.741299 314.834304 
L 199.024876 314.930862 
L 199.308632 315.026523 
L 199.592567 315.121285 
L 199.87668 315.215149 
L 200.160972 315.308115 
L 200.445443 315.400183 
L 200.730093 315.491352 
L 201.014921 315.581623 
L 201.299928 315.670996 
L 201.585113 315.759471 
L 201.870477 315.847048 
L 202.15602 315.933726 
L 202.441741 316.019506 
L 202.727641 316.104388 
L 203.01372 316.188372 
L 203.299978 316.271457 
L 203.586414 316.353644 
L 203.873028 316.434933 
L 204.159822 316.515324 
L 204.446794 316.594816 
L 204.733945 316.673411 
L 205.021274 316.751107 
L 205.308782 316.827905 
L 205.596469 316.903804 
L 205.884335 316.978806 
L 206.172379 317.052909 
L 206.460601 317.126114 
L 206.749003 317.198421 
L 207.037583 317.269829 
L 207.326342 317.34034 
L 207.615279 317.409952 
L 207.904395 317.478666 
L 208.19369 317.546481 
L 208.483164 317.613399 
L 208.772816 317.679418 
L 209.062646 317.744539 
L 209.352656 317.808762 
L 209.642844 317.872086 
L 209.933211 317.934513 
L 210.223756 317.996041 
L 210.51448 318.056671 
L 210.805383 318.116402 
L 211.096465 318.175236 
L 211.387725 318.233171 
L 211.679163 318.290208 
L 211.970781 318.346347 
L 212.262577 318.401588 
L 212.554552 318.45593 
L 212.846705 318.509374 
L 213.139037 318.56192 
L 213.431548 318.613568 
L 213.724238 318.664317 
L 214.017106 318.714168 
L 214.310153 318.763121 
L 214.603378 318.811176 
L 214.896782 318.858333 
L 215.190365 318.904591 
L 215.484126 318.949951 
L 215.778066 318.994413 
L 216.072185 319.037977 
L 216.366483 319.080642 
L 216.660959 319.12241 
L 216.955614 319.163279 
L 217.250447 319.20325 
L 217.545459 319.242322 
L 217.84065 319.280497 
L 218.13602 319.317773 
L 218.431568 319.354151 
L 218.727294 319.38963 
L 219.0232 319.424212 
L 219.319284 319.457895 
L 219.615547 319.49068 
L 219.911988 319.522567 
L 220.208608 319.553556 
L 220.505407 319.583646 
L 220.802385 319.612838 
L 221.099541 319.641132 
L 221.396876 319.668528 
L 221.694389 319.695025 
L 221.992081 319.720625 
L 222.289952 319.745326 
L 222.588002 319.769129 
L 222.88623 319.792033 
L 223.184636 319.81404 
L 223.483222 319.835148 
L 223.781986 319.855358 
L 224.080929 319.87467 
L 224.38005 319.893083 
L 224.679351 319.910598 
L 224.978829 319.927216 
L 225.278487 319.942934 
L 225.578323 319.957755 
L 225.878338 319.971677 
L 226.178531 319.984702 
L 226.478903 319.996828 
L 226.779454 320.008055 
L 227.080184 320.018385 
L 227.381092 320.027816 
L 227.682179 320.036349 
L 227.983444 320.043984 
L 228.284888 320.050721 
L 228.586511 320.056559 
L 228.888313 320.0615 
L 229.190293 320.065542 
L 229.492452 320.068685 
L 229.794789 320.070931 
L 230.097305 320.072278 
L 230.4 320.072727 
L 231.922199 320.072727 
L 233.444397 320.072727 
L 234.966596 320.072727 
L 236.488795 320.072727 
L 238.010994 320.072727 
L 239.533192 320.072727 
L 241.055391 320.072727 
L 242.57759 320.072727 
L 244.099789 320.072727 
L 245.621987 320.072727 
L 247.144186 320.072727 
L 248.666385 320.072727 
L 250.188584 320.072727 
L 251.710782 320.072727 
L 253.232981 320.072727 
L 254.75518 320.072727 
L 256.277378 320.072727 
L 257.799577 320.072727 
L 259.321776 320.072727 
L 260.843975 320.072727 
L 262.366173 320.072727 
L 263.888372 320.072727 
L 265.410571 320.072727 
L 266.93277 320.072727 
L 268.454968 320.072727 
L 269.977167 320.072727 
L 271.499366 320.072727 
L 273.021564 320.072727 
L 274.543763 320.072727 
L 276.065962 320.072727 
L 277.588161 320.072727 
L 279.110359 320.072727 
L 280.632558 320.072727 
L 282.154757 320.072727 
L 283.676956 320.072727 
L 285.199154 320.072727 
L 286.721353 320.072727 
L 288.243552 320.072727 
L 289.765751 320.072727 
L 291.287949 320.072727 
L 292.810148 320.072727 
L 294.332347 320.072727 
L 295.854545 320.072727 
L 297.376744 320.072727 
L 298.898943 320.072727 
L 300.421142 320.072727 
L 301.94334 320.072727 
L 303.465539 320.072727 
L 304.987738 320.072727 
L 306.509937 320.072727 
L 308.032135 320.072727 
L 309.554334 320.072727 
L 311.076533 320.072727 
L 312.598732 320.072727 
L 314.12093 320.072727 
L 315.643129 320.072727 
L 317.165328 320.072727 
L 318.687526 320.072727 
L 320.209725 320.072727 
L 321.731924 320.072727 
L 323.254123 320.072727 
L 324.776321 320.072727 
L 326.29852 320.072727 
L 327.820719 320.072727 
L 329.342918 320.072727 
L 330.865116 320.072727 
L 332.387315 320.072727 
L 333.909514 320.072727 
L 335.431712 320.072727 
L 336.953911 320.072727 
L 338.47611 320.072727 
L 339.998309 320.072727 
L 341.520507 320.072727 
L 343.042706 320.072727 
L 344.564905 320.072727 
L 346.087104 320.072727 
L 347.609302 320.072727 
L 349.131501 320.072727 
L 350.6537 320.072727 
L 352.175899 320.072727 
L 353.698097 320.072727 
L 355.220296 320.072727 
L 356.742495 320.072727 
L 358.264693 320.072727 
L 359.786892 320.072727 
L 361.309091 320.072727 
L 362.83129 320.072727 
L 364.353488 320.072727 
L 365.875687 320.072727 
L 367.397886 320.072727 
L 368.920085 320.072727 
L 370.442283 320.072727 
L 371.964482 320.072727 
L 373.486681 320.072727 
L 375.008879 320.072727 
L 376.531078 320.072727 
L 378.053277 320.072727 
L 379.575476 320.072727 
L 381.097674 320.072727 
L 382.619873 320.072727 
L 384.142072 320.072727 
L 385.664271 320.072727 
L 387.186469 320.072727 
L 388.708668 320.072727 
L 390.230867 320.072727 
L 391.753066 320.072727 
L 393.275264 320.072727 
L 394.797463 320.072727 
L 396.319662 320.072727 
L 397.84186 320.072727 
L 399.364059 320.072727 
L 400.886258 320.072727 
L 402.408457 320.072727 
L 403.930655 320.072727 
L 405.452854 320.072727 
L 406.975053 320.072727 
L 408.497252 320.072727 
L 410.01945 320.072727 
L 411.541649 320.072727 
L 413.063848 320.072727 
L 414.586047 320.072727 
L 416.108245 320.072727 
L 417.630444 320.072727 
L 419.152643 320.072727 
L 420.674841 320.072727 
L 422.19704 320.072727 
L 423.719239 320.072727 
L 425.241438 320.072727 
L 426.763636 320.072727 
L 426.763636 318.550529 
L 426.763636 317.02833 
L 426.763636 315.506131 
L 426.763636 313.983932 
L 426.763636 312.461734 
L 426.763636 310.939535 
L 426.763636 309.417336 
L 426.763636 307.895137 
L 426.763636 306.372939 
L 426.763636 304.85074 
L 426.763636 303.328541 
L 426.763636 301.806342 
L 426.763636 300.284144 
L 426.763636 298.761945 
L 426.763636 297.239746 
L 426.763636 295.717548 
L 426.763636 294.195349 
L 426.763636 292.67315 
L 426.763636 291.150951 
L 426.763636 289.628753 
L 426.763636 288.106554 
L 426.763636 286.584355 
L 426.763636 285.062156 
L 426.763636 283.539958 
L 426.763636 282.017759 
L 426.763636 280.49556 
L 426.763636 278.973362 
L 426.763636 277.451163 
L 426.763636 275.928964 
L 426.763636 274.406765 
L 426.763636 272.884567 
L 426.763636 271.362368 
L 426.763636 269.840169 
L 426.763636 268.31797 
L 426.763636 266.795772 
L 426.763636 265.273573 
L 426.763636 263.751374 
L 426.763636 262.229175 
L 426.763636 260.706977 
L 426.763636 259.184778 
L 426.763636 257.662579 
L 426.763636 256.140381 
L 426.763636 254.618182 
L 426.763636 253.095983 
L 426.763636 251.573784 
L 426.763636 250.051586 
L 426.763636 248.529387 
L 426.763636 247.007188 
L 426.763636 245.484989 
L 426.763636 243.962791 
L 426.763636 242.440592 
L 426.763636 240.918393 
L 426.763636 239.396195 
L 426.763636 237.873996 
L 426.763636 236.351797 
L 426.763636 234.829598 
L 426.763636 233.3074 
L 426.763636 231.785201 
L 426.763636 230.263002 
L 426.763636 228.740803 
L 426.763636 227.218605 
L 426.763636 225.696406 
L 426.763636 224.174207 
L 426.763636 222.652008 
L 426.763636 221.12981 
L 426.763636 219.607611 
L 426.763636 218.085412 
L 426.763636 216.563214 
L 426.763636 215.041015 
L 426.763636 213.518816 
L 426.763636 211.996617 
L 426.763636 210.474419 
L 426.763636 208.95222 
L 426.763636 207.430021 
L 426.763636 205.907822 
L 426.763636 204.385624 
L 426.763636 202.863425 
L 426.763636 201.341226 
L 426.763636 199.819027 
L 426.763636 198.296829 
L 426.763636 196.77463 
L 426.763636 195.252431 
L 426.763636 193.730233 
L 426.763636 192.208034 
L 426.763636 190.685835 
L 426.763636 189.163636 
L 426.763636 187.641438 
L 426.763636 186.119239 
L 426.763636 184.59704 
L 426.763636 183.074841 
L 426.763636 181.552643 
L 426.763636 180.030444 
L 426.763636 178.508245 
L 426.763636 176.986047 
L 426.763636 175.463848 
L 426.763636 173.941649 
L 426.763636 172.41945 
L 426.763636 170.897252 
L 426.763636 169.375053 
L 426.763636 167.852854 
L 426.763636 166.330655 
L 426.763636 164.808457 
L 426.763636 163.286258 
L 426.763636 161.764059 
L 426.763636 160.24186 
L 426.763636 158.719662 
L 426.763636 157.197463 
L 426.763636 155.675264 
L 426.763636 154.153066 
L 426.763636 152.630867 
L 426.763636 151.108668 
L 426.763636 149.586469 
L 426.763636 148.064271 
L 426.763636 146.542072 
L 426.763636 145.019873 
L 426.763636 143.497674 
L 426.763636 141.975476 
L 426.763636 140.453277 
L 426.763636 138.931078 
L 426.763636 137.408879 
L 426.763636 135.886681 
L 426.763636 134.364482 
L 426.763636 132.842283 
L 426.763636 131.320085 
L 426.763636 129.797886 
L 426.763636 128.275687 
L 426.763636 126.753488 
L 426.763636 125.23129 
z
" clip-path="url(#p93963e6d91)" style="fill: #ffff00; opacity: 0.4; stroke: #ffff00; stroke-linejoin: miter"/>
   </g>
   <g id="matplotlib.axis_1"/>
   <g id="matplotlib.axis_2"/>
   <g id="line2d_1">
    <path d="M 230.4 25.527273 
L 34.036364 25.527273 
L 34.036364 221.890909 
L 234.921662 221.789859 
L 239.700459 221.459314 
L 244.433517 220.898824 
L 249.120837 220.10839 
L 253.762417 219.088011 
L 258.358259 217.837688 
L 262.908362 216.35742 
L 267.412726 214.647208 
L 271.838998 212.720452 
L 276.135677 210.598485 
L 280.302103 208.281581 
L 284.338276 205.769739 
L 288.244196 203.062959 
L 292.019863 200.161243 
L 295.665277 197.064588 
L 299.180438 193.772996 
L 302.543994 190.307817 
L 305.71375 186.711248 
L 308.688569 182.984426 
L 311.46845 179.127351 
L 314.053393 175.140023 
L 316.443399 171.022442 
L 318.638468 166.774607 
L 320.638599 162.39652 
L 322.433946 157.911949 
L 324.000443 153.378998 
L 325.336996 148.800309 
L 326.443604 144.17588 
L 327.320267 139.505713 
L 327.966986 134.789807 
L 328.383761 130.028162 
L 328.57059 125.220778 
L 328.527476 120.389275 
L 328.254417 115.599043 
L 327.751413 110.85455 
L 327.018465 106.155796 
L 326.055572 101.502781 
L 324.862735 96.895505 
L 323.439953 92.333967 
L 321.787227 87.818168 
L 319.911394 83.364615 
L 317.838161 79.035372 
L 315.569991 74.836383 
L 313.106884 70.767647 
L 310.448839 66.829163 
L 307.595856 63.020933 
L 304.547936 59.342956 
L 301.305078 55.795232 
L 297.877516 52.387995 
L 294.313511 49.169504 
L 290.619252 46.145951 
L 286.79474 43.317336 
L 282.839975 40.683658 
L 278.754958 38.244918 
L 274.539686 36.001115 
L 270.194162 33.95225 
L 265.728949 32.102698 
L 261.207433 30.478715 
L 256.640178 29.084676 
L 252.027184 27.920582 
L 247.368452 26.986432 
L 242.66398 26.282227 
L 237.91377 25.807967 
L 233.117821 25.563651 
L 230.4 25.527273 
L 230.4 25.527273 
" clip-path="url(#p93963e6d91)" style="fill: none; stroke: #ff0000; stroke-width: 1.5; stroke-linecap: square"/>
   </g>
   <g id="line2d_2">
    <path d="M 230.4 25.527273 
L 34.036364 25.527273 
L 34.036364 221.890909 
L 234.921662 221.789859 
L 239.700459 221.459314 
L 244.433517 220.898824 
L 249.120837 220.10839 
L 253.762417 219.088011 
L 258.358259 217.837688 
L 262.908362 216.35742 
L 267.412726 214.647208 
L 271.838998 212.720452 
L 276.135677 210.598485 
L 280.302103 208.281581 
L 284.338276 205.769739 
L 288.244196 203.062959 
L 292.019863 200.161243 
L 295.665277 197.064588 
L 299.180438 193.772996 
L 302.543994 190.307817 
L 305.71375 186.711248 
L 308.688569 182.984426 
L 311.46845 179.127351 
L 314.053393 175.140023 
L 316.443399 171.022442 
L 318.638468 166.774607 
L 320.638599 162.39652 
L 322.433946 157.911949 
L 324.000443 153.378998 
L 325.336996 148.800309 
L 326.443604 144.17588 
L 327.320267 139.505713 
L 327.966986 134.789807 
L 328.383761 130.028162 
L 328.57059 125.220778 
L 328.527476 120.389275 
L 328.254417 115.599043 
L 327.751413 110.85455 
L 327.018465 106.155796 
L 326.055572 101.502781 
L 324.862735 96.895505 
L 323.439953 92.333967 
L 321.787227 87.818168 
L 319.911394 83.364615 
L 317.838161 79.035372 
L 315.569991 74.836383 
L 313.106884 70.767647 
L 310.448839 66.829163 
L 307.595856 63.020933 
L 304.547936 59.342956 
L 301.305078 55.795232 
L 297.877516 52.387995 
L 294.313511 49.169504 
L 290.619252 46.145951 
L 286.79474 43.317336 
L 282.839975 40.683658 
L 278.754958 38.244918 
L 274.539686 36.001115 
L 270.194162 33.95225 
L 265.728949 32.102698 
L 261.207433 30.478715 
L 256.640178 29.084676 
L 252.027184 27.920582 
L 247.368452 26.986432 
L 242.66398 26.282227 
L 237.91377 25.807967 
L 233.117821 25.563651 
L 230.4 25.527273 
L 230.4 25.527273 
" clip-path="url(#p93963e6d91)" style="fill: none; stroke: #ff0000; stroke-width: 3; stroke-linecap: square"/>
   </g>
   <g id="line2d_3">
    <path d="M 426.763636 123.709091 
L 225.878338 123.810141 
L 221.099541 124.140686 
L 216.366483 124.701176 
L 211.679163 125.49161 
L 207.037583 126.511989 
L 202.441741 127.762312 
L 197.891638 129.24258 
L 193.387274 130.952792 
L 188.961002 132.879548 
L 184.664323 135.001515 
L 180.497897 137.318419 
L 176.461724 139.830261 
L 172.555804 142.537041 
L 168.780137 145.438757 
L 165.134723 148.535412 
L 161.619562 151.827004 
L 158.256006 155.292183 
L 155.08625 158.888752 
L 152.111431 162.615574 
L 149.33155 166.472649 
L 146.746607 170.459977 
L 144.356601 174.577558 
L 142.161532 178.825393 
L 140.161401 183.20348 
L 138.366054 187.688051 
L 136.799557 192.221002 
L 135.463004 196.799691 
L 134.356396 201.42412 
L 133.479733 206.094287 
L 132.833014 210.810193 
L 132.416239 215.571838 
L 132.22941 220.379222 
L 132.272524 225.210725 
L 132.545583 230.000957 
L 133.048587 234.74545 
L 133.781535 239.444204 
L 134.744428 244.097219 
L 135.937265 248.704495 
L 137.360047 253.266033 
L 139.012773 257.781832 
L 140.888606 262.235385 
L 142.961839 266.564628 
L 145.230009 270.763617 
L 147.693116 274.832353 
L 150.351161 278.770837 
L 153.204144 282.579067 
L 156.252064 286.257044 
L 159.494922 289.804768 
L 162.922484 293.212005 
L 166.486489 296.430496 
L 170.180748 299.454049 
L 174.00526 302.282664 
L 177.960025 304.916342 
L 182.045042 307.355082 
L 186.260314 309.598885 
L 190.605838 311.64775 
L 195.071051 313.497302 
L 199.592567 315.121285 
L 204.159822 316.515324 
L 208.772816 317.679418 
L 213.431548 318.613568 
L 218.13602 319.317773 
L 222.88623 319.792033 
L 227.682179 320.036349 
L 233.444397 320.072727 
L 426.763636 320.072727 
L 426.763636 123.709091 
L 426.763636 123.709091 
" clip-path="url(#p93963e6d91)" style="fill: none; stroke: #ff0000; stroke-width: 3; stroke-linecap: square"/>
   </g>
  </g>
 </g>
 <defs>
  <clipPath id="p93963e6d91">
   <rect x="14.4" y="10.8" width="432" height="324"/>
  </clipPath>
 </defs>
</svg>
