<?xml version="1.0" encoding="UTF-8" standalone="no"?>
<!-- Created with Inkscape (http://www.inkscape.org/) -->

<svg
   version="1.1"
   id="svg8290"
   width="155.7598"
   height="153.37305"
   viewBox="0 0 155.7598 153.37305"
   xmlns="http://www.w3.org/2000/svg"
   xmlns:svg="http://www.w3.org/2000/svg">
  <defs
     id="defs8294">
    <clipPath
       clipPathUnits="userSpaceOnUse"
       id="clipPath8314">
      <path
         d="M -5.66927,-62.36288 V 62.36288 H 119.0565 V -62.36288 Z"
         id="path8312" />
    </clipPath>
  </defs>
  <g
     id="g8298"
     transform="matrix(1.3333333,0,0,-1.3333333,-7.0273264,159.83586)">
    <g
       id="g8300"
       transform="translate(5.669,62.362)">
      <g
         id="g8302">
        <g
           id="g8304">
          <g
             id="g8306">
            <path
               d="M 0,-56.69362 H 116.22208 V 56.69362 H 0 V 0"
               style="fill:none;stroke:#ffffff;stroke-width:0.3985;stroke-linecap:butt;stroke-linejoin:miter;stroke-miterlimit:10;stroke-dasharray:none;stroke-opacity:1"
               id="path8308" />
          </g>
          <g
             id="g8310"
             clip-path="url(#clipPath8314)">
            <g
               id="g8316">
              <g
                 id="g8318">
                <path
                   d="M 56.69362,28.3468 C 68.49281,36.21294 77.1743,60.62666 85.04042,56.69362 92.90656,52.76056 113.38724,15.73225 113.38724,0 c 0,-15.73225 -20.48068,-52.76056 -28.34682,-56.69362 C 77.1743,-60.62666 68.49281,-36.21294 56.69362,-28.3468 44.89441,-20.48068 0,-7.86612 0,0 0,7.86612 44.89441,20.48068 56.69362,28.3468 Z"
                   style="fill:#ffcccc;fill-opacity:1;fill-rule:nonzero;stroke:#ff0000;stroke-width:0.79701;stroke-linecap:butt;stroke-linejoin:miter;stroke-miterlimit:10;stroke-dasharray:none;stroke-opacity:1"
                   id="path8320" />
              </g>
              <g
                 id="g8322">
                <path
                   d="M 56.97691,28.63011 56.91046,28.56366"
                   style="fill:none;stroke:#ff0000;stroke-width:0.79701;stroke-linecap:butt;stroke-linejoin:miter;stroke-miterlimit:10;stroke-dasharray:none;stroke-opacity:1"
                   id="path8324" />
                <g
                   id="g8326"
                   transform="matrix(-0.7071,-0.7071,0.7071,-0.7071,56.91048,28.56367)">
                  <g
                     id="g8328">
                    <path
                       d="M -1.55415,2.0722 C -1.42464,1.29512 0,0.1295 0.38852,0 0,-0.1295 -1.42464,-1.29512 -1.55415,-2.0722"
                       style="fill:none;stroke:#ff0000;stroke-width:0.6376;stroke-linecap:round;stroke-linejoin:round;stroke-miterlimit:10;stroke-dasharray:none;stroke-opacity:1"
                       id="path8330" />
                  </g>
                </g>
              </g>
              <g
                 id="g8332">
                <path
                   d="m 56.4103,-28.06348 0.06645,-0.06645"
                   style="fill:none;stroke:#ff0000;stroke-width:0.79701;stroke-linecap:butt;stroke-linejoin:miter;stroke-miterlimit:10;stroke-dasharray:none;stroke-opacity:1"
                   id="path8334" />
                <g
                   id="g8336"
                   transform="matrix(0.7071,-0.7071,0.7071,0.7071,56.47673,-28.12991)">
                  <g
                     id="g8338">
                    <path
                       d="M -1.55415,2.0722 C -1.42464,1.29512 0,0.1295 0.38852,0 0,-0.1295 -1.42464,-1.29512 -1.55415,-2.0722"
                       style="fill:none;stroke:#ff0000;stroke-width:0.6376;stroke-linecap:round;stroke-linejoin:round;stroke-miterlimit:10;stroke-dasharray:none;stroke-opacity:1"
                       id="path8340" />
                  </g>
                </g>
              </g>
              <g
                 id="g8342">
                <path
                   d="M 113.38724,-0.2833 V -0.42406"
                   style="fill:none;stroke:#ff0000;stroke-width:0.79701;stroke-linecap:butt;stroke-linejoin:miter;stroke-miterlimit:10;stroke-dasharray:none;stroke-opacity:1"
                   id="path8344" />
                <g
                   id="g8346"
                   transform="rotate(90,56.90565,56.48159)">
                  <g
                     id="g8348">
                    <path
                       d="M -1.55415,2.0722 C -1.42464,1.29512 0,0.1295 0.38852,0 0,-0.1295 -1.42464,-1.29512 -1.55415,-2.0722"
                       style="fill:none;stroke:#ff0000;stroke-width:0.6376;stroke-linecap:round;stroke-linejoin:round;stroke-miterlimit:10;stroke-dasharray:none;stroke-opacity:1"
                       id="path8350" />
                  </g>
                </g>
              </g>
            </g>
          </g>
        </g>
      </g>
    </g>
  </g>
</svg>
