<?xml version="1.0" encoding="utf-8" standalone="no"?>
<!DOCTYPE svg PUBLIC "-//W3C//DTD SVG 1.1//EN"
  "http://www.w3.org/Graphics/SVG/1.1/DTD/svg11.dtd">
<svg xmlns:xlink="http://www.w3.org/1999/xlink" width="460.8pt" height="345.6pt" viewBox="0 0 460.8 345.6" xmlns="http://www.w3.org/2000/svg" version="1.1">
 <metadata>
  <rdf:RDF xmlns:dc="http://purl.org/dc/elements/1.1/" xmlns:cc="http://creativecommons.org/ns#" xmlns:rdf="http://www.w3.org/1999/02/22-rdf-syntax-ns#">
   <cc:Work>
    <dc:type rdf:resource="http://purl.org/dc/dcmitype/StillImage"/>
    <dc:date>2023-09-16T21:21:09.923086</dc:date>
    <dc:format>image/svg+xml</dc:format>
    <dc:creator>
     <cc:Agent>
      <dc:title>Matplotlib v3.7.0, https://matplotlib.org/</dc:title>
     </cc:Agent>
    </dc:creator>
   </cc:Work>
  </rdf:RDF>
 </metadata>
 <defs>
  <style type="text/css">*{stroke-linejoin: round; stroke-linecap: butt}</style>
 </defs>
 <g id="figure_1">
  <g id="patch_1">
   <path d="M 0 345.6 
L 460.8 345.6 
L 460.8 0 
L 0 0 
z
" style="fill: #ffffff"/>
  </g>
  <g id="axes_1">
   <g id="patch_2">
    <path d="M 14.4 334.8 
L 446.4 334.8 
L 446.4 10.8 
L 14.4 10.8 
z
" style="fill: #ffffff"/>
   </g>
   <g id="patch_3">
    <path d="M 132.218182 221.890909 
L 132.979281 221.890909 
L 133.740381 221.890909 
L 134.50148 221.890909 
L 135.262579 221.890909 
L 136.023679 221.890909 
L 136.784778 221.890909 
L 137.545877 221.890909 
L 138.306977 221.890909 
L 139.068076 221.890909 
L 139.829175 221.890909 
L 140.590275 221.890909 
L 141.351374 221.890909 
L 142.112474 221.890909 
L 142.873573 221.890909 
L 143.634672 221.890909 
L 144.395772 221.890909 
L 145.156871 221.890909 
L 145.91797 221.890909 
L 146.67907 221.890909 
L 147.440169 221.890909 
L 148.201268 221.890909 
L 148.962368 221.890909 
L 149.723467 221.890909 
L 150.484567 221.890909 
L 151.245666 221.890909 
L 152.006765 221.890909 
L 152.767865 221.890909 
L 153.528964 221.890909 
L 154.290063 221.890909 
L 155.051163 221.890909 
L 155.812262 221.890909 
L 156.573362 221.890909 
L 157.334461 221.890909 
L 158.09556 221.890909 
L 158.85666 221.890909 
L 159.617759 221.890909 
L 160.378858 221.890909 
L 161.139958 221.890909 
L 161.901057 221.890909 
L 162.662156 221.890909 
L 163.423256 221.890909 
L 164.184355 221.890909 
L 164.945455 221.890909 
L 165.706554 221.890909 
L 166.467653 221.890909 
L 167.228753 221.890909 
L 167.989852 221.890909 
L 168.750951 221.890909 
L 169.512051 221.890909 
L 170.27315 221.890909 
L 171.034249 221.890909 
L 171.795349 221.890909 
L 172.556448 221.890909 
L 173.317548 221.890909 
L 174.078647 221.890909 
L 174.839746 221.890909 
L 175.600846 221.890909 
L 176.361945 221.890909 
L 177.123044 221.890909 
L 177.884144 221.890909 
L 178.645243 221.890909 
L 179.406342 221.890909 
L 180.167442 221.890909 
L 180.928541 221.890909 
L 181.689641 221.890909 
L 182.45074 221.890909 
L 183.211839 221.890909 
L 183.972939 221.890909 
L 184.734038 221.890909 
L 185.495137 221.890909 
L 186.256237 221.890909 
L 187.017336 221.890909 
L 187.778436 221.890909 
L 188.539535 221.890909 
L 189.300634 221.890909 
L 190.061734 221.890909 
L 190.822833 221.890909 
L 191.583932 221.890909 
L 192.345032 221.890909 
L 193.106131 221.890909 
L 193.86723 221.890909 
L 194.62833 221.890909 
L 195.389429 221.890909 
L 196.150529 221.890909 
L 196.911628 221.890909 
L 197.672727 221.890909 
L 198.433827 221.890909 
L 199.194926 221.890909 
L 199.956025 221.890909 
L 200.717125 221.890909 
L 201.478224 221.890909 
L 202.239323 221.890909 
L 203.000423 221.890909 
L 203.761522 221.890909 
L 204.522622 221.890909 
L 205.283721 221.890909 
L 206.04482 221.890909 
L 206.80592 221.890909 
L 207.567019 221.890909 
L 208.328118 221.890909 
L 209.089218 221.890909 
L 209.850317 221.890909 
L 210.611416 221.890909 
L 211.372516 221.890909 
L 212.133615 221.890909 
L 212.894715 221.890909 
L 213.655814 221.890909 
L 214.416913 221.890909 
L 215.178013 221.890909 
L 215.939112 221.890909 
L 216.700211 221.890909 
L 217.461311 221.890909 
L 218.22241 221.890909 
L 218.98351 221.890909 
L 219.744609 221.890909 
L 220.505708 221.890909 
L 221.266808 221.890909 
L 222.027907 221.890909 
L 222.789006 221.890909 
L 223.550106 221.890909 
L 224.311205 221.890909 
L 225.072304 221.890909 
L 225.833404 221.890909 
L 226.594503 221.890909 
L 227.355603 221.890909 
L 228.116702 221.890909 
L 228.877801 221.890909 
L 229.638901 221.890909 
L 230.4 221.890909 
L 230.702695 221.89046 
L 231.005211 221.889113 
L 231.307548 221.886867 
L 231.609707 221.883723 
L 231.911687 221.879681 
L 232.213489 221.874741 
L 232.515112 221.868903 
L 232.816556 221.862166 
L 233.117821 221.854531 
L 233.418908 221.845998 
L 233.719816 221.836567 
L 234.020546 221.826237 
L 234.321097 221.815009 
L 234.621469 221.802883 
L 234.921662 221.789859 
L 235.221677 221.775937 
L 235.521513 221.761116 
L 235.821171 221.745397 
L 236.120649 221.72878 
L 236.41995 221.711265 
L 236.719071 221.692851 
L 237.018014 221.67354 
L 237.316778 221.65333 
L 237.615364 221.632222 
L 237.91377 221.610215 
L 238.211998 221.58731 
L 238.510048 221.563508 
L 238.807919 221.538807 
L 239.105611 221.513207 
L 239.403124 221.48671 
L 239.700459 221.459314 
L 239.997615 221.43102 
L 240.294593 221.401828 
L 240.591392 221.371737 
L 240.888012 221.340749 
L 241.184453 221.308862 
L 241.480716 221.276077 
L 241.7768 221.242394 
L 242.072706 221.207812 
L 242.368432 221.172332 
L 242.66398 221.135955 
L 242.95935 221.098678 
L 243.254541 221.060504 
L 243.549553 221.021431 
L 243.844386 220.981461 
L 244.139041 220.940592 
L 244.433517 220.898824 
L 244.727815 220.856159 
L 245.021934 220.812595 
L 245.315874 220.768133 
L 245.609635 220.722773 
L 245.903218 220.676515 
L 246.196622 220.629358 
L 246.489847 220.581303 
L 246.782894 220.53235 
L 247.075762 220.482499 
L 247.368452 220.431749 
L 247.660963 220.380102 
L 247.953295 220.327556 
L 248.245448 220.274112 
L 248.537423 220.219769 
L 248.829219 220.164529 
L 249.120837 220.10839 
L 249.412275 220.051353 
L 249.703535 219.993418 
L 249.994617 219.934584 
L 250.28552 219.874853 
L 250.576244 219.814223 
L 250.866789 219.752695 
L 251.157156 219.690268 
L 251.447344 219.626944 
L 251.737354 219.562721 
L 252.027184 219.4976 
L 252.316836 219.431581 
L 252.60631 219.364663 
L 252.895605 219.296848 
L 253.184721 219.228134 
L 253.473658 219.158522 
L 253.762417 219.088011 
L 254.050997 219.016603 
L 254.339399 218.944296 
L 254.627621 218.871091 
L 254.915665 218.796988 
L 255.203531 218.721986 
L 255.491218 218.646087 
L 255.778726 218.569289 
L 256.066055 218.491593 
L 256.353206 218.412998 
L 256.640178 218.333506 
L 256.926972 218.253115 
L 257.213586 218.171826 
L 257.500022 218.089639 
L 257.78628 218.006553 
L 258.072359 217.92257 
L 258.358259 217.837688 
L 258.64398 217.751908 
L 258.929523 217.665229 
L 259.214887 217.577653 
L 259.500072 217.489178 
L 259.785079 217.399805 
L 260.069907 217.309534 
L 260.354557 217.218365 
L 260.639028 217.126297 
L 260.92332 217.033331 
L 261.207433 216.939467 
L 261.491368 216.844705 
L 261.775124 216.749044 
L 262.058701 216.652486 
L 262.3421 216.555029 
L 262.62532 216.456673 
L 262.908362 216.35742 
L 263.191224 216.257268 
L 263.473908 216.156219 
L 263.756414 216.054271 
L 264.038741 215.951424 
L 264.320889 215.84768 
L 264.602858 215.743037 
L 264.884649 215.637496 
L 265.166261 215.531057 
L 265.447694 215.42372 
L 265.728949 215.315484 
L 266.010025 215.20635 
L 266.290923 215.096318 
L 266.571641 214.985388 
L 266.852182 214.873559 
L 267.132543 214.760833 
L 267.412726 214.647208 
L 267.69273 214.532685 
L 267.972555 214.417263 
L 268.252037 214.301012 
L 268.53101 214.183999 
L 268.809474 214.066225 
L 269.087429 213.947689 
L 269.364876 213.828392 
L 269.641813 213.708334 
L 269.918242 213.587514 
L 270.194162 213.465932 
L 270.469573 213.343589 
L 270.744476 213.220485 
L 271.01887 213.096619 
L 271.292754 212.971991 
L 271.566131 212.846602 
L 271.838998 212.720452 
L 272.111356 212.59354 
L 272.383206 212.465867 
L 272.654547 212.337432 
L 272.925379 212.208236 
L 273.195702 212.078278 
L 273.465517 211.947559 
L 273.734822 211.816078 
L 274.003619 211.683836 
L 274.271907 211.550832 
L 274.539686 211.417067 
L 274.806957 211.28254 
L 275.073719 211.147252 
L 275.339971 211.011203 
L 275.605715 210.874392 
L 275.870951 210.736819 
L 276.135677 210.598485 
L 276.399895 210.45939 
L 276.663604 210.319533 
L 276.926804 210.178914 
L 277.189495 210.037534 
L 277.451677 209.895393 
L 277.713351 209.75249 
L 277.974516 209.608826 
L 278.235172 209.4644 
L 278.495319 209.319213 
L 278.754958 209.173264 
L 279.014087 209.026554 
L 279.272708 208.879082 
L 279.53082 208.730849 
L 279.788423 208.581855 
L 280.045518 208.432098 
L 280.302103 208.281581 
L 280.55818 208.130302 
L 280.813748 207.978261 
L 281.068807 207.825459 
L 281.323358 207.671896 
L 281.577399 207.517571 
L 281.830932 207.362484 
L 282.083956 207.206636 
L 282.336471 207.050027 
L 282.588478 206.892656 
L 282.839975 206.734524 
L 283.090964 206.57563 
L 283.341444 206.415975 
L 283.591416 206.255558 
L 283.840878 206.09438 
L 284.089832 205.93244 
L 284.338276 205.769739 
L 284.586212 205.606276 
L 284.83364 205.442052 
L 285.080558 205.277067 
L 285.326968 205.111319 
L 285.572868 204.944811 
L 285.81826 204.777541 
L 286.063144 204.609509 
L 286.307518 204.440716 
L 286.551384 204.271162 
L 286.79474 204.100846 
L 287.037588 203.929769 
L 287.279928 203.75793 
L 287.521758 203.585329 
L 287.76308 203.411968 
L 288.003892 203.237844 
L 288.244196 203.062959 
L 288.483992 202.887313 
L 288.723278 202.710906 
L 288.962056 202.533736 
L 289.200324 202.355806 
L 289.438084 202.177113 
L 289.675335 201.99766 
L 289.912078 201.817445 
L 290.148311 201.636468 
L 290.384036 201.45473 
L 290.619252 201.272231 
L 290.853959 201.08897 
L 291.088158 200.904947 
L 291.321847 200.720163 
L 291.555028 200.534618 
L 291.7877 200.348311 
L 292.019863 200.161243 
L 292.251518 199.973413 
L 292.482663 199.784821 
L 292.7133 199.595469 
L 292.943428 199.405354 
L 293.173047 199.214479 
L 293.402157 199.022841 
L 293.630759 198.830443 
L 293.858852 198.637282 
L 294.086436 198.443361 
L 294.313511 198.248678 
L 294.540077 198.053233 
L 294.766135 197.857027 
L 294.991684 197.660059 
L 295.216723 197.46233 
L 295.441255 197.26384 
L 295.665277 197.064588 
L 295.888791 196.864575 
L 296.111795 196.6638 
L 296.334291 196.462263 
L 296.556278 196.259965 
L 296.777757 196.056906 
L 296.998726 195.853085 
L 297.219187 195.648503 
L 297.439139 195.443159 
L 297.658582 195.237054 
L 297.877516 195.030187 
L 298.095942 194.822559 
L 298.313859 194.614169 
L 298.531267 194.405018 
L 298.748166 194.195106 
L 298.964556 193.984431 
L 299.180438 193.772996 
L 299.39581 193.560799 
L 299.610674 193.34784 
L 299.825029 193.13412 
L 300.038749 192.919765 
L 300.251708 192.704901 
L 300.463905 192.489529 
L 300.675341 192.273647 
L 300.886015 192.057257 
L 301.095927 191.840358 
L 301.305078 191.62295 
L 301.513468 191.405033 
L 301.721096 191.186607 
L 301.927963 190.967673 
L 302.134068 190.74823 
L 302.339412 190.528278 
L 302.543994 190.307817 
L 302.747815 190.086848 
L 302.950874 189.865369 
L 303.153172 189.643382 
L 303.354709 189.420886 
L 303.555484 189.197881 
L 303.755497 188.974368 
L 303.954749 188.750346 
L 304.15324 188.525814 
L 304.350969 188.300774 
L 304.547936 188.075226 
L 304.744142 187.849168 
L 304.939587 187.622602 
L 305.13427 187.395527 
L 305.328192 187.167943 
L 305.521352 186.93985 
L 305.71375 186.711248 
L 305.905388 186.482138 
L 306.096263 186.252519 
L 306.286378 186.022391 
L 306.47573 185.791754 
L 306.664322 185.560608 
L 306.852152 185.328954 
L 307.03922 185.096791 
L 307.225527 184.864119 
L 307.411072 184.630938 
L 307.595856 184.397249 
L 307.779879 184.16305 
L 307.96314 183.928343 
L 308.145639 183.693127 
L 308.327377 183.457402 
L 308.508354 183.221169 
L 308.688569 182.984426 
L 308.868023 182.747175 
L 309.046715 182.509415 
L 309.224645 182.271146 
L 309.401815 182.032369 
L 309.578222 181.793082 
L 309.753869 181.553287 
L 309.928753 181.312983 
L 310.102877 181.07217 
L 310.276238 180.830849 
L 310.448839 180.589018 
L 310.620678 180.346679 
L 310.791755 180.103831 
L 310.962071 179.860475 
L 311.131625 179.616609 
L 311.300418 179.372235 
L 311.46845 179.127351 
L 311.63572 178.881959 
L 311.802229 178.636058 
L 311.967976 178.389649 
L 312.132961 178.14273 
L 312.297185 177.895303 
L 312.460648 177.647367 
L 312.623349 177.398922 
L 312.785289 177.149969 
L 312.946467 176.900506 
L 313.106884 176.650535 
L 313.266539 176.400055 
L 313.425433 176.149066 
L 313.583565 175.897569 
L 313.740936 175.645562 
L 313.897546 175.393047 
L 314.053393 175.140023 
L 314.20848 174.88649 
L 314.362805 174.632449 
L 314.516368 174.377898 
L 314.66917 174.122839 
L 314.821211 173.867271 
L 314.97249 173.611194 
L 315.123007 173.354609 
L 315.272764 173.097514 
L 315.421758 172.839911 
L 315.569991 172.581799 
L 315.717463 172.323178 
L 315.864173 172.064048 
L 316.010122 171.80441 
L 316.155309 171.544263 
L 316.299735 171.283607 
L 316.443399 171.022442 
L 316.586302 170.760768 
L 316.728444 170.498586 
L 316.869823 170.235895 
L 317.010442 169.972694 
L 317.150299 169.708986 
L 317.289394 169.444768 
L 317.427728 169.180042 
L 317.565301 168.914806 
L 317.702112 168.649062 
L 317.838161 168.382809 
L 317.973449 168.116048 
L 318.107976 167.848777 
L 318.241741 167.580998 
L 318.374745 167.31271 
L 318.506987 167.043913 
L 318.638468 166.774607 
L 318.769187 166.504793 
L 318.899145 166.23447 
L 319.028341 165.963638 
L 319.156776 165.692297 
L 319.284449 165.420447 
L 319.411361 165.148089 
L 319.537511 164.875221 
L 319.6629 164.601845 
L 319.787528 164.327961 
L 319.911394 164.053567 
L 320.034498 163.778664 
L 320.156841 163.503253 
L 320.278423 163.227333 
L 320.399243 162.950904 
L 320.519301 162.673966 
L 320.638599 162.39652 
L 320.757134 162.118565 
L 320.874908 161.840101 
L 320.991921 161.561128 
L 321.108172 161.281646 
L 321.223594 161.001821 
L 321.338117 160.721817 
L 321.451742 160.441634 
L 321.564468 160.161272 
L 321.676297 159.880732 
L 321.787227 159.600014 
L 321.897259 159.319116 
L 322.006393 159.03804 
L 322.114629 158.756785 
L 322.221966 158.475352 
L 322.328405 158.19374 
L 322.433946 157.911949 
L 322.538589 157.62998 
L 322.642333 157.347832 
L 322.74518 157.065505 
L 322.847128 156.782999 
L 322.948178 156.500315 
L 323.048329 156.217453 
L 323.147583 155.934411 
L 323.245938 155.651191 
L 323.343395 155.367792 
L 323.439953 155.084215 
L 323.535614 154.800459 
L 323.630376 154.516524 
L 323.72424 154.232411 
L 323.817206 153.948118 
L 323.909274 153.663648 
L 324.000443 153.378998 
L 324.090714 153.09417 
L 324.180087 152.809163 
L 324.268562 152.523978 
L 324.356139 152.238614 
L 324.442817 151.953071 
L 324.528597 151.66735 
L 324.613479 151.38145 
L 324.697462 151.095371 
L 324.780548 150.809113 
L 324.862735 150.522677 
L 324.944024 150.236062 
L 325.024415 149.949269 
L 325.103907 149.662297 
L 325.182502 149.375146 
L 325.260198 149.087817 
L 325.336996 148.800309 
L 325.412895 148.512622 
L 325.487897 148.224756 
L 325.562 147.936712 
L 325.635205 147.64849 
L 325.707512 147.360088 
L 325.77892 147.071508 
L 325.849431 146.782749 
L 325.919043 146.493812 
L 325.987757 146.204696 
L 326.055572 145.915401 
L 326.12249 145.625927 
L 326.188509 145.336275 
L 326.25363 145.046445 
L 326.317853 144.756435 
L 326.381177 144.466247 
L 326.443604 144.17588 
L 326.505132 143.885335 
L 326.565762 143.594611 
L 326.625493 143.303708 
L 326.684327 143.012626 
L 326.742262 142.721366 
L 326.799299 142.429927 
L 326.855438 142.13831 
L 326.910678 141.846514 
L 326.965021 141.554539 
L 327.018465 141.262386 
L 327.071011 140.970054 
L 327.122659 140.677543 
L 327.173408 140.384853 
L 327.223259 140.091985 
L 327.272212 139.798938 
L 327.320267 139.505713 
L 327.367424 139.212309 
L 327.413682 138.918726 
L 327.459042 138.624965 
L 327.503504 138.331024 
L 327.547068 138.036906 
L 327.589733 137.742608 
L 327.631501 137.448132 
L 327.67237 137.153477 
L 327.71234 136.858644 
L 327.751413 136.563632 
L 327.789587 136.268441 
L 327.826864 135.973071 
L 327.863242 135.677523 
L 327.898721 135.381796 
L 327.933303 135.085891 
L 327.966986 134.789807 
L 327.999771 134.493544 
L 328.031658 134.197103 
L 328.062647 133.900482 
L 328.092737 133.603684 
L 328.121929 133.306706 
L 328.150223 133.00955 
L 328.177619 132.712215 
L 328.204116 132.414702 
L 328.229716 132.11701 
L 328.254417 131.819139 
L 328.27822 131.521089 
L 328.301124 131.222861 
L 328.323131 130.924454 
L 328.344239 130.625869 
L 328.364449 130.327105 
L 328.383761 130.028162 
L 328.402174 129.729041 
L 328.419689 129.42974 
L 328.436306 129.130262 
L 328.452025 128.830604 
L 328.466846 128.530768 
L 328.480768 128.230753 
L 328.493793 127.93056 
L 328.505919 127.630188 
L 328.517146 127.329637 
L 328.527476 127.028907 
L 328.536907 126.727999 
L 328.54544 126.426912 
L 328.553075 126.125647 
L 328.559812 125.824203 
L 328.56565 125.52258 
L 328.57059 125.220778 
L 328.574632 124.918798 
L 328.577776 124.616639 
L 328.580022 124.314302 
L 328.581369 124.011786 
L 328.581818 123.709091 
L 328.201268 123.709091 
L 327.820719 123.709091 
L 327.440169 123.709091 
L 327.059619 123.709091 
L 326.67907 123.709091 
L 326.29852 123.709091 
L 325.91797 123.709091 
L 325.537421 123.709091 
L 325.156871 123.709091 
L 324.776321 123.709091 
L 324.395772 123.709091 
L 324.015222 123.709091 
L 323.634672 123.709091 
L 323.254123 123.709091 
L 322.873573 123.709091 
L 322.493023 123.709091 
L 322.112474 123.709091 
L 321.731924 123.709091 
L 321.351374 123.709091 
L 320.970825 123.709091 
L 320.590275 123.709091 
L 320.209725 123.709091 
L 319.829175 123.709091 
L 319.448626 123.709091 
L 319.068076 123.709091 
L 318.687526 123.709091 
L 318.306977 123.709091 
L 317.926427 123.709091 
L 317.545877 123.709091 
L 317.165328 123.709091 
L 316.784778 123.709091 
L 316.404228 123.709091 
L 316.023679 123.709091 
L 315.643129 123.709091 
L 315.262579 123.709091 
L 314.88203 123.709091 
L 314.50148 123.709091 
L 314.12093 123.709091 
L 313.740381 123.709091 
L 313.359831 123.709091 
L 312.979281 123.709091 
L 312.598732 123.709091 
L 312.218182 123.709091 
L 311.837632 123.709091 
L 311.457082 123.709091 
L 311.076533 123.709091 
L 310.695983 123.709091 
L 310.315433 123.709091 
L 309.934884 123.709091 
L 309.554334 123.709091 
L 309.173784 123.709091 
L 308.793235 123.709091 
L 308.412685 123.709091 
L 308.032135 123.709091 
L 307.651586 123.709091 
L 307.271036 123.709091 
L 306.890486 123.709091 
L 306.509937 123.709091 
L 306.129387 123.709091 
L 305.748837 123.709091 
L 305.368288 123.709091 
L 304.987738 123.709091 
L 304.607188 123.709091 
L 304.226638 123.709091 
L 303.846089 123.709091 
L 303.465539 123.709091 
L 303.084989 123.709091 
L 302.70444 123.709091 
L 302.32389 123.709091 
L 301.94334 123.709091 
L 301.562791 123.709091 
L 301.182241 123.709091 
L 300.801691 123.709091 
L 300.421142 123.709091 
L 300.040592 123.709091 
L 299.660042 123.709091 
L 299.279493 123.709091 
L 298.898943 123.709091 
L 298.518393 123.709091 
L 298.137844 123.709091 
L 297.757294 123.709091 
L 297.376744 123.709091 
L 296.996195 123.709091 
L 296.615645 123.709091 
L 296.235095 123.709091 
L 295.854545 123.709091 
L 295.473996 123.709091 
L 295.093446 123.709091 
L 294.712896 123.709091 
L 294.332347 123.709091 
L 293.951797 123.709091 
L 293.571247 123.709091 
L 293.190698 123.709091 
L 292.810148 123.709091 
L 292.429598 123.709091 
L 292.049049 123.709091 
L 291.668499 123.709091 
L 291.287949 123.709091 
L 290.9074 123.709091 
L 290.52685 123.709091 
L 290.1463 123.709091 
L 289.765751 123.709091 
L 289.385201 123.709091 
L 289.004651 123.709091 
L 288.624101 123.709091 
L 288.243552 123.709091 
L 287.863002 123.709091 
L 287.482452 123.709091 
L 287.101903 123.709091 
L 286.721353 123.709091 
L 286.340803 123.709091 
L 285.960254 123.709091 
L 285.579704 123.709091 
L 285.199154 123.709091 
L 284.818605 123.709091 
L 284.438055 123.709091 
L 284.057505 123.709091 
L 283.676956 123.709091 
L 283.296406 123.709091 
L 282.915856 123.709091 
L 282.535307 123.709091 
L 282.154757 123.709091 
L 281.774207 123.709091 
L 281.393658 123.709091 
L 281.013108 123.709091 
L 280.632558 123.709091 
L 280.252008 123.709091 
L 279.871459 123.709091 
L 279.490909 123.709091 
L 279.110359 123.709091 
L 278.72981 123.709091 
L 278.34926 123.709091 
L 277.96871 123.709091 
L 277.588161 123.709091 
L 277.207611 123.709091 
L 276.827061 123.709091 
L 276.446512 123.709091 
L 276.065962 123.709091 
L 275.685412 123.709091 
L 275.304863 123.709091 
L 274.924313 123.709091 
L 274.543763 123.709091 
L 274.163214 123.709091 
L 273.782664 123.709091 
L 273.402114 123.709091 
L 273.021564 123.709091 
L 272.641015 123.709091 
L 272.260465 123.709091 
L 271.879915 123.709091 
L 271.499366 123.709091 
L 271.118816 123.709091 
L 270.738266 123.709091 
L 270.357717 123.709091 
L 269.977167 123.709091 
L 269.596617 123.709091 
L 269.216068 123.709091 
L 268.835518 123.709091 
L 268.454968 123.709091 
L 268.074419 123.709091 
L 267.693869 123.709091 
L 267.313319 123.709091 
L 266.93277 123.709091 
L 266.55222 123.709091 
L 266.17167 123.709091 
L 265.791121 123.709091 
L 265.410571 123.709091 
L 265.030021 123.709091 
L 264.649471 123.709091 
L 264.268922 123.709091 
L 263.888372 123.709091 
L 263.507822 123.709091 
L 263.127273 123.709091 
L 262.746723 123.709091 
L 262.366173 123.709091 
L 261.985624 123.709091 
L 261.605074 123.709091 
L 261.224524 123.709091 
L 260.843975 123.709091 
L 260.463425 123.709091 
L 260.082875 123.709091 
L 259.702326 123.709091 
L 259.321776 123.709091 
L 258.941226 123.709091 
L 258.560677 123.709091 
L 258.180127 123.709091 
L 257.799577 123.709091 
L 257.419027 123.709091 
L 257.038478 123.709091 
L 256.657928 123.709091 
L 256.277378 123.709091 
L 255.896829 123.709091 
L 255.516279 123.709091 
L 255.135729 123.709091 
L 254.75518 123.709091 
L 254.37463 123.709091 
L 253.99408 123.709091 
L 253.613531 123.709091 
L 253.232981 123.709091 
L 252.852431 123.709091 
L 252.471882 123.709091 
L 252.091332 123.709091 
L 251.710782 123.709091 
L 251.330233 123.709091 
L 250.949683 123.709091 
L 250.569133 123.709091 
L 250.188584 123.709091 
L 249.808034 123.709091 
L 249.427484 123.709091 
L 249.046934 123.709091 
L 248.666385 123.709091 
L 248.285835 123.709091 
L 247.905285 123.709091 
L 247.524736 123.709091 
L 247.144186 123.709091 
L 246.763636 123.709091 
L 246.383087 123.709091 
L 246.002537 123.709091 
L 245.621987 123.709091 
L 245.241438 123.709091 
L 244.860888 123.709091 
L 244.480338 123.709091 
L 244.099789 123.709091 
L 243.719239 123.709091 
L 243.338689 123.709091 
L 242.95814 123.709091 
L 242.57759 123.709091 
L 242.19704 123.709091 
L 241.81649 123.709091 
L 241.435941 123.709091 
L 241.055391 123.709091 
L 240.674841 123.709091 
L 240.294292 123.709091 
L 239.913742 123.709091 
L 239.533192 123.709091 
L 239.152643 123.709091 
L 238.772093 123.709091 
L 238.391543 123.709091 
L 238.010994 123.709091 
L 237.630444 123.709091 
L 237.249894 123.709091 
L 236.869345 123.709091 
L 236.488795 123.709091 
L 236.108245 123.709091 
L 235.727696 123.709091 
L 235.347146 123.709091 
L 234.966596 123.709091 
L 234.586047 123.709091 
L 234.205497 123.709091 
L 233.824947 123.709091 
L 233.444397 123.709091 
L 233.063848 123.709091 
L 232.683298 123.709091 
L 232.302748 123.709091 
L 231.922199 123.709091 
L 231.541649 123.709091 
L 231.161099 123.709091 
L 230.78055 123.709091 
L 230.4 123.709091 
L 230.097305 123.70954 
L 229.794789 123.710887 
L 229.492452 123.713133 
L 229.190293 123.716277 
L 228.888313 123.720319 
L 228.586511 123.725259 
L 228.284888 123.731097 
L 227.983444 123.737834 
L 227.682179 123.745469 
L 227.381092 123.754002 
L 227.080184 123.763433 
L 226.779454 123.773763 
L 226.478903 123.784991 
L 226.178531 123.797117 
L 225.878338 123.810141 
L 225.578323 123.824063 
L 225.278487 123.838884 
L 224.978829 123.854603 
L 224.679351 123.87122 
L 224.38005 123.888735 
L 224.080929 123.907149 
L 223.781986 123.92646 
L 223.483222 123.94667 
L 223.184636 123.967778 
L 222.88623 123.989785 
L 222.588002 124.01269 
L 222.289952 124.036492 
L 221.992081 124.061193 
L 221.694389 124.086793 
L 221.396876 124.11329 
L 221.099541 124.140686 
L 220.802385 124.16898 
L 220.505407 124.198172 
L 220.208608 124.228263 
L 219.911988 124.259251 
L 219.615547 124.291138 
L 219.319284 124.323923 
L 219.0232 124.357606 
L 218.727294 124.392188 
L 218.431568 124.427668 
L 218.13602 124.464045 
L 217.84065 124.501322 
L 217.545459 124.539496 
L 217.250447 124.578569 
L 216.955614 124.618539 
L 216.660959 124.659408 
L 216.366483 124.701176 
L 216.072185 124.743841 
L 215.778066 124.787405 
L 215.484126 124.831867 
L 215.190365 124.877227 
L 214.896782 124.923485 
L 214.603378 124.970642 
L 214.310153 125.018697 
L 214.017106 125.06765 
L 213.724238 125.117501 
L 213.431548 125.168251 
L 213.139037 125.219898 
L 212.846705 125.272444 
L 212.554552 125.325888 
L 212.262577 125.380231 
L 211.970781 125.435471 
L 211.679163 125.49161 
L 211.387725 125.548647 
L 211.096465 125.606582 
L 210.805383 125.665416 
L 210.51448 125.725147 
L 210.223756 125.785777 
L 209.933211 125.847305 
L 209.642844 125.909732 
L 209.352656 125.973056 
L 209.062646 126.037279 
L 208.772816 126.1024 
L 208.483164 126.168419 
L 208.19369 126.235337 
L 207.904395 126.303152 
L 207.615279 126.371866 
L 207.326342 126.441478 
L 207.037583 126.511989 
L 206.749003 126.583397 
L 206.460601 126.655704 
L 206.172379 126.728909 
L 205.884335 126.803012 
L 205.596469 126.878014 
L 205.308782 126.953913 
L 205.021274 127.030711 
L 204.733945 127.108407 
L 204.446794 127.187002 
L 204.159822 127.266494 
L 203.873028 127.346885 
L 203.586414 127.428174 
L 203.299978 127.510361 
L 203.01372 127.593447 
L 202.727641 127.67743 
L 202.441741 127.762312 
L 202.15602 127.848092 
L 201.870477 127.934771 
L 201.585113 128.022347 
L 201.299928 128.110822 
L 201.014921 128.200195 
L 200.730093 128.290466 
L 200.445443 128.381635 
L 200.160972 128.473703 
L 199.87668 128.566669 
L 199.592567 128.660533 
L 199.308632 128.755295 
L 199.024876 128.850956 
L 198.741299 128.947514 
L 198.4579 129.044971 
L 198.17468 129.143327 
L 197.891638 129.24258 
L 197.608776 129.342732 
L 197.326092 129.443781 
L 197.043586 129.545729 
L 196.761259 129.648576 
L 196.479111 129.75232 
L 196.197142 129.856963 
L 195.915351 129.962504 
L 195.633739 130.068943 
L 195.352306 130.17628 
L 195.071051 130.284516 
L 194.789975 130.39365 
L 194.509077 130.503682 
L 194.228359 130.614612 
L 193.947818 130.726441 
L 193.667457 130.839167 
L 193.387274 130.952792 
L 193.10727 131.067315 
L 192.827445 131.182737 
L 192.547963 131.298988 
L 192.26899 131.416001 
L 191.990526 131.533775 
L 191.712571 131.652311 
L 191.435124 131.771608 
L 191.158187 131.891666 
L 190.881758 132.012486 
L 190.605838 132.134068 
L 190.330427 132.256411 
L 190.055524 132.379515 
L 189.78113 132.503381 
L 189.507246 132.628009 
L 189.233869 132.753398 
L 188.961002 132.879548 
L 188.688644 133.00646 
L 188.416794 133.134133 
L 188.145453 133.262568 
L 187.874621 133.391764 
L 187.604298 133.521722 
L 187.334483 133.652441 
L 187.065178 133.783922 
L 186.796381 133.916164 
L 186.528093 134.049168 
L 186.260314 134.182933 
L 185.993043 134.31746 
L 185.726281 134.452748 
L 185.460029 134.588797 
L 185.194285 134.725608 
L 184.929049 134.863181 
L 184.664323 135.001515 
L 184.400105 135.14061 
L 184.136396 135.280467 
L 183.873196 135.421086 
L 183.610505 135.562466 
L 183.348323 135.704607 
L 183.086649 135.84751 
L 182.825484 135.991174 
L 182.564828 136.1356 
L 182.304681 136.280787 
L 182.045042 136.426736 
L 181.785913 136.573446 
L 181.527292 136.720918 
L 181.26918 136.869151 
L 181.011577 137.018145 
L 180.754482 137.167902 
L 180.497897 137.318419 
L 180.24182 137.469698 
L 179.986252 137.621739 
L 179.731193 137.774541 
L 179.476642 137.928104 
L 179.222601 138.082429 
L 178.969068 138.237516 
L 178.716044 138.393364 
L 178.463529 138.549973 
L 178.211522 138.707344 
L 177.960025 138.865476 
L 177.709036 139.02437 
L 177.458556 139.184025 
L 177.208584 139.344442 
L 176.959122 139.50562 
L 176.710168 139.66756 
L 176.461724 139.830261 
L 176.213788 139.993724 
L 175.96636 140.157948 
L 175.719442 140.322933 
L 175.473032 140.488681 
L 175.227132 140.655189 
L 174.98174 140.822459 
L 174.736856 140.990491 
L 174.492482 141.159284 
L 174.248616 141.328838 
L 174.00526 141.499154 
L 173.762412 141.670231 
L 173.520072 141.84207 
L 173.278242 142.014671 
L 173.03692 142.188032 
L 172.796108 142.362156 
L 172.555804 142.537041 
L 172.316008 142.712687 
L 172.076722 142.889094 
L 171.837944 143.066264 
L 171.599676 143.244194 
L 171.361916 143.422887 
L 171.124665 143.60234 
L 170.887922 143.782555 
L 170.651689 143.963532 
L 170.415964 144.14527 
L 170.180748 144.327769 
L 169.946041 144.51103 
L 169.711842 144.695053 
L 169.478153 144.879837 
L 169.244972 145.065382 
L 169.0123 145.251689 
L 168.780137 145.438757 
L 168.548482 145.626587 
L 168.317337 145.815179 
L 168.0867 146.004531 
L 167.856572 146.194646 
L 167.626953 146.385521 
L 167.397843 146.577159 
L 167.169241 146.769557 
L 166.941148 146.962718 
L 166.713564 147.156639 
L 166.486489 147.351322 
L 166.259923 147.546767 
L 166.033865 147.742973 
L 165.808316 147.939941 
L 165.583277 148.13767 
L 165.358745 148.33616 
L 165.134723 148.535412 
L 164.911209 148.735425 
L 164.688205 148.9362 
L 164.465709 149.137737 
L 164.243722 149.340035 
L 164.022243 149.543094 
L 163.801274 149.746915 
L 163.580813 149.951497 
L 163.360861 150.156841 
L 163.141418 150.362946 
L 162.922484 150.569813 
L 162.704058 150.777441 
L 162.486141 150.985831 
L 162.268733 151.194982 
L 162.051834 151.404894 
L 161.835444 151.615569 
L 161.619562 151.827004 
L 161.40419 152.039201 
L 161.189326 152.25216 
L 160.974971 152.46588 
L 160.761251 152.680235 
L 160.548292 152.895099 
L 160.336095 153.110471 
L 160.124659 153.326353 
L 159.913985 153.542743 
L 159.704073 153.759642 
L 159.494922 153.97705 
L 159.286532 154.194967 
L 159.078904 154.413393 
L 158.872037 154.632327 
L 158.665932 154.85177 
L 158.460588 155.071722 
L 158.256006 155.292183 
L 158.052185 155.513152 
L 157.849126 155.734631 
L 157.646828 155.956618 
L 157.445291 156.179114 
L 157.244516 156.402119 
L 157.044503 156.625632 
L 156.845251 156.849654 
L 156.64676 157.074186 
L 156.449031 157.299226 
L 156.252064 157.524774 
L 156.055858 157.750832 
L 155.860413 157.977398 
L 155.66573 158.204473 
L 155.471808 158.432057 
L 155.278648 158.66015 
L 155.08625 158.888752 
L 154.894612 159.117862 
L 154.703737 159.347481 
L 154.513622 159.577609 
L 154.32427 159.808246 
L 154.135678 160.039392 
L 153.947848 160.271046 
L 153.76078 160.503209 
L 153.574473 160.735881 
L 153.388928 160.969062 
L 153.204144 161.202751 
L 153.020121 161.43695 
L 152.83686 161.671657 
L 152.654361 161.906873 
L 152.472623 162.142598 
L 152.291646 162.378831 
L 152.111431 162.615574 
L 151.931977 162.852825 
L 151.753285 163.090585 
L 151.575355 163.328854 
L 151.398185 163.567631 
L 151.221778 163.806918 
L 151.046131 164.046713 
L 150.871247 164.287017 
L 150.697123 164.52783 
L 150.523762 164.769151 
L 150.351161 165.010982 
L 150.179322 165.253321 
L 150.008245 165.496169 
L 149.837929 165.739525 
L 149.668375 165.983391 
L 149.499582 166.227765 
L 149.33155 166.472649 
L 149.16428 166.718041 
L 148.997771 166.963942 
L 148.832024 167.210351 
L 148.667039 167.45727 
L 148.502815 167.704697 
L 148.339352 167.952633 
L 148.176651 168.201078 
L 148.014711 168.450031 
L 147.853533 168.699494 
L 147.693116 168.949465 
L 147.533461 169.199945 
L 147.374567 169.450934 
L 147.216435 169.702431 
L 147.059064 169.954438 
L 146.902454 170.206953 
L 146.746607 170.459977 
L 146.59152 170.71351 
L 146.437195 170.967551 
L 146.283632 171.222102 
L 146.13083 171.477161 
L 145.978789 171.732729 
L 145.82751 171.988806 
L 145.676993 172.245391 
L 145.527236 172.502486 
L 145.378242 172.760089 
L 145.230009 173.018201 
L 145.082537 173.276822 
L 144.935827 173.535952 
L 144.789878 173.79559 
L 144.644691 174.055737 
L 144.500265 174.316393 
L 144.356601 174.577558 
L 144.213698 174.839232 
L 144.071556 175.101414 
L 143.930177 175.364105 
L 143.789558 175.627306 
L 143.649701 175.891014 
L 143.510606 176.155232 
L 143.372272 176.419958 
L 143.234699 176.685194 
L 143.097888 176.950938 
L 142.961839 177.217191 
L 142.826551 177.483952 
L 142.692024 177.751223 
L 142.558259 178.019002 
L 142.425255 178.28729 
L 142.293013 178.556087 
L 142.161532 178.825393 
L 142.030813 179.095207 
L 141.900855 179.36553 
L 141.771659 179.636362 
L 141.643224 179.907703 
L 141.515551 180.179553 
L 141.388639 180.451911 
L 141.262489 180.724779 
L 141.1371 180.998155 
L 141.012472 181.272039 
L 140.888606 181.546433 
L 140.765502 181.821336 
L 140.643159 182.096747 
L 140.521577 182.372667 
L 140.400757 182.649096 
L 140.280699 182.926034 
L 140.161401 183.20348 
L 140.042866 183.481435 
L 139.925092 183.759899 
L 139.808079 184.038872 
L 139.691828 184.318354 
L 139.576406 184.598179 
L 139.461883 184.878183 
L 139.348258 185.158366 
L 139.235532 185.438728 
L 139.123703 185.719268 
L 139.012773 185.999986 
L 138.902741 186.280884 
L 138.793607 186.56196 
L 138.685371 186.843215 
L 138.578034 187.124648 
L 138.471595 187.40626 
L 138.366054 187.688051 
L 138.261411 187.97002 
L 138.157667 188.252168 
L 138.05482 188.534495 
L 137.952872 188.817001 
L 137.851822 189.099685 
L 137.751671 189.382547 
L 137.652417 189.665589 
L 137.554062 189.948809 
L 137.456605 190.232208 
L 137.360047 190.515785 
L 137.264386 190.799541 
L 137.169624 191.083476 
L 137.07576 191.367589 
L 136.982794 191.651882 
L 136.890726 191.936352 
L 136.799557 192.221002 
L 136.709286 192.50583 
L 136.619913 192.790837 
L 136.531438 193.076022 
L 136.443861 193.361386 
L 136.357183 193.646929 
L 136.271403 193.93265 
L 136.186521 194.21855 
L 136.102538 194.504629 
L 136.019452 194.790887 
L 135.937265 195.077323 
L 135.855976 195.363938 
L 135.775585 195.650731 
L 135.696093 195.937703 
L 135.617498 196.224854 
L 135.539802 196.512183 
L 135.463004 196.799691 
L 135.387105 197.087378 
L 135.312103 197.375244 
L 135.238 197.663288 
L 135.164795 197.95151 
L 135.092488 198.239912 
L 135.02108 198.528492 
L 134.950569 198.817251 
L 134.880957 199.106188 
L 134.812243 199.395304 
L 134.744428 199.684599 
L 134.67751 199.974073 
L 134.611491 200.263725 
L 134.54637 200.553555 
L 134.482147 200.843565 
L 134.418823 201.133753 
L 134.356396 201.42412 
L 134.294868 201.714665 
L 134.234238 202.005389 
L 134.174507 202.296292 
L 134.115673 202.587374 
L 134.057738 202.878634 
L 134.000701 203.170073 
L 133.944562 203.46169 
L 133.889322 203.753486 
L 133.834979 204.045461 
L 133.781535 204.337614 
L 133.728989 204.629946 
L 133.677341 204.922457 
L 133.626592 205.215147 
L 133.576741 205.508015 
L 133.527788 205.801062 
L 133.479733 206.094287 
L 133.432576 206.387691 
L 133.386318 206.681274 
L 133.340958 206.975035 
L 133.296496 207.268976 
L 133.252932 207.563094 
L 133.210267 207.857392 
L 133.168499 208.151868 
L 133.12763 208.446523 
L 133.08766 208.741356 
L 133.048587 209.036368 
L 133.010413 209.331559 
L 132.973136 209.626929 
L 132.936758 209.922477 
L 132.901279 210.218204 
L 132.866697 210.514109 
L 132.833014 210.810193 
L 132.800229 211.106456 
L 132.768342 211.402897 
L 132.737353 211.699518 
L 132.707263 211.996316 
L 132.678071 212.293294 
L 132.649777 212.59045 
L 132.622381 212.887785 
L 132.595884 213.185298 
L 132.570284 213.48299 
L 132.545583 213.780861 
L 132.52178 214.078911 
L 132.498876 214.377139 
L 132.476869 214.675546 
L 132.455761 214.974131 
L 132.435551 215.272895 
L 132.416239 215.571838 
L 132.397826 215.870959 
L 132.380311 216.17026 
L 132.363694 216.469738 
L 132.347975 216.769396 
L 132.333154 217.069232 
L 132.319232 217.369247 
L 132.306207 217.66944 
L 132.294081 217.969812 
L 132.282854 218.270363 
L 132.272524 218.571093 
L 132.263093 218.872001 
L 132.25456 219.173088 
L 132.246925 219.474353 
L 132.240188 219.775797 
L 132.23435 220.07742 
L 132.22941 220.379222 
L 132.225368 220.681202 
L 132.222224 220.983361 
L 132.219978 221.285698 
L 132.218631 221.588214 
z
" clip-path="url(#p3eb73355a5)" style="fill: #00ff00; opacity: 0.3; stroke: #00ff00; stroke-linejoin: miter"/>
   </g>
   <g id="matplotlib.axis_1"/>
   <g id="matplotlib.axis_2"/>
   <g id="line2d_1">
    <path d="M 34.036364 25.527273 
L 426.763636 25.527273 
L 426.763636 320.072727 
" clip-path="url(#p3eb73355a5)" style="fill: none; stroke: #ffffff; stroke-width: 1.5; stroke-linecap: square"/>
   </g>
   <g id="line2d_2">
    <path d="M 132.218182 221.890909 
L 234.921662 221.789859 
L 239.700459 221.459314 
L 244.433517 220.898824 
L 249.120837 220.10839 
L 253.762417 219.088011 
L 258.358259 217.837688 
L 262.908362 216.35742 
L 267.412726 214.647208 
L 271.838998 212.720452 
L 276.135677 210.598485 
L 280.302103 208.281581 
L 284.338276 205.769739 
L 288.244196 203.062959 
L 292.019863 200.161243 
L 295.665277 197.064588 
L 299.180438 193.772996 
L 302.543994 190.307817 
L 305.71375 186.711248 
L 308.688569 182.984426 
L 311.46845 179.127351 
L 314.053393 175.140023 
L 316.443399 171.022442 
L 318.638468 166.774607 
L 320.638599 162.39652 
L 322.433946 157.911949 
L 324.000443 153.378998 
L 325.336996 148.800309 
L 326.443604 144.17588 
L 327.320267 139.505713 
L 327.966986 134.789807 
L 328.383761 130.028162 
L 328.57059 125.220778 
L 328.581818 123.709091 
L 225.878338 123.810141 
L 221.099541 124.140686 
L 216.366483 124.701176 
L 211.679163 125.49161 
L 207.037583 126.511989 
L 202.441741 127.762312 
L 197.891638 129.24258 
L 193.387274 130.952792 
L 188.961002 132.879548 
L 184.664323 135.001515 
L 180.497897 137.318419 
L 176.461724 139.830261 
L 172.555804 142.537041 
L 168.780137 145.438757 
L 165.134723 148.535412 
L 161.619562 151.827004 
L 158.256006 155.292183 
L 155.08625 158.888752 
L 152.111431 162.615574 
L 149.33155 166.472649 
L 146.746607 170.459977 
L 144.356601 174.577558 
L 142.161532 178.825393 
L 140.161401 183.20348 
L 138.366054 187.688051 
L 136.799557 192.221002 
L 135.463004 196.799691 
L 134.356396 201.42412 
L 133.479733 206.094287 
L 132.833014 210.810193 
L 132.416239 215.571838 
L 132.22941 220.379222 
L 132.218182 221.890909 
L 132.218182 221.890909 
" clip-path="url(#p3eb73355a5)" style="fill: none; stroke: #ff0000; stroke-width: 3; stroke-linecap: square"/>
   </g>
  </g>
 </g>
 <defs>
  <clipPath id="p3eb73355a5">
   <rect x="14.4" y="10.8" width="432" height="324"/>
  </clipPath>
 </defs>
</svg>
