<?xml version="1.0" encoding="UTF-8" standalone="no"?>
<!-- Created with Inkscape (http://www.inkscape.org/) -->

<svg
   version="1.1"
   id="svg1810"
   width="49.278793"
   height="46.830376"
   viewBox="0 0 49.278795 46.830377"
   xmlns="http://www.w3.org/2000/svg"
   xmlns:svg="http://www.w3.org/2000/svg">
  <defs
     id="defs1814">
    <clipPath
       clipPathUnits="userSpaceOnUse"
       id="clipPath1830">
      <path
         d="M -5.66927,-62.36288 V 62.36288 H 119.0565 V -62.36288 Z"
         id="path1828" />
    </clipPath>
  </defs>
  <g
     id="g1818"
     transform="matrix(1.3333333,0,0,-1.3333333,-79.962156,106.56303)">
    <g
       id="g1820"
       transform="translate(5.669,62.362)">
      <g
         id="g1822">
        <g
           id="g1824">
          <g
             id="g1826"
             clip-path="url(#clipPath1830)">
            <g
               id="g1832">
              <g
                 id="g1834">
                <path
                   d="M 65.19774,17.00824 C 68.73747,18.18816 78.66582,12.0439 82.20555,8.50412 85.74529,4.96434 91.88957,-4.96434 90.7097,-8.50412 89.52983,-12.0439 78.42152,-18.18816 73.70186,-17.00824 68.9822,-15.82832 57.87354,-4.71971 56.69362,0 55.5137,4.71971 61.658,15.82832 65.19774,17.00824 Z"
                   style="fill:#ccccff;fill-opacity:1;fill-rule:nonzero;stroke:#0000ff;stroke-width:0.79701;stroke-linecap:butt;stroke-linejoin:miter;stroke-miterlimit:10;stroke-dasharray:none;stroke-opacity:1"
                   id="path1836" />
              </g>
              <g
                 id="g1838">
                <path
                   d="M 56.69362,1.98447 V 1.84373"
                   style="fill:none;stroke:#0000ff;stroke-width:0.79701;stroke-linecap:butt;stroke-linejoin:miter;stroke-miterlimit:10;stroke-dasharray:none;stroke-opacity:1"
                   id="path1840" />
                <g
                   id="g1842"
                   transform="rotate(90,27.424945,29.268675)">
                  <g
                     id="g1844">
                    <path
                       d="M -1.55415,2.0722 C -1.42464,1.29512 0,0.1295 0.38852,0 0,-0.1295 -1.42464,-1.29512 -1.55415,-2.0722"
                       style="fill:none;stroke:#0000ff;stroke-width:0.6376;stroke-linecap:round;stroke-linejoin:round;stroke-miterlimit:10;stroke-dasharray:none;stroke-opacity:1"
                       id="path1846" />
                  </g>
                </g>
              </g>
              <g
                 id="g1848">
                <path
                   d="M 81.92226,8.78741 81.9887,8.72098"
                   style="fill:none;stroke:#0000ff;stroke-width:0.79701;stroke-linecap:butt;stroke-linejoin:miter;stroke-miterlimit:10;stroke-dasharray:none;stroke-opacity:1"
                   id="path1850" />
                <g
                   id="g1852"
                   transform="matrix(0.7071,-0.7071,0.7071,0.7071,81.98868,8.721)">
                  <g
                     id="g1854">
                    <path
                       d="M -1.55415,2.0722 C -1.42464,1.29512 0,0.1295 0.38852,0 0,-0.1295 -1.42464,-1.29512 -1.55415,-2.0722"
                       style="fill:none;stroke:#0000ff;stroke-width:0.6376;stroke-linecap:round;stroke-linejoin:round;stroke-miterlimit:10;stroke-dasharray:none;stroke-opacity:1"
                       id="path1856" />
                  </g>
                </g>
              </g>
              <g
                 id="g1858">
                <path
                   d="m 82.48888,-15.16519 0.06581,0.03297"
                   style="fill:none;stroke:#0000ff;stroke-width:0.79701;stroke-linecap:butt;stroke-linejoin:miter;stroke-miterlimit:10;stroke-dasharray:none;stroke-opacity:1"
                   id="path1860" />
                <g
                   id="g1862"
                   transform="matrix(-0.89409,-0.44775,0.44775,-0.89409,82.5547,-15.13222)">
                  <g
                     id="g1864">
                    <path
                       d="M -1.55415,2.0722 C -1.42464,1.29512 0,0.1295 0.38852,0 0,-0.1295 -1.42464,-1.29512 -1.55415,-2.0722"
                       style="fill:none;stroke:#0000ff;stroke-width:0.6376;stroke-linecap:round;stroke-linejoin:round;stroke-miterlimit:10;stroke-dasharray:none;stroke-opacity:1"
                       id="path1866" />
                  </g>
                </g>
              </g>
            </g>
          </g>
        </g>
      </g>
    </g>
  </g>
</svg>
