<?xml version="1.0" encoding="UTF-8" standalone="no"?>
<!-- Created with Inkscape (http://www.inkscape.org/) -->

<svg
   version="1.1"
   id="svg2"
   width="49.278793"
   height="47.879433"
   viewBox="0 0 49.278795 47.879434"
   xmlns="http://www.w3.org/2000/svg"
   xmlns:svg="http://www.w3.org/2000/svg">
  <defs
     id="defs6">
    <clipPath
       clipPathUnits="userSpaceOnUse"
       id="clipPath22">
      <path
         d="M -5.66927,-62.36288 V 62.36288 H 119.0565 V -62.36288 Z"
         id="path20" />
    </clipPath>
  </defs>
  <g
     id="g10"
     transform="matrix(1.3333333,0,0,-1.3333333,-79.962156,106.56303)">
    <g
       id="g12"
       transform="translate(5.669,62.362)">
      <g
         id="g14">
        <g
           id="g16">
          <g
             id="g18"
             clip-path="url(#clipPath22)">
            <g
               id="g24">
              <g
                 id="g26">
                <path
                   d="M 65.19774,17.00824 C 68.73747,18.18816 78.66582,12.0439 82.20555,8.50412 85.74529,4.96434 91.88957,-4.96434 90.7097,-8.50412 89.52983,-12.0439 78.42152,-18.18816 73.70186,-17.00824 68.9822,-15.82832 57.87354,-4.71971 56.69362,0 55.5137,4.71971 61.658,15.82832 65.19774,17.00824 Z"
                   style="fill:#ffcccc;fill-opacity:1;fill-rule:nonzero;stroke:#ff0000;stroke-width:0.79701;stroke-linecap:butt;stroke-linejoin:miter;stroke-miterlimit:10;stroke-dasharray:none;stroke-opacity:1"
                   id="path28" />
              </g>
              <g
                 id="g30">
                <path
                   d="M 56.69362,1.4174 V 1.55772"
                   style="fill:none;stroke:#ff0000;stroke-width:0.79701;stroke-linecap:butt;stroke-linejoin:miter;stroke-miterlimit:10;stroke-dasharray:none;stroke-opacity:1"
                   id="path32" />
                <g
                   id="g34"
                   transform="rotate(-90,29.12567,-27.56795)">
                  <g
                     id="g36">
                    <path
                       d="M -1.55415,2.0722 C -1.42464,1.29512 0,0.1295 0.38852,0 0,-0.1295 -1.42464,-1.29512 -1.55415,-2.0722"
                       style="fill:none;stroke:#ff0000;stroke-width:0.6376;stroke-linecap:round;stroke-linejoin:round;stroke-miterlimit:10;stroke-dasharray:none;stroke-opacity:1"
                       id="path38" />
                  </g>
                </g>
              </g>
              <g
                 id="g40">
                <path
                   d="M 82.48888,8.2208 82.42242,8.28725"
                   style="fill:none;stroke:#ff0000;stroke-width:0.79701;stroke-linecap:butt;stroke-linejoin:miter;stroke-miterlimit:10;stroke-dasharray:none;stroke-opacity:1"
                   id="path42" />
                <g
                   id="g44"
                   transform="matrix(-0.7071,0.7071,-0.7071,-0.7071,82.42244,8.28723)">
                  <g
                     id="g46">
                    <path
                       d="M -1.55415,2.0722 C -1.42464,1.29512 0,0.1295 0.38852,0 0,-0.1295 -1.42464,-1.29512 -1.55415,-2.0722"
                       style="fill:none;stroke:#ff0000;stroke-width:0.6376;stroke-linecap:round;stroke-linejoin:round;stroke-miterlimit:10;stroke-dasharray:none;stroke-opacity:1"
                       id="path48" />
                  </g>
                </g>
              </g>
              <g
                 id="g50">
                <path
                   d="m 81.92226,-15.44894 -0.06581,-0.03298"
                   style="fill:none;stroke:#ff0000;stroke-width:0.79701;stroke-linecap:butt;stroke-linejoin:miter;stroke-miterlimit:10;stroke-dasharray:none;stroke-opacity:1"
                   id="path52" />
                <g
                   id="g54"
                   transform="matrix(0.89409,0.44775,-0.44775,0.89409,81.85643,-15.48192)">
                  <g
                     id="g56">
                    <path
                       d="M -1.55415,2.0722 C -1.42464,1.29512 0,0.1295 0.38852,0 0,-0.1295 -1.42464,-1.29512 -1.55415,-2.0722"
                       style="fill:none;stroke:#ff0000;stroke-width:0.6376;stroke-linecap:round;stroke-linejoin:round;stroke-miterlimit:10;stroke-dasharray:none;stroke-opacity:1"
                       id="path58" />
                  </g>
                </g>
              </g>
            </g>
          </g>
        </g>
      </g>
    </g>
  </g>
</svg>
