<?xml version="1.0" encoding="UTF-8" standalone="no"?>
<!-- Created with Inkscape (http://www.inkscape.org/) -->

<svg
   version="1.1"
   id="svg582"
   width="241.89255"
   height="241.89252"
   viewBox="0 0 241.89255 241.89252"
   sodipodi:docname="StandaloneTikz_Shape (10).pdf"
   xmlns:inkscape="http://www.inkscape.org/namespaces/inkscape"
   xmlns:sodipodi="http://sodipodi.sourceforge.net/DTD/sodipodi-0.dtd"
   xmlns="http://www.w3.org/2000/svg"
   xmlns:svg="http://www.w3.org/2000/svg">
  <defs
     id="defs586" />
  <sodipodi:namedview
     id="namedview584"
     pagecolor="#ffffff"
     bordercolor="#000000"
     borderopacity="0.25"
     inkscape:showpageshadow="2"
     inkscape:pageopacity="0.0"
     inkscape:pagecheckerboard="0"
     inkscape:deskcolor="#d1d1d1"
     showgrid="false" />
  <g
     id="g590"
     inkscape:groupmode="layer"
     inkscape:label="Page 1"
     transform="matrix(1.3333333,0,0,-1.3333333,9.3333329e-4,241.89159)">
    <g
       id="g592"
       transform="translate(90.709,90.709)">
      <g
         id="g594">
        <g
           id="g596">
          <g
             id="g598">
            <path
               d="M -90.7097,-90.7097 V 90.7097 H 90.7097 V -90.7097 Z"
               style="fill:#ffffff;fill-opacity:1;fill-rule:nonzero;stroke:none"
               id="path600" />
          </g>
          <g
             id="g602">
            <path
               d="M -85.04042,-85.04042 V 85.04042 H 85.04042 V -85.04042 Z"
               style="fill:#00ff00;fill-opacity:0.4;fill-rule:nonzero;stroke:none"
               id="path604" />
          </g>
          <g
             id="g606">
            <path
               d="M 77.95372,0 C 77.95372,43.05319 43.05319,77.95372 0,77.95372 -43.05319,77.95372 -77.95372,43.05319 -77.95372,0 c 0,-43.05319 34.90053,-77.95372 77.95372,-77.95372 43.05319,0 77.95372,34.90053 77.95372,77.95372 z"
               style="fill:#ffffff;fill-opacity:1;fill-rule:nonzero;stroke:none"
               id="path608" />
          </g>
          <g
             id="g610">
            <path
               d="M 77.95372,0 C 77.95372,43.05319 43.05319,77.95372 0,77.95372 -43.05319,77.95372 -77.95372,43.05319 -77.95372,0 c 0,-43.05319 34.90053,-77.95372 77.95372,-77.95372 43.05319,0 77.95372,34.90053 77.95372,77.95372 z"
               style="fill:none;stroke:#0000ff;stroke-width:1.19553;stroke-linecap:butt;stroke-linejoin:miter;stroke-miterlimit:10;stroke-dasharray:none;stroke-opacity:1"
               id="path612" />
          </g>
          <g
             id="g614">
            <path
               d="m -14.17339,-14.17339 c 0,15.65569 -12.6911,28.34679 -28.34681,28.34679 -15.65572,0 -28.3468,-12.6911 -28.3468,-28.34679 0,-15.65571 12.69108,-28.34681 28.3468,-28.34681 15.65571,0 28.34681,12.6911 28.34681,28.34681 z"
               style="fill:#00ff00;fill-opacity:0.4;fill-rule:nonzero;stroke:#ff0000;stroke-width:1.19553;stroke-linecap:butt;stroke-linejoin:miter;stroke-miterlimit:10;stroke-dasharray:none;stroke-opacity:1"
               id="path616" />
          </g>
          <g
             id="g618">
            <path
               d="m 70.867,-14.17339 c 0,15.65569 -12.69108,28.34679 -28.3468,28.34679 -15.65571,0 -28.34681,-12.6911 -28.34681,-28.34679 0,-15.65571 12.6911,-28.34681 28.34681,-28.34681 15.65572,0 28.3468,12.6911 28.3468,28.34681 z"
               style="fill:#00ff00;fill-opacity:0.4;fill-rule:nonzero;stroke:#ff0000;stroke-width:1.19553;stroke-linecap:butt;stroke-linejoin:miter;stroke-miterlimit:10;stroke-dasharray:none;stroke-opacity:1"
               id="path620" />
          </g>
          <g
             id="g622">
            <path
               d="m -28.3468,-5.66927 c 0,7.82784 -6.34555,14.17339 -14.1734,14.17339 -7.82785,0 -14.1734,-6.34555 -14.1734,-14.17339 0,-7.82785 6.34555,-14.1734 14.1734,-14.1734 7.82785,0 14.1734,6.34555 14.1734,14.1734 z"
               style="fill:#ffffff;fill-opacity:1;fill-rule:nonzero;stroke:none"
               id="path624" />
          </g>
          <g
             id="g626">
            <path
               d="m 56.6936,-19.84267 c 0,7.82785 -6.34555,14.1734 -14.1734,14.1734 -7.82785,0 -14.1734,-6.34555 -14.1734,-14.1734 0,-7.82785 6.34555,-14.1734 14.1734,-14.1734 7.82785,0 14.1734,6.34555 14.1734,14.1734 z"
               style="fill:#ffffff;fill-opacity:1;fill-rule:nonzero;stroke:none"
               id="path628" />
          </g>
          <g
             id="g630">
            <path
               d="M -85.04042,-85.04042 H 85.04042 m -170.08084,28.3468 H 85.04042 M -85.04042,-28.3468 H 85.04042 M -85.04042,0 H 85.04042 M -85.04042,28.3468 H 85.04042 M -85.04042,56.69362 H 85.04042 M -85.04042,85.03047 H 85.04042 M -85.04042,-85.04042 V 85.04042 m 28.3468,-170.08084 V 85.04042 M -28.3468,-85.04042 V 85.04042 M 0,-85.04042 V 85.04042 M 28.3468,-85.04042 V 85.04042 M 56.69362,-85.04042 V 85.04042 M 85.03047,-85.04042 V 85.04042"
               style="fill:none;stroke:#808080;stroke-width:0.19925;stroke-linecap:butt;stroke-linejoin:miter;stroke-miterlimit:10;stroke-dasharray:none;stroke-opacity:1"
               id="path632" />
          </g>
          <path
             d="M -85.04042,0 H 84.58214"
             style="fill:none;stroke:#000000;stroke-width:0.3985;stroke-linecap:butt;stroke-linejoin:miter;stroke-miterlimit:10;stroke-dasharray:none;stroke-opacity:1"
             id="path634" />
          <g
             id="g636"
             transform="translate(84.58214)">
            <g
               id="g638">
              <path
                 d="M -1.19551,1.59401 C -1.09587,0.99626 0,0.09961 0.29886,0 0,-0.09961 -1.09587,-0.99626 -1.19551,-1.59401"
                 style="fill:none;stroke:#000000;stroke-width:0.31879;stroke-linecap:round;stroke-linejoin:round;stroke-miterlimit:10;stroke-dasharray:none;stroke-opacity:1"
                 id="path640" />
            </g>
          </g>
          <path
             d="M 0,-85.04042 V 84.58214"
             style="fill:none;stroke:#000000;stroke-width:0.3985;stroke-linecap:butt;stroke-linejoin:miter;stroke-miterlimit:10;stroke-dasharray:none;stroke-opacity:1"
             id="path642" />
          <g
             id="g644"
             transform="rotate(90,-42.29107,42.29107)">
            <g
               id="g646">
              <path
                 d="M -1.19551,1.59401 C -1.09587,0.99626 0,0.09961 0.29886,0 0,-0.09961 -1.09587,-0.99626 -1.19551,-1.59401"
                 style="fill:none;stroke:#000000;stroke-width:0.31879;stroke-linecap:round;stroke-linejoin:round;stroke-miterlimit:10;stroke-dasharray:none;stroke-opacity:1"
                 id="path648" />
            </g>
          </g>
          <g
             id="g650">
            <path
               d="m -28.3468,-5.66927 c 0,7.82784 -6.34555,14.17339 -14.1734,14.17339 -7.82785,0 -14.1734,-6.34555 -14.1734,-14.17339 0,-7.82785 6.34555,-14.1734 14.1734,-14.1734 7.82785,0 14.1734,6.34555 14.1734,14.1734 z"
               style="fill:none;stroke:#0000ff;stroke-width:1.19553;stroke-linecap:butt;stroke-linejoin:miter;stroke-miterlimit:10;stroke-dasharray:none;stroke-opacity:1"
               id="path652" />
          </g>
          <g
             id="g654">
            <path
               d="m 56.6936,-19.84267 c 0,7.82785 -6.34555,14.1734 -14.1734,14.1734 -7.82785,0 -14.1734,-6.34555 -14.1734,-14.1734 0,-7.82785 6.34555,-14.1734 14.1734,-14.1734 7.82785,0 14.1734,6.34555 14.1734,14.1734 z"
               style="fill:none;stroke:#0000ff;stroke-width:1.19553;stroke-linecap:butt;stroke-linejoin:miter;stroke-miterlimit:10;stroke-dasharray:none;stroke-opacity:1"
               id="path656" />
          </g>
          <g
             id="g658">
            <path
               d="m 45.35506,-22.67752 c 0,1.56566 -1.26921,2.83485 -2.83486,2.83485 -1.56566,0 -2.83485,-1.26919 -2.83485,-2.83485 0,-1.56564 1.26919,-2.83484 2.83485,-2.83484 1.56565,0 2.83486,1.2692 2.83486,2.83484 z"
               style="fill:#00ff00;fill-opacity:0.4;fill-rule:nonzero;stroke:#ff0000;stroke-width:1.19553;stroke-linecap:butt;stroke-linejoin:miter;stroke-miterlimit:10;stroke-dasharray:none;stroke-opacity:1"
               id="path660" />
          </g>
          <g
             id="g662">
            <path
               d="m 14.17339,42.5202 c 0,7.82785 -6.34555,14.1734 -14.17339,14.1734 -7.82784,0 -14.17339,-6.34555 -14.17339,-14.1734 0,-7.82785 6.34555,-14.1734 14.17339,-14.1734 7.82784,0 14.17339,6.34555 14.17339,14.1734 z"
               style="fill:#00ff00;fill-opacity:0.4;fill-rule:nonzero;stroke:#ff0000;stroke-width:1.19553;stroke-linecap:butt;stroke-linejoin:miter;stroke-miterlimit:10;stroke-dasharray:none;stroke-opacity:1"
               id="path664" />
          </g>
          <g
             id="g666">
            <path
               d="m 76.53629,70.867 c 0,3.1311 -2.53819,5.66929 -5.66929,5.66929 -3.13108,0 -5.66926,-2.53819 -5.66926,-5.66929 0,-3.13108 2.53818,-5.66926 5.66926,-5.66926 3.1311,0 5.66929,2.53818 5.66929,5.66926 z"
               style="fill:#ffffff;fill-opacity:1;fill-rule:nonzero;stroke:none"
               id="path668" />
          </g>
          <g
             id="g670">
            <path
               d="m 76.53629,70.867 c 0,3.1311 -2.53819,5.66929 -5.66929,5.66929 -3.13108,0 -5.66926,-2.53819 -5.66926,-5.66929 0,-3.13108 2.53818,-5.66926 5.66926,-5.66926 3.1311,0 5.66929,2.53818 5.66929,5.66926 z"
               style="fill:none;stroke:#0000ff;stroke-width:1.19553;stroke-linecap:butt;stroke-linejoin:miter;stroke-miterlimit:10;stroke-dasharray:none;stroke-opacity:1"
               id="path672" />
          </g>
        </g>
      </g>
    </g>
  </g>
</svg>
