<?xml version="1.0" encoding="UTF-8" standalone="no"?>
<!-- Created with Inkscape (http://www.inkscape.org/) -->

<svg
   version="1.1"
   id="svg1"
   width="506.45599"
   height="260.14932"
   viewBox="0 0 506.45599 260.14932"
   xmlns="http://www.w3.org/2000/svg"
   xmlns:svg="http://www.w3.org/2000/svg">
  <defs
     id="defs1" />
  <g
     id="g1">
    <path
       id="path1"
       d="M -90.7097,-90.7097 V 90.7097 H 90.7097 V -90.7097 Z"
       style="fill:#ffffff;fill-opacity:0;fill-rule:nonzero;stroke:none"
       transform="matrix(1.3333333,0,0,-1.3333333,120.94533,139.204)" />
    <path
       id="path2"
       d="M -85.04042,-85.04042 H 85.04042 m -170.08084,28.3468 H 85.04042 M -85.04042,-28.3468 H 85.04042 M -85.04042,0 H 85.04042 M -85.04042,28.3468 H 85.04042 M -85.04042,56.69362 H 85.04042 M -85.04042,85.03047 H 85.04042 M -85.04042,-85.04042 V 85.04042 m 28.3468,-170.08084 V 85.04042 M -28.3468,-85.04042 V 85.04042 M 0,-85.04042 V 85.04042 M 28.3468,-85.04042 V 85.04042 M 56.69362,-85.04042 V 85.04042 M 85.03047,-85.04042 V 85.04042"
       style="fill:none;stroke:#808080;stroke-width:0.19925;stroke-linecap:butt;stroke-linejoin:miter;stroke-miterlimit:10;stroke-dasharray:none;stroke-opacity:1"
       transform="matrix(1.3333333,0,0,-1.3333333,120.94533,139.204)" />
    <path
       id="path3"
       d="M -85.04042,0 H 84.58214"
       style="fill:none;stroke:#000000;stroke-width:0.3985;stroke-linecap:butt;stroke-linejoin:miter;stroke-miterlimit:10;stroke-dasharray:none;stroke-opacity:1"
       transform="matrix(1.3333333,0,0,-1.3333333,120.94533,139.204)" />
    <path
       id="path4"
       d="M -1.19551,1.59401 C -1.09587,0.99626 0,0.09961 0.29886,0 0,-0.09961 -1.09587,-0.99626 -1.19551,-1.59401"
       style="fill:none;stroke:#000000;stroke-width:0.31879;stroke-linecap:round;stroke-linejoin:round;stroke-miterlimit:10;stroke-dasharray:none;stroke-opacity:1"
       transform="matrix(1.3333333,0,0,-1.3333333,233.72152,139.204)" />
    <path
       id="path5"
       d="M 0,-85.04042 V 84.58214"
       style="fill:none;stroke:#000000;stroke-width:0.3985;stroke-linecap:butt;stroke-linejoin:miter;stroke-miterlimit:10;stroke-dasharray:none;stroke-opacity:1"
       transform="matrix(1.3333333,0,0,-1.3333333,120.94533,139.204)" />
    <path
       id="path6"
       d="M -1.19551,1.59401 C -1.09587,0.99626 0,0.09961 0.29886,0 0,-0.09961 -1.09587,-0.99626 -1.19551,-1.59401"
       style="fill:none;stroke:#000000;stroke-width:0.31879;stroke-linecap:round;stroke-linejoin:round;stroke-miterlimit:10;stroke-dasharray:none;stroke-opacity:1"
       transform="matrix(0,-1.3333333,-1.3333333,0,120.94533,26.427813)" />
    <path
       id="path7"
       d="M 28.3468,0 C 28.3468,15.6557 15.6557,28.3468 0,28.3468 -15.6557,28.3468 -28.3468,15.6557 -28.3468,0 c 0,-15.6557 12.6911,-28.3468 28.3468,-28.3468 15.6557,0 28.3468,12.6911 28.3468,28.3468 z"
       style="fill:#00ff00;fill-opacity:0.4;fill-rule:nonzero;stroke:#199619;stroke-width:1.19553;stroke-linecap:butt;stroke-linejoin:miter;stroke-miterlimit:10;stroke-dasharray:none;stroke-opacity:1"
       transform="matrix(1.3333333,0,0,-1.3333333,120.94533,139.204)" />
    <path
       id="path8"
       d="M 0.85036,0 C 0.85036,0.46964 0.46964,0.85036 0,0.85036 -0.46964,0.85036 -0.85036,0.46964 -0.85036,0 c 0,-0.46964 0.38072,-0.85036 0.85036,-0.85036 0.46964,0 0.85036,0.38072 0.85036,0.85036 z"
       style="fill:#000000;fill-opacity:1;fill-rule:nonzero;stroke:#000000;stroke-width:0.3985;stroke-linecap:butt;stroke-linejoin:miter;stroke-miterlimit:10;stroke-dasharray:none;stroke-opacity:1"
       transform="matrix(1.3333333,0,0,-1.3333333,120.94533,139.204)" />
    <path
       id="path9"
       d="M 107.71796,-90.7097 V 90.7097 h 181.4194 V -90.7097 Z"
       style="fill:#ffffff;fill-opacity:0;fill-rule:nonzero;stroke:none"
       transform="matrix(1.3333333,0,0,-1.3333333,120.94533,139.204)" />
    <path
       id="path10"
       d="M 113.38724,-85.04042 H 283.4681 m -170.08086,28.3468 H 283.4681 M 113.38724,-28.3468 H 283.4681 M 113.38724,0 H 283.4681 M 113.38724,28.3468 H 283.4681 M 113.38724,56.69362 H 283.4681 M 113.38724,85.03047 H 283.4681 M 113.38724,-85.04042 V 85.04042 m 28.3468,-170.08084 V 85.04042 M 170.08086,-85.04042 V 85.04042 m 28.3468,-170.08084 V 85.04042 M 226.77448,-85.04042 V 85.04042 m 28.3468,-170.08084 V 85.04042 M 283.45813,-85.04042 V 85.04042"
       style="fill:none;stroke:#808080;stroke-width:0.19925;stroke-linecap:butt;stroke-linejoin:miter;stroke-miterlimit:10;stroke-dasharray:none;stroke-opacity:1"
       transform="matrix(1.3333333,0,0,-1.3333333,120.94533,139.204)" />
    <path
       id="path11"
       d="M 113.38724,0 H 283.00981"
       style="fill:none;stroke:#000000;stroke-width:0.3985;stroke-linecap:butt;stroke-linejoin:miter;stroke-miterlimit:10;stroke-dasharray:none;stroke-opacity:1"
       transform="matrix(1.3333333,0,0,-1.3333333,120.94533,139.204)" />
    <path
       id="path12"
       d="M -1.19551,1.59401 C -1.09587,0.99626 0,0.09961 0.29886,0 0,-0.09961 -1.09587,-0.99626 -1.19551,-1.59401"
       style="fill:none;stroke:#000000;stroke-width:0.31879;stroke-linecap:round;stroke-linejoin:round;stroke-miterlimit:10;stroke-dasharray:none;stroke-opacity:1"
       transform="matrix(1.3333333,0,0,-1.3333333,498.29175,139.204)" />
    <path
       id="path13"
       d="M 198.42766,-85.04042 V 84.58214"
       style="fill:none;stroke:#000000;stroke-width:0.3985;stroke-linecap:butt;stroke-linejoin:miter;stroke-miterlimit:10;stroke-dasharray:none;stroke-opacity:1"
       transform="matrix(1.3333333,0,0,-1.3333333,120.94533,139.204)" />
    <path
       id="path14"
       d="M -1.19551,1.59401 C -1.09587,0.99626 0,0.09961 0.29886,0 0,-0.09961 -1.09587,-0.99626 -1.19551,-1.59401"
       style="fill:none;stroke:#000000;stroke-width:0.31879;stroke-linecap:round;stroke-linejoin:round;stroke-miterlimit:10;stroke-dasharray:none;stroke-opacity:1"
       transform="matrix(0,-1.3333333,-1.3333333,0,385.51555,26.427813)" />
    <path
       id="path15"
       d="m 255.12128,56.69362 c 0,15.6557 -12.6911,28.3468 -28.3468,28.3468 -15.65572,0 -28.34682,-12.6911 -28.34682,-28.3468 0,-15.65572 12.6911,-28.34682 28.34682,-28.34682 15.6557,0 28.3468,12.6911 28.3468,28.34682 z"
       style="fill:#00ff00;fill-opacity:0.4;fill-rule:nonzero;stroke:#199619;stroke-width:1.19553;stroke-linecap:butt;stroke-linejoin:miter;stroke-miterlimit:10;stroke-dasharray:none;stroke-opacity:1"
       transform="matrix(1.3333333,0,0,-1.3333333,120.94533,139.204)" />
    <path
       id="path16"
       d="m 227.62483,56.69362 c 0,0.46965 -0.3807,0.85036 -0.85035,0.85036 -0.46966,0 -0.85038,-0.38071 -0.85038,-0.85036 0,-0.46965 0.38072,-0.85037 0.85038,-0.85037 0.46965,0 0.85035,0.38072 0.85035,0.85037 z"
       style="fill:#000000;fill-opacity:1;fill-rule:nonzero;stroke:#000000;stroke-width:0.3985;stroke-linecap:butt;stroke-linejoin:miter;stroke-miterlimit:10;stroke-dasharray:none;stroke-opacity:1"
       transform="matrix(1.3333333,0,0,-1.3333333,120.94533,139.204)" />
    <path
       id="path17"
       d="m 2.83484,2.83484 c 77.38274,44.67682 143.72203,101.37044 220.7079,56.92274"
       style="fill:none;stroke:#000000;stroke-width:0.3985;stroke-linecap:butt;stroke-linejoin:miter;stroke-miterlimit:10;stroke-dasharray:none;stroke-opacity:1"
       transform="matrix(1.3333333,0,0,-1.3333333,120.94533,139.204)" />
    <path
       id="path18"
       d="M -1.19551,1.59401 C -1.09587,0.99626 0,0.09961 0.29886,0 0,-0.09961 -1.09587,-0.99626 -1.19551,-1.59401"
       style="fill:none;stroke:#000000;stroke-width:0.31879;stroke-linecap:round;stroke-linejoin:round;stroke-miterlimit:10;stroke-dasharray:none;stroke-opacity:1"
       transform="matrix(1.15468,0.66664,0.66664,-1.15468,419.00229,59.5272)" />
    <path
       id="path19"
       d="M 113.31425,64.41705 39.92851,22.04788 48.23045,7.66844 121.61621,50.03763 Z"
       style="fill:#ffffff;fill-opacity:1;fill-rule:nonzero;stroke:none"
       transform="matrix(1.3333333,0,0,-1.3333333,120.94533,139.204)" />
    <path
       id="path20"
       d="m 2.0747312,-1.9290902 c 0.2236921,0.034427 1.022412,0.197871 1.0264776,0.9173917 6.171e-4,0.51455617 -0.338383,0.91422471 -1.1203659,0.90929104 C 1.1566952,-0.1046217 0.78130489,-0.67317319 0.59613253,-1.5243186 0.5719662,-1.6465235 0.5751061,-1.698837 0.46461979,-1.6949681 c -0.13078372,-0.00785 -0.13549357,0.070621 -0.13047517,0.2494283 l -2.719e-5,1.31254711 c -0.015279,0.16708918 -0.0141295,0.2354107 0.0904974,0.2416905 0.0581728,-0.007009 0.0683215,-0.001149 0.26397832,-0.1994138 0.0218674,-0.01443809 0.0234373,-0.04059484 0.20737546,-0.21856174 C 1.3170841,0.10976257 1.7633187,0.11029494 1.9682833,0.10684649 3.1180306,0.1076027 3.5890758,-0.56765091 3.5892996,-1.2711636 3.5843932,-1.8017278 3.292071,-2.0922833 3.1691371,-2.2309168 2.8463688,-2.5390503 2.4470088,-2.6207723 2.0257815,-2.6880563 1.4769103,-2.8155035 0.81169347,-2.928933 0.80992689,-3.5118107 0.8100388,-3.8635671 1.0705687,-4.2679454 1.9267324,-4.27431 c 1.0974339,-0.00238 1.1428233,0.9033742 1.172008,1.204387 -4.205e-4,0.094478 0.094058,0.094899 0.1100658,0.090609 0.1307838,0.00785 0.1280643,-0.034315 0.1347646,-0.2334203 l -0.0028,-1.0029555 c 0.00513,-0.1729485 0.00398,-0.24127 -0.1166542,-0.2432604 -0.042165,0.00272 -0.068322,0.00115 -0.2010956,0.1139347 -0.013289,0.046454 -0.1284848,0.1287933 -0.1620708,0.1635288 -0.366503,-0.2792573 -0.7865809,-0.2782197 -0.9333726,-0.2817801 -1.21806884,3.933e-4 -1.59892518,0.6600593 -1.60144797,1.2269289 0.005747,0.3416077 0.16728581,0.6243135 0.43230171,0.8449775 0.32590816,0.2558201 0.60034376,0.3195437 1.31630406,0.4622699 z m 2.9538345,1.17089083 c -5.324e-4,0.44623461 -0.1110187,0.45010352 -0.7883746,0.45144965 l -0.00283,0.30959155 c 0.3576157,-0.01003679 0.8737418,-0.03681064 1.1411686,-0.03125986 0.257278,-3.0856e-4 0.7862723,0.0209417 1.1060125,0.02963238 l 0.00283,-0.30959156 C 5.8260243,-0.31132047 5.715538,-0.30745155 5.7160703,-0.75368617 L 5.7154804,-2.5807894 c 0.00463,-1.039261 0.7048013,-1.5957581 1.3399924,-1.5943848 0.6250425,-0.00449 0.7447247,0.5382173 0.7480612,1.0949382 l -0.00308,2.32565136 c -5.323e-4,0.44623462 -0.1211674,0.4442442 -0.7723665,0.44716027 l -0.00283,0.30959156 c 0.3416076,-0.00574741 0.8577337,-0.03252126 1.1310198,-0.0371192 0.2572781,-3.0855e-4 0.7702643,0.02523109 1.1001533,0.03978109 l 0.00283,-0.30959155 C 8.744702,-0.30414537 8.4874239,-0.30383682 8.4742472,-0.609139 l -0.00174,-1.8954248 c 0.00964,-0.8604531 0.00233,-1.175904 -0.3071535,-1.5304917 C 8.0338416,-4.205705 7.7047935,-4.4092116 7.1219159,-4.407445 6.2817601,-4.405365 5.8517302,-3.8011572 5.6872485,-3.4225151 l -4.508e-4,-3.4914066 -1.4453212,0.1127581 -0.00283,0.3095915 c 0.7035127,2.238e-4 0.7889918,0.063106 0.7911788,0.5515059 z m 7.7527903,0.007249 c 0.04477,0.39120169 0.303088,0.81097101 0.76533,0.807214 0.215114,0.0024109 0.831998,-0.12856948 0.828353,-0.94256847 l 0.0068,-0.55086166 -0.24127,-0.00398 -0.0068,0.55086163 c 0.0018,0.58287767 -0.254362,0.65150775 -0.364849,0.65537666 -0.325599,0.001458 -0.365662,-0.46821389 -0.368381,-0.51037867 l 0.0045,-2.00005172 c 0.0033,-0.4040699 6.45e-4,-0.797991 -0.371297,-1.1615779 -0.370372,-0.3897437 -0.869649,-0.5562157 -1.3479,-0.5481694 -0.824148,-0.00221 -1.513755,0.465664 -1.510838,1.1168631 -0.0028,0.3095916 0.197002,0.4790917 0.454281,0.4787831 0.283434,0.00126 0.458794,-0.2087216 0.458485,-0.4659996 0.002,-0.1206351 -0.05178,-0.4493745 -0.508164,-0.4557663 0.273398,-0.3563542 0.762218,-0.4530196 1.071809,-0.4501882 0.4884,-0.00219 1.063736,0.3841081 1.062671,1.2765774 l -0.006,0.361905 c -0.489969,0.028344 -1.195052,0.054277 -1.822926,0.3683543 -0.760227,0.3323846 -1.0008801,0.8429599 -0.9955531,1.27904584 -0.0065,0.80813966 0.9503061,1.04932496 1.5854971,1.05069827 0.6512,-0.002916 1.120983,-0.39473486 1.306183,-0.85613658 z m -0.06975,-1.63699723 0.0028,1.0029555 c -0.0042,0.94478277 -0.712119,1.28030725 -1.158354,1.27977487 -0.488399,0.002187 -0.908365,-0.34853172 -0.914841,-0.85293915 9.53e-4,-0.54071292 0.433393,-1.36003882 2.070391,-1.42979122 z m 3.43933,-1.3633769 0.0029,-0.6613479 -1.425023,0.1244767 -0.0028,0.3095916 c 0.703513,2.238e-4 0.778843,0.057247 0.774021,0.4874737 l -0.0019,4.6673107 c -5.32e-4,0.4462346 -0.111019,0.4501035 -0.772366,0.4471603 l -0.0028,0.3095915 c 0.341608,-0.00575 0.857734,-0.032521 1.115012,-0.03283 0.273286,-0.0046 0.770264,0.025231 1.116161,0.035492 l 0.0028,-0.3095915 c -0.661348,-0.00294 -0.771835,9.256e-4 -0.771302,-0.445309 l 0.006,-1.67445211 -0.0054,-0.0843296 c 0.04875,0.14993166 0.467878,0.68960697 1.213556,0.68711136 1.191912,-0.001963 2.236948,-0.96827756 2.235405,-2.25466785 0.0027,-1.2703824 -0.966708,-2.2631045 -2.090298,-2.2622907 -0.771835,9.256e-4 -1.192445,0.4481978 -1.393961,0.6566109 z m 0.04211,2.6223747 -0.0032,-2.2210243 c 0.282818,-0.5132948 0.772479,-0.7989167 1.276886,-0.8053931 0.729669,0.00179 1.33335,0.8780583 1.334163,2.0016489 0.0063,1.20792013 -0.685036,2.05371136 -1.414705,2.05191759 -0.40407,-0.003252 -0.785432,-0.20989825 -1.055466,-0.60937015 -0.140091,-0.20266561 -0.144381,-0.21867365 -0.13768,-0.41777894 z m 5.172348,-1.3709265 c 0.07348,-1.4866451 0.907466,-1.7358496 1.243215,-1.7314483 1.018963,-0.00709 1.132142,1.3437494 1.124601,1.7318112 z m -0.0067,0.1991053 2.798043,0.00518 c 0.204965,-0.00345 0.24127,0.00398 0.237822,-0.2009837 0.0015,-0.9869475 -0.533453,-1.9588398 -1.777679,-1.9600165 -1.159896,-0.00662 -2.067139,1.0257214 -2.068316,2.2699469 -0.0016,1.33870391 1.0276,2.29826045 2.177347,2.29901666 1.218069,-3.9328e-4 1.677928,-1.10158408 1.67291,-1.28039196 -0.0039,-0.1104863 -0.07648,-0.1253449 -0.128794,-0.1284847 -0.09448,-4.205e-4 -0.113626,0.056182 -0.124195,0.1448013 -0.360671,1.02314106 -1.263289,1.01621698 -1.357767,1.01579651 -0.504407,0.006476 -0.901357,-0.2903589 -1.114788,-0.67068286 C 21.355637,-1.2876667 21.35858,-1.9490146 21.358692,-2.3007709 Z m 5.240448,1.78065268 c -0.003,-0.29944285 -0.236028,-0.52868568 -0.529612,-0.53580638 -0.283435,-0.00126 -0.528685,0.23602779 -0.525657,0.53547064 -0.0071,0.29358352 0.241887,0.51853697 0.525322,0.51979836217 C 26.362776,0.0064651 26.592019,-0.22653473 26.59914,-0.52011825 Z m 1.954128,-2.90419888 0.0027,2.66725901 c -5.32e-4,0.44623461 -0.111019,0.45010352 -0.788375,0.45144965 l -0.0028,0.30959156 c 0.357616,-0.0100368 0.873742,-0.03681065 1.141169,-0.03125987 0.257278,-3.0856e-4 0.786272,0.02094171 1.106012,0.02963238 l 0.0028,-0.30959156 c -0.661348,-0.002943 -0.771835,9.2566e-4 -0.771302,-0.44530896 l -5.9e-4,-1.82710321 c 0.0046,-1.039261 0.704801,-1.5957581 1.339992,-1.5943848 0.625043,-0.00449 0.744725,0.5382173 0.748061,1.0949382 l -0.0031,2.32565135 c -5.32e-4,0.44623461 -0.121167,0.44424419 -0.772367,0.44716026 l -0.0028,0.30959156 c 0.341608,-0.00574741 0.857734,-0.03252126 1.13102,-0.03711919 0.257278,-3.0856e-4 0.770264,0.02523108 1.100153,0.03978109 l 0.0028,-0.30959156 c -0.661347,-0.002943 -0.781982,-0.004934 -0.78145,-0.45116829 l -5.9e-4,-1.82710322 c 0.0046,-1.039261 0.71495,-1.5898988 1.350141,-1.5885255 0.625043,-0.00449 0.734576,0.532358 0.737913,1.0890789 l -0.0031,2.32565135 c -5.32e-4,0.44623462 -0.111018,0.45010353 -0.772366,0.44716027 l -0.0028,0.30959156 c 0.357616,-0.01003679 0.857734,-0.03252126 1.13102,-0.0371192 0.257278,-3.0855e-4 0.770264,0.02523109 1.100153,0.03978109 l 0.0028,-0.30959156 c -0.514556,6.1711e-4 -0.755826,-0.003364 -0.774863,-0.29851719 l -0.0017,-1.89542482 c 0.0096,-0.8604531 0.0023,-1.175904 -0.307153,-1.5304917 -0.131513,-0.1706495 -0.47071,-0.3800154 -1.043439,-0.3723895 -0.834296,-0.00807 -1.280334,0.6004285 -1.444816,0.9790706 -0.137148,-0.8640135 -0.880835,-0.9821529 -1.32707,-0.9826853 -0.719521,0.00407 -1.186585,0.4380491 -1.475682,1.0559708 l 3.35e-4,-1.055269 -1.409015,0.1201874 -0.0028,0.3095915 c 0.703513,2.239e-4 0.788992,0.063106 0.791179,0.5515059 z m 11.889327,1.2858781 c 0.0027,-1.2703824 -0.989724,-2.3169879 -2.191785,-2.320884 -1.244226,-0.00118 -2.212781,1.0904825 -2.208099,2.3245594 -0.0043,1.29653907 1.020591,2.24008758 2.196495,2.24241373 1.202061,0.003896 2.200643,-0.97570684 2.203389,-2.24608913 z M 38.243189,-0.13362 C 37.812963,-0.138442 37.379288,-0.3482281 37.118253,-0.81016219 36.855648,-1.2459396 36.855451,-1.854974 36.861422,-2.216879 c -0.0085,-0.3837724 -0.0075,-0.9244853 0.248727,-1.3448717 0.269529,-0.4668406 0.728323,-0.6755622 1.132393,-0.6723104 0.430226,0.00482 0.87405,0.2204674 1.132366,0.6402367 0.252456,0.4299181 0.254223,1.0127957 0.2584,1.3805601 -0.006,0.3619051 -0.0069,0.9026179 -0.232718,1.34058237 -0.215646,0.44382373 -0.658853,0.7427342 -1.157401,0.73906193 z m 6.374107,-3.1770533 c 0.07659,-0.2264115 0.260221,-0.6616564 0.901271,-0.6704318 l 0.0028,-0.3095916 c -0.226832,0.017887 -0.516126,0.026774 -0.747248,0.028652 -0.24127,-0.00398 -0.691794,-0.020521 -0.864742,-0.025652 l -0.0028,0.3095916 c 0.377913,0.00168 0.47427,0.2332236 0.477719,0.4381882 -0.0047,0.07847 -0.02815,0.1190651 -0.05044,0.2279814 L 43.29925,-0.76993662 42.195282,-3.5452982 c -0.05461,-0.139783 -0.0589,-0.155791 -0.06319,-0.1717991 -3.08e-4,-0.257278 0.383464,-0.2657449 0.556413,-0.2606146 l 0.0028,-0.3095915 c -0.283435,-0.00126 -0.851874,0.022373 -1.072847,0.03011 -0.267427,-0.00555 -0.665637,-0.018951 -0.96937,-0.031931 l -0.0028,0.3095916 c 0.635191,0.00137 0.668357,0.061116 0.808028,0.3582599 l 1.430493,3.54573782 c 0.06047,0.12963424 0.05733,0.18194773 0.193975,0.17964876 0.130784,0.00785 0.177658,-0.07333992 0.226103,-0.18068633 z m 1.926691,0.8112924 c 0.07348,-1.4866451 0.907467,-1.7358496 1.243215,-1.7314483 1.018964,-0.00709 1.132142,1.3437494 1.124601,1.7318112 z m -0.0067,0.1991052 2.798042,0.00518 c 0.204965,-0.00345 0.24127,0.00398 0.237822,-0.2009837 0.0015,-0.9869475 -0.533453,-1.9588398 -1.777679,-1.9600165 -1.159896,-0.00662 -2.067139,1.0257214 -2.068315,2.2699469 -0.0016,1.33870389 1.027599,2.29826043 2.177347,2.29901663 1.218069,-3.9327e-4 1.677928,-1.10158408 1.672909,-1.28039193 -0.0039,-0.1104863 -0.07648,-0.1253449 -0.128793,-0.1284848 -0.09448,-4.204e-4 -0.113626,0.056182 -0.124196,0.1448014 -0.36067,1.02314104 -1.263288,1.01621696 -1.357767,1.01579649 -0.504407,0.006476 -0.901356,-0.2903589 -1.114788,-0.67068286 C 46.534232,-1.2871761 46.537175,-1.948524 46.537287,-2.3002804 Z m 6.614141,4.6982081 c -0.0027,-0.042165 0.0031,-0.052313 -0.164679,-0.2303923 -1.243049,-1.24540218 -1.566098,-3.12336086 -1.56366,-4.6510213 -10e-4,-1.7326249 0.3919,-3.4678574 1.617005,-4.7226249 0.116766,-0.1084959 0.112477,-0.124504 0.119906,-0.1608094 -0.0012,-0.068322 -0.03003,-0.1120563 -0.09835,-0.1109068 -0.09448,-4.205e-4 -0.991461,0.6860194 -1.571226,1.9480196 -0.52818,1.1023403 -0.636283,2.203643 -0.634208,3.0437987 -0.0049,0.781983 0.111805,1.98603418 0.643183,3.10471824 0.59342,1.22216156 1.462649,1.87285556 1.557127,1.87327596 0.06832,-0.00115 0.09605,-0.025736 0.0949,-0.094058 z m 3.873321,1.587e-4 c -0.0027,-0.042165 0.0031,-0.052313 -0.164678,-0.2303923 -1.243049,-1.24540218 -1.566099,-3.12336086 -1.56366,-4.6510213 -10e-4,-1.7326249 0.3919,-3.4678574 1.617005,-4.7226249 0.116766,-0.1084959 0.112476,-0.124504 0.119906,-0.1608094 -0.0012,-0.068322 -0.03003,-0.1120563 -0.09835,-0.1109068 -0.09448,-4.205e-4 -0.991461,0.6860194 -1.571226,1.9480196 -0.528181,1.1023403 -0.636283,2.203643 -0.634208,3.0437987 -0.0049,0.781983 0.111805,1.98603418 0.643183,3.10471824 0.59342,1.22216156 1.462648,1.87285556 1.557127,1.87327596 0.06832,-0.00115 0.09605,-0.025736 0.0949,-0.094058 z m 3.524258,-8.7702421 c -0.0019,-0.2311213 -3.08e-4,-0.2572781 -0.241578,-0.2612589 -0.610408,0.6353878 -1.492728,0.6401823 -1.80232,0.637351 l 0.0073,0.3154509 c 0.199106,0.0067 0.781983,0.00493 1.296231,-0.2529615 l 3.12e-4,5.15571011 c -1.12e-4,0.35175634 -0.03841,0.46496208 -0.920729,0.46975665 l -0.325599,0.001458 -0.0028,0.30959156 c 0.359186,-0.03619354 1.21535,-0.04255806 1.61942,-0.03930625 0.393921,-0.0026075 1.260233,-0.0031127 1.60456,0.03330466 l 0.0028,-0.30959156 -0.315451,0.007317 c -0.902618,-0.006924 -0.922495,-0.11312101 -0.916524,-0.47502606 z m 4.080457,6.36795199 C 64.630864,-0.63939016 64.38267,-1.0533002 63.9786,-1.056552 c -0.351756,-1.119e-4 -0.525966,0.27819263 -0.525658,0.5354707 3.09e-4,0.25727807 0.173566,0.51968645 0.525322,0.51979836 0.1628,-7.2902e-4 0.286575,-0.05105209 0.375614,-0.13496119 l 0.02773,-0.0245868 c 0,0 0.0203,0.0117187 0.0226,0.14836171 -0.0072,0.64533987 -0.284612,1.24296412 -0.7228,1.72068242 -0.05545,0.049174 -0.07732,0.063612 -0.0746,0.1057765 0.0011,0.068321 0.05618,0.1136262 0.09835,0.1109068 0.120635,0.00199 0.913411,-0.7852076 0.924316,-1.92909551 z m 2.008489,-0.74835611 1.043886,-1.03463588 c 1.562844,-1.3710013 2.162683,-1.9177701 2.164168,-2.9047176 -0.0051,-1.1395986 -0.912936,-1.9343649 -2.131005,-1.9339717 -1.123591,8.138e-4 -1.850035,0.9074973 -1.8511,1.7999665 0.0033,0.5567209 0.501884,0.5603932 0.5339,0.5518144 0.1628,-7.29e-4 0.516547,-0.1212521 0.50965,-0.5311813 -3.08e-4,-0.257278 -0.189574,-0.515397 -0.531181,-0.5096496 -0.07847,-0.00471 -0.09448,-4.205e-4 -0.116346,0.014018 0.212197,-0.6487883 0.754592,-1.0257485 1.33747,-1.0275151 0.908477,-0.00322 1.3322,0.8097368 1.329986,1.6338845 -6.44e-4,0.7979909 -0.493978,1.5821609 -1.046212,2.2105399 l -1.901956,2.12242614 c -0.116766,0.1084959 -0.118336,0.13465264 -0.116458,0.36577396 l 3.696372,-0.003899261 0.282424,-1.731363639 -0.257278,3.086e-4 c -0.04928,0.296303 -0.11228,0.73353837 -0.216178,0.89005837 -0.06288,0.0854791 -0.724231,0.0825358 -0.945203,0.0902736 z m 6.590812,-1.73599348 c 0.0049,-0.7819829 -0.121954,-1.9918934 -0.653332,-3.1105775 -0.609428,-1.2178722 -1.472797,-1.8787149 -1.567275,-1.8791353 -0.05231,-0.00314 -0.09762,0.051893 -0.09061,0.1100658 -0.0074,0.036306 -0.0031,0.052313 0.184976,0.242111 0.981173,0.9724247 1.542465,2.5549213 1.543363,4.6393026 0.0026,1.70646825 -0.370033,3.45341938 -1.600997,4.7183356 -0.132774,0.1127853 -0.138633,0.122934 -0.135914,0.1650988 -0.0031,0.052313 0.04174,0.091759 0.09406,0.094899 0.09448,4.205e-4 1.001609,-0.6801601 1.581374,-1.94216024 0.522321,-1.09219158 0.646432,-2.19778366 0.644357,-3.03793946 z m 3.875859,0.00162 c 0.0049,-0.781983 -0.121954,-1.9918935 -0.653332,-3.1105775 -0.609428,-1.2178722 -1.472797,-1.8787149 -1.567275,-1.8791354 -0.05231,-0.00314 -0.09762,0.051893 -0.09061,0.1100658 -0.0074,0.036306 -0.0031,0.052313 0.184976,0.242111 0.981173,0.9724247 1.542465,2.5549213 1.543363,4.6393026 0.0026,1.70646828 -0.370033,3.45341941 -1.600997,4.7183356 -0.132774,0.1127853 -0.138633,0.122934 -0.135914,0.1650988 -0.0031,0.052313 0.04174,0.091759 0.09406,0.094899 0.09448,4.205e-4 1.001609,-0.68016 1.581374,-1.94216021 0.522321,-1.09219158 0.646432,-2.19778369 0.644357,-3.03793939 z m 0,0"
       style="fill:#000000;fill-opacity:1;fill-rule:nonzero;stroke:none"
       aria-label="shape.move((1,2))"
       transform="matrix(1.1547067,-0.66666667,0.66666667,1.1547067,185.21067,120.056)" />
  </g>
</svg>
