<?xml version="1.0" encoding="UTF-8" standalone="no"?>
<!-- Created with Inkscape (http://www.inkscape.org/) -->

<svg
   version="1.1"
   id="svg1"
   width="506.45599"
   height="202.29333"
   viewBox="0 0 506.45599 202.29333"
   xmlns="http://www.w3.org/2000/svg"
   xmlns:svg="http://www.w3.org/2000/svg">
  <defs
     id="defs1" />
  <g
     id="g1">
    <path
       id="path1"
       d="M -90.7097,-62.36288 H 289.13736 V 89.29271 H -90.7097 Z"
       style="fill:#ffffff;fill-opacity:1;fill-rule:nonzero;stroke:none"
       transform="matrix(1.3333333,0,0,-1.3333333,120.94533,119.144)" />
    <path
       id="path2"
       d="m 4.2200547,-2.7529375 c -0.8671875,1.4648438 -1.7109375,1.95703125 -2.90625,2.0390625 -0.2695313,0.0234375 -0.46875001,0.0234375 -0.46875001,0.46875 0,0.15234375 0.1171875,0.24609375 0.29296871,0.24609375 0.4453125,0 1.5703125,-0.046875 2.015625,-0.046875 0.7148438,0 1.5117188,0.046875 2.203125,0.046875 0.1523438,0 0.4453125,0 0.4453125,-0.46875 0,-0.22265625 -0.1992187,-0.24609375 -0.3515625,-0.24609375 -0.5625,-0.0585938 -1.0429687,-0.24609375 -1.0429687,-0.84375 0,-0.3515625 0.1523437,-0.6210937 0.4804687,-1.171875 l 1.875,-3.1171875 h 6.3281246 c 0.02344,0.2226563 0.02344,0.421875 0.04687,0.6445313 0.07031,0.6445312 0.375,3.2226562 0.375,3.6914062 0,0.73828125 -1.265625,0.796875 -1.664062,0.796875 -0.269531,0 -0.550781,0 -0.550781,0.4453125 0,0.26953125 0.222656,0.26953125 0.375,0.26953125 0.421875,0 0.914062,-0.046875 1.335937,-0.046875 h 1.417969 c 1.511719,0 2.601562,0.046875 2.625,0.046875 0.175781,0 0.445312,0 0.445312,-0.46875 0,-0.24609375 -0.222656,-0.24609375 -0.597656,-0.24609375 -1.359375,0 -1.382812,-0.22265625 -1.453125,-0.9726562 L 13.934898,-17.155281 c -0.05859,-0.492188 -0.152343,-0.539063 -0.421875,-0.539063 -0.246093,0 -0.398437,0.04687 -0.621093,0.421875 z m 2.9648437,-3.8085937 4.9804686,-8.3320308 0.84375,8.3320308 z m 0,0"
       style="fill:#000000;fill-opacity:1;fill-rule:nonzero;stroke:none"
       aria-label="A"
       transform="matrix(1.3333333,0,0,1.3333333,108.81467,28.389333)" />
    <g
       id="g2"
       aria-label="−A"
       transform="matrix(1.3333333,0,0,1.3333333,360.52933,27.012)">
      <path
         id="path3"
         d="m 16.337375,-5.6955234 c 0.421875,0 0.867188,0 0.867188,-0.5039063 0,-0.4921875 -0.445313,-0.4921875 -0.867188,-0.4921875 H 2.931125 c -0.421875,0 -0.8671875,0 -0.8671875,0.4921875 0,0.5039063 0.4453125,0.5039063 0.8671875,0.5039063 z m 0,0"
         style="fill:#000000;fill-opacity:1;fill-rule:nonzero;stroke:none" />
      <path
         id="path4"
         d="m 23.497531,-2.7541172 c -0.867187,1.4648438 -1.710937,1.95703126 -2.90625,2.03906251 -0.269531,0.0234375 -0.46875,0.0234375 -0.46875,0.46875 0,0.15234375 0.117188,0.2460937525 0.292969,0.2460937525 0.445313,0 1.570313,-0.0468750025 2.015625,-0.0468750025 0.714844,0 1.511719,0.0468750025 2.203125,0.0468750025 0.152344,0 0.445313,0 0.445313,-0.4687500025 0,-0.22265625 -0.199219,-0.24609375 -0.351563,-0.24609375 -0.5625,-0.0585938 -1.042969,-0.24609375 -1.042969,-0.84375001 0,-0.3515625 0.152344,-0.6210937 0.480469,-1.171875 l 1.875,-3.1171875 h 6.328125 c 0.02344,0.2226563 0.02344,0.421875 0.04687,0.6445313 0.07031,0.6445312 0.375,3.2226562 0.375,3.6914062 0,0.73828126 -1.265625,0.79687501 -1.664062,0.79687501 -0.269532,0 -0.550782,0 -0.550782,0.4453125 0,0.2695312525 0.222657,0.2695312525 0.375,0.2695312525 0.421875,0 0.914063,-0.0468750025 1.335938,-0.0468750025 h 1.417969 c 1.511718,0 2.601562,0.0468750025 2.625,0.0468750025 0.175781,0 0.445312,0 0.445312,-0.4687500025 0,-0.24609375 -0.222656,-0.24609375 -0.597656,-0.24609375 -1.359375,0 -1.382813,-0.22265625 -1.453125,-0.97265621 L 33.212375,-17.156461 c -0.05859,-0.492187 -0.152344,-0.539062 -0.421875,-0.539062 -0.246094,0 -0.398437,0.04687 -0.621094,0.421875 z m 2.964844,-3.8085937 4.980469,-8.3320311 0.84375,8.3320311 z m 0,0"
         style="fill:#000000;fill-opacity:1;fill-rule:nonzero;stroke:none" />
    </g>
    <path
       id="path5"
       d="M -90.7097,-62.36288 V 62.36288 H 90.7097 V -62.36288 Z"
       style="fill:#ffffff;fill-opacity:0;fill-rule:nonzero;stroke:none"
       transform="matrix(1.3333333,0,0,-1.3333333,120.94533,119.144)" />
    <path
       id="path6"
       d="M -85.04042,-56.69362 H 85.04042 M -85.04042,-28.3468 H 85.04042 M -85.04042,0 H 85.04042 M -85.04042,28.3468 H 85.04042 M -85.04042,56.68365 H 85.04042 M -85.04042,-56.69362 V 56.69362 m 28.3468,-113.38724 V 56.69362 M -28.3468,-56.69362 V 56.69362 M 0,-56.69362 V 56.69362 M 28.3468,-56.69362 V 56.69362 M 56.69362,-56.69362 V 56.69362 M 85.03047,-56.69362 V 56.69362"
       style="fill:none;stroke:#808080;stroke-width:0.19925;stroke-linecap:butt;stroke-linejoin:miter;stroke-miterlimit:10;stroke-dasharray:none;stroke-opacity:1"
       transform="matrix(1.3333333,0,0,-1.3333333,120.94533,119.144)" />
    <path
       id="path7"
       d="M -85.04042,0 H 84.58214"
       style="fill:none;stroke:#000000;stroke-width:0.3985;stroke-linecap:butt;stroke-linejoin:miter;stroke-miterlimit:10;stroke-dasharray:none;stroke-opacity:1"
       transform="matrix(1.3333333,0,0,-1.3333333,120.94533,119.144)" />
    <path
       id="path8"
       d="M -1.19551,1.59401 C -1.09587,0.99626 0,0.09961 0.29886,0 0,-0.09961 -1.09587,-0.99626 -1.19551,-1.59401"
       style="fill:none;stroke:#000000;stroke-width:0.31879;stroke-linecap:round;stroke-linejoin:round;stroke-miterlimit:10;stroke-dasharray:none;stroke-opacity:1"
       transform="matrix(1.3333333,0,0,-1.3333333,233.72152,119.144)" />
    <path
       id="path9"
       d="M 0,-56.69362 V 56.23534"
       style="fill:none;stroke:#000000;stroke-width:0.3985;stroke-linecap:butt;stroke-linejoin:miter;stroke-miterlimit:10;stroke-dasharray:none;stroke-opacity:1"
       transform="matrix(1.3333333,0,0,-1.3333333,120.94533,119.144)" />
    <path
       id="path10"
       d="M -1.19551,1.59401 C -1.09587,0.99626 0,0.09961 0.29886,0 0,-0.09961 -1.09587,-0.99626 -1.19551,-1.59401"
       style="fill:none;stroke:#000000;stroke-width:0.31879;stroke-linecap:round;stroke-linejoin:round;stroke-miterlimit:10;stroke-dasharray:none;stroke-opacity:1"
       transform="matrix(0,-1.3333333,-1.3333333,0,120.94533,44.163547)" />
    <path
       id="path11"
       d="M 28.3468,0 C 28.3468,15.6557 15.6557,28.3468 0,28.3468 -15.6557,28.3468 -28.3468,15.6557 -28.3468,0 c 0,-15.6557 12.6911,-28.3468 28.3468,-28.3468 15.6557,0 28.3468,12.6911 28.3468,28.3468 z"
       style="fill:#00ff00;fill-opacity:0.4;fill-rule:nonzero;stroke:#199619;stroke-width:1.19553;stroke-linecap:butt;stroke-linejoin:miter;stroke-miterlimit:10;stroke-dasharray:none;stroke-opacity:1"
       transform="matrix(1.3333333,0,0,-1.3333333,120.94533,119.144)" />
    <path
       id="path12"
       d="M 113.38724,-56.69362 V 56.69362 H 283.4681 V -56.69362 Z"
       style="fill:#00ff00;fill-opacity:0.4;fill-rule:nonzero;stroke:none"
       transform="matrix(1.3333333,0,0,-1.3333333,120.94533,119.144)" />
    <path
       id="path13"
       d="m 226.77448,0 c 0,15.6557 -12.69111,28.3468 -28.34682,28.3468 -15.65572,0 -28.3468,-12.6911 -28.3468,-28.3468 0,-15.6557 12.69108,-28.3468 28.3468,-28.3468 15.65571,0 28.34682,12.6911 28.34682,28.3468 z"
       style="fill:#ffffff;fill-opacity:1;fill-rule:nonzero;stroke:#ffffff;stroke-width:1.19553;stroke-linecap:butt;stroke-linejoin:miter;stroke-miterlimit:10;stroke-dasharray:none;stroke-opacity:1"
       transform="matrix(1.3333333,0,0,-1.3333333,120.94533,119.144)" />
    <path
       id="path14"
       d="M 107.71796,-62.36288 V 62.36288 h 181.4194 V -62.36288 Z"
       style="fill:#ffffff;fill-opacity:0;fill-rule:nonzero;stroke:none"
       transform="matrix(1.3333333,0,0,-1.3333333,120.94533,119.144)" />
    <path
       id="path15"
       d="M 113.38724,-56.69362 H 283.4681 M 113.38724,-28.3468 H 283.4681 M 113.38724,0 H 283.4681 M 113.38724,28.3468 H 283.4681 M 113.38724,56.68365 H 283.4681 M 113.38724,-56.69362 V 56.69362 m 28.3468,-113.38724 V 56.69362 M 170.08086,-56.69362 V 56.69362 m 28.3468,-113.38724 V 56.69362 M 226.77448,-56.69362 V 56.69362 m 28.3468,-113.38724 V 56.69362 M 283.45813,-56.69362 V 56.69362"
       style="fill:none;stroke:#808080;stroke-width:0.19925;stroke-linecap:butt;stroke-linejoin:miter;stroke-miterlimit:10;stroke-dasharray:none;stroke-opacity:1"
       transform="matrix(1.3333333,0,0,-1.3333333,120.94533,119.144)" />
    <path
       id="path16"
       d="M 113.38724,0 H 283.00981"
       style="fill:none;stroke:#000000;stroke-width:0.3985;stroke-linecap:butt;stroke-linejoin:miter;stroke-miterlimit:10;stroke-dasharray:none;stroke-opacity:1"
       transform="matrix(1.3333333,0,0,-1.3333333,120.94533,119.144)" />
    <path
       id="path17"
       d="M -1.19551,1.59401 C -1.09587,0.99626 0,0.09961 0.29886,0 0,-0.09961 -1.09587,-0.99626 -1.19551,-1.59401"
       style="fill:none;stroke:#000000;stroke-width:0.31879;stroke-linecap:round;stroke-linejoin:round;stroke-miterlimit:10;stroke-dasharray:none;stroke-opacity:1"
       transform="matrix(1.3333333,0,0,-1.3333333,498.29175,119.144)" />
    <path
       id="path18"
       d="M 198.42766,-56.69362 V 56.23534"
       style="fill:none;stroke:#000000;stroke-width:0.3985;stroke-linecap:butt;stroke-linejoin:miter;stroke-miterlimit:10;stroke-dasharray:none;stroke-opacity:1"
       transform="matrix(1.3333333,0,0,-1.3333333,120.94533,119.144)" />
    <path
       id="path19"
       d="M -1.19551,1.59401 C -1.09587,0.99626 0,0.09961 0.29886,0 0,-0.09961 -1.09587,-0.99626 -1.19551,-1.59401"
       style="fill:none;stroke:#000000;stroke-width:0.31879;stroke-linecap:round;stroke-linejoin:round;stroke-miterlimit:10;stroke-dasharray:none;stroke-opacity:1"
       transform="matrix(0,-1.3333333,-1.3333333,0,385.51555,44.163547)" />
  </g>
</svg>
