<?xml version="1.0" encoding="UTF-8" standalone="no"?>
<!-- Created with Inkscape (http://www.inkscape.org/) -->

<svg
   version="1.1"
   id="svg1"
   width="771.02264"
   height="202.20534"
   viewBox="0 0 771.02264 202.20534"
   xmlns="http://www.w3.org/2000/svg"
   xmlns:svg="http://www.w3.org/2000/svg">
  <defs
     id="defs1" />
  <g
     id="g1">
    <path
       id="path1"
       d="M -90.7097,-62.36288 H 487.56503 V 89.29271 H -90.7097 Z"
       style="fill:#ffffff;fill-opacity:1;fill-rule:nonzero;stroke:none"
       transform="matrix(1.3333333,0,0,-1.3333333,120.94533,119.056)" />
    <path
       id="path2"
       d="m 4.2200547,-2.7543203 c -0.8671875,1.4648437 -1.7109375,1.95703124 -2.90625,2.03906249 -0.2695313,0.0234375 -0.46875001,0.0234375 -0.46875001,0.46875 0,0.15234375 0.1171875,0.2460937475 0.29296871,0.2460937475 0.4453125,0 1.5703125,-0.0468749975 2.015625,-0.0468749975 0.7148438,0 1.5117188,0.0468749975 2.203125,0.0468749975 0.1523438,0 0.4453125,0 0.4453125,-0.4687499975 0,-0.22265625 -0.1992187,-0.24609375 -0.3515625,-0.24609375 -0.5625,-0.0585938 -1.0429687,-0.24609375 -1.0429687,-0.84374999 0,-0.3515625 0.1523437,-0.6210938 0.4804687,-1.171875 l 1.875,-3.1171875 h 6.3281246 c 0.02344,0.2226562 0.02344,0.421875 0.04687,0.6445312 0.07031,0.6445313 0.375,3.2226563 0.375,3.6914063 0,0.73828124 -1.265625,0.79687499 -1.664062,0.79687499 -0.269531,0 -0.550781,0 -0.550781,0.4453125 0,0.2695312475 0.222656,0.2695312475 0.375,0.2695312475 0.421875,0 0.914062,-0.0468749975 1.335937,-0.0468749975 h 1.417969 c 1.511719,0 2.601562,0.0468749975 2.625,0.0468749975 0.175781,0 0.445312,0 0.445312,-0.4687499975 0,-0.24609375 -0.222656,-0.24609375 -0.597656,-0.24609375 -1.359375,0 -1.382812,-0.22265625 -1.453125,-0.97265629 L 13.934898,-17.156664 c -0.05859,-0.492188 -0.152343,-0.539063 -0.421875,-0.539063 -0.246093,0 -0.398437,0.04687 -0.621093,0.421875 z m 2.9648437,-3.8085938 4.9804686,-8.3320309 0.84375,8.3320309 z m 0,0"
       style="fill:#000000;fill-opacity:1;fill-rule:nonzero;stroke:none"
       aria-label="A"
       transform="matrix(1.3333333,0,0,1.3333333,108.81467,28.301333)" />
    <path
       id="path3"
       d="m 9.0713516,-15.246508 c 0.2226562,-0.914062 0.328125,-0.960937 1.2890624,-0.960937 h 3.222656 c 2.800782,0 2.800782,2.378906 2.800782,2.601562 0,2.003906 -2.003907,4.5585939 -5.273438,4.5585939 H 7.5361953 Z m 4.1953124,6.3984377 c 2.695313,-0.4921875 5.144531,-2.3789067 5.144531,-4.6640627 0,-1.933594 -1.699218,-3.421875 -4.5,-3.421875 H 5.9541641 c -0.4804688,0 -0.703125,0 -0.703125,0.480469 0,0.246094 0.2226562,0.246094 0.5976562,0.246094 1.5117188,0 1.5117188,0.199218 1.5117188,0.46875 0,0.04687 0,0.199218 -0.09375,0.574218 L 3.9151016,-1.8402578 c -0.2226563,0.87890624 -0.2695313,1.12499999 -2.0039063,1.12499999 -0.46875,0 -0.7148437,0 -0.7148437,0.4453125 0,0.2695312475 0.140625,0.2695312475 0.6445312,0.2695312475 h 8.4960942 c 3.796875,0 6.714843,-2.8710937375 6.714843,-5.3789062375 0,-2.0273438 -1.78125,-3.2695313 -3.785156,-3.46875 z M 9.7393203,-0.71525781 H 6.3994766 c -0.3515625,0 -0.3984375,0 -0.5507813,-0.0234375 -0.2695312,-0.0351563 -0.2929687,-0.0820313 -0.2929687,-0.28124999 0,-0.1757813 0.046875,-0.3164063 0.09375,-0.5390625 l 1.734375,-6.9960938 h 4.6640624 c 2.917969,0 2.917969,2.7304688 2.917969,2.9296875 0,2.3789063 -2.15625,4.91015629 -5.2265627,4.91015629 z m 0,0"
       style="fill:#000000;fill-opacity:1;fill-rule:nonzero;stroke:none"
       aria-label="B"
       transform="matrix(1.3333333,0,0,1.3333333,372.38533,28.301333)" />
    <g
       id="g3"
       aria-label="A+B"
       transform="matrix(1.3333333,0,0,1.3333333,605.584,27.252)">
      <path
         id="path4"
         d="m 4.2202031,-2.7524766 c -0.8671875,1.4648438 -1.7109375,1.95703129 -2.90625,2.03906254 -0.2695312,0.0234375 -0.46874997,0.0234375 -0.46874997,0.46875 0,0.15234375 0.1171875,0.24609375 0.29296877,0.24609375 0.4453125,0 1.5703125,-0.046875 2.015625,-0.046875 0.7148437,0 1.5117187,0.046875 2.203125,0.046875 0.1523437,0 0.4453125,0 0.4453125,-0.46875 0,-0.22265625 -0.1992188,-0.24609375 -0.3515625,-0.24609375 -0.5625,-0.0585938 -1.0429688,-0.24609375 -1.0429688,-0.84375004 0,-0.3515625 0.1523438,-0.6210937 0.4804688,-1.171875 l 1.875,-3.1171875 h 6.3281251 c 0.02344,0.2226563 0.02344,0.421875 0.04687,0.6445313 0.07031,0.6445312 0.375,3.2226562 0.375,3.6914062 0,0.73828129 -1.265625,0.79687504 -1.664063,0.79687504 -0.269531,0 -0.550781,0 -0.550781,0.4453125 0,0.26953125 0.222656,0.26953125 0.375,0.26953125 0.421875,0 0.914063,-0.046875 1.335938,-0.046875 h 1.417968 c 1.511719,0 2.601563,0.046875 2.625,0.046875 0.175782,0 0.445313,0 0.445313,-0.46875 0,-0.24609375 -0.222656,-0.24609375 -0.597656,-0.24609375 -1.359375,0 -1.382813,-0.22265625 -1.453125,-0.97265624 L 13.935047,-17.15482 c -0.05859,-0.492188 -0.152344,-0.539063 -0.421875,-0.539063 -0.246094,0 -0.398438,0.04687 -0.621094,0.421875 z m 2.9648438,-3.8085937 4.9804691,-8.3320317 0.84375,8.3320317 z m 0,0"
         style="fill:#000000;fill-opacity:1;fill-rule:nonzero;stroke:none" />
      <path
         id="path5"
         d="m 33.042469,-5.7524766 h 6.574219 c 0.339843,0 0.761718,0 0.761718,-0.421875 0,-0.4453125 -0.386718,-0.4453125 -0.761718,-0.4453125 h -6.574219 v -6.5624999 c 0,-0.351563 0,-0.773438 -0.421875,-0.773438 -0.445313,0 -0.445313,0.398438 -0.445313,0.773438 v 6.5624999 h -6.5625 c -0.351562,0 -0.773437,0 -0.773437,0.421875 0,0.4453125 0.398437,0.4453125 0.773437,0.4453125 h 6.5625 v 6.57421879 c 0,0.33984371 0,0.76171871 0.421875,0.76171871 0.445313,0 0.445313,-0.3867187 0.445313,-0.76171871 z m 0,0"
         style="fill:#000000;fill-opacity:1;fill-rule:nonzero;stroke:none" />
      <path
         id="path6"
         d="m 56.122547,-15.244664 c 0.222656,-0.914063 0.328125,-0.960938 1.289062,-0.960938 h 3.222657 c 2.800781,0 2.800781,2.378907 2.800781,2.601563 0,2.003906 -2.003906,4.5585937 -5.273438,4.5585937 h -3.574218 z m 4.195312,6.3984374 c 2.695313,-0.4921875 5.144532,-2.3789064 5.144532,-4.6640624 0,-1.933594 -1.699219,-3.421875 -4.5,-3.421875 h -7.957032 c -0.480468,0 -0.703125,0 -0.703125,0.480469 0,0.246093 0.222657,0.246093 0.597657,0.246093 1.511718,0 1.511718,0.199219 1.511718,0.46875 0,0.04687 0,0.199219 -0.09375,0.574219 l -3.351562,13.3242189 c -0.222656,0.87890629 -0.269531,1.12500004 -2.003906,1.12500004 -0.46875,0 -0.714844,0 -0.714844,0.4453125 0,0.26953125 0.140625,0.26953125 0.644531,0.26953125 h 8.496094 c 3.796875,0 6.714844,-2.87109379 6.714844,-5.37890629 0,-2.0273437 -1.78125,-3.2695312 -3.785157,-3.46875 z m -3.527343,8.13281254 h -3.339844 c -0.351563,0 -0.398438,0 -0.550781,-0.0234375 -0.269532,-0.0351563 -0.292969,-0.0820313 -0.292969,-0.28125004 0,-0.1757812 0.04687,-0.3164062 0.09375,-0.5390625 l 1.734375,-6.9960937 h 4.664062 c 2.917969,0 2.917969,2.7304687 2.917969,2.9296875 0,2.3789062 -2.15625,4.91015624 -5.226562,4.91015624 z m 0,0"
         style="fill:#000000;fill-opacity:1;fill-rule:nonzero;stroke:none" />
    </g>
    <path
       id="path7"
       d="M -90.7097,-62.36288 V 62.36288 H 90.7097 V -62.36288 Z"
       style="fill:#ffffff;fill-opacity:0;fill-rule:nonzero;stroke:none"
       transform="matrix(1.3333333,0,0,-1.3333333,120.94533,119.056)" />
    <path
       id="path8"
       d="M -85.04042,-56.69362 H 85.04042 M -85.04042,-28.3468 H 85.04042 M -85.04042,0 H 85.04042 M -85.04042,28.3468 H 85.04042 M -85.04042,56.68365 H 85.04042 M -85.04042,-56.69362 V 56.69362 m 28.3468,-113.38724 V 56.69362 M -28.3468,-56.69362 V 56.69362 M 0,-56.69362 V 56.69362 M 28.3468,-56.69362 V 56.69362 M 56.69362,-56.69362 V 56.69362 M 85.03047,-56.69362 V 56.69362"
       style="fill:none;stroke:#808080;stroke-width:0.19925;stroke-linecap:butt;stroke-linejoin:miter;stroke-miterlimit:10;stroke-dasharray:none;stroke-opacity:1"
       transform="matrix(1.3333333,0,0,-1.3333333,120.94533,119.056)" />
    <path
       id="path9"
       d="M -85.04042,0 H 84.58214"
       style="fill:none;stroke:#000000;stroke-width:0.3985;stroke-linecap:butt;stroke-linejoin:miter;stroke-miterlimit:10;stroke-dasharray:none;stroke-opacity:1"
       transform="matrix(1.3333333,0,0,-1.3333333,120.94533,119.056)" />
    <path
       id="path10"
       d="M -1.19551,1.59401 C -1.09587,0.99626 0,0.09961 0.29886,0 0,-0.09961 -1.09587,-0.99626 -1.19551,-1.59401"
       style="fill:none;stroke:#000000;stroke-width:0.31879;stroke-linecap:round;stroke-linejoin:round;stroke-miterlimit:10;stroke-dasharray:none;stroke-opacity:1"
       transform="matrix(1.3333333,0,0,-1.3333333,233.72152,119.056)" />
    <path
       id="path11"
       d="M 0,-56.69362 V 56.23534"
       style="fill:none;stroke:#000000;stroke-width:0.3985;stroke-linecap:butt;stroke-linejoin:miter;stroke-miterlimit:10;stroke-dasharray:none;stroke-opacity:1"
       transform="matrix(1.3333333,0,0,-1.3333333,120.94533,119.056)" />
    <path
       id="path12"
       d="M -1.19551,1.59401 C -1.09587,0.99626 0,0.09961 0.29886,0 0,-0.09961 -1.09587,-0.99626 -1.19551,-1.59401"
       style="fill:none;stroke:#000000;stroke-width:0.31879;stroke-linecap:round;stroke-linejoin:round;stroke-miterlimit:10;stroke-dasharray:none;stroke-opacity:1"
       transform="matrix(0,-1.3333333,-1.3333333,0,120.94533,44.075547)" />
    <path
       id="path13"
       d="m 11.33856,0 c 0,15.6557 -12.69108,28.3468 -28.3468,28.3468 -15.65572,0 -28.34682,-12.6911 -28.34682,-28.3468 0,-15.6557 12.6911,-28.3468 28.34682,-28.3468 15.65572,0 28.3468,12.6911 28.3468,28.3468 z"
       style="fill:#2bffff;fill-opacity:0.4;fill-rule:nonzero;stroke:#199696;stroke-width:1.19553;stroke-linecap:butt;stroke-linejoin:miter;stroke-miterlimit:10;stroke-dasharray:none;stroke-opacity:1"
       transform="matrix(1.3333333,0,0,-1.3333333,120.94533,119.056)" />
    <path
       id="path14"
       d="M 107.71796,-62.36288 V 62.36288 h 181.4194 V -62.36288 Z"
       style="fill:#ffffff;fill-opacity:0;fill-rule:nonzero;stroke:none"
       transform="matrix(1.3333333,0,0,-1.3333333,120.94533,119.056)" />
    <path
       id="path15"
       d="M 113.38724,-56.69362 H 283.4681 M 113.38724,-28.3468 H 283.4681 M 113.38724,0 H 283.4681 M 113.38724,28.3468 H 283.4681 M 113.38724,56.68365 H 283.4681 M 113.38724,-56.69362 V 56.69362 m 28.3468,-113.38724 V 56.69362 M 170.08086,-56.69362 V 56.69362 m 28.3468,-113.38724 V 56.69362 M 226.77448,-56.69362 V 56.69362 m 28.3468,-113.38724 V 56.69362 M 283.45813,-56.69362 V 56.69362"
       style="fill:none;stroke:#808080;stroke-width:0.19925;stroke-linecap:butt;stroke-linejoin:miter;stroke-miterlimit:10;stroke-dasharray:none;stroke-opacity:1"
       transform="matrix(1.3333333,0,0,-1.3333333,120.94533,119.056)" />
    <path
       id="path16"
       d="M 113.38724,0 H 283.00981"
       style="fill:none;stroke:#000000;stroke-width:0.3985;stroke-linecap:butt;stroke-linejoin:miter;stroke-miterlimit:10;stroke-dasharray:none;stroke-opacity:1"
       transform="matrix(1.3333333,0,0,-1.3333333,120.94533,119.056)" />
    <path
       id="path17"
       d="M -1.19551,1.59401 C -1.09587,0.99626 0,0.09961 0.29886,0 0,-0.09961 -1.09587,-0.99626 -1.19551,-1.59401"
       style="fill:none;stroke:#000000;stroke-width:0.31879;stroke-linecap:round;stroke-linejoin:round;stroke-miterlimit:10;stroke-dasharray:none;stroke-opacity:1"
       transform="matrix(1.3333333,0,0,-1.3333333,498.29175,119.056)" />
    <path
       id="path18"
       d="M 198.42766,-56.69362 V 56.23534"
       style="fill:none;stroke:#000000;stroke-width:0.3985;stroke-linecap:butt;stroke-linejoin:miter;stroke-miterlimit:10;stroke-dasharray:none;stroke-opacity:1"
       transform="matrix(1.3333333,0,0,-1.3333333,120.94533,119.056)" />
    <path
       id="path19"
       d="M -1.19551,1.59401 C -1.09587,0.99626 0,0.09961 0.29886,0 0,-0.09961 -1.09587,-0.99626 -1.19551,-1.59401"
       style="fill:none;stroke:#000000;stroke-width:0.31879;stroke-linecap:round;stroke-linejoin:round;stroke-miterlimit:10;stroke-dasharray:none;stroke-opacity:1"
       transform="matrix(0,-1.3333333,-1.3333333,0,385.51555,44.075547)" />
    <path
       id="path20"
       d="m 243.78271,0 c 0,15.6557 -12.6911,28.3468 -28.3468,28.3468 C 199.7802,28.3468 187.0891,15.6557 187.0891,0 c 0,-15.6557 12.6911,-28.3468 28.34681,-28.3468 15.6557,0 28.3468,12.6911 28.3468,28.3468 z"
       style="fill:#ffff00;fill-opacity:0.4;fill-rule:nonzero;stroke:#969619;stroke-width:1.19553;stroke-linecap:butt;stroke-linejoin:miter;stroke-miterlimit:10;stroke-dasharray:none;stroke-opacity:1"
       transform="matrix(1.3333333,0,0,-1.3333333,120.94533,119.056)" />
    <path
       id="path21"
       d="M 306.14563,-62.36288 V 62.36288 h 181.4194 V -62.36288 Z"
       style="fill:#ffffff;fill-opacity:0;fill-rule:nonzero;stroke:none"
       transform="matrix(1.3333333,0,0,-1.3333333,120.94533,119.056)" />
    <path
       id="path22"
       d="M 311.8149,-56.69362 H 481.89577 M 311.8149,-28.3468 H 481.89577 M 311.8149,0 H 481.89577 M 311.8149,28.3468 H 481.89577 M 311.8149,56.68365 H 481.89577 M 311.8149,-56.69362 V 56.69362 M 340.16171,-56.69362 V 56.69362 m 28.3468,-113.38724 V 56.69362 M 396.85533,-56.69362 V 56.69362 m 28.3468,-113.38724 V 56.69362 M 453.54895,-56.69362 V 56.69362 M 481.8858,-56.69362 V 56.69362"
       style="fill:none;stroke:#808080;stroke-width:0.19925;stroke-linecap:butt;stroke-linejoin:miter;stroke-miterlimit:10;stroke-dasharray:none;stroke-opacity:1"
       transform="matrix(1.3333333,0,0,-1.3333333,120.94533,119.056)" />
    <path
       id="path23"
       d="M 311.8149,0 H 481.43748"
       style="fill:none;stroke:#000000;stroke-width:0.3985;stroke-linecap:butt;stroke-linejoin:miter;stroke-miterlimit:10;stroke-dasharray:none;stroke-opacity:1"
       transform="matrix(1.3333333,0,0,-1.3333333,120.94533,119.056)" />
    <path
       id="path24"
       d="M -1.19551,1.59401 C -1.09587,0.99626 0,0.09961 0.29886,0 0,-0.09961 -1.09587,-0.99626 -1.19551,-1.59401"
       style="fill:none;stroke:#000000;stroke-width:0.31879;stroke-linecap:round;stroke-linejoin:round;stroke-miterlimit:10;stroke-dasharray:none;stroke-opacity:1"
       transform="matrix(1.3333333,0,0,-1.3333333,762.86197,119.056)" />
    <path
       id="path25"
       d="M 396.85533,-56.69362 V 56.23534"
       style="fill:none;stroke:#000000;stroke-width:0.3985;stroke-linecap:butt;stroke-linejoin:miter;stroke-miterlimit:10;stroke-dasharray:none;stroke-opacity:1"
       transform="matrix(1.3333333,0,0,-1.3333333,120.94533,119.056)" />
    <path
       id="path26"
       d="M -1.19551,1.59401 C -1.09587,0.99626 0,0.09961 0.29886,0 0,-0.09961 -1.09587,-0.99626 -1.19551,-1.59401"
       style="fill:none;stroke:#000000;stroke-width:0.31879;stroke-linecap:round;stroke-linejoin:round;stroke-miterlimit:10;stroke-dasharray:none;stroke-opacity:1"
       transform="matrix(0,-1.3333333,-1.3333333,0,650.08577,44.075547)" />
    <path
       id="path27"
       d="m 396.85446,22.67665 c -12.52414,9.39298 -30.29104,6.85486 -39.68403,-5.66928 -9.39298,-12.52412 -6.85486,-30.29103 5.66927,-39.68402 10.0777,-7.55817 23.93706,-7.55817 34.01476,0 m 0.002,0 c 12.52413,-9.39298 30.29105,-6.85486 39.68404,5.66928 9.39297,12.52412 6.85486,30.29103 -5.66928,39.68402 -10.0777,7.55817 -23.93706,7.55817 -34.01476,0"
       style="fill:#00ff00;fill-opacity:0.4;fill-rule:nonzero;stroke:#199619;stroke-width:1.19553;stroke-linecap:butt;stroke-linejoin:miter;stroke-miterlimit:10;stroke-dasharray:none;stroke-opacity:1"
       transform="matrix(1.3333333,0,0,-1.3333333,120.94533,119.056)" />
  </g>
</svg>
