<?xml version="1.0" encoding="UTF-8" standalone="no"?>
<!-- Created with Inkscape (http://www.inkscape.org/) -->

<svg
   version="1.1"
   id="svg1"
   width="619.84265"
   height="166.29868"
   viewBox="0 0 619.84265 166.29868"
   xmlns="http://www.w3.org/2000/svg"
   xmlns:svg="http://www.w3.org/2000/svg">
  <defs
     id="defs1" />
  <g
     id="g1">
    <path
       id="path1"
       d="M -62.36288,-62.36288 V 62.36288 H 62.36288 V -62.36288 Z"
       style="fill:#ffffff;fill-opacity:1;fill-rule:nonzero;stroke:none"
       transform="matrix(1.3333333,0,0,-1.3333333,83.149333,83.149333)" />
    <path
       id="path2"
       d="M -56.69362,-56.69362 H 56.69362 M -56.69362,-28.3468 H 56.69362 M -56.69362,0 H 56.69362 M -56.69362,28.3468 H 56.69362 M -56.69362,56.68365 H 56.69362 M -56.69362,-56.69362 V 56.69362 M -28.3468,-56.69362 V 56.69362 M 0,-56.69362 V 56.69362 M 28.3468,-56.69362 V 56.69362 M 56.68365,-56.69362 V 56.69362"
       style="fill:none;stroke:#808080;stroke-width:0.19925;stroke-linecap:butt;stroke-linejoin:miter;stroke-miterlimit:10;stroke-dasharray:none;stroke-opacity:1"
       transform="matrix(1.3333333,0,0,-1.3333333,83.149333,83.149333)" />
    <path
       id="path3"
       d="M -56.69362,0 H 56.23534"
       style="fill:none;stroke:#000000;stroke-width:0.3985;stroke-linecap:butt;stroke-linejoin:miter;stroke-miterlimit:10;stroke-dasharray:none;stroke-opacity:1"
       transform="matrix(1.3333333,0,0,-1.3333333,83.149333,83.149333)" />
    <path
       id="path4"
       d="M -1.19551,1.59401 C -1.09587,0.99626 0,0.09961 0.29886,0 0,-0.09961 -1.09587,-0.99626 -1.19551,-1.59401"
       style="fill:none;stroke:#000000;stroke-width:0.31879;stroke-linecap:round;stroke-linejoin:round;stroke-miterlimit:10;stroke-dasharray:none;stroke-opacity:1"
       transform="matrix(1.3333333,0,0,-1.3333333,158.12979,83.149333)" />
    <path
       id="path5"
       d="M 0,-56.69362 V 56.23534"
       style="fill:none;stroke:#000000;stroke-width:0.3985;stroke-linecap:butt;stroke-linejoin:miter;stroke-miterlimit:10;stroke-dasharray:none;stroke-opacity:1"
       transform="matrix(1.3333333,0,0,-1.3333333,83.149333,83.149333)" />
    <path
       id="path6"
       d="M -1.19551,1.59401 C -1.09587,0.99626 0,0.09961 0.29886,0 0,-0.09961 -1.09587,-0.99626 -1.19551,-1.59401"
       style="fill:none;stroke:#000000;stroke-width:0.31879;stroke-linecap:round;stroke-linejoin:round;stroke-miterlimit:10;stroke-dasharray:none;stroke-opacity:1"
       transform="matrix(0,-1.3333333,-1.3333333,0,83.149333,8.16888)" />
    <path
       id="path7"
       d="m -27.84866,-28.3468 h 55.69732 c 0.27512,0 0.49814,0.22302 0.49814,0.49814 v 55.69732 c 0,0.27512 -0.22302,0.49814 -0.49814,0.49814 h -55.69732 c -0.27512,0 -0.49814,-0.22302 -0.49814,-0.49814 v -55.69732 c 0,-0.27512 0.22302,-0.49814 0.49814,-0.49814 z"
       style="fill:#00ff00;fill-opacity:0.4;fill-rule:nonzero;stroke:#199619;stroke-width:1.19553;stroke-linecap:butt;stroke-linejoin:miter;stroke-miterlimit:10;stroke-dasharray:none;stroke-opacity:1"
       transform="matrix(1.3333333,0,0,-1.3333333,83.149333,83.149333)" />
    <path
       id="path8"
       d="M 0.85036,0 C 0.85036,0.46964 0.46964,0.85036 0,0.85036 -0.46964,0.85036 -0.85036,0.46964 -0.85036,0 c 0,-0.46964 0.38072,-0.85036 0.85036,-0.85036 0.46964,0 0.85036,0.38072 0.85036,0.85036 z"
       style="fill:#000000;fill-opacity:1;fill-rule:nonzero;stroke:#000000;stroke-width:0.3985;stroke-linecap:butt;stroke-linejoin:miter;stroke-miterlimit:10;stroke-dasharray:none;stroke-opacity:1"
       transform="matrix(1.3333333,0,0,-1.3333333,83.149333,83.149333)" />
    <path
       id="path9"
       d="M 107.71796,-62.36288 V 62.36288 H 232.44374 V -62.36288 Z"
       style="fill:#ffffff;fill-opacity:1;fill-rule:nonzero;stroke:none"
       transform="matrix(1.3333333,0,0,-1.3333333,83.149333,83.149333)" />
    <path
       id="path10"
       d="M 113.38724,-56.69362 H 226.77448 M 113.38724,-28.3468 H 226.77448 M 113.38724,0 H 226.77448 M 113.38724,28.3468 H 226.77448 M 113.38724,56.68365 H 226.77448 M 113.38724,-56.69362 V 56.69362 m 28.3468,-113.38724 V 56.69362 M 170.08086,-56.69362 V 56.69362 m 28.3468,-113.38724 V 56.69362 M 226.76451,-56.69362 V 56.69362"
       style="fill:none;stroke:#808080;stroke-width:0.19925;stroke-linecap:butt;stroke-linejoin:miter;stroke-miterlimit:10;stroke-dasharray:none;stroke-opacity:1"
       transform="matrix(1.3333333,0,0,-1.3333333,83.149333,83.149333)" />
    <path
       id="path11"
       d="M 113.38724,0 H 226.3162"
       style="fill:none;stroke:#000000;stroke-width:0.3985;stroke-linecap:butt;stroke-linejoin:miter;stroke-miterlimit:10;stroke-dasharray:none;stroke-opacity:1"
       transform="matrix(1.3333333,0,0,-1.3333333,83.149333,83.149333)" />
    <path
       id="path12"
       d="M -1.19551,1.59401 C -1.09587,0.99626 0,0.09961 0.29886,0 0,-0.09961 -1.09587,-0.99626 -1.19551,-1.59401"
       style="fill:none;stroke:#000000;stroke-width:0.31879;stroke-linecap:round;stroke-linejoin:round;stroke-miterlimit:10;stroke-dasharray:none;stroke-opacity:1"
       transform="matrix(1.3333333,0,0,-1.3333333,384.90427,83.149333)" />
    <path
       id="path13"
       d="M 170.08086,-56.69362 V 56.23534"
       style="fill:none;stroke:#000000;stroke-width:0.3985;stroke-linecap:butt;stroke-linejoin:miter;stroke-miterlimit:10;stroke-dasharray:none;stroke-opacity:1"
       transform="matrix(1.3333333,0,0,-1.3333333,83.149333,83.149333)" />
    <path
       id="path14"
       d="M -1.19551,1.59401 C -1.09587,0.99626 0,0.09961 0.29886,0 0,-0.09961 -1.09587,-0.99626 -1.19551,-1.59401"
       style="fill:none;stroke:#000000;stroke-width:0.31879;stroke-linecap:round;stroke-linejoin:round;stroke-miterlimit:10;stroke-dasharray:none;stroke-opacity:1"
       transform="matrix(0,-1.3333333,-1.3333333,0,309.92381,8.16888)" />
    <path
       id="path15"
       d="m 160.13652,-38.47345 48.23546,27.84869 c 0.23823,0.13755 0.31987,0.44219 0.18232,0.68044 l -27.84867,48.23544 c -0.13756,0.23824 -0.4422,0.31988 -0.68045,0.18233 L 131.78973,10.62476 c -0.23825,-0.13755 -0.31988,-0.44219 -0.18234,-0.68044 l 27.8487,-48.23544 c 0.13754,-0.23824 0.44219,-0.31988 0.68043,-0.18233 z"
       style="fill:#00ff00;fill-opacity:0.4;fill-rule:nonzero;stroke:#199619;stroke-width:1.19553;stroke-linecap:butt;stroke-linejoin:miter;stroke-miterlimit:10;stroke-dasharray:none;stroke-opacity:1"
       transform="matrix(1.3333333,0,0,-1.3333333,83.149333,83.149333)" />
    <path
       id="path16"
       d="m 170.81728,0.42517 c -0.23482,0.40673 -0.7549,0.54608 -1.16161,0.31125 -0.40672,-0.23482 -0.54607,-0.75488 -0.31125,-1.16159 0.23483,-0.40673 0.7549,-0.54608 1.16162,-0.31125 0.40671,0.23482 0.54607,0.75488 0.31124,1.16159 z"
       style="fill:#000000;fill-opacity:1;fill-rule:nonzero;stroke:#000000;stroke-width:0.3985;stroke-linecap:butt;stroke-linejoin:miter;stroke-miterlimit:10;stroke-dasharray:none;stroke-opacity:1"
       transform="matrix(1.3333333,0,0,-1.3333333,83.149333,83.149333)" />
    <path
       id="path17"
       d="M 277.79881,-62.36288 V 62.36288 H 402.5246 V -62.36288 Z"
       style="fill:#ffffff;fill-opacity:1;fill-rule:nonzero;stroke:none"
       transform="matrix(1.3333333,0,0,-1.3333333,83.149333,83.149333)" />
    <path
       id="path18"
       d="M 283.4681,-56.69362 H 396.85533 M 283.4681,-28.3468 H 396.85533 M 283.4681,0 H 396.85533 M 283.4681,28.3468 H 396.85533 M 283.4681,56.68365 H 396.85533 M 283.4681,-56.69362 V 56.69362 M 311.8149,-56.69362 V 56.69362 M 340.16171,-56.69362 V 56.69362 m 28.3468,-113.38724 V 56.69362 M 396.84537,-56.69362 V 56.69362"
       style="fill:none;stroke:#808080;stroke-width:0.19925;stroke-linecap:butt;stroke-linejoin:miter;stroke-miterlimit:10;stroke-dasharray:none;stroke-opacity:1"
       transform="matrix(1.3333333,0,0,-1.3333333,83.149333,83.149333)" />
    <path
       id="path19"
       d="M 283.4681,0 H 396.39705"
       style="fill:none;stroke:#000000;stroke-width:0.3985;stroke-linecap:butt;stroke-linejoin:miter;stroke-miterlimit:10;stroke-dasharray:none;stroke-opacity:1"
       transform="matrix(1.3333333,0,0,-1.3333333,83.149333,83.149333)" />
    <path
       id="path20"
       d="M -1.19551,1.59401 C -1.09587,0.99626 0,0.09961 0.29886,0 0,-0.09961 -1.09587,-0.99626 -1.19551,-1.59401"
       style="fill:none;stroke:#000000;stroke-width:0.31879;stroke-linecap:round;stroke-linejoin:round;stroke-miterlimit:10;stroke-dasharray:none;stroke-opacity:1"
       transform="matrix(1.3333333,0,0,-1.3333333,611.67873,83.149333)" />
    <path
       id="path21"
       d="M 340.16171,-56.69362 V 56.23534"
       style="fill:none;stroke:#000000;stroke-width:0.3985;stroke-linecap:butt;stroke-linejoin:miter;stroke-miterlimit:10;stroke-dasharray:none;stroke-opacity:1"
       transform="matrix(1.3333333,0,0,-1.3333333,83.149333,83.149333)" />
    <path
       id="path22"
       d="M -1.19551,1.59401 C -1.09587,0.99626 0,0.09961 0.29886,0 0,-0.09961 -1.09587,-0.99626 -1.19551,-1.59401"
       style="fill:none;stroke:#000000;stroke-width:0.31879;stroke-linecap:round;stroke-linejoin:round;stroke-miterlimit:10;stroke-dasharray:none;stroke-opacity:1"
       transform="matrix(0,-1.3333333,-1.3333333,0,536.69828,8.16888)" />
    <path
       id="path23"
       d="m 350.78648,-38.29112 27.84868,48.23544 c 0.13756,0.23825 0.0559,0.54289 -0.18232,0.68044 l -48.23546,27.84869 c -0.23824,0.13755 -0.5429,0.05591 -0.68044,-0.18233 L 301.68825,-9.94432 c -0.13755,-0.23825 -0.0559,-0.54289 0.18234,-0.68044 l 48.23544,-27.84869 c 0.23825,-0.13755 0.5429,-0.05591 0.68045,0.18233 z"
       style="fill:#00ff00;fill-opacity:0.4;fill-rule:nonzero;stroke:#199619;stroke-width:1.19553;stroke-linecap:butt;stroke-linejoin:miter;stroke-miterlimit:10;stroke-dasharray:none;stroke-opacity:1"
       transform="matrix(1.3333333,0,0,-1.3333333,83.149333,83.149333)" />
    <path
       id="path24"
       d="m 340.5869,0.73642 c -0.40672,0.23483 -0.92679,0.09548 -1.16162,-0.31125 -0.23482,-0.40671 -0.0955,-0.92677 0.31125,-1.16159 0.4067,-0.23483 0.92678,-0.09548 1.16162,0.31125 0.23482,0.40671 0.0955,0.92677 -0.31125,1.16159 z"
       style="fill:#000000;fill-opacity:1;fill-rule:nonzero;stroke:#000000;stroke-width:0.3985;stroke-linecap:butt;stroke-linejoin:miter;stroke-miterlimit:10;stroke-dasharray:none;stroke-opacity:1"
       transform="matrix(1.3333333,0,0,-1.3333333,83.149333,83.149333)" />
    <path
       id="path25"
       d="m 2.83484,2.83484 c 55.52588,32.0578 108.88527,32.0578 164.01428,0.22912"
       style="fill:none;stroke:#000000;stroke-width:0.3985;stroke-linecap:butt;stroke-linejoin:miter;stroke-miterlimit:10;stroke-dasharray:none;stroke-opacity:1"
       transform="matrix(1.3333333,0,0,-1.3333333,83.149333,83.149333)" />
    <path
       id="path26"
       d="M -1.19551,1.59401 C -1.09587,0.99626 0,0.09961 0.29886,0 0,-0.09961 -1.09587,-0.99626 -1.19551,-1.59401"
       style="fill:none;stroke:#000000;stroke-width:0.31879;stroke-linecap:round;stroke-linejoin:round;stroke-miterlimit:10;stroke-dasharray:none;stroke-opacity:1"
       transform="matrix(1.15468,0.66664,0.66664,-1.15468,305.6148,79.064027)" />
    <path
       id="path27"
       d="m 43.09843,27.07744 h 83.8839 v 16.6039 h -83.8839 z"
       style="fill:#ffffff;fill-opacity:1;fill-rule:nonzero;stroke:none"
       transform="matrix(1.3333333,0,0,-1.3333333,83.149333,83.149333)" />
    <g
       id="g27"
       aria-label="shape.rotate(π/6)"
       transform="matrix(1.3333333,0,0,1.3333333,145.04,39.298667)">
      <path
         id="path28"
         d="m 2.0735156,-1.9349375 c 0.2226563,0.035156 1.03125,0.1992188 1.03125,0.9140625 0,0.515625 -0.3515625,0.9140625 -1.125,0.9140625 -0.8320312,0 -1.19531248,-0.57421875 -1.38281248,-1.4179687 -0.0351563,-0.1289063 -0.0351563,-0.1757813 -0.140625,-0.1757813 -0.12890625,0 -0.12890625,0.070312 -0.12890625,0.2578125 v 1.3125 c 0,0.1640625 0,0.234375 0.10546875,0.234375 0.0585938,0 0.0703125,0 0.2578125,-0.19921875 C 0.70242187,-0.1068125 0.70242187,-0.13025 0.88992187,-0.31775 1.3235156,0.104125 1.7688281,0.104125 1.9797656,0.104125 c 1.1484375,0 1.6054688,-0.66796875 1.6054688,-1.3828125 0,-0.5273437 -0.2929688,-0.8203125 -0.421875,-0.9492187 C 2.8352344,-2.5443125 2.4485156,-2.6263437 2.0266406,-2.6966562 1.4758594,-2.8138437 0.80789062,-2.94275 0.80789062,-3.5169687 c 0,-0.3515625 0.25781248,-0.7617188 1.11328128,-0.7617188 1.1015625,0 1.1484375,0.9023438 1.171875,1.2070313 0,0.09375 0.09375,0.09375 0.1171875,0.09375 0.1289062,0 0.1289062,-0.046875 0.1289062,-0.2460938 v -0.9960937 c 0,-0.1757813 0,-0.2460938 -0.1171875,-0.2460938 -0.046875,0 -0.070312,0 -0.1992187,0.1171875 -0.023437,0.046875 -0.1289063,0.1289063 -0.1640625,0.1640625 -0.375,-0.28125 -0.7851563,-0.28125 -0.9375,-0.28125 -1.21875003,0 -1.59375003,0.6679688 -1.59375003,1.2304688 0,0.3398437 0.1640625,0.6210937 0.43359375,0.84375 0.31640628,0.2578125 0.59765628,0.3164062 1.31249998,0.4570312 z m 2.9560547,1.171875 c 0,0.45703125 -0.1171875,0.45703125 -0.7851562,0.45703125 v 0.3046875 C 4.5959766,-0.0130625 5.0998828,-0.0365 5.3694141,-0.0365 c 0.2578125,0 0.7851562,0.0234375 1.1132812,0.03515625 v -0.3046875 c -0.65625,0 -0.7734375,0 -0.7734375,-0.45703125 v -1.828125 c 0,-1.03125 0.7148438,-1.59375 1.3476563,-1.59375 0.6210937,0 0.7382812,0.5390625 0.7382812,1.1015625 v 2.3203125 c 0,0.45703125 -0.1171875,0.45703125 -0.7734375,0.45703125 v 0.3046875 C 7.3616016,-0.0130625 7.8772266,-0.0365 8.1467578,-0.0365 c 0.2578125,0 0.7734375,0.0234375 1.1132813,0.03515625 v -0.3046875 c -0.515625,0 -0.7734375,0 -0.7851563,-0.3046875 V -2.5091562 c 0,-0.8554688 0,-1.171875 -0.3046875,-1.5234375 -0.140625,-0.1757813 -0.46875,-0.375 -1.0429687,-0.375 -0.84375,0 -1.2773438,0.5976562 -1.4414063,0.984375 v -3.4921875 l -1.4414062,0.1054687 v 0.3164063 c 0.703125,0 0.7851562,0.070312 0.7851562,0.5507812 z m 7.7519527,0 c 0.03516,0.3984375 0.304688,0.8203125 0.773438,0.8203125 0.210937,0 0.820312,-0.140625 0.820312,-0.94921875 V -1.44275 H 14.12918 v 0.55078125 c 0,0.5859375 -0.246094,0.64453125 -0.363282,0.64453125 -0.328125,0 -0.363281,-0.45703125 -0.363281,-0.50390625 V -2.7435312 c 0,-0.4101563 0,-0.8085938 -0.363281,-1.171875 -0.386719,-0.3867188 -0.878906,-0.5507813 -1.359375,-0.5507813 -0.820313,0 -1.511719,0.46875 -1.511719,1.125 0,0.3046875 0.199219,0.46875 0.457031,0.46875 0.28125,0 0.46875,-0.1992187 0.46875,-0.4570312 0,-0.1171875 -0.05859,-0.4453125 -0.515625,-0.4570313 0.269532,-0.3515625 0.761719,-0.4570312 1.078125,-0.4570312 0.492188,0 1.054688,0.3867187 1.054688,1.2773437 v 0.3632813 c -0.503906,0.035156 -1.207031,0.058594 -1.828125,0.3632812 -0.75,0.3398438 -0.9960938,0.8554688 -0.9960938,1.2890625 0,0.80859375 0.9609378,1.0546875 1.5937498,1.0546875 0.65625,0 1.113281,-0.3984375 1.300781,-0.8671875 z m -0.07031,-1.6289062 v 0.9960937 c 0,0.94921875 -0.714844,1.2890625 -1.160156,1.2890625 -0.492188,0 -0.902344,-0.3515625 -0.902344,-0.85546875 0,-0.53906245 0.421875,-1.37109375 2.0625,-1.42968745 z m 3.445312,-1.359375 v -0.65625 l -1.429687,0.1171875 v 0.3046875 c 0.703125,0 0.773437,0.058594 0.773437,0.4921875 v 4.6640625 c 0,0.4570312 -0.105468,0.4570312 -0.773437,0.4570312 V 1.93225 c 0.339844,-0.011719 0.855469,-0.035156 1.113281,-0.035156 0.269531,0 0.773438,0.023437 1.125,0.035156 V 1.6275625 c -0.667969,0 -0.773437,0 -0.773437,-0.4570312 v -1.75781255 c 0.04687,0.15234375 0.46875,0.69140625 1.21875,0.69140625 1.183593,0 2.226562,-0.97265625 2.226562,-2.2617187 0,-1.265625 -0.972656,-2.25 -2.085937,-2.25 -0.773438,0 -1.195313,0.4453125 -1.394532,0.65625 z m 0.03516,2.6132812 v -2.2148437 c 0.28125,-0.515625 0.773437,-0.796875 1.277343,-0.796875 0.726563,0 1.335938,0.8671875 1.335938,1.9921875 0,1.2070312 -0.691406,2.0507812 -1.429688,2.0507812 -0.398437,0 -0.773437,-0.19921875 -1.042968,-0.609375 -0.14063,-0.2109375 -0.14063,-0.22265625 -0.14063,-0.421875 z m 5.182617,-1.3710937 c 0.05859,-1.4882813 0.902344,-1.734375 1.242187,-1.734375 1.019532,0 1.125,1.3476562 1.125,1.734375 z m -0.01172,0.2109375 h 2.789063 c 0.210937,0 0.246093,0 0.246093,-0.2109375 0,-0.984375 -0.539062,-1.9570313 -1.78125,-1.9570313 -1.160156,0 -2.074218,1.03125 -2.074218,2.2734375 0,1.3359375 1.042968,2.296875 2.191406,2.296875 1.21875,0 1.664062,-1.1015625 1.664062,-1.2890625 0,-0.1054687 -0.08203,-0.1171875 -0.128906,-0.1171875 -0.09375,0 -0.117187,0.058594 -0.128906,0.140625 -0.351563,1.01953125 -1.253906,1.01953125 -1.347656,1.01953125 -0.503907,0 -0.902344,-0.29296875 -1.125,-0.66796875 -0.304688,-0.4804687 -0.304688,-1.1367187 -0.304688,-1.4882812 z m 5.235352,1.7695312 c 0,-0.29296875 -0.234375,-0.5273437 -0.527344,-0.5273437 -0.28125,0 -0.527344,0.23437495 -0.527344,0.5273437 0,0.29296875 0.246094,0.52734375 0.527344,0.52734375 0.292969,0 0.527344,-0.234375 0.527344,-0.52734375 z m 2.522461,-2.7773437 v -1.1015625 l -1.382813,0.1171875 v 0.3046875 c 0.691406,0 0.773438,0.070312 0.773438,0.5625 v 2.6601562 c 0,0.45703125 -0.105469,0.45703125 -0.773438,0.45703125 v 0.3046875 C 28.124297,-0.0130625 28.593047,-0.0365 28.874297,-0.0365 c 0.398437,0 0.867187,0 1.265625,0.03515625 v -0.3046875 h -0.210938 c -0.738281,0 -0.761718,-0.1171875 -0.761718,-0.46875 V -2.3099375 c 0,-0.984375 0.421875,-1.875 1.183593,-1.875 0.05859,0 0.08203,0 0.105469,0.011719 -0.03516,0.011719 -0.234375,0.1289062 -0.234375,0.3867187 0,0.28125 0.210938,0.4335938 0.433594,0.4335938 0.175781,0 0.421875,-0.1289063 0.421875,-0.4453125 0,-0.3164063 -0.304688,-0.609375 -0.726563,-0.609375 -0.738281,0 -1.089843,0.6679687 -1.230468,1.1015625 z m 6.925781,1.171875 c 0,-1.2773438 -0.996094,-2.3320313 -2.191406,-2.3320313 -1.253907,0 -2.214844,1.0898438 -2.214844,2.3320313 0,1.28906245 1.03125,2.2382812 2.203125,2.2382812 1.207031,0 2.203125,-0.97265625 2.203125,-2.2382812 z m -2.191406,1.99218745 c -0.433594,0 -0.867188,-0.2109375 -1.136719,-0.66796875 -0.257813,-0.4335937 -0.257813,-1.0429687 -0.257813,-1.40625 0,-0.3867187 0,-0.9257812 0.246094,-1.359375 0.269531,-0.4570312 0.738281,-0.6679687 1.136719,-0.6679687 0.433594,0 0.867187,0.2226562 1.125,0.6445312 0.257812,0.4335938 0.257812,1.0078125 0.257812,1.3828125 0,0.3632813 0,0.9023438 -0.222656,1.3359375 -0.222656,0.4453125 -0.65625,0.73828125 -1.148437,0.73828125 z m 4.207031,-3.84374995 h 1.429687 V -4.2904062 H 38.061797 V -6.13025 h -0.246094 c -0.01172,0.8203125 -0.316406,1.8867188 -1.289062,1.921875 v 0.2226563 h 0.84375 v 2.7539062 c 0,1.21875 0.925781,1.3359375 1.289062,1.3359375 0.703125,0 0.984375,-0.703125 0.984375,-1.3359375 V -1.8060312 H 39.397734 V -1.25525 c 0,0.73828125 -0.304687,1.11328125 -0.667968,1.11328125 -0.667969,0 -0.667969,-0.90234375 -0.667969,-1.07812495 z m 5.466797,3.2226562 c 0.03516,0.3984375 0.304687,0.8203125 0.773437,0.8203125 0.210938,0 0.820313,-0.140625 0.820313,-0.94921875 V -1.44275 H 44.87625 v 0.55078125 c 0,0.5859375 -0.246094,0.64453125 -0.363281,0.64453125 -0.328125,0 -0.363282,-0.45703125 -0.363282,-0.50390625 V -2.7435312 c 0,-0.4101563 0,-0.8085938 -0.363281,-1.171875 -0.386719,-0.3867188 -0.878906,-0.5507813 -1.359375,-0.5507813 -0.820312,0 -1.511719,0.46875 -1.511719,1.125 0,0.3046875 0.199219,0.46875 0.457032,0.46875 0.28125,0 0.46875,-0.1992187 0.46875,-0.4570312 0,-0.1171875 -0.05859,-0.4453125 -0.515625,-0.4570313 0.269531,-0.3515625 0.761718,-0.4570312 1.078125,-0.4570312 0.492187,0 1.054687,0.3867187 1.054687,1.2773437 v 0.3632813 c -0.503906,0.035156 -1.207031,0.058594 -1.828125,0.3632812 -0.75,0.3398438 -0.996094,0.8554688 -0.996094,1.2890625 0,0.80859375 0.960938,1.0546875 1.59375,1.0546875 0.65625,0 1.113282,-0.3984375 1.300782,-0.8671875 z m -0.07031,-1.6289062 v 0.9960937 c 0,0.94921875 -0.714844,1.2890625 -1.160156,1.2890625 -0.492188,0 -0.902344,-0.3515625 -0.902344,-0.85546875 0,-0.53906245 0.421875,-1.37109375 2.0625,-1.42968745 z m 3.459961,-1.59375 H 48.34793 V -4.2904062 H 46.918242 V -6.13025 h -0.246094 c -0.01172,0.8203125 -0.316406,1.8867188 -1.289062,1.921875 v 0.2226563 h 0.84375 v 2.7539062 c 0,1.21875 0.925781,1.3359375 1.289062,1.3359375 0.703125,0 0.984375,-0.703125 0.984375,-1.3359375 V -1.8060312 H 48.25418 V -1.25525 c 0,0.73828125 -0.304688,1.11328125 -0.667969,1.11328125 -0.667969,0 -0.667969,-0.90234375 -0.667969,-1.07812495 z m 3.263672,1.4765625 c 0.05859,-1.4882813 0.902344,-1.734375 1.242188,-1.734375 1.019531,0 1.125,1.3476562 1.125,1.734375 z m -0.01172,0.2109375 h 2.789063 c 0.210937,0 0.246094,0 0.246094,-0.2109375 0,-0.984375 -0.539063,-1.9570313 -1.78125,-1.9570313 -1.160157,0 -2.074219,1.03125 -2.074219,2.2734375 0,1.3359375 1.042969,2.296875 2.191406,2.296875 1.21875,0 1.664063,-1.1015625 1.664063,-1.2890625 0,-0.1054687 -0.08203,-0.1171875 -0.128907,-0.1171875 -0.09375,0 -0.117187,0.058594 -0.128906,0.140625 -0.351562,1.01953125 -1.253906,1.01953125 -1.347656,1.01953125 -0.503906,0 -0.902344,-0.29296875 -1.125,-0.66796875 -0.304688,-0.4804687 -0.304688,-1.1367187 -0.304688,-1.4882812 z m 6.618164,4.6875 c 0,-0.035156 0,-0.046875 -0.164062,-0.2226563 -1.242188,-1.25390625 -1.570313,-3.12890625 -1.570313,-4.6640625 0,-1.7226562 0.386719,-3.4570312 1.605469,-4.7109375 0.128906,-0.1171875 0.128906,-0.1289062 0.128906,-0.1640625 0,-0.070312 -0.03516,-0.1054687 -0.09375,-0.1054687 -0.105468,0 -0.996093,0.6796875 -1.582031,1.9453125 -0.515625,1.1015625 -0.632812,2.203125 -0.632812,3.0351562 0,0.7851563 0.117187,1.9921875 0.65625,3.1171875 0.597656,1.21875 1.453125,1.875 1.558593,1.875 0.05859,0 0.09375,-0.035156 0.09375,-0.1054687 z m 0,0"
         style="fill:#000000;fill-opacity:1;fill-rule:nonzero;stroke:none" />
      <path
         id="path29"
         d="m 60.005156,-3.7161875 h 1.125 C 60.802031,-2.239625 60.72,-1.81775 60.72,-1.1497812 c 0,0.1523437 0,0.42187495 0.07031,0.7617187 0.105469,0.43359375 0.210938,0.4921875 0.363282,0.4921875 0.199218,0 0.410156,-0.17578125 0.410156,-0.375 0,-0.0585938 0,-0.0820313 -0.05859,-0.22265625 -0.292969,-0.71484375 -0.292969,-1.35937495 -0.292969,-1.64062495 0,-0.5273438 0.07031,-1.0664063 0.175782,-1.5820313 h 1.136718 c 0.128907,0 0.492188,0 0.492188,-0.3398437 0,-0.234375 -0.210938,-0.234375 -0.398438,-0.234375 h -3.339843 c -0.210938,0 -0.597657,0 -1.03125,0.46875 -0.351563,0.3867187 -0.609375,0.84375 -0.609375,0.890625 0,0.011719 0,0.1054687 0.117187,0.1054687 0.08203,0 0.105469,-0.046875 0.164063,-0.1289062 0.480468,-0.7617188 1.066406,-0.7617188 1.265625,-0.7617188 h 0.5625 c -0.316407,1.2070313 -0.855469,2.4140625 -1.277344,3.31640625 -0.07031,0.15234375 -0.07031,0.1640625 -0.07031,0.234375 0,0.19921875 0.152344,0.26953125 0.28125,0.26953125 0.304688,0 0.386719,-0.26953125 0.503907,-0.64453125 0.140625,-0.45703125 0.140625,-0.48046875 0.269531,-0.97265625 z m 7.772461,-3.375 c 0.04687,-0.1289062 0.04687,-0.1757812 0.04687,-0.1875 0,-0.1054687 -0.08203,-0.1992187 -0.199219,-0.1992187 -0.07031,0 -0.128906,0.035156 -0.164062,0.09375 L 64.00418,2.1080313 c -0.04688,0.1289062 -0.04688,0.1757812 -0.04688,0.1875 0,0.1054687 0.08203,0.1992187 0.199218,0.1992187 0.128907,0 0.152344,-0.070312 0.210938,-0.2460937 z m 0,0"
         style="fill:#000000;fill-opacity:1;fill-rule:nonzero;stroke:none" />
      <path
         id="path30"
         d="M 69.699492,-3.270875 V -3.50525 c 0,-2.5195312 1.242188,-2.8828125 1.746094,-2.8828125 0.234375,0 0.65625,0.058594 0.878906,0.3984375 -0.152344,0 -0.550781,0 -0.550781,0.4453125 0,0.3164063 0.234375,0.4570313 0.457031,0.4570313 0.164063,0 0.457031,-0.082031 0.457031,-0.46875 0,-0.5976563 -0.433593,-1.078125 -1.265625,-1.078125 -1.277343,0 -2.613281,1.2890625 -2.613281,3.4804687 0,2.66015625 1.148438,3.375 2.074219,3.375 1.113281,0 2.050781,-0.9375 2.050781,-2.25 0,-1.265625 -0.878906,-2.2265625 -1.992187,-2.2265625 -0.667969,0 -1.042969,0.5039063 -1.242188,0.984375 z m 1.183594,3.2109375 c -0.621094,0 -0.925781,-0.59765625 -0.984375,-0.75 -0.175781,-0.46875 -0.175781,-1.265625 -0.175781,-1.4414062 0,-0.7734375 0.316406,-1.7695313 1.21875,-1.7695313 0.152343,0 0.609375,0 0.925781,0.609375 0.175781,0.375 0.175781,0.8789063 0.175781,1.3710938 0,0.4804687 0,0.9726562 -0.164062,1.33593745 -0.304688,0.59765625 -0.761719,0.64453125 -0.996094,0.64453125 z m 5.367187,-2.4375 c 0,-0.7734375 -0.117187,-1.9804687 -0.65625,-3.1054687 -0.597656,-1.21875 -1.464843,-1.875 -1.558593,-1.875 -0.05859,0 -0.105469,0.046875 -0.105469,0.1054687 0,0.035156 0,0.046875 0.199219,0.234375 0.972656,0.984375 1.535156,2.5664063 1.535156,4.640625 0,1.7109375 -0.363281,3.45703125 -1.59375,4.7226563 -0.140625,0.1171875 -0.140625,0.1289062 -0.140625,0.1640625 0,0.058594 0.04687,0.1054687 0.105469,0.1054687 0.09375,0 0.996093,-0.6796875 1.582031,-1.9453125 0.503906,-1.1015625 0.632812,-2.203125 0.632812,-3.046875 z m 0,0"
         style="fill:#000000;fill-opacity:1;fill-rule:nonzero;stroke:none" />
    </g>
    <path
       id="path31"
       d="m 172.9157,2.83484 c 55.52587,32.0578 108.88526,32.0578 164.01428,0.22912"
       style="fill:none;stroke:#000000;stroke-width:0.3985;stroke-linecap:butt;stroke-linejoin:miter;stroke-miterlimit:10;stroke-dasharray:none;stroke-opacity:1"
       transform="matrix(1.3333333,0,0,-1.3333333,83.149333,83.149333)" />
    <path
       id="path32"
       d="M -1.19551,1.59401 C -1.09587,0.99626 0,0.09961 0.29886,0 0,-0.09961 -1.09587,-0.99626 -1.19551,-1.59401"
       style="fill:none;stroke:#000000;stroke-width:0.31879;stroke-linecap:round;stroke-linejoin:round;stroke-miterlimit:10;stroke-dasharray:none;stroke-opacity:1"
       transform="matrix(1.15468,0.66664,0.66664,-1.15468,532.38928,79.064027)" />
    <path
       id="path33"
       d="m 196.50722,27.07744 h 117.22807 v 16.6039 H 196.50722 Z"
       style="fill:#ffffff;fill-opacity:1;fill-rule:nonzero;stroke:none"
       transform="matrix(1.3333333,0,0,-1.3333333,83.149333,83.149333)" />
    <path
       id="path34"
       d="m 2.0737422,-1.9349375 c 0.2226562,0.035156 1.03125,0.1992188 1.03125,0.9140625 0,0.515625 -0.3515625,0.9140625 -1.125,0.9140625 -0.8320313,0 -1.19531251,-0.57421875 -1.38281251,-1.4179687 -0.0351563,-0.1289063 -0.0351563,-0.1757813 -0.140625,-0.1757813 -0.12890625,0 -0.12890625,0.070312 -0.12890625,0.2578125 v 1.3125 c 0,0.1640625 0,0.234375 0.10546875,0.234375 0.0585938,0 0.0703125,0 0.2578125,-0.19921875 C 0.70264844,-0.1068125 0.70264844,-0.13025 0.89014844,-0.31775 1.3237422,0.104125 1.7690547,0.104125 1.9799922,0.104125 c 1.1484375,0 1.6054687,-0.66796875 1.6054687,-1.3828125 0,-0.5273437 -0.2929687,-0.8203125 -0.421875,-0.9492187 C 2.8354609,-2.5443125 2.4487422,-2.6263437 2.0268672,-2.6966562 1.4760859,-2.8138437 0.80811719,-2.94275 0.80811719,-3.5169687 c 0,-0.3515625 0.25781251,-0.7617188 1.11328121,-0.7617188 1.1015625,0 1.1484375,0.9023438 1.171875,1.2070313 0,0.09375 0.09375,0.09375 0.1171875,0.09375 0.1289063,0 0.1289063,-0.046875 0.1289063,-0.2460938 v -0.9960937 c 0,-0.1757813 0,-0.2460938 -0.1171875,-0.2460938 -0.046875,0 -0.070312,0 -0.1992188,0.1171875 -0.023437,0.046875 -0.1289062,0.1289063 -0.1640625,0.1640625 -0.375,-0.28125 -0.7851562,-0.28125 -0.9375,-0.28125 -1.21874996,0 -1.59374996,0.6679688 -1.59374996,1.2304688 0,0.3398437 0.1640625,0.6210937 0.43359375,0.84375 0.31640621,0.2578125 0.59765621,0.3164062 1.31250001,0.4570312 z m 2.9560547,1.171875 c 0,0.45703125 -0.1171875,0.45703125 -0.7851563,0.45703125 v 0.3046875 C 4.5962031,-0.0130625 5.1001094,-0.0365 5.3696406,-0.0365 c 0.2578125,0 0.7851563,0.0234375 1.1132813,0.03515625 v -0.3046875 c -0.65625,0 -0.7734375,0 -0.7734375,-0.45703125 v -1.828125 c 0,-1.03125 0.7148437,-1.59375 1.3476562,-1.59375 0.6210938,0 0.7382813,0.5390625 0.7382813,1.1015625 v 2.3203125 c 0,0.45703125 -0.1171875,0.45703125 -0.7734375,0.45703125 v 0.3046875 C 7.3618281,-0.0130625 7.8774531,-0.0365 8.1469844,-0.0365 c 0.2578125,0 0.7734375,0.0234375 1.1132812,0.03515625 v -0.3046875 c -0.515625,0 -0.7734375,0 -0.7851562,-0.3046875 V -2.5091562 c 0,-0.8554688 0,-1.171875 -0.3046875,-1.5234375 -0.140625,-0.1757813 -0.46875,-0.375 -1.0429688,-0.375 -0.84375,0 -1.2773437,0.5976562 -1.4414062,0.984375 v -3.4921875 l -1.4414063,0.1054687 v 0.3164063 c 0.703125,0 0.7851563,0.070312 0.7851563,0.5507812 z m 7.7519531,0 c 0.03516,0.3984375 0.304687,0.8203125 0.773437,0.8203125 0.210938,0 0.820313,-0.140625 0.820313,-0.94921875 V -1.44275 h -0.246094 v 0.55078125 c 0,0.5859375 -0.246094,0.64453125 -0.363281,0.64453125 -0.328125,0 -0.363281,-0.45703125 -0.363281,-0.50390625 V -2.7435312 c 0,-0.4101563 0,-0.8085938 -0.363282,-1.171875 -0.386718,-0.3867188 -0.878906,-0.5507813 -1.359375,-0.5507813 -0.820312,0 -1.511718,0.46875 -1.511718,1.125 0,0.3046875 0.199218,0.46875 0.457031,0.46875 0.28125,0 0.46875,-0.1992187 0.46875,-0.4570312 0,-0.1171875 -0.05859,-0.4453125 -0.515625,-0.4570313 0.269531,-0.3515625 0.761719,-0.4570312 1.078125,-0.4570312 0.492187,0 1.054687,0.3867187 1.054687,1.2773437 v 0.3632813 c -0.503906,0.035156 -1.207031,0.058594 -1.828125,0.3632812 -0.75,0.3398438 -0.9960933,0.8554688 -0.9960933,1.2890625 0,0.80859375 0.9609373,1.0546875 1.5937503,1.0546875 0.65625,0 1.113281,-0.3984375 1.300781,-0.8671875 z m -0.07031,-1.6289062 v 0.9960937 c 0,0.94921875 -0.714843,1.2890625 -1.160156,1.2890625 -0.492187,0 -0.902344,-0.3515625 -0.902344,-0.85546875 0,-0.53906245 0.421875,-1.37109375 2.0625,-1.42968745 z m 3.445313,-1.359375 v -0.65625 l -1.429688,0.1171875 v 0.3046875 c 0.703125,0 0.773438,0.058594 0.773438,0.4921875 v 4.6640625 c 0,0.4570312 -0.105469,0.4570312 -0.773438,0.4570312 V 1.93225 c 0.339844,-0.011719 0.855469,-0.035156 1.113282,-0.035156 0.269531,0 0.773437,0.023437 1.125,0.035156 V 1.6275625 c -0.667969,0 -0.773438,0 -0.773438,-0.4570312 v -1.75781255 c 0.04687,0.15234375 0.46875,0.69140625 1.21875,0.69140625 1.183594,0 2.226563,-0.97265625 2.226563,-2.2617187 0,-1.265625 -0.972657,-2.25 -2.085938,-2.25 -0.773437,0 -1.195312,0.4453125 -1.394531,0.65625 z m 0.03516,2.6132812 v -2.2148437 c 0.28125,-0.515625 0.773438,-0.796875 1.277344,-0.796875 0.726562,0 1.335937,0.8671875 1.335937,1.9921875 0,1.2070312 -0.691406,2.0507812 -1.429687,2.0507812 -0.398438,0 -0.773438,-0.19921875 -1.042969,-0.609375 -0.140625,-0.2109375 -0.140625,-0.22265625 -0.140625,-0.421875 z m 5.182617,-1.3710937 c 0.05859,-1.4882813 0.902344,-1.734375 1.242188,-1.734375 1.019531,0 1.125,1.3476562 1.125,1.734375 z m -0.01172,0.2109375 h 2.789062 c 0.210938,0 0.246094,0 0.246094,-0.2109375 0,-0.984375 -0.539063,-1.9570313 -1.78125,-1.9570313 -1.160156,0 -2.074219,1.03125 -2.074219,2.2734375 0,1.3359375 1.042969,2.296875 2.191406,2.296875 1.21875,0 1.664063,-1.1015625 1.664063,-1.2890625 0,-0.1054687 -0.08203,-0.1171875 -0.128906,-0.1171875 -0.09375,0 -0.117188,0.058594 -0.128907,0.140625 -0.351562,1.01953125 -1.253906,1.01953125 -1.347656,1.01953125 -0.503906,0 -0.902344,-0.29296875 -1.125,-0.66796875 C 21.36281,-1.2904062 21.36281,-1.9466562 21.36281,-2.2982187 Z m 5.235351,1.7695312 c 0,-0.29296875 -0.234375,-0.5273437 -0.527344,-0.5273437 -0.28125,0 -0.527343,0.23437495 -0.527343,0.5273437 0,0.29296875 0.246093,0.52734375 0.527343,0.52734375 0.292969,0 0.527344,-0.234375 0.527344,-0.52734375 z m 2.519531,-2.7773437 v -1.1015625 l -1.382812,0.1171875 v 0.3046875 c 0.691406,0 0.773437,0.070312 0.773437,0.5625 v 2.6601562 c 0,0.45703125 -0.105468,0.45703125 -0.773437,0.45703125 v 0.3046875 C 28.121594,-0.0130625 28.590344,-0.0365 28.871594,-0.0365 c 0.398437,0 0.867187,0 1.265625,0.03515625 v -0.3046875 h -0.210938 c -0.738281,0 -0.761719,-0.1171875 -0.761719,-0.46875 V -2.3099375 c 0,-0.984375 0.421875,-1.875 1.183594,-1.875 0.05859,0 0.08203,0 0.105469,0.011719 -0.03516,0.011719 -0.234375,0.1289062 -0.234375,0.3867187 0,0.28125 0.210937,0.4335938 0.433594,0.4335938 0.175781,0 0.421875,-0.1289063 0.421875,-0.4453125 0,-0.3164063 -0.304688,-0.609375 -0.726563,-0.609375 -0.738281,0 -1.089844,0.6679687 -1.230469,1.1015625 z m 6.925782,1.171875 c 0,-1.2773438 -0.996094,-2.3320313 -2.191407,-2.3320313 -1.253906,0 -2.214843,1.0898438 -2.214843,2.3320313 0,1.28906245 1.03125,2.2382812 2.203125,2.2382812 1.207031,0 2.203125,-0.97265625 2.203125,-2.2382812 z m -2.191407,1.99218745 c -0.433593,0 -0.867187,-0.2109375 -1.136718,-0.66796875 -0.257813,-0.4335937 -0.257813,-1.0429687 -0.257813,-1.40625 0,-0.3867187 0,-0.9257812 0.246094,-1.359375 0.269531,-0.4570312 0.738281,-0.6679687 1.136719,-0.6679687 0.433593,0 0.867187,0.2226562 1.125,0.6445312 0.257812,0.4335938 0.257812,1.0078125 0.257812,1.3828125 0,0.3632813 0,0.9023438 -0.222656,1.3359375 -0.222656,0.4453125 -0.65625,0.73828125 -1.148438,0.73828125 z m 4.209961,-3.84374995 h 1.429688 V -4.2904062 H 38.062023 V -6.13025 H 37.81593 c -0.01172,0.8203125 -0.316407,1.8867188 -1.289063,1.921875 v 0.2226563 h 0.84375 v 2.7539062 c 0,1.21875 0.925781,1.3359375 1.289063,1.3359375 0.703125,0 0.984375,-0.703125 0.984375,-1.3359375 V -1.8060312 H 39.397961 V -1.25525 c 0,0.73828125 -0.304688,1.11328125 -0.667969,1.11328125 -0.667969,0 -0.667969,-0.90234375 -0.667969,-1.07812495 z m 5.466797,3.2226562 c 0.03516,0.3984375 0.304688,0.8203125 0.773438,0.8203125 0.210937,0 0.820312,-0.140625 0.820312,-0.94921875 V -1.44275 h -0.246093 v 0.55078125 c 0,0.5859375 -0.246094,0.64453125 -0.363282,0.64453125 -0.328125,0 -0.363281,-0.45703125 -0.363281,-0.50390625 V -2.7435312 c 0,-0.4101563 0,-0.8085938 -0.363281,-1.171875 -0.386719,-0.3867188 -0.878906,-0.5507813 -1.359375,-0.5507813 -0.820313,0 -1.511719,0.46875 -1.511719,1.125 0,0.3046875 0.199219,0.46875 0.457031,0.46875 0.28125,0 0.46875,-0.1992187 0.46875,-0.4570312 0,-0.1171875 -0.05859,-0.4453125 -0.515625,-0.4570313 0.269532,-0.3515625 0.761719,-0.4570312 1.078125,-0.4570312 0.492188,0 1.054688,0.3867187 1.054688,1.2773437 v 0.3632813 c -0.503906,0.035156 -1.207031,0.058594 -1.828125,0.3632812 -0.75,0.3398438 -0.996094,0.8554688 -0.996094,1.2890625 0,0.80859375 0.960938,1.0546875 1.59375,1.0546875 0.65625,0 1.113281,-0.3984375 1.300781,-0.8671875 z m -0.07031,-1.6289062 v 0.9960937 c 0,0.94921875 -0.714844,1.2890625 -1.160156,1.2890625 -0.492188,0 -0.902344,-0.3515625 -0.902344,-0.85546875 0,-0.53906245 0.421875,-1.37109375 2.0625,-1.42968745 z m 3.457031,-1.59375 h 1.429688 V -4.2904062 H 46.915539 V -6.13025 h -0.246094 c -0.01172,0.8203125 -0.316406,1.8867188 -1.289062,1.921875 v 0.2226563 h 0.84375 v 2.7539062 c 0,1.21875 0.925781,1.3359375 1.289062,1.3359375 0.703125,0 0.984375,-0.703125 0.984375,-1.3359375 V -1.8060312 H 48.251477 V -1.25525 c 0,0.73828125 -0.304688,1.11328125 -0.667969,1.11328125 -0.667969,0 -0.667969,-0.90234375 -0.667969,-1.07812495 z m 3.266602,1.4765625 c 0.05859,-1.4882813 0.902343,-1.734375 1.242187,-1.734375 1.019531,0 1.125,1.3476562 1.125,1.734375 z m -0.01172,0.2109375 h 2.789062 c 0.210938,0 0.246094,0 0.246094,-0.2109375 0,-0.984375 -0.539062,-1.9570313 -1.78125,-1.9570313 -1.160156,0 -2.074219,1.03125 -2.074219,2.2734375 0,1.3359375 1.042969,2.296875 2.191407,2.296875 1.21875,0 1.664062,-1.1015625 1.664062,-1.2890625 0,-0.1054687 -0.08203,-0.1171875 -0.128906,-0.1171875 -0.09375,0 -0.117188,0.058594 -0.128906,0.140625 -0.351563,1.01953125 -1.253907,1.01953125 -1.347657,1.01953125 -0.503906,0 -0.902343,-0.29296875 -1.125,-0.66796875 -0.304687,-0.4804687 -0.304687,-1.1367187 -0.304687,-1.4882812 z m 6.618164,4.6875 c 0,-0.035156 0,-0.046875 -0.164063,-0.2226563 -1.242187,-1.25390625 -1.570312,-3.12890625 -1.570312,-4.6640625 0,-1.7226562 0.386719,-3.4570312 1.605469,-4.7109375 0.128906,-0.1171875 0.128906,-0.1289062 0.128906,-0.1640625 0,-0.070312 -0.03516,-0.1054687 -0.09375,-0.1054687 -0.105469,0 -0.996094,0.6796875 -1.582031,1.9453125 -0.515625,1.1015625 -0.632813,2.203125 -0.632813,3.0351562 0,0.7851563 0.117188,1.9921875 0.65625,3.1171875 0.597656,1.21875 1.453125,1.875 1.558594,1.875 0.05859,0 0.09375,-0.035156 0.09375,-0.1054687 z M 61.15675,-0.552125 v 0.65625 l 1.464844,-0.10546875 v -0.3046875 c -0.703125,0 -0.773438,-0.0703125 -0.773438,-0.5625 V -6.9154062 l -1.441406,0.1054687 v 0.3164063 c 0.703125,0 0.785156,0.070312 0.785156,0.5507812 v 2.15625 c -0.292969,-0.3632812 -0.726562,-0.6210937 -1.265625,-0.6210937 -1.171875,0 -2.214844,0.984375 -2.214844,2.2617187 0,1.265625 0.972657,2.25 2.109375,2.25 0.644532,0 1.089844,-0.33984375 1.335938,-0.65625 z m 0,-2.671875 v 2.0507813 c 0,0.1757812 0,0.1992187 -0.105469,0.3632812 -0.304687,0.48046875 -0.75,0.703125 -1.183594,0.703125 -0.445312,0 -0.796875,-0.2578125 -1.042968,-0.64453125 C 58.566906,-1.1615 58.53175,-1.724 58.53175,-2.1341562 c 0,-0.3632813 0.02344,-0.9609375 0.316406,-1.4179688 0.210938,-0.3046875 0.585938,-0.6328125 1.125,-0.6328125 0.351563,0 0.761719,0.1523438 1.078125,0.5976563 0.105469,0.1640625 0.105469,0.1875 0.105469,0.3632812 z m 2.862305,0.7148438 c 0.05859,-1.4882813 0.902343,-1.734375 1.242187,-1.734375 1.019531,0 1.125,1.3476562 1.125,1.734375 z m -0.01172,0.2109375 h 2.789062 c 0.210938,0 0.246094,0 0.246094,-0.2109375 0,-0.984375 -0.539062,-1.9570313 -1.78125,-1.9570313 -1.160156,0 -2.074219,1.03125 -2.074219,2.2734375 0,1.3359375 1.042969,2.296875 2.191407,2.296875 1.21875,0 1.664062,-1.1015625 1.664062,-1.2890625 0,-0.1054687 -0.08203,-0.1171875 -0.128906,-0.1171875 -0.09375,0 -0.117188,0.058594 -0.128906,0.140625 -0.351563,1.01953125 -1.253907,1.01953125 -1.347657,1.01953125 -0.503906,0 -0.902343,-0.29296875 -1.125,-0.66796875 -0.304687,-0.4804687 -0.304687,-1.1367187 -0.304687,-1.4882812 z m 5.540039,0.5859375 c -0.867188,0 -0.867188,-0.9960938 -0.867188,-1.2304688 0,-0.2695312 0.01172,-0.5859375 0.152344,-0.8320312 0.08203,-0.1171875 0.316406,-0.3984375 0.714844,-0.3984375 0.867187,0 0.867187,0.9960937 0.867187,1.21875 0,0.2695312 -0.01172,0.5976562 -0.164062,0.84375 -0.08203,0.1171875 -0.304688,0.3984375 -0.703125,0.3984375 z m -1.160156,0.3867187 c 0,-0.035156 0,-0.2695312 0.175781,-0.46875 0.386719,0.28125 0.796875,0.3046875 0.984375,0.3046875 0.925781,0 1.605469,-0.6796875 1.605469,-1.453125 0,-0.3632812 -0.152344,-0.7382812 -0.398438,-0.9609375 0.351563,-0.3398437 0.714844,-0.3867187 0.890625,-0.3867187 0.02344,0 0.07031,0 0.105469,0 -0.117188,0.046875 -0.164063,0.1523437 -0.164063,0.2695312 0,0.1757813 0.128907,0.2929688 0.292969,0.2929688 0.09375,0 0.28125,-0.070312 0.28125,-0.2929688 0,-0.1757812 -0.117187,-0.4921875 -0.503906,-0.4921875 -0.199219,0 -0.632813,0.058594 -1.054688,0.46875 -0.421875,-0.328125 -0.84375,-0.3632812 -1.054687,-0.3632812 -0.925781,0 -1.617188,0.6914062 -1.617188,1.453125 0,0.4453125 0.222657,0.8203125 0.46875,1.03125 -0.128906,0.1523437 -0.304687,0.4804687 -0.304687,0.8203125 0,0.3164062 0.128906,0.6914062 0.433594,0.89062495 C 67.930187,-0.0365 67.613781,0.385375 67.613781,0.7838125 c 0,0.7148438 0.984375,1.265625 2.203125,1.265625 1.171875,0 2.203125,-0.5039062 2.203125,-1.2890625 0,-0.33984375 -0.140625,-0.85546875 -0.644531,-1.125 -0.527344,-0.28125 -1.101563,-0.28125 -1.710938,-0.28125 -0.246093,0 -0.679687,0 -0.75,-0.0117188 -0.316406,-0.046875 -0.527343,-0.3515625 -0.527343,-0.6679688 z m 1.441406,3.1523438 c -1.007813,0 -1.699219,-0.515625 -1.699219,-1.0429688 0,-0.45703125 0.375,-0.8203125 0.820313,-0.85546875 h 0.585937 c 0.855469,0 1.96875,0 1.96875,0.85546875 0,0.5390625 -0.703125,1.0429688 -1.675781,1.0429688 z m 4.151367,-5.1328125 v -1.1015625 l -1.382812,0.1171875 v 0.3046875 c 0.691406,0 0.773437,0.070312 0.773437,0.5625 v 2.6601562 c 0,0.45703125 -0.105469,0.45703125 -0.773437,0.45703125 v 0.3046875 C 72.983898,-0.0130625 73.452648,-0.0365 73.733898,-0.0365 c 0.398438,0 0.867188,0 1.265625,0.03515625 v -0.3046875 h -0.210937 c -0.738281,0 -0.761719,-0.1171875 -0.761719,-0.46875 V -2.3099375 c 0,-0.984375 0.421875,-1.875 1.183594,-1.875 0.05859,0 0.08203,0 0.105469,0.011719 -0.03516,0.011719 -0.234375,0.1289062 -0.234375,0.3867187 0,0.28125 0.210937,0.4335938 0.433593,0.4335938 0.175782,0 0.421875,-0.1289063 0.421875,-0.4453125 0,-0.3164063 -0.304687,-0.609375 -0.726562,-0.609375 -0.738281,0 -1.089844,0.6679687 -1.230469,1.1015625 z m 3.351563,0.796875 c 0.05859,-1.4882813 0.902343,-1.734375 1.242187,-1.734375 1.019531,0 1.125,1.3476562 1.125,1.734375 z m -0.01172,0.2109375 h 2.789062 c 0.210938,0 0.246094,0 0.246094,-0.2109375 0,-0.984375 -0.539062,-1.9570313 -1.78125,-1.9570313 -1.160156,0 -2.074219,1.03125 -2.074219,2.2734375 0,1.3359375 1.042969,2.296875 2.191407,2.296875 1.21875,0 1.664062,-1.1015625 1.664062,-1.2890625 0,-0.1054687 -0.08203,-0.1171875 -0.128906,-0.1171875 -0.09375,0 -0.117188,0.058594 -0.128906,0.140625 -0.351563,1.01953125 -1.253907,1.01953125 -1.347657,1.01953125 -0.503906,0 -0.902343,-0.29296875 -1.125,-0.66796875 -0.304687,-0.4804687 -0.304687,-1.1367187 -0.304687,-1.4882812 z m 4.438476,-0.2109375 c 0.05859,-1.4882813 0.902344,-1.734375 1.242188,-1.734375 1.019531,0 1.125,1.3476562 1.125,1.734375 z m -0.01172,0.2109375 h 2.789062 c 0.210938,0 0.246094,0 0.246094,-0.2109375 0,-0.984375 -0.539063,-1.9570313 -1.78125,-1.9570313 -1.160156,0 -2.074219,1.03125 -2.074219,2.2734375 0,1.3359375 1.042969,2.296875 2.191406,2.296875 1.21875,0 1.664063,-1.1015625 1.664063,-1.2890625 0,-0.1054687 -0.08203,-0.1171875 -0.128906,-0.1171875 -0.09375,0 -0.117188,0.058594 -0.128907,0.140625 -0.351562,1.01953125 -1.253906,1.01953125 -1.347656,1.01953125 -0.503906,0 -0.902344,-0.29296875 -1.125,-0.66796875 C 81.74659,-1.2904062 81.74659,-1.9466562 81.74659,-2.2982187 Z m 5.399414,0.3632812 c 0.222656,0.035156 1.03125,0.1992188 1.03125,0.9140625 0,0.515625 -0.351563,0.9140625 -1.125,0.9140625 -0.832031,0 -1.195313,-0.57421875 -1.382813,-1.4179687 -0.03516,-0.1289063 -0.03516,-0.1757813 -0.140625,-0.1757813 -0.128906,0 -0.128906,0.070312 -0.128906,0.2578125 v 1.3125 c 0,0.1640625 0,0.234375 0.105469,0.234375 0.05859,0 0.07031,0 0.257812,-0.19921875 0.01172,-0.01171875 0.01172,-0.03515625 0.199219,-0.22265625 0.433594,0.421875 0.878906,0.421875 1.089844,0.421875 1.148437,0 1.605469,-0.66796875 1.605469,-1.3828125 0,-0.5273437 -0.292969,-0.8203125 -0.421875,-0.9492187 -0.328125,-0.3164063 -0.714844,-0.3984375 -1.136719,-0.46875 -0.550781,-0.1171875 -1.21875,-0.2460938 -1.21875,-0.8203125 0,-0.3515625 0.257812,-0.7617188 1.113281,-0.7617188 1.101563,0 1.148438,0.9023438 1.171875,1.2070313 0,0.09375 0.09375,0.09375 0.117188,0.09375 0.128906,0 0.128906,-0.046875 0.128906,-0.2460938 v -0.9960937 c 0,-0.1757813 0,-0.2460938 -0.117188,-0.2460938 -0.04687,0 -0.07031,0 -0.199218,0.1171875 -0.02344,0.046875 -0.128907,0.1289063 -0.164063,0.1640625 -0.375,-0.28125 -0.785156,-0.28125 -0.9375,-0.28125 -1.21875,0 -1.59375,0.6679688 -1.59375,1.2304688 0,0.3398437 0.164063,0.6210937 0.433594,0.84375 0.316406,0.2578125 0.597656,0.3164062 1.3125,0.4570312 z m 5.147461,4.3242188 c 0,-0.035156 0,-0.046875 -0.164063,-0.2226563 -1.242187,-1.25390625 -1.570312,-3.12890625 -1.570312,-4.6640625 0,-1.7226562 0.386718,-3.4570312 1.605468,-4.7109375 0.128907,-0.1171875 0.128907,-0.1289062 0.128907,-0.1640625 0,-0.070312 -0.03516,-0.1054687 -0.09375,-0.1054687 -0.105469,0 -0.996094,0.6796875 -1.582032,1.9453125 -0.515625,1.1015625 -0.632812,2.203125 -0.632812,3.0351562 0,0.7851563 0.117187,1.9921875 0.65625,3.1171875 0.597656,1.21875 1.453125,1.875 1.558594,1.875 0.05859,0 0.09375,-0.035156 0.09375,-0.1054687 z M 95.771008,-3.50525 c 0.808594,-0.2695312 1.394531,-0.9726562 1.394531,-1.7578125 0,-0.8203125 -0.878906,-1.3710937 -1.839844,-1.3710937 -1.007812,0 -1.757812,0.5976562 -1.757812,1.3476562 0,0.3398438 0.210937,0.5273438 0.503906,0.5273438 0.304688,0 0.503906,-0.2226563 0.503906,-0.515625 0,-0.4921875 -0.46875,-0.4921875 -0.609375,-0.4921875 0.304688,-0.4921875 0.960938,-0.6210938 1.324219,-0.6210938 0.410156,0 0.949219,0.2226563 0.949219,1.1132813 0,0.1289062 -0.01172,0.703125 -0.269531,1.1367187 -0.304688,0.4804688 -0.644532,0.515625 -0.890625,0.515625 -0.08203,0.011719 -0.316407,0.035156 -0.386719,0.035156 -0.08203,0.011719 -0.152344,0.023437 -0.152344,0.1171875 0,0.1171875 0.07031,0.1171875 0.234375,0.1171875 h 0.445313 c 0.808593,0 1.183593,0.6679687 1.183593,1.6523437 0,1.34765625 -0.691406,1.640625 -1.125,1.640625 -0.433593,0 -1.171875,-0.17578125 -1.523437,-0.76171875 0.351562,0.0585938 0.65625,-0.1640625 0.65625,-0.53906245 0,-0.3632813 -0.269531,-0.5625 -0.5625,-0.5625 -0.234375,0 -0.550781,0.140625 -0.550781,0.5742187 0,0.9140625 0.925781,1.5703125 2.003906,1.5703125 1.21875,0 2.121094,-0.9140625 2.121094,-1.921875 0,-0.8203125 -0.621094,-1.59375 -1.652344,-1.8046872 z m 6.667972,0.3164063 c 0,-0.796875 -0.0469,-1.59375 -0.39844,-2.3320313 -0.45703,-0.9609375 -1.27734,-1.1132812 -1.6875,-1.1132812 -0.597657,0 -1.335938,0.2578125 -1.734376,1.1835937 -0.328125,0.6914063 -0.375,1.4648438 -0.375,2.2617188 0,0.75 0.04687,1.640625 0.445313,2.4023437 0.433593,0.80859375 1.160156,1.0078125 1.652343,1.0078125 0.53906,0 1.28906,-0.2109375 1.73438,-1.16015625 0.3164,-0.69140625 0.36328,-1.46484375 0.36328,-2.24999995 z m -2.09766,3.18749995 c -0.386718,0 -0.984375,-0.24609375 -1.160156,-1.20703125 -0.105469,-0.5976562 -0.105469,-1.5117187 -0.105469,-2.0976562 0,-0.6445313 0,-1.3007813 0.08203,-1.8398438 0.1875,-1.1835937 0.925785,-1.265625 1.183595,-1.265625 0.32813,0 0.98438,0.1757813 1.17188,1.1601563 0.0937,0.5625 0.0937,1.3125 0.0937,1.9453125 0,0.75 0,1.4179687 -0.10547,2.0625 -0.15235,0.93749995 -0.71485,1.24218745 -1.16016,1.24218745 z m 5.37891,-2.49609375 c 0,-0.7734375 -0.11719,-1.9804687 -0.65625,-3.1054687 -0.59766,-1.21875 -1.46485,-1.875 -1.5586,-1.875 -0.0586,0 -0.10547,0.046875 -0.10547,0.1054687 0,0.035156 0,0.046875 0.19922,0.234375 0.97266,0.984375 1.53516,2.5664063 1.53516,4.640625 0,1.7109375 -0.36328,3.45703125 -1.59375,4.7226563 -0.14063,0.1171875 -0.14063,0.1289062 -0.14063,0.1640625 0,0.058594 0.0469,0.1054687 0.10547,0.1054687 0.0937,0 0.9961,-0.6796875 1.58203,-1.9453125 0.50391,-1.1015625 0.63282,-2.203125 0.63282,-3.046875 z m 3.87597,0 c 0,-0.7734375 -0.11718,-1.9804687 -0.65625,-3.1054687 -0.59765,-1.21875 -1.46484,-1.875 -1.55859,-1.875 -0.0586,0 -0.10547,0.046875 -0.10547,0.1054687 0,0.035156 0,0.046875 0.19922,0.234375 0.97266,0.984375 1.53516,2.5664063 1.53516,4.640625 0,1.7109375 -0.36329,3.45703125 -1.59375,4.7226563 -0.14063,0.1171875 -0.14063,0.1289062 -0.14063,0.1640625 0,0.058594 0.0469,0.1054687 0.10547,0.1054687 0.0937,0 0.99609,-0.6796875 1.58203,-1.9453125 0.50391,-1.1015625 0.63281,-2.203125 0.63281,-3.046875 z m 0,0"
       style="fill:#000000;fill-opacity:1;fill-rule:nonzero;stroke:none"
       aria-label="shape.rotate(degrees(30))"
       transform="matrix(1.3333333,0,0,1.3333333,349.58267,39.298667)" />
  </g>
</svg>
