<?xml version="1.0" encoding="UTF-8" standalone="no"?>
<!-- Created with Inkscape (http://www.inkscape.org/) -->

<svg
   version="1.1"
   id="svg1"
   width="506.45599"
   height="241.88933"
   viewBox="0 0 506.45599 241.88933"
   xmlns="http://www.w3.org/2000/svg"
   xmlns:svg="http://www.w3.org/2000/svg">
  <defs
     id="defs1" />
  <g
     id="g1">
    <path
       id="path1"
       d="M -90.7097,-90.7097 V 90.7097 H 90.7097 V -90.7097 Z"
       style="fill:#ffffff;fill-opacity:0;fill-rule:nonzero;stroke:none"
       transform="matrix(1.3333333,0,0,-1.3333333,120.94533,120.944)" />
    <path
       id="path2"
       d="M -85.04042,-85.04042 H 85.04042 m -170.08084,28.3468 H 85.04042 M -85.04042,-28.3468 H 85.04042 M -85.04042,0 H 85.04042 M -85.04042,28.3468 H 85.04042 M -85.04042,56.69362 H 85.04042 M -85.04042,85.03047 H 85.04042 M -85.04042,-85.04042 V 85.04042 m 28.3468,-170.08084 V 85.04042 M -28.3468,-85.04042 V 85.04042 M 0,-85.04042 V 85.04042 M 28.3468,-85.04042 V 85.04042 M 56.69362,-85.04042 V 85.04042 M 85.03047,-85.04042 V 85.04042"
       style="fill:none;stroke:#808080;stroke-width:0.19925;stroke-linecap:butt;stroke-linejoin:miter;stroke-miterlimit:10;stroke-dasharray:none;stroke-opacity:1"
       transform="matrix(1.3333333,0,0,-1.3333333,120.94533,120.944)" />
    <path
       id="path3"
       d="M -85.04042,0 H 84.58214"
       style="fill:none;stroke:#000000;stroke-width:0.3985;stroke-linecap:butt;stroke-linejoin:miter;stroke-miterlimit:10;stroke-dasharray:none;stroke-opacity:1"
       transform="matrix(1.3333333,0,0,-1.3333333,120.94533,120.944)" />
    <path
       id="path4"
       d="M -1.19551,1.59401 C -1.09587,0.99626 0,0.09961 0.29886,0 0,-0.09961 -1.09587,-0.99626 -1.19551,-1.59401"
       style="fill:none;stroke:#000000;stroke-width:0.31879;stroke-linecap:round;stroke-linejoin:round;stroke-miterlimit:10;stroke-dasharray:none;stroke-opacity:1"
       transform="matrix(1.3333333,0,0,-1.3333333,233.72152,120.944)" />
    <path
       id="path5"
       d="M 0,-85.04042 V 84.58214"
       style="fill:none;stroke:#000000;stroke-width:0.3985;stroke-linecap:butt;stroke-linejoin:miter;stroke-miterlimit:10;stroke-dasharray:none;stroke-opacity:1"
       transform="matrix(1.3333333,0,0,-1.3333333,120.94533,120.944)" />
    <path
       id="path6"
       d="M -1.19551,1.59401 C -1.09587,0.99626 0,0.09961 0.29886,0 0,-0.09961 -1.09587,-0.99626 -1.19551,-1.59401"
       style="fill:none;stroke:#000000;stroke-width:0.31879;stroke-linecap:round;stroke-linejoin:round;stroke-miterlimit:10;stroke-dasharray:none;stroke-opacity:1"
       transform="matrix(0,-1.3333333,-1.3333333,0,120.94533,8.1678133)" />
    <path
       id="path7"
       d="m -27.84866,-28.3468 h 55.69732 c 0.27512,0 0.49814,0.22302 0.49814,0.49814 v 55.69732 c 0,0.27512 -0.22302,0.49814 -0.49814,0.49814 h -55.69732 c -0.27512,0 -0.49814,-0.22302 -0.49814,-0.49814 v -55.69732 c 0,-0.27512 0.22302,-0.49814 0.49814,-0.49814 z"
       style="fill:#00ff00;fill-opacity:0.4;fill-rule:nonzero;stroke:#199619;stroke-width:1.19553;stroke-linecap:butt;stroke-linejoin:miter;stroke-miterlimit:10;stroke-dasharray:none;stroke-opacity:1"
       transform="matrix(1.3333333,0,0,-1.3333333,120.94533,120.944)" />
    <path
       id="path8"
       d="M 0.85036,0 C 0.85036,0.46964 0.46964,0.85036 0,0.85036 -0.46964,0.85036 -0.85036,0.46964 -0.85036,0 c 0,-0.46964 0.38072,-0.85036 0.85036,-0.85036 0.46964,0 0.85036,0.38072 0.85036,0.85036 z"
       style="fill:#000000;fill-opacity:1;fill-rule:nonzero;stroke:#000000;stroke-width:0.3985;stroke-linecap:butt;stroke-linejoin:miter;stroke-miterlimit:10;stroke-dasharray:none;stroke-opacity:1"
       transform="matrix(1.3333333,0,0,-1.3333333,120.94533,120.944)" />
    <path
       id="path9"
       d="M 107.71796,-90.7097 V 90.7097 h 181.4194 V -90.7097 Z"
       style="fill:#ffffff;fill-opacity:0;fill-rule:nonzero;stroke:none"
       transform="matrix(1.3333333,0,0,-1.3333333,120.94533,120.944)" />
    <path
       id="path10"
       d="M 113.38724,-85.04042 H 283.4681 m -170.08086,28.3468 H 283.4681 M 113.38724,-28.3468 H 283.4681 M 113.38724,0 H 283.4681 M 113.38724,28.3468 H 283.4681 M 113.38724,56.69362 H 283.4681 M 113.38724,85.03047 H 283.4681 M 113.38724,-85.04042 V 85.04042 m 28.3468,-170.08084 V 85.04042 M 170.08086,-85.04042 V 85.04042 m 28.3468,-170.08084 V 85.04042 M 226.77448,-85.04042 V 85.04042 m 28.3468,-170.08084 V 85.04042 M 283.45813,-85.04042 V 85.04042"
       style="fill:none;stroke:#808080;stroke-width:0.19925;stroke-linecap:butt;stroke-linejoin:miter;stroke-miterlimit:10;stroke-dasharray:none;stroke-opacity:1"
       transform="matrix(1.3333333,0,0,-1.3333333,120.94533,120.944)" />
    <path
       id="path11"
       d="M 113.38724,0 H 283.00981"
       style="fill:none;stroke:#000000;stroke-width:0.3985;stroke-linecap:butt;stroke-linejoin:miter;stroke-miterlimit:10;stroke-dasharray:none;stroke-opacity:1"
       transform="matrix(1.3333333,0,0,-1.3333333,120.94533,120.944)" />
    <path
       id="path12"
       d="M -1.19551,1.59401 C -1.09587,0.99626 0,0.09961 0.29886,0 0,-0.09961 -1.09587,-0.99626 -1.19551,-1.59401"
       style="fill:none;stroke:#000000;stroke-width:0.31879;stroke-linecap:round;stroke-linejoin:round;stroke-miterlimit:10;stroke-dasharray:none;stroke-opacity:1"
       transform="matrix(1.3333333,0,0,-1.3333333,498.29175,120.944)" />
    <path
       id="path13"
       d="M 198.42766,-85.04042 V 84.58214"
       style="fill:none;stroke:#000000;stroke-width:0.3985;stroke-linecap:butt;stroke-linejoin:miter;stroke-miterlimit:10;stroke-dasharray:none;stroke-opacity:1"
       transform="matrix(1.3333333,0,0,-1.3333333,120.94533,120.944)" />
    <path
       id="path14"
       d="M -1.19551,1.59401 C -1.09587,0.99626 0,0.09961 0.29886,0 0,-0.09961 -1.09587,-0.99626 -1.19551,-1.59401"
       style="fill:none;stroke:#000000;stroke-width:0.31879;stroke-linecap:round;stroke-linejoin:round;stroke-miterlimit:10;stroke-dasharray:none;stroke-opacity:1"
       transform="matrix(0,-1.3333333,-1.3333333,0,385.51555,8.1678133)" />
    <path
       id="path15"
       d="m 142.23218,-14.17339 h 112.39096 c 0.27511,0 0.49814,0.22303 0.49814,0.49814 v 27.3505 c 0,0.27511 -0.22303,0.49814 -0.49814,0.49814 H 142.23218 c -0.2751,0 -0.49814,-0.22303 -0.49814,-0.49814 v -27.3505 c 0,-0.27511 0.22304,-0.49814 0.49814,-0.49814 z"
       style="fill:#00ff00;fill-opacity:0.4;fill-rule:nonzero;stroke:#199619;stroke-width:1.19553;stroke-linecap:butt;stroke-linejoin:miter;stroke-miterlimit:10;stroke-dasharray:none;stroke-opacity:1"
       transform="matrix(1.3333333,0,0,-1.3333333,120.94533,120.944)" />
    <path
       id="path16"
       d="m 199.27803,0 c 0,0.46964 -0.38072,0.85036 -0.85037,0.85036 -0.46965,0 -0.85037,-0.38072 -0.85037,-0.85036 0,-0.46964 0.38072,-0.85036 0.85037,-0.85036 0.46965,0 0.85037,0.38072 0.85037,0.85036 z"
       style="fill:#000000;fill-opacity:1;fill-rule:nonzero;stroke:#000000;stroke-width:0.3985;stroke-linecap:butt;stroke-linejoin:miter;stroke-miterlimit:10;stroke-dasharray:none;stroke-opacity:1"
       transform="matrix(1.3333333,0,0,-1.3333333,120.94533,120.944)" />
    <path
       id="path17"
       d="m 2.83484,2.83484 c 65.09935,37.58502 127.65861,37.58502 192.3611,0.22914"
       style="fill:none;stroke:#000000;stroke-width:0.3985;stroke-linecap:butt;stroke-linejoin:miter;stroke-miterlimit:10;stroke-dasharray:none;stroke-opacity:1"
       transform="matrix(1.3333333,0,0,-1.3333333,120.94533,120.944)" />
    <path
       id="path18"
       d="M -1.19551,1.59401 C -1.09587,0.99626 0,0.09961 0.29886,0 0,-0.09961 -1.09587,-0.99626 -1.19551,-1.59401"
       style="fill:none;stroke:#000000;stroke-width:0.31879;stroke-linecap:round;stroke-linejoin:round;stroke-miterlimit:10;stroke-dasharray:none;stroke-opacity:1"
       transform="matrix(1.15468,0.66666667,0.66666667,-1.15468,381.20656,116.85869)" />
    <path
       id="path19"
       d="m 52.25066,31.22284 h 93.92624 v 16.6039 H 52.25066 Z"
       style="fill:#ffffff;fill-opacity:1;fill-rule:nonzero;stroke:none"
       transform="matrix(1.3333333,0,0,-1.3333333,120.94533,120.944)" />
    <path
       id="path20"
       d="m 2.0745156,-1.9337891 c 0.2226563,0.035156 1.03125,0.1992188 1.03125,0.9140625 0,0.51562504 -0.3515625,0.91406254 -1.125,0.91406254 -0.8320312,0 -1.19531247,-0.57421875 -1.38281247,-1.41796874 -0.0351563,-0.1289063 -0.0351563,-0.1757813 -0.140625,-0.1757813 -0.12890625,0 -0.12890625,0.070312 -0.12890625,0.2578125 v 1.31250004 c 0,0.1640625 0,0.234375 0.10546875,0.234375 0.0585938,0 0.0703125,0 0.2578125,-0.19921875 0.0117188,-0.01171875 0.0117188,-0.03515625 0.19921875,-0.22265625 0.43359372,0.421875 0.87890622,0.421875 1.08984372,0.421875 1.1484375,0 1.6054688,-0.66796875 1.6054688,-1.38281254 0,-0.5273437 -0.2929688,-0.8203125 -0.421875,-0.9492187 -0.328125,-0.3164063 -0.7148438,-0.3984375 -1.1367188,-0.46875 -0.5507812,-0.1171875 -1.21874997,-0.2460938 -1.21874997,-0.8203125 0,-0.3515625 0.25781247,-0.7617188 1.11328127,-0.7617188 1.1015625,0 1.1484375,0.9023438 1.171875,1.2070313 0,0.09375 0.09375,0.09375 0.1171875,0.09375 0.1289062,0 0.1289062,-0.046875 0.1289062,-0.2460938 v -0.9960937 c 0,-0.1757813 0,-0.2460938 -0.1171875,-0.2460938 -0.046875,0 -0.070312,0 -0.1992187,0.1171875 -0.023437,0.046875 -0.1289063,0.1289063 -0.1640625,0.1640625 -0.375,-0.28125 -0.7851563,-0.28125 -0.9375,-0.28125 -1.21875002,0 -1.59375002,0.6679688 -1.59375002,1.2304688 0,0.3398437 0.1640625,0.6210937 0.43359375,0.84375 0.31640627,0.2578125 0.59765627,0.3164062 1.31249997,0.4570312 z m 2.9560547,1.17187504 c 0,0.45703125 -0.1171875,0.45703125 -0.7851562,0.45703125 v 0.3046874975 c 0.3515625,-0.0117187475 0.8554687,-0.0351562475 1.125,-0.0351562475 0.2578125,0 0.7851562,0.0234375 1.1132812,0.0351562475 V -0.30488281 c -0.65625,0 -0.7734375,0 -0.7734375,-0.45703125 V -2.5900391 c 0,-1.03125 0.7148438,-1.59375 1.3476563,-1.59375 0.6210937,0 0.7382812,0.5390625 0.7382812,1.1015625 v 2.32031254 c 0,0.45703125 -0.1171875,0.45703125 -0.7734375,0.45703125 v 0.3046874975 c 0.3398438,-0.0117187475 0.8554688,-0.0351562475 1.125,-0.0351562475 0.2578125,0 0.7734375,0.0234375 1.1132813,0.0351562475 V -0.30488281 c -0.515625,0 -0.7734375,0 -0.7851563,-0.3046875 V -2.5080078 c 0,-0.8554688 0,-1.171875 -0.3046875,-1.5234375 -0.140625,-0.1757813 -0.46875,-0.375 -1.0429687,-0.375 -0.84375,0 -1.2773438,0.5976562 -1.4414063,0.984375 v -3.4921875 l -1.4414062,0.1054687 v 0.3164063 c 0.703125,0 0.7851562,0.070312 0.7851562,0.5507812 z m 7.7490237,0 c 0.03516,0.3984375 0.304687,0.8203125 0.773437,0.8203125 0.210938,0 0.820313,-0.140625 0.820313,-0.94921875 V -1.4416016 H 14.12725 v 0.55078129 c 0,0.5859375 -0.246094,0.64453125 -0.363281,0.64453125 -0.328125,0 -0.363281,-0.45703125 -0.363281,-0.50390625 V -2.7423828 c 0,-0.4101563 0,-0.8085938 -0.363282,-1.171875 -0.386718,-0.3867188 -0.878906,-0.5507813 -1.359375,-0.5507813 -0.820312,0 -1.511718,0.46875 -1.511718,1.125 0,0.3046875 0.199218,0.46875 0.457031,0.46875 0.28125,0 0.46875,-0.1992187 0.46875,-0.4570312 0,-0.1171875 -0.05859,-0.4453125 -0.515625,-0.4570313 0.269531,-0.3515625 0.761719,-0.4570312 1.078125,-0.4570312 0.492187,0 1.054687,0.3867187 1.054687,1.2773437 v 0.3632813 c -0.503906,0.035156 -1.207031,0.058594 -1.828125,0.3632812 -0.75,0.3398438 -0.9960935,0.8554688 -0.9960935,1.28906254 0,0.80859375 0.9609375,1.0546875 1.5937505,1.0546875 0.65625,0 1.113281,-0.3984375 1.300781,-0.8671875 z m -0.07031,-1.62890624 v 0.9960937 c 0,0.94921879 -0.714843,1.28906254 -1.160156,1.28906254 -0.492187,0 -0.902344,-0.3515625 -0.902344,-0.85546875 0,-0.53906249 0.421875,-1.37109379 2.0625,-1.42968749 z m 3.448242,-1.359375 v -0.65625 l -1.429687,0.1171875 v 0.3046875 c 0.703125,0 0.773437,0.058594 0.773437,0.4921875 v 4.6640625 c 0,0.4570312 -0.105468,0.4570312 -0.773437,0.4570312 v 0.3046875 c 0.339844,-0.011719 0.855469,-0.035156 1.113281,-0.035156 0.269531,0 0.773438,0.023437 1.125,0.035156 V 1.6287109 c -0.667969,0 -0.773437,0 -0.773437,-0.4570312 v -1.75781251 c 0.04687,0.15234375 0.46875,0.69140625 1.21875,0.69140625 1.183593,0 2.226562,-0.97265625 2.226562,-2.26171874 0,-1.265625 -0.972656,-2.25 -2.085937,-2.25 -0.773438,0 -1.195313,0.4453125 -1.394532,0.65625 z m 0.03516,2.6132812 v -2.2148437 c 0.28125,-0.515625 0.773437,-0.796875 1.277343,-0.796875 0.726563,0 1.335938,0.8671875 1.335938,1.9921875 0,1.20703124 -0.691406,2.05078124 -1.429688,2.05078124 -0.398437,0 -0.773437,-0.19921875 -1.042968,-0.609375 C 16.19268,-0.92597656 16.19268,-0.93769531 16.19268,-1.1369141 Z m 5.179687,-1.3710937 c 0.05859,-1.4882813 0.902344,-1.734375 1.242188,-1.734375 1.019531,0 1.125,1.3476562 1.125,1.734375 z m -0.01172,0.2109375 h 2.789063 c 0.210937,0 0.246094,0 0.246094,-0.2109375 0,-0.984375 -0.539063,-1.9570313 -1.78125,-1.9570313 -1.160157,0 -2.074219,1.03125 -2.074219,2.2734375 0,1.33593754 1.042969,2.29687504 2.191406,2.29687504 1.21875,0 1.664063,-1.1015625 1.664063,-1.28906254 0,-0.1054687 -0.08203,-0.1171875 -0.128907,-0.1171875 -0.09375,0 -0.117187,0.058594 -0.128906,0.140625 -0.351562,1.01953129 -1.253906,1.01953129 -1.347656,1.01953129 -0.503906,0 -0.902344,-0.29296875 -1.125,-0.66796875 C 21.360648,-1.2892578 21.360648,-1.9455078 21.360648,-2.2970703 Z m 5.238282,1.76953124 c 0,-0.29296875 -0.234375,-0.52734374 -0.527344,-0.52734374 -0.28125,0 -0.527344,0.23437499 -0.527344,0.52734374 0,0.29296875 0.246094,0.5273437475 0.527344,0.5273437475 0.292969,0 0.527344,-0.2343749975 0.527344,-0.5273437475 z m 2.929687,-1.40625004 c 0.222656,0.035156 1.03125,0.1992188 1.03125,0.9140625 0,0.51562504 -0.351562,0.91406254 -1.125,0.91406254 -0.832031,0 -1.195312,-0.57421875 -1.382812,-1.41796874 -0.03516,-0.1289063 -0.03516,-0.1757813 -0.140625,-0.1757813 -0.128907,0 -0.128907,0.070312 -0.128907,0.2578125 v 1.31250004 c 0,0.1640625 0,0.234375 0.105469,0.234375 0.05859,0 0.07031,0 0.257813,-0.19921875 0.01172,-0.01171875 0.01172,-0.03515625 0.199218,-0.22265625 0.433594,0.421875 0.878907,0.421875 1.089844,0.421875 1.148438,0 1.605469,-0.66796875 1.605469,-1.38281254 0,-0.5273437 -0.292969,-0.8203125 -0.421875,-0.9492187 -0.328125,-0.3164063 -0.714844,-0.3984375 -1.136719,-0.46875 -0.550781,-0.1171875 -1.21875,-0.2460938 -1.21875,-0.8203125 0,-0.3515625 0.257813,-0.7617188 1.113281,-0.7617188 1.101563,0 1.148438,0.9023438 1.171875,1.2070313 0,0.09375 0.09375,0.09375 0.117188,0.09375 0.128906,0 0.128906,-0.046875 0.128906,-0.2460938 v -0.9960937 c 0,-0.1757813 0,-0.2460938 -0.117187,-0.2460938 -0.04687,0 -0.07031,0 -0.199219,0.1171875 -0.02344,0.046875 -0.128906,0.1289063 -0.164063,0.1640625 -0.375,-0.28125 -0.785156,-0.28125 -0.9375,-0.28125 -1.21875,0 -1.59375,0.6679688 -1.59375,1.2304688 0,0.3398437 0.164063,0.6210937 0.433594,0.84375 0.316406,0.2578125 0.597656,0.3164062 1.3125,0.4570312 z m 3.014649,-0.234375 c 0,-1.6289062 0.820312,-2.0507812 1.347656,-2.0507812 0.09375,0 0.714844,0.011719 1.066406,0.375 -0.410156,0.023437 -0.46875,0.328125 -0.46875,0.4570312 0,0.2578125 0.1875,0.4570313 0.457031,0.4570313 0.257813,0 0.457032,-0.1640625 0.457032,-0.46875 0,-0.6796875 -0.75,-1.0664063 -1.523438,-1.0664063 -1.242187,0 -2.15625,1.078125 -2.15625,2.3085938 0,1.27734374 0.984375,2.26171874 2.144531,2.26171874 1.335938,0 1.652344,-1.19531254 1.652344,-1.28906254 0,-0.1054687 -0.105469,-0.1054687 -0.128906,-0.1054687 -0.09375,0 -0.117188,0.046875 -0.128906,0.1054687 -0.292969,0.92578129 -0.9375,1.04296879 -1.3125,1.04296879 -0.527344,0 -1.40625,-0.421875 -1.40625,-2.02734379 z m 6.585937,1.40625004 c 0.03516,0.3984375 0.304688,0.8203125 0.773438,0.8203125 0.210937,0 0.820312,-0.140625 0.820312,-0.94921875 V -1.4416016 h -0.246094 v 0.55078129 c 0,0.5859375 -0.246093,0.64453125 -0.363281,0.64453125 -0.328125,0 -0.363281,-0.45703125 -0.363281,-0.50390625 V -2.7423828 c 0,-0.4101563 0,-0.8085938 -0.363281,-1.171875 -0.386719,-0.3867188 -0.878907,-0.5507813 -1.359375,-0.5507813 -0.820313,0 -1.511719,0.46875 -1.511719,1.125 0,0.3046875 0.199219,0.46875 0.457031,0.46875 0.28125,0 0.46875,-0.1992187 0.46875,-0.4570312 0,-0.1171875 -0.05859,-0.4453125 -0.515625,-0.4570313 0.269531,-0.3515625 0.761719,-0.4570312 1.078125,-0.4570312 0.492188,0 1.054688,0.3867187 1.054688,1.2773437 v 0.3632813 c -0.503907,0.035156 -1.207032,0.058594 -1.828125,0.3632812 -0.75,0.3398438 -0.996094,0.8554688 -0.996094,1.28906254 0,0.80859375 0.960937,1.0546875 1.59375,1.0546875 0.65625,0 1.113281,-0.3984375 1.300781,-0.8671875 z m -0.07031,-1.62890624 v 0.9960937 c 0,0.94921879 -0.714844,1.28906254 -1.160157,1.28906254 -0.492187,0 -0.902343,-0.3515625 -0.902343,-0.85546875 0,-0.53906249 0.421875,-1.37109379 2.0625,-1.42968749 z m 3.492187,-4.5234375 -1.429687,0.1054687 v 0.3164063 c 0.703125,0 0.773437,0.070312 0.773437,0.5507812 v 5.17968754 c 0,0.45703125 -0.105469,0.45703125 -0.773437,0.45703125 V -1.953125e-4 C 41.449516,-0.01191406 41.976859,-0.03535156 42.222953,-0.03535156 c 0.257813,0 0.738281,0.0234375 1.113281,0.0351562475 V -0.30488281 c -0.667968,0 -0.785156,0 -0.785156,-0.45703125 z m 2.124024,4.40625 c 0.05859,-1.4882813 0.902343,-1.734375 1.242187,-1.734375 1.019531,0 1.125,1.3476562 1.125,1.734375 z m -0.01172,0.2109375 h 2.789062 c 0.210938,0 0.246094,0 0.246094,-0.2109375 0,-0.984375 -0.539062,-1.9570313 -1.78125,-1.9570313 -1.160156,0 -2.074219,1.03125 -2.074219,2.2734375 0,1.33593754 1.042969,2.29687504 2.191407,2.29687504 1.21875,0 1.664062,-1.1015625 1.664062,-1.28906254 0,-0.1054687 -0.08203,-0.1171875 -0.128906,-0.1171875 -0.09375,0 -0.117188,0.058594 -0.128906,0.140625 -0.351563,1.01953129 -1.253907,1.01953129 -1.347657,1.01953129 -0.503906,0 -0.902343,-0.29296875 -1.125,-0.66796875 C 44.663383,-1.2892578 44.663383,-1.9455078 44.663383,-2.2970703 Z m 6.618164,4.6875 c 0,-0.035156 0,-0.046875 -0.164063,-0.2226563 -1.242187,-1.25390621 -1.570312,-3.12890621 -1.570312,-4.6640625 0,-1.7226562 0.386719,-3.4570312 1.605469,-4.7109375 0.128906,-0.1171875 0.128906,-0.1289062 0.128906,-0.1640625 0,-0.070312 -0.03516,-0.1054687 -0.09375,-0.1054687 -0.105469,0 -0.996094,0.6796875 -1.582031,1.9453125 -0.515625,1.1015625 -0.632813,2.203125 -0.632813,3.0351562 0,0.7851563 0.117188,1.99218754 0.65625,3.11718754 0.597656,1.21874996 1.453125,1.87499996 1.558594,1.87499996 0.05859,0 0.09375,-0.035156 0.09375,-0.1054687 z m 3.873047,0 c 0,-0.035156 0,-0.046875 -0.164063,-0.2226563 -1.242187,-1.25390621 -1.570312,-3.12890621 -1.570312,-4.6640625 0,-1.7226562 0.386719,-3.4570312 1.605469,-4.7109375 0.128906,-0.1171875 0.128906,-0.1289062 0.128906,-0.1640625 0,-0.070312 -0.03516,-0.1054687 -0.09375,-0.1054687 -0.105469,0 -0.996094,0.6796875 -1.582031,1.9453125 -0.515625,1.1015625 -0.632813,2.203125 -0.632813,3.0351562 0,0.7851563 0.117188,1.99218754 0.65625,3.11718754 0.597656,1.21874996 1.453125,1.87499996 1.558594,1.87499996 0.05859,0 0.09375,-0.035156 0.09375,-0.1054687 z m 1.848633,-3.15234376 1.054687,-1.03125004 c 1.558594,-1.3710937 2.15625,-1.9101562 2.15625,-2.90625 0,-1.1367187 -0.902344,-1.9335937 -2.121094,-1.9335937 -1.125,0 -1.851562,0.9140625 -1.851562,1.8046875 0,0.5507812 0.492187,0.5507812 0.527344,0.5507812 0.164062,0 0.515625,-0.1171875 0.515625,-0.5273437 0,-0.2578125 -0.1875,-0.515625 -0.527344,-0.515625 -0.08203,0 -0.105469,0 -0.128906,0.011719 0.222656,-0.6445312 0.761718,-1.0195312 1.335937,-1.0195312 0.914063,0 1.335938,0.8085937 1.335938,1.6289062 0,0.796875 -0.492188,1.5820313 -1.042969,2.203125 l -1.910156,2.13281254 c -0.105469,0.10546875 -0.105469,0.12890625 -0.105469,0.3632812475 H 59.93292 L 60.214164,-1.7345703 h -0.257812 c -0.04687,0.3046875 -0.117188,0.73828124 -0.210938,0.89062499 -0.07031,0.0820313 -0.726562,0.0820313 -0.949219,0.0820313 z m 5.742187,0.75 c 0,-0.6328125 -0.246094,-1.04296874 -0.644531,-1.04296874 -0.351563,0 -0.527344,0.26953124 -0.527344,0.52734374 0,0.2578125 0.175781,0.5273437475 0.527344,0.5273437475 0.164062,0 0.28125,-0.0585937475 0.375,-0.1406249975 l 0.02344,-0.0234375 c 0.01172,0 0.02344,0.0117188 0.02344,0.15234375 0,0.64453125 -0.28125,1.24218746 -0.714844,1.71093746 -0.05859,0.058594 -0.07031,0.070312 -0.07031,0.1171875 0,0.070312 0.04687,0.1054688 0.09375,0.1054688 0.117187,0 0.914062,-0.7851563 0.914062,-1.93359376 z m 8.639649,-3.17578124 c 0,-0.796875 -0.04687,-1.59375 -0.398438,-2.3320313 -0.457031,-0.9609375 -1.277344,-1.1132812 -1.6875,-1.1132812 -0.597656,0 -1.335937,0.2578125 -1.734375,1.1835937 -0.328125,0.6914063 -0.375,1.4648438 -0.375,2.2617188 0,0.75 0.04687,1.640625 0.445313,2.40234374 0.433593,0.80859375 1.160156,1.0078125 1.652343,1.0078125 0.539063,0 1.289063,-0.2109375 1.734375,-1.16015625 0.316407,-0.69140629 0.363282,-1.46484379 0.363282,-2.24999999 z m -2.097657,3.1874999875 c -0.386718,0 -0.984375,-0.2460937475 -1.160156,-1.2070312875 -0.105469,-0.5976562 -0.105469,-1.5117187 -0.105469,-2.0976562 0,-0.6445313 0,-1.3007813 0.08203,-1.8398438 0.1875,-1.1835937 0.925781,-1.265625 1.183593,-1.265625 0.328125,0 0.984375,0.1757813 1.171875,1.1601563 0.09375,0.5625 0.09375,1.3125 0.09375,1.9453125 0,0.75 0,1.4179687 -0.105468,2.0625 -0.152344,0.93749999 -0.714844,1.2421874875 -1.160157,1.2421874875 z m 4.40625,-0.5273437475 c 0,-0.29296875 -0.234375,-0.52734374 -0.527343,-0.52734374 -0.28125,0 -0.527344,0.23437499 -0.527344,0.52734374 0,0.29296875 0.246094,0.5273437475 0.527344,0.5273437475 0.292968,0 0.527343,-0.2343749975 0.527343,-0.5273437475 z m 5.334961,-1.47656254 c 0,-1.1835937 -0.820312,-2.1796875 -1.898437,-2.1796875 -0.480469,0 -0.902344,0.1640625 -1.265625,0.5039063 v -1.9335938 c 0.199218,0.058594 0.527343,0.1289063 0.84375,0.1289063 1.230468,0 1.933593,-0.9140625 1.933593,-1.0429688 0,-0.058594 -0.03516,-0.1054687 -0.105468,-0.1054687 -0.01172,0 -0.03516,0 -0.08203,0.023437 -0.199218,0.09375 -0.679687,0.2929687 -1.347656,0.2929687 -0.398437,0 -0.855469,-0.070312 -1.324219,-0.28125 -0.08203,-0.023437 -0.105468,-0.023437 -0.128906,-0.023437 -0.09375,0 -0.09375,0.082031 -0.09375,0.234375 v 2.953125 c 0,0.1757813 0,0.2578125 0.140625,0.2578125 0.07031,0 0.08203,-0.035156 0.128906,-0.09375 0.105469,-0.1523437 0.480469,-0.6914062 1.277344,-0.6914062 0.527344,0 0.773438,0.4570312 0.855469,0.6328125 0.152344,0.375 0.175781,0.7617187 0.175781,1.2539062 0,0.3515625 0,0.9492188 -0.234375,1.37109379 -0.246094,0.38671875 -0.609375,0.64453125 -1.066406,0.64453125 -0.726563,0 -1.300781,-0.52734375 -1.464844,-1.11328124 0.02344,0.011719 0.05859,0.011719 0.164063,0.011719 0.328125,0 0.503906,-0.2460937 0.503906,-0.4804687 0,-0.2460938 -0.175781,-0.4921875 -0.503906,-0.4921875 -0.140625,0 -0.480469,0.070312 -0.480469,0.5273437 0,0.85546879 0.679687,1.82812504 1.792969,1.82812504 1.160156,0 2.179687,-0.9609375 2.179687,-2.22656254 z m 3.386719,-0.4921875 c 0,-0.7734375 -0.117188,-1.9804687 -0.65625,-3.1054687 -0.597656,-1.21875 -1.464844,-1.875 -1.558594,-1.875 -0.05859,0 -0.105469,0.046875 -0.105469,0.1054687 0,0.035156 0,0.046875 0.199219,0.234375 0.972656,0.984375 1.535156,2.5664063 1.535156,4.640625 0,1.71093754 -0.363281,3.45703129 -1.59375,4.7226563 -0.140625,0.1171875 -0.140625,0.1289062 -0.140625,0.1640625 0,0.058594 0.04687,0.1054687 0.105469,0.1054687 0.09375,0 0.996094,-0.6796875 1.582031,-1.94531246 0.503907,-1.1015625 0.632813,-2.20312504 0.632813,-3.04687504 z m 3.875977,0 c 0,-0.7734375 -0.117188,-1.9804687 -0.65625,-3.1054687 -0.597657,-1.21875 -1.464844,-1.875 -1.558594,-1.875 -0.05859,0 -0.105469,0.046875 -0.105469,0.1054687 0,0.035156 0,0.046875 0.199219,0.234375 0.972656,0.984375 1.535156,2.5664063 1.535156,4.640625 0,1.71093754 -0.363281,3.45703129 -1.59375,4.7226563 C 83.971,2.3435547 83.971,2.3552734 83.971,2.3904297 c 0,0.058594 0.04687,0.1054687 0.105469,0.1054687 0.09375,0 0.996094,-0.6796875 1.582031,-1.94531246 0.503906,-1.1015625 0.632813,-2.20312504 0.632813,-3.04687504 z m 0,0"
       style="fill:#000000;fill-opacity:1;fill-rule:nonzero;stroke:none"
       aria-label="shape.scale((2,0.5))"
       transform="matrix(1.3333333,0,0,1.3333333,195.03867,71.566667)" />
  </g>
</svg>
