<?xml version="1.0" encoding="UTF-8" standalone="no"?>
<!-- Created with Inkscape (http://www.inkscape.org/) -->

<svg
   version="1.1"
   id="svg238"
   width="241.89255"
   height="241.89252"
   viewBox="0 0 241.89255 241.89252"
   sodipodi:docname="StandaloneTikz_Shape (4).pdf"
   xmlns:inkscape="http://www.inkscape.org/namespaces/inkscape"
   xmlns:sodipodi="http://sodipodi.sourceforge.net/DTD/sodipodi-0.dtd"
   xmlns="http://www.w3.org/2000/svg"
   xmlns:svg="http://www.w3.org/2000/svg">
  <defs
     id="defs242" />
  <sodipodi:namedview
     id="namedview240"
     pagecolor="#ffffff"
     bordercolor="#000000"
     borderopacity="0.25"
     inkscape:showpageshadow="2"
     inkscape:pageopacity="0.0"
     inkscape:pagecheckerboard="0"
     inkscape:deskcolor="#d1d1d1"
     showgrid="false" />
  <g
     id="g246"
     inkscape:groupmode="layer"
     inkscape:label="Page 1"
     transform="matrix(1.3333333,0,0,-1.3333333,9.3333329e-4,241.89159)">
    <g
       id="g248"
       transform="translate(90.709,90.709)">
      <g
         id="g250">
        <g
           id="g252">
          <g
             id="g254">
            <path
               d="M -90.7097,-90.7097 V 90.7097 H 90.7097 V -90.7097 Z"
               style="fill:#ffffff;fill-opacity:1;fill-rule:nonzero;stroke:none"
               id="path256" />
          </g>
          <g
             id="g258">
            <path
               d="M -85.04042,-85.04042 V 85.04042 H 85.04042 V -85.04042 Z"
               style="fill:#00ff00;fill-opacity:0.4;fill-rule:nonzero;stroke:none"
               id="path260" />
          </g>
          <g
             id="g262">
            <path
               d="m -14.17339,0 c 0,15.6557 -12.6911,28.3468 -28.34681,28.3468 -15.65572,0 -28.3468,-12.6911 -28.3468,-28.3468 0,-15.6557 12.69108,-28.3468 28.3468,-28.3468 15.65571,0 28.34681,12.6911 28.34681,28.3468 z"
               style="fill:#ffffff;fill-opacity:1;fill-rule:nonzero;stroke:none"
               id="path264" />
          </g>
          <g
             id="g266">
            <path
               d="m 70.867,0 c 0,15.6557 -12.69108,28.3468 -28.3468,28.3468 C 26.86449,28.3468 14.17339,15.6557 14.17339,0 c 0,-15.6557 12.6911,-28.3468 28.34681,-28.3468 15.65572,0 28.3468,12.6911 28.3468,28.3468 z"
               style="fill:#ffffff;fill-opacity:1;fill-rule:nonzero;stroke:none"
               id="path268" />
          </g>
          <g
             id="g270">
            <path
               d="M -85.04042,-85.04042 H 85.04042 m -170.08084,28.3468 H 85.04042 M -85.04042,-28.3468 H 85.04042 M -85.04042,0 H 85.04042 M -85.04042,28.3468 H 85.04042 M -85.04042,56.69362 H 85.04042 M -85.04042,85.03047 H 85.04042 M -85.04042,-85.04042 V 85.04042 m 28.3468,-170.08084 V 85.04042 M -28.3468,-85.04042 V 85.04042 M 0,-85.04042 V 85.04042 M 28.3468,-85.04042 V 85.04042 M 56.69362,-85.04042 V 85.04042 M 85.03047,-85.04042 V 85.04042"
               style="fill:none;stroke:#808080;stroke-width:0.19925;stroke-linecap:butt;stroke-linejoin:miter;stroke-miterlimit:10;stroke-dasharray:none;stroke-opacity:1"
               id="path272" />
          </g>
          <path
             d="M -85.04042,0 H 84.58214"
             style="fill:none;stroke:#000000;stroke-width:0.3985;stroke-linecap:butt;stroke-linejoin:miter;stroke-miterlimit:10;stroke-dasharray:none;stroke-opacity:1"
             id="path274" />
          <g
             id="g276"
             transform="translate(84.58214)">
            <g
               id="g278">
              <path
                 d="M -1.19551,1.59401 C -1.09587,0.99626 0,0.09961 0.29886,0 0,-0.09961 -1.09587,-0.99626 -1.19551,-1.59401"
                 style="fill:none;stroke:#000000;stroke-width:0.31879;stroke-linecap:round;stroke-linejoin:round;stroke-miterlimit:10;stroke-dasharray:none;stroke-opacity:1"
                 id="path280" />
            </g>
          </g>
          <path
             d="M 0,-85.04042 V 84.58214"
             style="fill:none;stroke:#000000;stroke-width:0.3985;stroke-linecap:butt;stroke-linejoin:miter;stroke-miterlimit:10;stroke-dasharray:none;stroke-opacity:1"
             id="path282" />
          <g
             id="g284"
             transform="rotate(90,-42.29107,42.29107)">
            <g
               id="g286">
              <path
                 d="M -1.19551,1.59401 C -1.09587,0.99626 0,0.09961 0.29886,0 0,-0.09961 -1.09587,-0.99626 -1.19551,-1.59401"
                 style="fill:none;stroke:#000000;stroke-width:0.31879;stroke-linecap:round;stroke-linejoin:round;stroke-miterlimit:10;stroke-dasharray:none;stroke-opacity:1"
                 id="path288" />
            </g>
          </g>
          <g
             id="g290">
            <path
               d="m -14.17339,0 c 0,15.6557 -12.6911,28.3468 -28.34681,28.3468 -15.65572,0 -28.3468,-12.6911 -28.3468,-28.3468 0,-15.6557 12.69108,-28.3468 28.3468,-28.3468 15.65571,0 28.34681,12.6911 28.34681,28.3468 z"
               style="fill:none;stroke:#0000ff;stroke-width:1.19553;stroke-linecap:butt;stroke-linejoin:miter;stroke-miterlimit:10;stroke-dasharray:none;stroke-opacity:1"
               id="path292" />
          </g>
          <g
             id="g294">
            <path
               d="m 70.867,0 c 0,15.6557 -12.69108,28.3468 -28.3468,28.3468 C 26.86449,28.3468 14.17339,15.6557 14.17339,0 c 0,-15.6557 12.6911,-28.3468 28.34681,-28.3468 15.65572,0 28.3468,12.6911 28.3468,28.3468 z"
               style="fill:none;stroke:#0000ff;stroke-width:1.19553;stroke-linecap:butt;stroke-linejoin:miter;stroke-miterlimit:10;stroke-dasharray:none;stroke-opacity:1"
               id="path296" />
          </g>
        </g>
      </g>
    </g>
  </g>
</svg>
