<?xml version="1.0" encoding="UTF-8" standalone="no"?>
<!-- Created with Inkscape (http://www.inkscape.org/) -->

<svg
   version="1.1"
   id="svg1"
   width="771.02264"
   height="200.916"
   viewBox="0 0 771.02264 200.916"
   xmlns="http://www.w3.org/2000/svg"
   xmlns:svg="http://www.w3.org/2000/svg">
  <defs
     id="defs1" />
  <g
     id="g1">
    <path
       id="path1"
       d="M -90.7097,-42.5202 H 345.83098 V 85.04042 H -90.7097 Z"
       style="fill:#ffffff;fill-opacity:1;fill-rule:nonzero;stroke:none"
       transform="matrix(1.3333333,0,0,-1.3333333,120.94533,117.76667)" />
    <path
       id="path2"
       d="m 4.2200547,-2.7541172 c -0.8671875,1.4648438 -1.7109375,1.95703126 -2.90625,2.03906251 -0.2695313,0.0234375 -0.46875001,0.0234375 -0.46875001,0.46875 0,0.15234375 0.1171875,0.2460937525 0.29296871,0.2460937525 0.4453125,0 1.5703125,-0.0468750025 2.015625,-0.0468750025 0.7148438,0 1.5117188,0.0468750025 2.203125,0.0468750025 0.1523438,0 0.4453125,0 0.4453125,-0.4687500025 0,-0.22265625 -0.1992187,-0.24609375 -0.3515625,-0.24609375 -0.5625,-0.0585938 -1.0429687,-0.24609375 -1.0429687,-0.84375001 0,-0.3515625 0.1523437,-0.6210937 0.4804687,-1.171875 l 1.875,-3.1171875 h 6.3281246 c 0.02344,0.2226563 0.02344,0.421875 0.04687,0.6445313 0.07031,0.6445312 0.375,3.2226562 0.375,3.6914062 0,0.73828126 -1.265625,0.79687501 -1.664062,0.79687501 -0.269531,0 -0.550781,0 -0.550781,0.4453125 0,0.2695312525 0.222656,0.2695312525 0.375,0.2695312525 0.421875,0 0.914062,-0.0468750025 1.335937,-0.0468750025 h 1.417969 c 1.511719,0 2.601562,0.0468750025 2.625,0.0468750025 0.175781,0 0.445312,0 0.445312,-0.4687500025 0,-0.24609375 -0.222656,-0.24609375 -0.597656,-0.24609375 -1.359375,0 -1.382812,-0.22265625 -1.453125,-0.97265621 L 13.934898,-17.156461 c -0.05859,-0.492187 -0.152343,-0.539062 -0.421875,-0.539062 -0.246093,0 -0.398437,0.04687 -0.621093,0.421875 z m 2.9648437,-3.8085937 4.9804686,-8.3320311 0.84375,8.3320311 z m 0,0"
       style="fill:#000000;fill-opacity:1;fill-rule:nonzero;stroke:none"
       aria-label="A"
       transform="matrix(1.3333333,0,0,1.3333333,108.81467,27.012)" />
    <path
       id="path3"
       d="m 9.0713516,-15.246305 c 0.2226562,-0.914062 0.328125,-0.960937 1.2890624,-0.960937 h 3.222656 c 2.800782,0 2.800782,2.378906 2.800782,2.601562 0,2.003907 -2.003907,4.5585941 -5.273438,4.5585941 H 7.5361953 Z m 4.1953124,6.3984378 c 2.695313,-0.4921875 5.144531,-2.3789058 5.144531,-4.6640628 0,-1.933593 -1.699218,-3.421875 -4.5,-3.421875 H 5.9541641 c -0.4804688,0 -0.703125,0 -0.703125,0.480469 0,0.246094 0.2226562,0.246094 0.5976562,0.246094 1.5117188,0 1.5117188,0.199219 1.5117188,0.46875 0,0.04687 0,0.199219 -0.09375,0.574219 L 3.9151016,-1.8400547 c -0.2226563,0.87890626 -0.2695313,1.12500001 -2.0039063,1.12500001 -0.46875,0 -0.7148437,0 -0.7148437,0.4453125 0,0.2695312525 0.140625,0.2695312525 0.6445312,0.2695312525 h 8.4960942 c 3.796875,0 6.714843,-2.8710937625 6.714843,-5.3789062625 0,-2.0273437 -1.78125,-3.2695312 -3.785156,-3.46875 z M 9.7393203,-0.71505469 H 6.3994766 c -0.3515625,0 -0.3984375,0 -0.5507813,-0.0234375 -0.2695312,-0.0351563 -0.2929687,-0.0820313 -0.2929687,-0.28125001 0,-0.1757812 0.046875,-0.3164062 0.09375,-0.5390625 l 1.734375,-6.9960937 h 4.6640624 c 2.917969,0 2.917969,2.7304687 2.917969,2.9296875 0,2.3789062 -2.15625,4.91015621 -5.2265627,4.91015621 z m 0,0"
       style="fill:#000000;fill-opacity:1;fill-rule:nonzero;stroke:none"
       aria-label="B"
       transform="matrix(1.3333333,0,0,1.3333333,372.38533,27.012)" />
    <g
       id="g3"
       aria-label="A∧B"
       transform="matrix(1.3333333,0,0,1.3333333,606.46267,27.012)">
      <path
         id="path4"
         d="m 4.2174531,-2.7541172 c -0.8671875,1.4648438 -1.7109375,1.95703126 -2.90625,2.03906251 -0.2695312,0.0234375 -0.46874997,0.0234375 -0.46874997,0.46875 0,0.15234375 0.1171875,0.2460937525 0.29296877,0.2460937525 0.4453125,0 1.5703125,-0.0468750025 2.015625,-0.0468750025 0.7148437,0 1.5117187,0.0468750025 2.203125,0.0468750025 0.1523437,0 0.4453125,0 0.4453125,-0.4687500025 0,-0.22265625 -0.1992188,-0.24609375 -0.3515625,-0.24609375 -0.5625,-0.0585938 -1.0429688,-0.24609375 -1.0429688,-0.84375001 0,-0.3515625 0.1523438,-0.6210937 0.4804688,-1.171875 l 1.875,-3.1171875 h 6.3281251 c 0.02344,0.2226563 0.02344,0.421875 0.04687,0.6445313 0.07031,0.6445312 0.375,3.2226562 0.375,3.6914062 0,0.73828126 -1.265625,0.79687501 -1.664063,0.79687501 -0.269531,0 -0.550781,0 -0.550781,0.4453125 0,0.2695312525 0.222656,0.2695312525 0.375,0.2695312525 0.421875,0 0.914063,-0.0468750025 1.335938,-0.0468750025 h 1.417968 c 1.511719,0 2.601563,0.0468750025 2.625,0.0468750025 0.175782,0 0.445313,0 0.445313,-0.4687500025 0,-0.24609375 -0.222656,-0.24609375 -0.597656,-0.24609375 -1.359375,0 -1.382813,-0.22265625 -1.453125,-0.97265621 L 13.932297,-17.156461 c -0.05859,-0.492187 -0.152344,-0.539062 -0.421875,-0.539062 -0.246094,0 -0.398438,0.04687 -0.621094,0.421875 z m 2.9648438,-3.8085937 4.9804691,-8.3320311 0.84375,8.3320311 z m 0,0"
         style="fill:#000000;fill-opacity:1;fill-rule:nonzero;stroke:none" />
      <path
         id="path5"
         d="m 32.527023,-14.297086 c -0.199218,-0.421875 -0.351562,-0.527344 -0.574218,-0.527344 -0.316407,0 -0.398438,0.175782 -0.539063,0.527344 l -6.175781,13.85156256 c -0.152344,0.31640625 -0.175781,0.375 -0.175781,0.4921875 0,0.26953125 0.222656,0.50390625 0.503906,0.50390625 0.164062,0 0.363281,-0.0585938 0.5625,-0.52734375 L 31.952805,-13.113492 37.777023,0.02322656 c 0.222657,0.52734375 0.480469,0.52734375 0.574219,0.52734375 0.269531,0 0.492188,-0.234375 0.492188,-0.50390625 0,-0.0468749975 0,-0.09375 -0.140625,-0.3984375 z m 0,0"
         style="fill:#000000;fill-opacity:1;fill-rule:nonzero;stroke:none" />
      <path
         id="path6"
         d="m 54.804367,-15.246305 c 0.222656,-0.914062 0.328125,-0.960937 1.289063,-0.960937 h 3.222656 c 2.800781,0 2.800781,2.378906 2.800781,2.601562 0,2.003907 -2.003906,4.5585941 -5.273437,4.5585941 h -3.574219 z m 4.195313,6.3984378 c 2.695312,-0.4921875 5.144531,-2.3789058 5.144531,-4.6640628 0,-1.933593 -1.699219,-3.421875 -4.5,-3.421875 H 51.68718 c -0.480469,0 -0.703125,0 -0.703125,0.480469 0,0.246094 0.222656,0.246094 0.597656,0.246094 1.511719,0 1.511719,0.199219 1.511719,0.46875 0,0.04687 0,0.199219 -0.09375,0.574219 l -3.351563,13.3242183 c -0.222656,0.87890626 -0.269531,1.12500001 -2.003906,1.12500001 -0.46875,0 -0.714844,0 -0.714844,0.4453125 0,0.2695312525 0.140625,0.2695312525 0.644531,0.2695312525 h 8.496094 c 3.796875,0 6.714844,-2.8710937625 6.714844,-5.3789062625 0,-2.0273437 -1.78125,-3.2695312 -3.785156,-3.46875 z m -3.527344,8.13281251 h -3.339844 c -0.351562,0 -0.398437,0 -0.550781,-0.0234375 -0.269531,-0.0351563 -0.292969,-0.0820313 -0.292969,-0.28125001 0,-0.1757812 0.04687,-0.3164062 0.09375,-0.5390625 l 1.734375,-6.9960937 h 4.664063 c 2.917968,0 2.917968,2.7304687 2.917968,2.9296875 0,2.3789062 -2.15625,4.91015621 -5.226562,4.91015621 z m 0,0"
         style="fill:#000000;fill-opacity:1;fill-rule:nonzero;stroke:none" />
    </g>
    <path
       id="path7"
       d="M -90.7097,-62.36288 V 62.36288 H 90.7097 V -62.36288 Z"
       style="fill:#ffffff;fill-opacity:0;fill-rule:nonzero;stroke:none"
       transform="matrix(1.3333333,0,0,-1.3333333,120.94533,117.76667)" />
    <path
       id="path8"
       d="M -85.04042,-56.69362 H 85.04042 M -85.04042,-28.3468 H 85.04042 M -85.04042,0 H 85.04042 M -85.04042,28.3468 H 85.04042 M -85.04042,56.68365 H 85.04042 M -85.04042,-56.69362 V 56.69362 m 28.3468,-113.38724 V 56.69362 M -28.3468,-56.69362 V 56.69362 M 0,-56.69362 V 56.69362 M 28.3468,-56.69362 V 56.69362 M 56.69362,-56.69362 V 56.69362 M 85.03047,-56.69362 V 56.69362"
       style="fill:none;stroke:#808080;stroke-width:0.19925;stroke-linecap:butt;stroke-linejoin:miter;stroke-miterlimit:10;stroke-dasharray:none;stroke-opacity:1"
       transform="matrix(1.3333333,0,0,-1.3333333,120.94533,117.76667)" />
    <path
       id="path9"
       d="M -85.04042,0 H 84.58214"
       style="fill:none;stroke:#000000;stroke-width:0.3985;stroke-linecap:butt;stroke-linejoin:miter;stroke-miterlimit:10;stroke-dasharray:none;stroke-opacity:1"
       transform="matrix(1.3333333,0,0,-1.3333333,120.94533,117.76667)" />
    <path
       id="path10"
       d="M -1.19551,1.59401 C -1.09587,0.99626 0,0.09961 0.29886,0 0,-0.09961 -1.09587,-0.99626 -1.19551,-1.59401"
       style="fill:none;stroke:#000000;stroke-width:0.31879;stroke-linecap:round;stroke-linejoin:round;stroke-miterlimit:10;stroke-dasharray:none;stroke-opacity:1"
       transform="matrix(1.3333333,0,0,-1.3333333,233.72152,117.76667)" />
    <path
       id="path11"
       d="M 0,-56.69362 V 56.23534"
       style="fill:none;stroke:#000000;stroke-width:0.3985;stroke-linecap:butt;stroke-linejoin:miter;stroke-miterlimit:10;stroke-dasharray:none;stroke-opacity:1"
       transform="matrix(1.3333333,0,0,-1.3333333,120.94533,117.76667)" />
    <path
       id="path12"
       d="M -1.19551,1.59401 C -1.09587,0.99626 0,0.09961 0.29886,0 0,-0.09961 -1.09587,-0.99626 -1.19551,-1.59401"
       style="fill:none;stroke:#000000;stroke-width:0.31879;stroke-linecap:round;stroke-linejoin:round;stroke-miterlimit:10;stroke-dasharray:none;stroke-opacity:1"
       transform="matrix(0,-1.3333333,-1.3333333,0,120.94533,42.786213)" />
    <path
       id="path13"
       d="m 11.33856,0 c 0,15.6557 -12.69108,28.3468 -28.3468,28.3468 -15.65572,0 -28.34682,-12.6911 -28.34682,-28.3468 0,-15.6557 12.6911,-28.3468 28.34682,-28.3468 15.65572,0 28.3468,12.6911 28.3468,28.3468 z"
       style="fill:#2bffff;fill-opacity:0.4;fill-rule:nonzero;stroke:#199696;stroke-width:1.19553;stroke-linecap:butt;stroke-linejoin:miter;stroke-miterlimit:10;stroke-dasharray:none;stroke-opacity:1"
       transform="matrix(1.3333333,0,0,-1.3333333,120.94533,117.76667)" />
    <path
       id="path14"
       d="M 107.71796,-62.36288 V 62.36288 h 181.4194 V -62.36288 Z"
       style="fill:#ffffff;fill-opacity:0;fill-rule:nonzero;stroke:none"
       transform="matrix(1.3333333,0,0,-1.3333333,120.94533,117.76667)" />
    <path
       id="path15"
       d="M 113.38724,-56.69362 H 283.4681 M 113.38724,-28.3468 H 283.4681 M 113.38724,0 H 283.4681 M 113.38724,28.3468 H 283.4681 M 113.38724,56.68365 H 283.4681 M 113.38724,-56.69362 V 56.69362 m 28.3468,-113.38724 V 56.69362 M 170.08086,-56.69362 V 56.69362 m 28.3468,-113.38724 V 56.69362 M 226.77448,-56.69362 V 56.69362 m 28.3468,-113.38724 V 56.69362 M 283.45813,-56.69362 V 56.69362"
       style="fill:none;stroke:#808080;stroke-width:0.19925;stroke-linecap:butt;stroke-linejoin:miter;stroke-miterlimit:10;stroke-dasharray:none;stroke-opacity:1"
       transform="matrix(1.3333333,0,0,-1.3333333,120.94533,117.76667)" />
    <path
       id="path16"
       d="M 113.38724,0 H 283.00981"
       style="fill:none;stroke:#000000;stroke-width:0.3985;stroke-linecap:butt;stroke-linejoin:miter;stroke-miterlimit:10;stroke-dasharray:none;stroke-opacity:1"
       transform="matrix(1.3333333,0,0,-1.3333333,120.94533,117.76667)" />
    <path
       id="path17"
       d="M -1.19551,1.59401 C -1.09587,0.99626 0,0.09961 0.29886,0 0,-0.09961 -1.09587,-0.99626 -1.19551,-1.59401"
       style="fill:none;stroke:#000000;stroke-width:0.31879;stroke-linecap:round;stroke-linejoin:round;stroke-miterlimit:10;stroke-dasharray:none;stroke-opacity:1"
       transform="matrix(1.3333333,0,0,-1.3333333,498.29175,117.76667)" />
    <path
       id="path18"
       d="M 198.42766,-56.69362 V 56.23534"
       style="fill:none;stroke:#000000;stroke-width:0.3985;stroke-linecap:butt;stroke-linejoin:miter;stroke-miterlimit:10;stroke-dasharray:none;stroke-opacity:1"
       transform="matrix(1.3333333,0,0,-1.3333333,120.94533,117.76667)" />
    <path
       id="path19"
       d="M -1.19551,1.59401 C -1.09587,0.99626 0,0.09961 0.29886,0 0,-0.09961 -1.09587,-0.99626 -1.19551,-1.59401"
       style="fill:none;stroke:#000000;stroke-width:0.31879;stroke-linecap:round;stroke-linejoin:round;stroke-miterlimit:10;stroke-dasharray:none;stroke-opacity:1"
       transform="matrix(0,-1.3333333,-1.3333333,0,385.51555,42.786213)" />
    <path
       id="path20"
       d="m 243.78271,0 c 0,15.6557 -12.6911,28.3468 -28.3468,28.3468 C 199.7802,28.3468 187.0891,15.6557 187.0891,0 c 0,-15.6557 12.6911,-28.3468 28.34681,-28.3468 15.6557,0 28.3468,12.6911 28.3468,28.3468 z"
       style="fill:#ffff00;fill-opacity:0.4;fill-rule:nonzero;stroke:#969619;stroke-width:1.19553;stroke-linecap:butt;stroke-linejoin:miter;stroke-miterlimit:10;stroke-dasharray:none;stroke-opacity:1"
       transform="matrix(1.3333333,0,0,-1.3333333,120.94533,117.76667)" />
    <path
       id="path21"
       d="M 306.14563,-62.36288 V 62.36288 h 181.4194 V -62.36288 Z"
       style="fill:#ffffff;fill-opacity:0;fill-rule:nonzero;stroke:none"
       transform="matrix(1.3333333,0,0,-1.3333333,120.94533,117.76667)" />
    <path
       id="path22"
       d="M 311.8149,-56.69362 H 481.89577 M 311.8149,-28.3468 H 481.89577 M 311.8149,0 H 481.89577 M 311.8149,28.3468 H 481.89577 M 311.8149,56.68365 H 481.89577 M 311.8149,-56.69362 V 56.69362 M 340.16171,-56.69362 V 56.69362 m 28.3468,-113.38724 V 56.69362 M 396.85533,-56.69362 V 56.69362 m 28.3468,-113.38724 V 56.69362 M 453.54895,-56.69362 V 56.69362 M 481.8858,-56.69362 V 56.69362"
       style="fill:none;stroke:#808080;stroke-width:0.19925;stroke-linecap:butt;stroke-linejoin:miter;stroke-miterlimit:10;stroke-dasharray:none;stroke-opacity:1"
       transform="matrix(1.3333333,0,0,-1.3333333,120.94533,117.76667)" />
    <path
       id="path23"
       d="M 311.8149,0 H 481.43748"
       style="fill:none;stroke:#000000;stroke-width:0.3985;stroke-linecap:butt;stroke-linejoin:miter;stroke-miterlimit:10;stroke-dasharray:none;stroke-opacity:1"
       transform="matrix(1.3333333,0,0,-1.3333333,120.94533,117.76667)" />
    <path
       id="path24"
       d="M -1.19551,1.59401 C -1.09587,0.99626 0,0.09961 0.29886,0 0,-0.09961 -1.09587,-0.99626 -1.19551,-1.59401"
       style="fill:none;stroke:#000000;stroke-width:0.31879;stroke-linecap:round;stroke-linejoin:round;stroke-miterlimit:10;stroke-dasharray:none;stroke-opacity:1"
       transform="matrix(1.3333333,0,0,-1.3333333,762.86197,117.76667)" />
    <path
       id="path25"
       d="M 396.85533,-56.69362 V 56.23534"
       style="fill:none;stroke:#000000;stroke-width:0.3985;stroke-linecap:butt;stroke-linejoin:miter;stroke-miterlimit:10;stroke-dasharray:none;stroke-opacity:1"
       transform="matrix(1.3333333,0,0,-1.3333333,120.94533,117.76667)" />
    <path
       id="path26"
       d="M -1.19551,1.59401 C -1.09587,0.99626 0,0.09961 0.29886,0 0,-0.09961 -1.09587,-0.99626 -1.19551,-1.59401"
       style="fill:none;stroke:#000000;stroke-width:0.31879;stroke-linecap:round;stroke-linejoin:round;stroke-miterlimit:10;stroke-dasharray:none;stroke-opacity:1"
       transform="matrix(0,-1.3333333,-1.3333333,0,650.08577,42.786213)" />
    <path
       id="path27"
       d="m 396.85446,22.67665 c 8.10056,-6.07542 12.34594,-16.01384 11.13527,-26.06686 -0.92476,-7.67669 -4.94955,-14.64748 -11.13527,-19.28644 m 0.002,0 c 12.52413,-9.39298 30.29105,-6.85486 39.68404,5.66928 9.39297,12.52412 6.85486,30.29103 -5.66928,39.68402 -10.0777,7.55817 -23.93706,7.55817 -34.01476,0"
       style="fill:#00ff00;fill-opacity:0.4;fill-rule:nonzero;stroke:none"
       transform="matrix(1.3333333,0,0,-1.3333333,120.94533,117.76667)" />
    <path
       id="path28"
       d="m 396.85446,22.67665 c -12.52414,9.39298 -30.29104,6.85486 -39.68403,-5.66928 -9.39298,-12.52412 -6.85486,-30.29103 5.66927,-39.68402 10.0777,-7.55817 23.93706,-7.55817 34.01476,0 m 0.002,0 c -8.10055,6.07542 -12.34595,16.01384 -11.13527,26.06686 0.92475,7.67669 4.94956,14.64748 11.13527,19.28644"
       style="fill:#00ff00;fill-opacity:0.4;fill-rule:nonzero;stroke:none"
       transform="matrix(1.3333333,0,0,-1.3333333,120.94533,117.76667)" />
    <path
       id="path29"
       d="m 396.85446,22.67665 c -12.52414,9.39298 -30.29104,6.85486 -39.68403,-5.66928 -9.39298,-12.52412 -6.85486,-30.29103 5.66927,-39.68402 10.0777,-7.55817 23.93706,-7.55817 34.01476,0 m 0.002,0 c 12.52413,-9.39298 30.29105,-6.85486 39.68404,5.66928 9.39297,12.52412 6.85486,30.29103 -5.66928,39.68402 -10.0777,7.55817 -23.93706,7.55817 -34.01476,0"
       style="fill:none;stroke:#199619;stroke-width:1.19553;stroke-linecap:butt;stroke-linejoin:miter;stroke-miterlimit:10;stroke-dasharray:none;stroke-opacity:1"
       transform="matrix(1.3333333,0,0,-1.3333333,120.94533,117.76667)" />
  </g>
</svg>
