<?xml version="1.0" encoding="UTF-8" standalone="no"?>
<!-- Created with Inkscape (http://www.inkscape.org/) -->

<svg
   version="1.1"
   id="svg1258"
   width="771.03296"
   height="782.37183"
   viewBox="0 0 771.03295 782.37183"
   sodipodi:docname="and_table.pdf"
   xmlns:inkscape="http://www.inkscape.org/namespaces/inkscape"
   xmlns:sodipodi="http://sodipodi.sourceforge.net/DTD/sodipodi-0.dtd"
   xmlns="http://www.w3.org/2000/svg"
   xmlns:svg="http://www.w3.org/2000/svg">
  <defs
     id="defs1262" />
  <sodipodi:namedview
     id="namedview1260"
     pagecolor="#ffffff"
     bordercolor="#000000"
     borderopacity="0.25"
     inkscape:showpageshadow="2"
     inkscape:pageopacity="0.0"
     inkscape:pagecheckerboard="0"
     inkscape:deskcolor="#d1d1d1"
     showgrid="false" />
  <g
     id="g1266"
     inkscape:groupmode="layer"
     inkscape:label="Page 1"
     transform="matrix(1.3333333,0,0,-1.3333333,9.333333e-4,782.36105)">
    <g
       id="g1268"
       transform="translate(90.709,629.291)">
      <g
         id="g1270">
        <g
           id="g1272">
          <g
             id="g1274">
            <path
               d="M -90.7097,-42.5202 H 345.83098 V -629.29907 H -90.7097 Z"
               style="fill:#ffffff;fill-opacity:1;fill-rule:nonzero;stroke:none"
               id="path1276" />
          </g>
          <g
             id="g1278">
            <g
               id="g1280"
               transform="translate(-9.098,-65.162)">
              <g
                 id="g1282">
                <g
                   id="g1284"
                   transform="translate(-81.611,-564.129)">
                  <text
                     xml:space="preserve"
                     transform="matrix(1,0,0,-1,81.611,564.129)"
                     style="font-variant:normal;font-weight:normal;font-size:24.7871px;font-family:CMMI12;-inkscape-font-specification:CMMI12;writing-mode:lr-tb;fill:#000000;fill-opacity:1;fill-rule:nonzero;stroke:none"
                     id="text1288"><tspan
                       x="0"
                       y="0"
                       id="tspan1286">A</tspan></text>
                  <g
                     id="g1290"
                     transform="translate(81.611,564.129)" />
                </g>
              </g>
              <g
                 id="g1292"
                 transform="translate(9.098,65.162)" />
            </g>
          </g>
          <g
             id="g1294">
            <g
               id="g1296">
              <g
                 id="g1298"
                 transform="translate(188.58,-65.162)">
                <g
                   id="g1300">
                  <g
                     id="g1302"
                     transform="translate(-279.289,-564.129)">
                    <text
                       xml:space="preserve"
                       transform="matrix(1,0,0,-1,279.289,564.129)"
                       style="font-variant:normal;font-weight:normal;font-size:24.7871px;font-family:CMMI12;-inkscape-font-specification:CMMI12;writing-mode:lr-tb;fill:#000000;fill-opacity:1;fill-rule:nonzero;stroke:none"
                       id="text1306"><tspan
                         x="0"
                         y="0"
                         id="tspan1304">B</tspan></text>
                    <g
                       id="g1308"
                       transform="translate(279.289,564.129)" />
                  </g>
                </g>
                <g
                   id="g1310"
                   transform="translate(-188.58,65.162)" />
              </g>
            </g>
          </g>
          <g
             id="g1312">
            <g
               id="g1314">
              <g
                 id="g1316"
                 transform="translate(315.619,-65.162)">
                <g
                   id="g1318">
                  <g
                     id="g1320"
                     transform="translate(-406.328,-564.129)">
                    <text
                       xml:space="preserve"
                       transform="matrix(1,0,0,-1,406.328,564.129)"
                       style="font-variant:normal;font-weight:normal;font-size:24.7871px;font-family:CMMI12;-inkscape-font-specification:CMMI12;writing-mode:lr-tb;fill:#000000;fill-opacity:1;fill-rule:nonzero;stroke:none"
                       id="text1324"><tspan
                         x="0"
                         y="0"
                         id="tspan1322">A</tspan></text>
                    <text
                       xml:space="preserve"
                       transform="matrix(1,0,0,-1,430.03,564.129)"
                       style="font-variant:normal;font-weight:normal;font-size:24.7871px;font-family:CMSY10;-inkscape-font-specification:CMSY10;writing-mode:lr-tb;fill:#000000;fill-opacity:1;fill-rule:nonzero;stroke:none"
                       id="text1328"><tspan
                         x="0"
                         y="0"
                         id="tspan1326">∩</tspan></text>
                    <text
                       xml:space="preserve"
                       transform="matrix(1,0,0,-1,452.063,564.129)"
                       style="font-variant:normal;font-weight:normal;font-size:24.7871px;font-family:CMMI12;-inkscape-font-specification:CMMI12;writing-mode:lr-tb;fill:#000000;fill-opacity:1;fill-rule:nonzero;stroke:none"
                       id="text1332"><tspan
                         x="0"
                         y="0"
                         id="tspan1330">B</tspan></text>
                    <text
                       xml:space="preserve"
                       transform="matrix(1,0,0,-1,478.637,564.129)"
                       style="font-variant:normal;font-weight:normal;font-size:24.7871px;font-family:CMR17;-inkscape-font-specification:CMR17;writing-mode:lr-tb;fill:#000000;fill-opacity:1;fill-rule:nonzero;stroke:none"
                       id="text1336"><tspan
                         x="0"
                         y="0"
                         id="tspan1334">=</tspan></text>
                    <text
                       xml:space="preserve"
                       transform="matrix(1,0,0,-1,503.365,564.129)"
                       style="font-variant:normal;font-weight:normal;font-size:24.7871px;font-family:CMMI12;-inkscape-font-specification:CMMI12;writing-mode:lr-tb;fill:#000000;fill-opacity:1;fill-rule:nonzero;stroke:none"
                       id="text1340"><tspan
                         x="0"
                         y="0"
                         id="tspan1338">B</tspan></text>
                    <text
                       xml:space="preserve"
                       transform="matrix(1,0,0,-1,528.562,564.129)"
                       style="font-variant:normal;font-weight:normal;font-size:24.7871px;font-family:CMSY10;-inkscape-font-specification:CMSY10;writing-mode:lr-tb;fill:#000000;fill-opacity:1;fill-rule:nonzero;stroke:none"
                       id="text1344"><tspan
                         x="0"
                         y="0"
                         id="tspan1342">∩</tspan></text>
                    <text
                       xml:space="preserve"
                       transform="matrix(1,0,0,-1,550.595,564.129)"
                       style="font-variant:normal;font-weight:normal;font-size:24.7871px;font-family:CMMI12;-inkscape-font-specification:CMMI12;writing-mode:lr-tb;fill:#000000;fill-opacity:1;fill-rule:nonzero;stroke:none"
                       id="text1348"><tspan
                         x="0"
                         y="0"
                         id="tspan1346">A</tspan></text>
                    <g
                       id="g1350"
                       transform="translate(406.328,564.129)" />
                  </g>
                </g>
                <g
                   id="g1352"
                   transform="translate(-315.619,65.162)" />
              </g>
            </g>
          </g>
          <g
             id="g1354">
            <g
               id="g1356">
              <path
                 d="M -90.7097,-204.09694 V -79.37115 H 90.7097 v -124.72579 z"
                 style="fill:#ffffff;fill-opacity:0;fill-rule:nonzero;stroke:none"
                 id="path1358" />
            </g>
            <g
               id="g1360">
              <path
                 d="M -85.04042,-198.42766 H 85.04042 m -170.08084,28.3468 H 85.04042 m -170.08084,28.34682 H 85.04042 m -170.08084,28.3468 H 85.04042 M -85.04042,-85.05038 H 85.04042 M -85.04042,-198.42766 v 113.38724 m 28.3468,-113.38724 V -85.04042 M -28.3468,-198.42766 V -85.04042 M 0,-198.42766 v 113.38724 m 28.3468,-113.38724 v 113.38724 m 28.34682,-113.38724 v 113.38724 m 28.33685,-113.38724 v 113.38724"
                 style="fill:none;stroke:#808080;stroke-width:0.19925;stroke-linecap:butt;stroke-linejoin:miter;stroke-miterlimit:10;stroke-dasharray:none;stroke-opacity:1"
                 id="path1362" />
            </g>
            <path
               d="M -85.04042,-141.73404 H 84.58214"
               style="fill:none;stroke:#000000;stroke-width:0.3985;stroke-linecap:butt;stroke-linejoin:miter;stroke-miterlimit:10;stroke-dasharray:none;stroke-opacity:1"
               id="path1364" />
            <g
               id="g1366"
               transform="translate(84.58214,-141.73404)">
              <g
                 id="g1368">
                <path
                   d="M -1.19551,1.59401 C -1.09587,0.99626 0,0.09961 0.29886,0 0,-0.09961 -1.09587,-0.99626 -1.19551,-1.59401"
                   style="fill:none;stroke:#000000;stroke-width:0.31879;stroke-linecap:round;stroke-linejoin:round;stroke-miterlimit:10;stroke-dasharray:none;stroke-opacity:1"
                   id="path1370" />
              </g>
            </g>
            <path
               d="M 0,-198.42766 V -85.4987"
               style="fill:none;stroke:#000000;stroke-width:0.3985;stroke-linecap:butt;stroke-linejoin:miter;stroke-miterlimit:10;stroke-dasharray:none;stroke-opacity:1"
               id="path1372" />
            <g
               id="g1374"
               transform="rotate(90,42.74935,-42.74935)">
              <g
                 id="g1376">
                <path
                   d="M -1.19551,1.59401 C -1.09587,0.99626 0,0.09961 0.29886,0 0,-0.09961 -1.09587,-0.99626 -1.19551,-1.59401"
                   style="fill:none;stroke:#000000;stroke-width:0.31879;stroke-linecap:round;stroke-linejoin:round;stroke-miterlimit:10;stroke-dasharray:none;stroke-opacity:1"
                   id="path1378" />
              </g>
            </g>
            <g
               id="g1380">
              <path
                 d="m -14.17339,-141.73404 c 0,15.65572 -12.6911,28.3468 -28.34681,28.3468 -15.65572,0 -28.3468,-12.69108 -28.3468,-28.3468 0,-15.65572 12.69108,-28.34682 28.3468,-28.34682 15.65571,0 28.34681,12.6911 28.34681,28.34682 z"
                 style="fill:#00adef;fill-opacity:0.4;fill-rule:nonzero;stroke:#ff0000;stroke-width:1.19553;stroke-linecap:butt;stroke-linejoin:miter;stroke-miterlimit:10;stroke-dasharray:none;stroke-opacity:1"
                 id="path1382" />
            </g>
            <g
               id="g1384">
              <g
                 id="g1386">
                <path
                   d="m 107.71796,-204.09694 v 124.72579 h 181.4194 v -124.72579 z"
                   style="fill:#ffffff;fill-opacity:0;fill-rule:nonzero;stroke:none"
                   id="path1388" />
              </g>
              <g
                 id="g1390">
                <path
                   d="M 113.38724,-198.42766 H 283.4681 m -170.08086,28.3468 H 283.4681 m -170.08086,28.34682 H 283.4681 m -170.08086,28.3468 H 283.4681 M 113.38724,-85.05038 H 283.4681 M 113.38724,-198.42766 v 113.38724 m 28.3468,-113.38724 v 113.38724 m 28.34682,-113.38724 v 113.38724 m 28.3468,-113.38724 v 113.38724 m 28.34682,-113.38724 v 113.38724 m 28.3468,-113.38724 v 113.38724 m 28.33685,-113.38724 v 113.38724"
                   style="fill:none;stroke:#808080;stroke-width:0.19925;stroke-linecap:butt;stroke-linejoin:miter;stroke-miterlimit:10;stroke-dasharray:none;stroke-opacity:1"
                   id="path1392" />
              </g>
              <path
                 d="M 113.38724,-141.73404 H 283.00981"
                 style="fill:none;stroke:#000000;stroke-width:0.3985;stroke-linecap:butt;stroke-linejoin:miter;stroke-miterlimit:10;stroke-dasharray:none;stroke-opacity:1"
                 id="path1394" />
              <g
                 id="g1396"
                 transform="translate(283.00981,-141.73404)">
                <g
                   id="g1398">
                  <path
                     d="M -1.19551,1.59401 C -1.09587,0.99626 0,0.09961 0.29886,0 0,-0.09961 -1.09587,-0.99626 -1.19551,-1.59401"
                     style="fill:none;stroke:#000000;stroke-width:0.31879;stroke-linecap:round;stroke-linejoin:round;stroke-miterlimit:10;stroke-dasharray:none;stroke-opacity:1"
                     id="path1400" />
                </g>
              </g>
              <path
                 d="M 198.42766,-198.42766 V -85.4987"
                 style="fill:none;stroke:#000000;stroke-width:0.3985;stroke-linecap:butt;stroke-linejoin:miter;stroke-miterlimit:10;stroke-dasharray:none;stroke-opacity:1"
                 id="path1402" />
              <g
                 id="g1404"
                 transform="rotate(90,141.96318,56.46448)">
                <g
                   id="g1406">
                  <path
                     d="M -1.19551,1.59401 C -1.09587,0.99626 0,0.09961 0.29886,0 0,-0.09961 -1.09587,-0.99626 -1.19551,-1.59401"
                     style="fill:none;stroke:#000000;stroke-width:0.31879;stroke-linecap:round;stroke-linejoin:round;stroke-miterlimit:10;stroke-dasharray:none;stroke-opacity:1"
                     id="path1408" />
                </g>
              </g>
              <g
                 id="g1410">
                <path
                   d="m 269.29468,-141.73404 c 0,15.65572 -12.6911,28.3468 -28.3468,28.3468 -15.65572,0 -28.34682,-12.69108 -28.34682,-28.3468 0,-15.65572 12.6911,-28.34682 28.34682,-28.34682 15.6557,0 28.3468,12.6911 28.3468,28.34682 z"
                   style="fill:#fff200;fill-opacity:0.4;fill-rule:nonzero;stroke:#ff0000;stroke-width:1.19553;stroke-linecap:butt;stroke-linejoin:miter;stroke-miterlimit:10;stroke-dasharray:none;stroke-opacity:1"
                   id="path1412" />
              </g>
            </g>
            <g
               id="g1414">
              <g
                 id="g1416">
                <path
                   d="m 306.14563,-204.09694 v 124.72579 h 181.4194 v -124.72579 z"
                   style="fill:#ffffff;fill-opacity:0;fill-rule:nonzero;stroke:none"
                   id="path1418" />
              </g>
              <g
                 id="g1420">
                <path
                   d="m 311.8149,-198.42766 h 170.08087 m -170.08087,28.3468 h 170.08087 m -170.08087,28.34682 h 170.08087 m -170.08087,28.3468 H 481.89577 M 311.8149,-85.05038 H 481.89577 M 311.8149,-198.42766 v 113.38724 m 28.34681,-113.38724 v 113.38724 m 28.3468,-113.38724 v 113.38724 m 28.34682,-113.38724 v 113.38724 m 28.3468,-113.38724 v 113.38724 m 28.34682,-113.38724 v 113.38724 m 28.33685,-113.38724 v 113.38724"
                   style="fill:none;stroke:#808080;stroke-width:0.19925;stroke-linecap:butt;stroke-linejoin:miter;stroke-miterlimit:10;stroke-dasharray:none;stroke-opacity:1"
                   id="path1422" />
              </g>
              <path
                 d="M 311.8149,-141.73404 H 481.43748"
                 style="fill:none;stroke:#000000;stroke-width:0.3985;stroke-linecap:butt;stroke-linejoin:miter;stroke-miterlimit:10;stroke-dasharray:none;stroke-opacity:1"
                 id="path1424" />
              <g
                 id="g1426"
                 transform="translate(481.43748,-141.73404)">
                <g
                   id="g1428">
                  <path
                     d="M -1.19551,1.59401 C -1.09587,0.99626 0,0.09961 0.29886,0 0,-0.09961 -1.09587,-0.99626 -1.19551,-1.59401"
                     style="fill:none;stroke:#000000;stroke-width:0.31879;stroke-linecap:round;stroke-linejoin:round;stroke-miterlimit:10;stroke-dasharray:none;stroke-opacity:1"
                     id="path1430" />
                </g>
              </g>
              <path
                 d="M 396.85533,-198.42766 V -85.4987"
                 style="fill:none;stroke:#000000;stroke-width:0.3985;stroke-linecap:butt;stroke-linejoin:miter;stroke-miterlimit:10;stroke-dasharray:none;stroke-opacity:1"
                 id="path1432" />
              <g
                 id="g1434"
                 transform="rotate(90,241.17701,155.67831)">
                <g
                   id="g1436">
                  <path
                     d="M -1.19551,1.59401 C -1.09587,0.99626 0,0.09961 0.29886,0 0,-0.09961 -1.09587,-0.99626 -1.19551,-1.59401"
                     style="fill:none;stroke:#000000;stroke-width:0.31879;stroke-linecap:round;stroke-linejoin:round;stroke-miterlimit:10;stroke-dasharray:none;stroke-opacity:1"
                     id="path1438" />
                </g>
              </g>
            </g>
          </g>
          <g
             id="g1440">
            <g
               id="g1442">
              <path
                 d="M -90.7097,-345.83098 V -221.1052 H 90.7097 v -124.72578 z"
                 style="fill:#ffffff;fill-opacity:0;fill-rule:nonzero;stroke:none"
                 id="path1444" />
            </g>
            <g
               id="g1446">
              <path
                 d="M -85.04042,-340.16171 H 85.04042 M -85.04042,-311.8149 H 85.04042 m -170.08084,28.3468 H 85.04042 m -170.08084,28.34682 H 85.04042 m -170.08084,28.33686 H 85.04042 M -85.04042,-340.16171 v 113.38723 m 28.3468,-113.38723 v 113.38723 m 28.34682,-113.38723 v 113.38723 M 0,-340.16171 v 113.38723 m 28.3468,-113.38723 v 113.38723 m 28.34682,-113.38723 v 113.38723 m 28.33685,-113.38723 v 113.38723"
                 style="fill:none;stroke:#808080;stroke-width:0.19925;stroke-linecap:butt;stroke-linejoin:miter;stroke-miterlimit:10;stroke-dasharray:none;stroke-opacity:1"
                 id="path1448" />
            </g>
            <path
               d="M -85.04042,-283.4681 H 84.58214"
               style="fill:none;stroke:#000000;stroke-width:0.3985;stroke-linecap:butt;stroke-linejoin:miter;stroke-miterlimit:10;stroke-dasharray:none;stroke-opacity:1"
               id="path1450" />
            <g
               id="g1452"
               transform="translate(84.58214,-283.4681)">
              <g
                 id="g1454">
                <path
                   d="M -1.19551,1.59401 C -1.09587,0.99626 0,0.09961 0.29886,0 0,-0.09961 -1.09587,-0.99626 -1.19551,-1.59401"
                   style="fill:none;stroke:#000000;stroke-width:0.31879;stroke-linecap:round;stroke-linejoin:round;stroke-miterlimit:10;stroke-dasharray:none;stroke-opacity:1"
                   id="path1456" />
              </g>
            </g>
            <path
               d="m 0,-340.16171 v 112.92895"
               style="fill:none;stroke:#000000;stroke-width:0.3985;stroke-linecap:butt;stroke-linejoin:miter;stroke-miterlimit:10;stroke-dasharray:none;stroke-opacity:1"
               id="path1458" />
            <g
               id="g1460"
               transform="rotate(90,113.61638,-113.61638)">
              <g
                 id="g1462">
                <path
                   d="M -1.19551,1.59401 C -1.09587,0.99626 0,0.09961 0.29886,0 0,-0.09961 -1.09587,-0.99626 -1.19551,-1.59401"
                   style="fill:none;stroke:#000000;stroke-width:0.31879;stroke-linecap:round;stroke-linejoin:round;stroke-miterlimit:10;stroke-dasharray:none;stroke-opacity:1"
                   id="path1464" />
              </g>
            </g>
            <g
               id="g1466">
              <path
                 d="m 11.33856,-283.4681 c 0,15.65572 -12.69108,28.34682 -28.3468,28.34682 -15.65572,0 -28.34682,-12.6911 -28.34682,-28.34682 0,-15.65571 12.6911,-28.3468 28.34682,-28.3468 15.65572,0 28.3468,12.69109 28.3468,28.3468 z"
                 style="fill:#00adef;fill-opacity:0.4;fill-rule:nonzero;stroke:#ff0000;stroke-width:1.19553;stroke-linecap:butt;stroke-linejoin:miter;stroke-miterlimit:10;stroke-dasharray:none;stroke-opacity:1"
                 id="path1468" />
            </g>
            <g
               id="g1470">
              <g
                 id="g1472">
                <path
                   d="m 107.71796,-345.83098 v 124.72578 h 181.4194 v -124.72578 z"
                   style="fill:#ffffff;fill-opacity:0;fill-rule:nonzero;stroke:none"
                   id="path1474" />
              </g>
              <g
                 id="g1476">
                <path
                   d="M 113.38724,-340.16171 H 283.4681 M 113.38724,-311.8149 H 283.4681 m -170.08086,28.3468 H 283.4681 m -170.08086,28.34682 H 283.4681 m -170.08086,28.33686 H 283.4681 M 113.38724,-340.16171 v 113.38723 m 28.3468,-113.38723 v 113.38723 m 28.34682,-113.38723 v 113.38723 m 28.3468,-113.38723 v 113.38723 m 28.34682,-113.38723 v 113.38723 m 28.3468,-113.38723 v 113.38723 m 28.33685,-113.38723 v 113.38723"
                   style="fill:none;stroke:#808080;stroke-width:0.19925;stroke-linecap:butt;stroke-linejoin:miter;stroke-miterlimit:10;stroke-dasharray:none;stroke-opacity:1"
                   id="path1478" />
              </g>
              <path
                 d="M 113.38724,-283.4681 H 283.00981"
                 style="fill:none;stroke:#000000;stroke-width:0.3985;stroke-linecap:butt;stroke-linejoin:miter;stroke-miterlimit:10;stroke-dasharray:none;stroke-opacity:1"
                 id="path1480" />
              <g
                 id="g1482"
                 transform="translate(283.00981,-283.4681)">
                <g
                   id="g1484">
                  <path
                     d="M -1.19551,1.59401 C -1.09587,0.99626 0,0.09961 0.29886,0 0,-0.09961 -1.09587,-0.99626 -1.19551,-1.59401"
                     style="fill:none;stroke:#000000;stroke-width:0.31879;stroke-linecap:round;stroke-linejoin:round;stroke-miterlimit:10;stroke-dasharray:none;stroke-opacity:1"
                     id="path1486" />
                </g>
              </g>
              <path
                 d="m 198.42766,-340.16171 v 112.92895"
                 style="fill:none;stroke:#000000;stroke-width:0.3985;stroke-linecap:butt;stroke-linejoin:miter;stroke-miterlimit:10;stroke-dasharray:none;stroke-opacity:1"
                 id="path1488" />
              <g
                 id="g1490"
                 transform="rotate(90,212.83021,-14.40255)">
                <g
                   id="g1492">
                  <path
                     d="M -1.19551,1.59401 C -1.09587,0.99626 0,0.09961 0.29886,0 0,-0.09961 -1.09587,-0.99626 -1.19551,-1.59401"
                     style="fill:none;stroke:#000000;stroke-width:0.31879;stroke-linecap:round;stroke-linejoin:round;stroke-miterlimit:10;stroke-dasharray:none;stroke-opacity:1"
                     id="path1494" />
                </g>
              </g>
              <g
                 id="g1496">
                <path
                   d="m 243.78271,-283.4681 c 0,15.65572 -12.6911,28.34682 -28.3468,28.34682 -15.65571,0 -28.34681,-12.6911 -28.34681,-28.34682 0,-15.65571 12.6911,-28.3468 28.34681,-28.3468 15.6557,0 28.3468,12.69109 28.3468,28.3468 z"
                   style="fill:#fff200;fill-opacity:0.4;fill-rule:nonzero;stroke:#ff0000;stroke-width:1.19553;stroke-linecap:butt;stroke-linejoin:miter;stroke-miterlimit:10;stroke-dasharray:none;stroke-opacity:1"
                   id="path1498" />
              </g>
            </g>
            <g
               id="g1500">
              <g
                 id="g1502">
                <path
                   d="m 306.14563,-345.83098 v 124.72578 h 181.4194 v -124.72578 z"
                   style="fill:#ffffff;fill-opacity:0;fill-rule:nonzero;stroke:none"
                   id="path1504" />
              </g>
              <g
                 id="g1506">
                <path
                   d="M 311.8149,-340.16171 H 481.89577 M 311.8149,-311.8149 H 481.89577 M 311.8149,-283.4681 H 481.89577 M 311.8149,-255.12128 H 481.89577 M 311.8149,-226.78442 H 481.89577 M 311.8149,-340.16171 v 113.38723 m 28.34681,-113.38723 v 113.38723 m 28.3468,-113.38723 v 113.38723 m 28.34682,-113.38723 v 113.38723 m 28.3468,-113.38723 v 113.38723 m 28.34682,-113.38723 v 113.38723 m 28.33685,-113.38723 v 113.38723"
                   style="fill:none;stroke:#808080;stroke-width:0.19925;stroke-linecap:butt;stroke-linejoin:miter;stroke-miterlimit:10;stroke-dasharray:none;stroke-opacity:1"
                   id="path1508" />
              </g>
              <path
                 d="M 311.8149,-283.4681 H 481.43748"
                 style="fill:none;stroke:#000000;stroke-width:0.3985;stroke-linecap:butt;stroke-linejoin:miter;stroke-miterlimit:10;stroke-dasharray:none;stroke-opacity:1"
                 id="path1510" />
              <g
                 id="g1512"
                 transform="translate(481.43748,-283.4681)">
                <g
                   id="g1514">
                  <path
                     d="M -1.19551,1.59401 C -1.09587,0.99626 0,0.09961 0.29886,0 0,-0.09961 -1.09587,-0.99626 -1.19551,-1.59401"
                     style="fill:none;stroke:#000000;stroke-width:0.31879;stroke-linecap:round;stroke-linejoin:round;stroke-miterlimit:10;stroke-dasharray:none;stroke-opacity:1"
                     id="path1516" />
                </g>
              </g>
              <path
                 d="m 396.85533,-340.16171 v 112.92895"
                 style="fill:none;stroke:#000000;stroke-width:0.3985;stroke-linecap:butt;stroke-linejoin:miter;stroke-miterlimit:10;stroke-dasharray:none;stroke-opacity:1"
                 id="path1518" />
              <g
                 id="g1520"
                 transform="rotate(90,312.04404,84.811285)">
                <g
                   id="g1522">
                  <path
                     d="M -1.19551,1.59401 C -1.09587,0.99626 0,0.09961 0.29886,0 0,-0.09961 -1.09587,-0.99626 -1.19551,-1.59401"
                     style="fill:none;stroke:#000000;stroke-width:0.31879;stroke-linecap:round;stroke-linejoin:round;stroke-miterlimit:10;stroke-dasharray:none;stroke-opacity:1"
                     id="path1524" />
                </g>
              </g>
              <g
                 id="g1526">
                <path
                   d="m 396.8562,-260.79144 c -8.10055,-6.07543 -12.34595,-16.01384 -11.13527,-26.06686 0.92475,-7.67669 4.94956,-14.64748 11.13527,-19.28644 m -0.002,0 c 8.10056,6.07542 12.34594,16.01384 11.13527,26.06687 -0.92476,7.67669 -4.94955,14.64748 -11.13527,19.28643"
                   style="fill:#00ff00;fill-opacity:0.4;fill-rule:nonzero;stroke:#ff0000;stroke-width:1.19553;stroke-linecap:butt;stroke-linejoin:miter;stroke-miterlimit:10;stroke-dasharray:none;stroke-opacity:1"
                   id="path1528" />
              </g>
            </g>
          </g>
          <g
             id="g1530">
            <g
               id="g1532">
              <path
                 d="m -90.7097,-487.56503 v 124.72578 H 90.7097 v -124.72578 z"
                 style="fill:#ffffff;fill-opacity:0;fill-rule:nonzero;stroke:none"
                 id="path1534" />
            </g>
            <g
               id="g1536">
              <path
                 d="M -85.04042,-481.89577 H 85.04042 m -170.08084,28.34682 H 85.04042 m -170.08084,28.34682 H 85.04042 m -170.08084,28.3468 H 85.04042 m -170.08084,28.33685 H 85.04042 M -85.04042,-481.89577 v 113.38726 m 28.3468,-113.38726 v 113.38726 m 28.34682,-113.38726 v 113.38726 M 0,-481.89577 v 113.38726 m 28.3468,-113.38726 v 113.38726 m 28.34682,-113.38726 v 113.38726 m 28.33685,-113.38726 v 113.38726"
                 style="fill:none;stroke:#808080;stroke-width:0.19925;stroke-linecap:butt;stroke-linejoin:miter;stroke-miterlimit:10;stroke-dasharray:none;stroke-opacity:1"
                 id="path1538" />
            </g>
            <path
               d="M -85.04042,-425.20213 H 84.58214"
               style="fill:none;stroke:#000000;stroke-width:0.3985;stroke-linecap:butt;stroke-linejoin:miter;stroke-miterlimit:10;stroke-dasharray:none;stroke-opacity:1"
               id="path1540" />
            <g
               id="g1542"
               transform="translate(84.58214,-425.20213)">
              <g
                 id="g1544">
                <path
                   d="M -1.19551,1.59401 C -1.09587,0.99626 0,0.09961 0.29886,0 0,-0.09961 -1.09587,-0.99626 -1.19551,-1.59401"
                   style="fill:none;stroke:#000000;stroke-width:0.31879;stroke-linecap:round;stroke-linejoin:round;stroke-miterlimit:10;stroke-dasharray:none;stroke-opacity:1"
                   id="path1546" />
              </g>
            </g>
            <path
               d="M 0,-481.89577 V -368.9668"
               style="fill:none;stroke:#000000;stroke-width:0.3985;stroke-linecap:butt;stroke-linejoin:miter;stroke-miterlimit:10;stroke-dasharray:none;stroke-opacity:1"
               id="path1548" />
            <g
               id="g1550"
               transform="rotate(90,184.4834,-184.4834)">
              <g
                 id="g1552">
                <path
                   d="M -1.19551,1.59401 C -1.09587,0.99626 0,0.09961 0.29886,0 0,-0.09961 -1.09587,-0.99626 -1.19551,-1.59401"
                   style="fill:none;stroke:#000000;stroke-width:0.31879;stroke-linecap:round;stroke-linejoin:round;stroke-miterlimit:10;stroke-dasharray:none;stroke-opacity:1"
                   id="path1554" />
              </g>
            </g>
            <g
               id="g1556">
              <path
                 d="m 42.5202,-425.20213 c 0,23.48355 -19.03665,42.5202 -42.5202,42.5202 -23.48355,0 -42.5202,-19.03665 -42.5202,-42.5202 0,-23.48357 19.03665,-42.52022 42.5202,-42.52022 23.48355,0 42.5202,19.03665 42.5202,42.52022 z"
                 style="fill:#00adef;fill-opacity:0.4;fill-rule:nonzero;stroke:#ff0000;stroke-width:1.19553;stroke-linecap:butt;stroke-linejoin:miter;stroke-miterlimit:10;stroke-dasharray:none;stroke-opacity:1"
                 id="path1558" />
            </g>
            <g
               id="g1560">
              <g
                 id="g1562">
                <path
                   d="m 107.71796,-487.56503 v 124.72578 h 181.4194 v -124.72578 z"
                   style="fill:#ffffff;fill-opacity:0;fill-rule:nonzero;stroke:none"
                   id="path1564" />
              </g>
              <g
                 id="g1566">
                <path
                   d="M 113.38724,-481.89577 H 283.4681 m -170.08086,28.34682 H 283.4681 m -170.08086,28.34682 H 283.4681 m -170.08086,28.3468 H 283.4681 m -170.08086,28.33685 H 283.4681 M 113.38724,-481.89577 v 113.38726 m 28.3468,-113.38726 v 113.38726 m 28.34682,-113.38726 v 113.38726 m 28.3468,-113.38726 v 113.38726 m 28.34682,-113.38726 v 113.38726 m 28.3468,-113.38726 v 113.38726 m 28.33685,-113.38726 v 113.38726"
                   style="fill:none;stroke:#808080;stroke-width:0.19925;stroke-linecap:butt;stroke-linejoin:miter;stroke-miterlimit:10;stroke-dasharray:none;stroke-opacity:1"
                   id="path1568" />
              </g>
              <path
                 d="M 113.38724,-425.20213 H 283.00981"
                 style="fill:none;stroke:#000000;stroke-width:0.3985;stroke-linecap:butt;stroke-linejoin:miter;stroke-miterlimit:10;stroke-dasharray:none;stroke-opacity:1"
                 id="path1570" />
              <g
                 id="g1572"
                 transform="translate(283.00981,-425.20213)">
                <g
                   id="g1574">
                  <path
                     d="M -1.19551,1.59401 C -1.09587,0.99626 0,0.09961 0.29886,0 0,-0.09961 -1.09587,-0.99626 -1.19551,-1.59401"
                     style="fill:none;stroke:#000000;stroke-width:0.31879;stroke-linecap:round;stroke-linejoin:round;stroke-miterlimit:10;stroke-dasharray:none;stroke-opacity:1"
                     id="path1576" />
                </g>
              </g>
              <path
                 d="M 198.42766,-481.89577 V -368.9668"
                 style="fill:none;stroke:#000000;stroke-width:0.3985;stroke-linecap:butt;stroke-linejoin:miter;stroke-miterlimit:10;stroke-dasharray:none;stroke-opacity:1"
                 id="path1578" />
              <g
                 id="g1580"
                 transform="rotate(90,283.69723,-85.26957)">
                <g
                   id="g1582">
                  <path
                     d="M -1.19551,1.59401 C -1.09587,0.99626 0,0.09961 0.29886,0 0,-0.09961 -1.09587,-0.99626 -1.19551,-1.59401"
                     style="fill:none;stroke:#000000;stroke-width:0.31879;stroke-linecap:round;stroke-linejoin:round;stroke-miterlimit:10;stroke-dasharray:none;stroke-opacity:1"
                     id="path1584" />
                </g>
              </g>
              <g
                 id="g1586">
                <path
                   d="m 221.10518,-425.20213 c 0,12.52459 -10.15291,22.67752 -22.67752,22.67752 -12.5246,0 -22.67752,-10.15293 -22.67752,-22.67752 0,-12.52462 10.15292,-22.67752 22.67752,-22.67752 12.52461,0 22.67752,10.1529 22.67752,22.67752 z"
                   style="fill:#fff200;fill-opacity:0.4;fill-rule:nonzero;stroke:#ff0000;stroke-width:1.19553;stroke-linecap:butt;stroke-linejoin:miter;stroke-miterlimit:10;stroke-dasharray:none;stroke-opacity:1"
                   id="path1588" />
              </g>
            </g>
            <g
               id="g1590">
              <g
                 id="g1592">
                <path
                   d="m 306.14563,-487.56503 v 124.72578 h 181.4194 v -124.72578 z"
                   style="fill:#ffffff;fill-opacity:0;fill-rule:nonzero;stroke:none"
                   id="path1594" />
              </g>
              <g
                 id="g1596">
                <path
                   d="m 311.8149,-481.89577 h 170.08087 m -170.08087,28.34682 h 170.08087 m -170.08087,28.34682 h 170.08087 m -170.08087,28.3468 H 481.89577 M 311.8149,-368.51848 H 481.89577 M 311.8149,-481.89577 v 113.38726 m 28.34681,-113.38726 v 113.38726 m 28.3468,-113.38726 v 113.38726 m 28.34682,-113.38726 v 113.38726 m 28.3468,-113.38726 v 113.38726 m 28.34682,-113.38726 v 113.38726 m 28.33685,-113.38726 v 113.38726"
                   style="fill:none;stroke:#808080;stroke-width:0.19925;stroke-linecap:butt;stroke-linejoin:miter;stroke-miterlimit:10;stroke-dasharray:none;stroke-opacity:1"
                   id="path1598" />
              </g>
              <path
                 d="M 311.8149,-425.20213 H 481.43748"
                 style="fill:none;stroke:#000000;stroke-width:0.3985;stroke-linecap:butt;stroke-linejoin:miter;stroke-miterlimit:10;stroke-dasharray:none;stroke-opacity:1"
                 id="path1600" />
              <g
                 id="g1602"
                 transform="translate(481.43748,-425.20213)">
                <g
                   id="g1604">
                  <path
                     d="M -1.19551,1.59401 C -1.09587,0.99626 0,0.09961 0.29886,0 0,-0.09961 -1.09587,-0.99626 -1.19551,-1.59401"
                     style="fill:none;stroke:#000000;stroke-width:0.31879;stroke-linecap:round;stroke-linejoin:round;stroke-miterlimit:10;stroke-dasharray:none;stroke-opacity:1"
                     id="path1606" />
                </g>
              </g>
              <path
                 d="M 396.85533,-481.89577 V -368.9668"
                 style="fill:none;stroke:#000000;stroke-width:0.3985;stroke-linecap:butt;stroke-linejoin:miter;stroke-miterlimit:10;stroke-dasharray:none;stroke-opacity:1"
                 id="path1608" />
              <g
                 id="g1610"
                 transform="rotate(90,382.91106,13.944265)">
                <g
                   id="g1612">
                  <path
                     d="M -1.19551,1.59401 C -1.09587,0.99626 0,0.09961 0.29886,0 0,-0.09961 -1.09587,-0.99626 -1.19551,-1.59401"
                     style="fill:none;stroke:#000000;stroke-width:0.31879;stroke-linecap:round;stroke-linejoin:round;stroke-miterlimit:10;stroke-dasharray:none;stroke-opacity:1"
                     id="path1614" />
                </g>
              </g>
              <g
                 id="g1616">
                <path
                   d="m 419.53285,-425.20213 c 0,12.52459 -10.15291,22.67752 -22.67752,22.67752 -12.52461,0 -22.67752,-10.15293 -22.67752,-22.67752 0,-12.52462 10.15291,-22.67752 22.67752,-22.67752 12.52461,0 22.67752,10.1529 22.67752,22.67752 z"
                   style="fill:#00ff00;fill-opacity:0.4;fill-rule:nonzero;stroke:#ff0000;stroke-width:1.19553;stroke-linecap:butt;stroke-linejoin:miter;stroke-miterlimit:10;stroke-dasharray:none;stroke-opacity:1"
                   id="path1618" />
              </g>
            </g>
          </g>
          <g
             id="g1620">
            <g
               id="g1622">
              <path
                 d="M -90.7097,-629.29909 V -504.5733 H 90.7097 v -124.72579 z"
                 style="fill:#ffffff;fill-opacity:0;fill-rule:nonzero;stroke:none"
                 id="path1624" />
            </g>
            <g
               id="g1626">
              <path
                 d="M -85.04042,-623.6298 H 85.04042 M -85.04042,-595.283 H 85.04042 m -170.08084,28.34681 H 85.04042 m -170.08084,28.3468 H 85.04042 m -170.08084,28.33686 H 85.04042 M -85.04042,-623.6298 v 113.38723 m 28.3468,-113.38723 v 113.38723 M -28.3468,-623.6298 v 113.38723 M 0,-623.6298 v 113.38723 M 28.3468,-623.6298 v 113.38723 M 56.69362,-623.6298 v 113.38723 M 85.03047,-623.6298 v 113.38723"
                 style="fill:none;stroke:#808080;stroke-width:0.19925;stroke-linecap:butt;stroke-linejoin:miter;stroke-miterlimit:10;stroke-dasharray:none;stroke-opacity:1"
                 id="path1628" />
            </g>
            <path
               d="M -85.04042,-566.93619 H 84.58214"
               style="fill:none;stroke:#000000;stroke-width:0.3985;stroke-linecap:butt;stroke-linejoin:miter;stroke-miterlimit:10;stroke-dasharray:none;stroke-opacity:1"
               id="path1630" />
            <g
               id="g1632"
               transform="translate(84.58214,-566.93619)">
              <g
                 id="g1634">
                <path
                   d="M -1.19551,1.59401 C -1.09587,0.99626 0,0.09961 0.29886,0 0,-0.09961 -1.09587,-0.99626 -1.19551,-1.59401"
                   style="fill:none;stroke:#000000;stroke-width:0.31879;stroke-linecap:round;stroke-linejoin:round;stroke-miterlimit:10;stroke-dasharray:none;stroke-opacity:1"
                   id="path1636" />
              </g>
            </g>
            <path
               d="m 0,-623.6298 v 112.92895"
               style="fill:none;stroke:#000000;stroke-width:0.3985;stroke-linecap:butt;stroke-linejoin:miter;stroke-miterlimit:10;stroke-dasharray:none;stroke-opacity:1"
               id="path1638" />
            <g
               id="g1640"
               transform="rotate(90,255.35042,-255.35042)">
              <g
                 id="g1642">
                <path
                   d="M -1.19551,1.59401 C -1.09587,0.99626 0,0.09961 0.29886,0 0,-0.09961 -1.09587,-0.99626 -1.19551,-1.59401"
                   style="fill:none;stroke:#000000;stroke-width:0.31879;stroke-linecap:round;stroke-linejoin:round;stroke-miterlimit:10;stroke-dasharray:none;stroke-opacity:1"
                   id="path1644" />
              </g>
            </g>
            <g
               id="g1646">
              <path
                 d="m 22.67752,-566.93619 c 0,12.5246 -10.15292,22.67752 -22.67752,22.67752 -12.5246,0 -22.67752,-10.15292 -22.67752,-22.67752 0,-12.52461 10.15292,-22.67752 22.67752,-22.67752 12.5246,0 22.67752,10.15291 22.67752,22.67752 z"
                 style="fill:#00adef;fill-opacity:0.4;fill-rule:nonzero;stroke:#ff0000;stroke-width:1.19553;stroke-linecap:butt;stroke-linejoin:miter;stroke-miterlimit:10;stroke-dasharray:none;stroke-opacity:1"
                 id="path1648" />
            </g>
            <g
               id="g1650">
              <g
                 id="g1652">
                <path
                   d="m 107.71796,-629.29909 v 124.72579 h 181.4194 v -124.72579 z"
                   style="fill:#ffffff;fill-opacity:0;fill-rule:nonzero;stroke:none"
                   id="path1654" />
              </g>
              <g
                 id="g1656">
                <path
                   d="M 113.38724,-623.6298 H 283.4681 M 113.38724,-595.283 H 283.4681 m -170.08086,28.34681 H 283.4681 m -170.08086,28.3468 H 283.4681 m -170.08086,28.33686 H 283.4681 M 113.38724,-623.6298 v 113.38723 m 28.3468,-113.38723 v 113.38723 m 28.34682,-113.38723 v 113.38723 m 28.3468,-113.38723 v 113.38723 m 28.34682,-113.38723 v 113.38723 m 28.3468,-113.38723 v 113.38723 m 28.33685,-113.38723 v 113.38723"
                   style="fill:none;stroke:#808080;stroke-width:0.19925;stroke-linecap:butt;stroke-linejoin:miter;stroke-miterlimit:10;stroke-dasharray:none;stroke-opacity:1"
                   id="path1658" />
              </g>
              <path
                 d="M 113.38724,-566.93619 H 283.00981"
                 style="fill:none;stroke:#000000;stroke-width:0.3985;stroke-linecap:butt;stroke-linejoin:miter;stroke-miterlimit:10;stroke-dasharray:none;stroke-opacity:1"
                 id="path1660" />
              <g
                 id="g1662"
                 transform="translate(283.00981,-566.93619)">
                <g
                   id="g1664">
                  <path
                     d="M -1.19551,1.59401 C -1.09587,0.99626 0,0.09961 0.29886,0 0,-0.09961 -1.09587,-0.99626 -1.19551,-1.59401"
                     style="fill:none;stroke:#000000;stroke-width:0.31879;stroke-linecap:round;stroke-linejoin:round;stroke-miterlimit:10;stroke-dasharray:none;stroke-opacity:1"
                     id="path1666" />
                </g>
              </g>
              <path
                 d="m 198.42766,-623.6298 v 112.92895"
                 style="fill:none;stroke:#000000;stroke-width:0.3985;stroke-linecap:butt;stroke-linejoin:miter;stroke-miterlimit:10;stroke-dasharray:none;stroke-opacity:1"
                 id="path1668" />
              <g
                 id="g1670"
                 transform="rotate(90,354.56425,-156.13659)">
                <g
                   id="g1672">
                  <path
                     d="M -1.19551,1.59401 C -1.09587,0.99626 0,0.09961 0.29886,0 0,-0.09961 -1.09587,-0.99626 -1.19551,-1.59401"
                     style="fill:none;stroke:#000000;stroke-width:0.31879;stroke-linecap:round;stroke-linejoin:round;stroke-miterlimit:10;stroke-dasharray:none;stroke-opacity:1"
                     id="path1674" />
                </g>
              </g>
              <g
                 id="g1676">
                <path
                   d="m 240.94788,-566.93619 c 0,23.48355 -19.03666,42.5202 -42.52022,42.5202 -23.48356,0 -42.5202,-19.03665 -42.5202,-42.5202 0,-23.48356 19.03664,-42.5202 42.5202,-42.5202 23.48356,0 42.52022,19.03664 42.52022,42.5202 z"
                   style="fill:#fff200;fill-opacity:0.4;fill-rule:nonzero;stroke:#ff0000;stroke-width:1.19553;stroke-linecap:butt;stroke-linejoin:miter;stroke-miterlimit:10;stroke-dasharray:none;stroke-opacity:1"
                   id="path1678" />
              </g>
            </g>
            <g
               id="g1680">
              <g
                 id="g1682">
                <path
                   d="m 306.14563,-629.29909 v 124.72579 h 181.4194 v -124.72579 z"
                   style="fill:#ffffff;fill-opacity:0;fill-rule:nonzero;stroke:none"
                   id="path1684" />
              </g>
              <g
                 id="g1686">
                <path
                   d="M 311.8149,-623.6298 H 481.89577 M 311.8149,-595.283 h 170.08087 m -170.08087,28.34681 h 170.08087 m -170.08087,28.3468 H 481.89577 M 311.8149,-510.25253 H 481.89577 M 311.8149,-623.6298 v 113.38723 m 28.34681,-113.38723 v 113.38723 m 28.3468,-113.38723 v 113.38723 m 28.34682,-113.38723 v 113.38723 m 28.3468,-113.38723 v 113.38723 m 28.34682,-113.38723 v 113.38723 M 481.8858,-623.6298 v 113.38723"
                   style="fill:none;stroke:#808080;stroke-width:0.19925;stroke-linecap:butt;stroke-linejoin:miter;stroke-miterlimit:10;stroke-dasharray:none;stroke-opacity:1"
                   id="path1688" />
              </g>
              <path
                 d="M 311.8149,-566.93619 H 481.43748"
                 style="fill:none;stroke:#000000;stroke-width:0.3985;stroke-linecap:butt;stroke-linejoin:miter;stroke-miterlimit:10;stroke-dasharray:none;stroke-opacity:1"
                 id="path1690" />
              <g
                 id="g1692"
                 transform="translate(481.43748,-566.93619)">
                <g
                   id="g1694">
                  <path
                     d="M -1.19551,1.59401 C -1.09587,0.99626 0,0.09961 0.29886,0 0,-0.09961 -1.09587,-0.99626 -1.19551,-1.59401"
                     style="fill:none;stroke:#000000;stroke-width:0.31879;stroke-linecap:round;stroke-linejoin:round;stroke-miterlimit:10;stroke-dasharray:none;stroke-opacity:1"
                     id="path1696" />
                </g>
              </g>
              <path
                 d="m 396.85533,-623.6298 v 112.92895"
                 style="fill:none;stroke:#000000;stroke-width:0.3985;stroke-linecap:butt;stroke-linejoin:miter;stroke-miterlimit:10;stroke-dasharray:none;stroke-opacity:1"
                 id="path1698" />
              <g
                 id="g1700"
                 transform="rotate(90,453.77809,-56.92276)">
                <g
                   id="g1702">
                  <path
                     d="M -1.19551,1.59401 C -1.09587,0.99626 0,0.09961 0.29886,0 0,-0.09961 -1.09587,-0.99626 -1.19551,-1.59401"
                     style="fill:none;stroke:#000000;stroke-width:0.31879;stroke-linecap:round;stroke-linejoin:round;stroke-miterlimit:10;stroke-dasharray:none;stroke-opacity:1"
                     id="path1704" />
                </g>
              </g>
              <g
                 id="g1706">
                <path
                   d="m 419.53285,-566.93619 c 0,12.5246 -10.15291,22.67752 -22.67752,22.67752 -12.52461,0 -22.67752,-10.15292 -22.67752,-22.67752 0,-12.52461 10.15291,-22.67752 22.67752,-22.67752 12.52461,0 22.67752,10.15291 22.67752,22.67752 z"
                   style="fill:#00ff00;fill-opacity:0.4;fill-rule:nonzero;stroke:#ff0000;stroke-width:1.19553;stroke-linecap:butt;stroke-linejoin:miter;stroke-miterlimit:10;stroke-dasharray:none;stroke-opacity:1"
                   id="path1708" />
              </g>
            </g>
          </g>
        </g>
      </g>
    </g>
  </g>
</svg>
