<?xml version="1.0" encoding="UTF-8" standalone="no"?>
<!-- Created with Inkscape (http://www.inkscape.org/) -->

<svg
   version="1.1"
   id="svg330"
   width="166.30101"
   height="166.30103"
   viewBox="0 0 166.30101 166.30103"
   sodipodi:docname="diamond.pdf"
   xmlns:inkscape="http://www.inkscape.org/namespaces/inkscape"
   xmlns:sodipodi="http://sodipodi.sourceforge.net/DTD/sodipodi-0.dtd"
   xmlns="http://www.w3.org/2000/svg"
   xmlns:svg="http://www.w3.org/2000/svg">
  <defs
     id="defs334" />
  <sodipodi:namedview
     id="namedview332"
     pagecolor="#ffffff"
     bordercolor="#000000"
     borderopacity="0.25"
     inkscape:showpageshadow="2"
     inkscape:pageopacity="0.0"
     inkscape:pagecheckerboard="0"
     inkscape:deskcolor="#d1d1d1"
     showgrid="false" />
  <g
     id="g338"
     inkscape:groupmode="layer"
     inkscape:label="Page 1"
     transform="matrix(1.3333333,0,0,-1.3333333,0.00117333,166.29984)">
    <g
       id="g340"
       transform="translate(62.362,62.362)">
      <g
         id="g342">
        <g
           id="g344">
          <g
             id="g346">
            <path
               d="M -62.36288,-62.36288 V 62.36288 H 62.36288 V -62.36288 Z"
               style="fill:#ffffff;fill-opacity:1;fill-rule:nonzero;stroke:none"
               id="path348" />
          </g>
          <g
             id="g350">
            <path
               d="M -56.69362,-56.69362 H 56.69362 M -56.69362,-28.3468 H 56.69362 M -56.69362,0 H 56.69362 M -56.69362,28.3468 H 56.69362 M -56.69362,56.68365 H 56.69362 M -56.69362,-56.69362 V 56.69362 M -28.3468,-56.69362 V 56.69362 M 0,-56.69362 V 56.69362 M 28.3468,-56.69362 V 56.69362 M 56.68365,-56.69362 V 56.69362"
               style="fill:none;stroke:#808080;stroke-width:0.19925;stroke-linecap:butt;stroke-linejoin:miter;stroke-miterlimit:10;stroke-dasharray:none;stroke-opacity:1"
               id="path352" />
          </g>
          <path
             d="M -56.69362,0 H 56.23534"
             style="fill:none;stroke:#000000;stroke-width:0.3985;stroke-linecap:butt;stroke-linejoin:miter;stroke-miterlimit:10;stroke-dasharray:none;stroke-opacity:1"
             id="path354" />
          <g
             id="g356"
             transform="translate(56.23534)">
            <g
               id="g358">
              <path
                 d="M -1.19551,1.59401 C -1.09587,0.99626 0,0.09961 0.29886,0 0,-0.09961 -1.09587,-0.99626 -1.19551,-1.59401"
                 style="fill:none;stroke:#000000;stroke-width:0.31879;stroke-linecap:round;stroke-linejoin:round;stroke-miterlimit:10;stroke-dasharray:none;stroke-opacity:1"
                 id="path360" />
            </g>
          </g>
          <path
             d="M 0,-56.69362 V 56.23534"
             style="fill:none;stroke:#000000;stroke-width:0.3985;stroke-linecap:butt;stroke-linejoin:miter;stroke-miterlimit:10;stroke-dasharray:none;stroke-opacity:1"
             id="path362" />
          <g
             id="g364"
             transform="rotate(90,-28.11767,28.11767)">
            <g
               id="g366">
              <path
                 d="M -1.19551,1.59401 C -1.09587,0.99626 0,0.09961 0.29886,0 0,-0.09961 -1.09587,-0.99626 -1.19551,-1.59401"
                 style="fill:none;stroke:#000000;stroke-width:0.31879;stroke-linecap:round;stroke-linejoin:round;stroke-miterlimit:10;stroke-dasharray:none;stroke-opacity:1"
                 id="path368" />
            </g>
          </g>
          <g
             id="g370">
            <path
               d="M 28.3468,0 0.35222,27.99457 C 0.1577,28.1891 -0.22302,28.3468 -0.49814,28.3468 h -27.35052 c -0.27512,0 -0.3984,-0.19946 -0.27539,-0.44551 l 27.9013,-55.80258 c 0.12302,-0.24605 0.38045,-0.28781 0.57497,-0.09328 L 28.3468,0"
               style="fill:#00ff00;fill-opacity:0.4;fill-rule:nonzero;stroke:#ff0000;stroke-width:1.19553;stroke-linecap:butt;stroke-linejoin:miter;stroke-miterlimit:10;stroke-dasharray:none;stroke-opacity:1"
               id="path372" />
          </g>
        </g>
      </g>
    </g>
  </g>
</svg>
