<?xml version="1.0" encoding="UTF-8" standalone="no"?>
<!-- Created with Inkscape (http://www.inkscape.org/) -->

<svg
   version="1.1"
   id="svg2"
   width="771.03296"
   height="782.37183"
   viewBox="0 0 771.03295 782.37183"
   sodipodi:docname="or_table.pdf"
   xmlns:inkscape="http://www.inkscape.org/namespaces/inkscape"
   xmlns:sodipodi="http://sodipodi.sourceforge.net/DTD/sodipodi-0.dtd"
   xmlns="http://www.w3.org/2000/svg"
   xmlns:svg="http://www.w3.org/2000/svg">
  <defs
     id="defs6" />
  <sodipodi:namedview
     id="namedview4"
     pagecolor="#ffffff"
     bordercolor="#000000"
     borderopacity="0.25"
     inkscape:showpageshadow="2"
     inkscape:pageopacity="0.0"
     inkscape:pagecheckerboard="0"
     inkscape:deskcolor="#d1d1d1"
     showgrid="false" />
  <g
     id="g10"
     inkscape:groupmode="layer"
     inkscape:label="Page 1"
     transform="matrix(1.3333333,0,0,-1.3333333,9.333333e-4,782.36105)">
    <g
       id="g12"
       transform="translate(90.709,629.291)">
      <g
         id="g14">
        <g
           id="g16">
          <g
             id="g18">
            <path
               d="M -90.7097,-42.5202 H 345.83098 V -629.29907 H -90.7097 Z"
               style="fill:#ffffff;fill-opacity:1;fill-rule:nonzero;stroke:none"
               id="path20" />
          </g>
          <g
             id="g22">
            <g
               id="g24"
               transform="translate(-9.098,-65.162)">
              <g
                 id="g26">
                <g
                   id="g28"
                   transform="translate(-81.611,-564.129)">
                  <text
                     xml:space="preserve"
                     transform="matrix(1,0,0,-1,81.611,564.129)"
                     style="font-variant:normal;font-weight:normal;font-size:24.7871px;font-family:CMMI12;-inkscape-font-specification:CMMI12;writing-mode:lr-tb;fill:#000000;fill-opacity:1;fill-rule:nonzero;stroke:none"
                     id="text32"><tspan
                       x="0"
                       y="0"
                       id="tspan30">A</tspan></text>
                  <g
                     id="g34"
                     transform="translate(81.611,564.129)" />
                </g>
              </g>
              <g
                 id="g36"
                 transform="translate(9.098,65.162)" />
            </g>
          </g>
          <g
             id="g38">
            <g
               id="g40">
              <g
                 id="g42"
                 transform="translate(188.58,-65.162)">
                <g
                   id="g44">
                  <g
                     id="g46"
                     transform="translate(-279.289,-564.129)">
                    <text
                       xml:space="preserve"
                       transform="matrix(1,0,0,-1,279.289,564.129)"
                       style="font-variant:normal;font-weight:normal;font-size:24.7871px;font-family:CMMI12;-inkscape-font-specification:CMMI12;writing-mode:lr-tb;fill:#000000;fill-opacity:1;fill-rule:nonzero;stroke:none"
                       id="text50"><tspan
                         x="0"
                         y="0"
                         id="tspan48">B</tspan></text>
                    <g
                       id="g52"
                       transform="translate(279.289,564.129)" />
                  </g>
                </g>
                <g
                   id="g54"
                   transform="translate(-188.58,65.162)" />
              </g>
            </g>
          </g>
          <g
             id="g56">
            <g
               id="g58">
              <g
                 id="g60"
                 transform="translate(315.619,-65.162)">
                <g
                   id="g62">
                  <g
                     id="g64"
                     transform="translate(-406.328,-564.129)">
                    <text
                       xml:space="preserve"
                       transform="matrix(1,0,0,-1,406.328,564.129)"
                       style="font-variant:normal;font-weight:normal;font-size:24.7871px;font-family:CMMI12;-inkscape-font-specification:CMMI12;writing-mode:lr-tb;fill:#000000;fill-opacity:1;fill-rule:nonzero;stroke:none"
                       id="text68"><tspan
                         x="0"
                         y="0"
                         id="tspan66">A</tspan></text>
                    <text
                       xml:space="preserve"
                       transform="matrix(1,0,0,-1,430.03,564.129)"
                       style="font-variant:normal;font-weight:normal;font-size:24.7871px;font-family:CMSY10;-inkscape-font-specification:CMSY10;writing-mode:lr-tb;fill:#000000;fill-opacity:1;fill-rule:nonzero;stroke:none"
                       id="text72"><tspan
                         x="0"
                         y="0"
                         id="tspan70">∪</tspan></text>
                    <text
                       xml:space="preserve"
                       transform="matrix(1,0,0,-1,452.063,564.129)"
                       style="font-variant:normal;font-weight:normal;font-size:24.7871px;font-family:CMMI12;-inkscape-font-specification:CMMI12;writing-mode:lr-tb;fill:#000000;fill-opacity:1;fill-rule:nonzero;stroke:none"
                       id="text76"><tspan
                         x="0"
                         y="0"
                         id="tspan74">B</tspan></text>
                    <text
                       xml:space="preserve"
                       transform="matrix(1,0,0,-1,478.637,564.129)"
                       style="font-variant:normal;font-weight:normal;font-size:24.7871px;font-family:CMR17;-inkscape-font-specification:CMR17;writing-mode:lr-tb;fill:#000000;fill-opacity:1;fill-rule:nonzero;stroke:none"
                       id="text80"><tspan
                         x="0"
                         y="0"
                         id="tspan78">=</tspan></text>
                    <text
                       xml:space="preserve"
                       transform="matrix(1,0,0,-1,503.365,564.129)"
                       style="font-variant:normal;font-weight:normal;font-size:24.7871px;font-family:CMMI12;-inkscape-font-specification:CMMI12;writing-mode:lr-tb;fill:#000000;fill-opacity:1;fill-rule:nonzero;stroke:none"
                       id="text84"><tspan
                         x="0"
                         y="0"
                         id="tspan82">B</tspan></text>
                    <text
                       xml:space="preserve"
                       transform="matrix(1,0,0,-1,528.562,564.129)"
                       style="font-variant:normal;font-weight:normal;font-size:24.7871px;font-family:CMSY10;-inkscape-font-specification:CMSY10;writing-mode:lr-tb;fill:#000000;fill-opacity:1;fill-rule:nonzero;stroke:none"
                       id="text88"><tspan
                         x="0"
                         y="0"
                         id="tspan86">∪</tspan></text>
                    <text
                       xml:space="preserve"
                       transform="matrix(1,0,0,-1,550.595,564.129)"
                       style="font-variant:normal;font-weight:normal;font-size:24.7871px;font-family:CMMI12;-inkscape-font-specification:CMMI12;writing-mode:lr-tb;fill:#000000;fill-opacity:1;fill-rule:nonzero;stroke:none"
                       id="text92"><tspan
                         x="0"
                         y="0"
                         id="tspan90">A</tspan></text>
                    <g
                       id="g94"
                       transform="translate(406.328,564.129)" />
                  </g>
                </g>
                <g
                   id="g96"
                   transform="translate(-315.619,65.162)" />
              </g>
            </g>
          </g>
          <g
             id="g98">
            <g
               id="g100">
              <path
                 d="M -90.7097,-204.09694 V -79.37115 H 90.7097 v -124.72579 z"
                 style="fill:#ffffff;fill-opacity:0;fill-rule:nonzero;stroke:none"
                 id="path102" />
            </g>
            <g
               id="g104">
              <path
                 d="M -85.04042,-198.42766 H 85.04042 m -170.08084,28.3468 H 85.04042 m -170.08084,28.34682 H 85.04042 m -170.08084,28.3468 H 85.04042 M -85.04042,-85.05038 H 85.04042 M -85.04042,-198.42766 v 113.38724 m 28.3468,-113.38724 V -85.04042 M -28.3468,-198.42766 V -85.04042 M 0,-198.42766 v 113.38724 m 28.3468,-113.38724 v 113.38724 m 28.34682,-113.38724 v 113.38724 m 28.33685,-113.38724 v 113.38724"
                 style="fill:none;stroke:#808080;stroke-width:0.19925;stroke-linecap:butt;stroke-linejoin:miter;stroke-miterlimit:10;stroke-dasharray:none;stroke-opacity:1"
                 id="path106" />
            </g>
            <path
               d="M -85.04042,-141.73404 H 84.58214"
               style="fill:none;stroke:#000000;stroke-width:0.3985;stroke-linecap:butt;stroke-linejoin:miter;stroke-miterlimit:10;stroke-dasharray:none;stroke-opacity:1"
               id="path108" />
            <g
               id="g110"
               transform="translate(84.58214,-141.73404)">
              <g
                 id="g112">
                <path
                   d="M -1.19551,1.59401 C -1.09587,0.99626 0,0.09961 0.29886,0 0,-0.09961 -1.09587,-0.99626 -1.19551,-1.59401"
                   style="fill:none;stroke:#000000;stroke-width:0.31879;stroke-linecap:round;stroke-linejoin:round;stroke-miterlimit:10;stroke-dasharray:none;stroke-opacity:1"
                   id="path114" />
              </g>
            </g>
            <path
               d="M 0,-198.42766 V -85.4987"
               style="fill:none;stroke:#000000;stroke-width:0.3985;stroke-linecap:butt;stroke-linejoin:miter;stroke-miterlimit:10;stroke-dasharray:none;stroke-opacity:1"
               id="path116" />
            <g
               id="g118"
               transform="rotate(90,42.74935,-42.74935)">
              <g
                 id="g120">
                <path
                   d="M -1.19551,1.59401 C -1.09587,0.99626 0,0.09961 0.29886,0 0,-0.09961 -1.09587,-0.99626 -1.19551,-1.59401"
                   style="fill:none;stroke:#000000;stroke-width:0.31879;stroke-linecap:round;stroke-linejoin:round;stroke-miterlimit:10;stroke-dasharray:none;stroke-opacity:1"
                   id="path122" />
              </g>
            </g>
            <g
               id="g124">
              <path
                 d="m -14.17339,-141.73404 c 0,15.65572 -12.6911,28.3468 -28.34681,28.3468 -15.65572,0 -28.3468,-12.69108 -28.3468,-28.3468 0,-15.65572 12.69108,-28.34682 28.3468,-28.34682 15.65571,0 28.34681,12.6911 28.34681,28.34682 z"
                 style="fill:#00adef;fill-opacity:0.4;fill-rule:nonzero;stroke:#ff0000;stroke-width:1.19553;stroke-linecap:butt;stroke-linejoin:miter;stroke-miterlimit:10;stroke-dasharray:none;stroke-opacity:1"
                 id="path126" />
            </g>
            <g
               id="g128">
              <g
                 id="g130">
                <path
                   d="m 107.71796,-204.09694 v 124.72579 h 181.4194 v -124.72579 z"
                   style="fill:#ffffff;fill-opacity:0;fill-rule:nonzero;stroke:none"
                   id="path132" />
              </g>
              <g
                 id="g134">
                <path
                   d="M 113.38724,-198.42766 H 283.4681 m -170.08086,28.3468 H 283.4681 m -170.08086,28.34682 H 283.4681 m -170.08086,28.3468 H 283.4681 M 113.38724,-85.05038 H 283.4681 M 113.38724,-198.42766 v 113.38724 m 28.3468,-113.38724 v 113.38724 m 28.34682,-113.38724 v 113.38724 m 28.3468,-113.38724 v 113.38724 m 28.34682,-113.38724 v 113.38724 m 28.3468,-113.38724 v 113.38724 m 28.33685,-113.38724 v 113.38724"
                   style="fill:none;stroke:#808080;stroke-width:0.19925;stroke-linecap:butt;stroke-linejoin:miter;stroke-miterlimit:10;stroke-dasharray:none;stroke-opacity:1"
                   id="path136" />
              </g>
              <path
                 d="M 113.38724,-141.73404 H 283.00981"
                 style="fill:none;stroke:#000000;stroke-width:0.3985;stroke-linecap:butt;stroke-linejoin:miter;stroke-miterlimit:10;stroke-dasharray:none;stroke-opacity:1"
                 id="path138" />
              <g
                 id="g140"
                 transform="translate(283.00981,-141.73404)">
                <g
                   id="g142">
                  <path
                     d="M -1.19551,1.59401 C -1.09587,0.99626 0,0.09961 0.29886,0 0,-0.09961 -1.09587,-0.99626 -1.19551,-1.59401"
                     style="fill:none;stroke:#000000;stroke-width:0.31879;stroke-linecap:round;stroke-linejoin:round;stroke-miterlimit:10;stroke-dasharray:none;stroke-opacity:1"
                     id="path144" />
                </g>
              </g>
              <path
                 d="M 198.42766,-198.42766 V -85.4987"
                 style="fill:none;stroke:#000000;stroke-width:0.3985;stroke-linecap:butt;stroke-linejoin:miter;stroke-miterlimit:10;stroke-dasharray:none;stroke-opacity:1"
                 id="path146" />
              <g
                 id="g148"
                 transform="rotate(90,141.96318,56.46448)">
                <g
                   id="g150">
                  <path
                     d="M -1.19551,1.59401 C -1.09587,0.99626 0,0.09961 0.29886,0 0,-0.09961 -1.09587,-0.99626 -1.19551,-1.59401"
                     style="fill:none;stroke:#000000;stroke-width:0.31879;stroke-linecap:round;stroke-linejoin:round;stroke-miterlimit:10;stroke-dasharray:none;stroke-opacity:1"
                     id="path152" />
                </g>
              </g>
              <g
                 id="g154">
                <path
                   d="m 269.29468,-141.73404 c 0,15.65572 -12.6911,28.3468 -28.3468,28.3468 -15.65572,0 -28.34682,-12.69108 -28.34682,-28.3468 0,-15.65572 12.6911,-28.34682 28.34682,-28.34682 15.6557,0 28.3468,12.6911 28.3468,28.34682 z"
                   style="fill:#fff200;fill-opacity:0.4;fill-rule:nonzero;stroke:#ff0000;stroke-width:1.19553;stroke-linecap:butt;stroke-linejoin:miter;stroke-miterlimit:10;stroke-dasharray:none;stroke-opacity:1"
                   id="path156" />
              </g>
            </g>
            <g
               id="g158">
              <g
                 id="g160">
                <path
                   d="m 306.14563,-204.09694 v 124.72579 h 181.4194 v -124.72579 z"
                   style="fill:#ffffff;fill-opacity:0;fill-rule:nonzero;stroke:none"
                   id="path162" />
              </g>
              <g
                 id="g164">
                <path
                   d="m 311.8149,-198.42766 h 170.08087 m -170.08087,28.3468 h 170.08087 m -170.08087,28.34682 h 170.08087 m -170.08087,28.3468 H 481.89577 M 311.8149,-85.05038 H 481.89577 M 311.8149,-198.42766 v 113.38724 m 28.34681,-113.38724 v 113.38724 m 28.3468,-113.38724 v 113.38724 m 28.34682,-113.38724 v 113.38724 m 28.3468,-113.38724 v 113.38724 m 28.34682,-113.38724 v 113.38724 m 28.33685,-113.38724 v 113.38724"
                   style="fill:none;stroke:#808080;stroke-width:0.19925;stroke-linecap:butt;stroke-linejoin:miter;stroke-miterlimit:10;stroke-dasharray:none;stroke-opacity:1"
                   id="path166" />
              </g>
              <path
                 d="M 311.8149,-141.73404 H 481.43748"
                 style="fill:none;stroke:#000000;stroke-width:0.3985;stroke-linecap:butt;stroke-linejoin:miter;stroke-miterlimit:10;stroke-dasharray:none;stroke-opacity:1"
                 id="path168" />
              <g
                 id="g170"
                 transform="translate(481.43748,-141.73404)">
                <g
                   id="g172">
                  <path
                     d="M -1.19551,1.59401 C -1.09587,0.99626 0,0.09961 0.29886,0 0,-0.09961 -1.09587,-0.99626 -1.19551,-1.59401"
                     style="fill:none;stroke:#000000;stroke-width:0.31879;stroke-linecap:round;stroke-linejoin:round;stroke-miterlimit:10;stroke-dasharray:none;stroke-opacity:1"
                     id="path174" />
                </g>
              </g>
              <path
                 d="M 396.85533,-198.42766 V -85.4987"
                 style="fill:none;stroke:#000000;stroke-width:0.3985;stroke-linecap:butt;stroke-linejoin:miter;stroke-miterlimit:10;stroke-dasharray:none;stroke-opacity:1"
                 id="path176" />
              <g
                 id="g178"
                 transform="rotate(90,241.17701,155.67831)">
                <g
                   id="g180">
                  <path
                     d="M -1.19551,1.59401 C -1.09587,0.99626 0,0.09961 0.29886,0 0,-0.09961 -1.09587,-0.99626 -1.19551,-1.59401"
                     style="fill:none;stroke:#000000;stroke-width:0.31879;stroke-linecap:round;stroke-linejoin:round;stroke-miterlimit:10;stroke-dasharray:none;stroke-opacity:1"
                     id="path182" />
                </g>
              </g>
              <g
                 id="g184">
                <path
                   d="m 382.68193,-141.73404 c 0,15.65572 -12.6911,28.3468 -28.3468,28.3468 -15.65572,0 -28.34682,-12.69108 -28.34682,-28.3468 0,-15.65572 12.6911,-28.34682 28.34682,-28.34682 15.6557,0 28.3468,12.6911 28.3468,28.34682 z"
                   style="fill:#00ff00;fill-opacity:0.4;fill-rule:nonzero;stroke:#ff0000;stroke-width:1.19553;stroke-linecap:butt;stroke-linejoin:miter;stroke-miterlimit:10;stroke-dasharray:none;stroke-opacity:1"
                   id="path186" />
              </g>
              <g
                 id="g188">
                <path
                   d="m 467.72235,-141.73404 c 0,15.65572 -12.6911,28.3468 -28.34682,28.3468 -15.65571,0 -28.3468,-12.69108 -28.3468,-28.3468 0,-15.65572 12.69109,-28.34682 28.3468,-28.34682 15.65572,0 28.34682,12.6911 28.34682,28.34682 z"
                   style="fill:#00ff00;fill-opacity:0.4;fill-rule:nonzero;stroke:#ff0000;stroke-width:1.19553;stroke-linecap:butt;stroke-linejoin:miter;stroke-miterlimit:10;stroke-dasharray:none;stroke-opacity:1"
                   id="path190" />
              </g>
            </g>
          </g>
          <g
             id="g192">
            <g
               id="g194">
              <path
                 d="M -90.7097,-345.83098 V -221.1052 H 90.7097 v -124.72578 z"
                 style="fill:#ffffff;fill-opacity:0;fill-rule:nonzero;stroke:none"
                 id="path196" />
            </g>
            <g
               id="g198">
              <path
                 d="M -85.04042,-340.16171 H 85.04042 M -85.04042,-311.8149 H 85.04042 m -170.08084,28.3468 H 85.04042 m -170.08084,28.34682 H 85.04042 m -170.08084,28.33686 H 85.04042 M -85.04042,-340.16171 v 113.38723 m 28.3468,-113.38723 v 113.38723 m 28.34682,-113.38723 v 113.38723 M 0,-340.16171 v 113.38723 m 28.3468,-113.38723 v 113.38723 m 28.34682,-113.38723 v 113.38723 m 28.33685,-113.38723 v 113.38723"
                 style="fill:none;stroke:#808080;stroke-width:0.19925;stroke-linecap:butt;stroke-linejoin:miter;stroke-miterlimit:10;stroke-dasharray:none;stroke-opacity:1"
                 id="path200" />
            </g>
            <path
               d="M -85.04042,-283.4681 H 84.58214"
               style="fill:none;stroke:#000000;stroke-width:0.3985;stroke-linecap:butt;stroke-linejoin:miter;stroke-miterlimit:10;stroke-dasharray:none;stroke-opacity:1"
               id="path202" />
            <g
               id="g204"
               transform="translate(84.58214,-283.4681)">
              <g
                 id="g206">
                <path
                   d="M -1.19551,1.59401 C -1.09587,0.99626 0,0.09961 0.29886,0 0,-0.09961 -1.09587,-0.99626 -1.19551,-1.59401"
                   style="fill:none;stroke:#000000;stroke-width:0.31879;stroke-linecap:round;stroke-linejoin:round;stroke-miterlimit:10;stroke-dasharray:none;stroke-opacity:1"
                   id="path208" />
              </g>
            </g>
            <path
               d="m 0,-340.16171 v 112.92895"
               style="fill:none;stroke:#000000;stroke-width:0.3985;stroke-linecap:butt;stroke-linejoin:miter;stroke-miterlimit:10;stroke-dasharray:none;stroke-opacity:1"
               id="path210" />
            <g
               id="g212"
               transform="rotate(90,113.61638,-113.61638)">
              <g
                 id="g214">
                <path
                   d="M -1.19551,1.59401 C -1.09587,0.99626 0,0.09961 0.29886,0 0,-0.09961 -1.09587,-0.99626 -1.19551,-1.59401"
                   style="fill:none;stroke:#000000;stroke-width:0.31879;stroke-linecap:round;stroke-linejoin:round;stroke-miterlimit:10;stroke-dasharray:none;stroke-opacity:1"
                   id="path216" />
              </g>
            </g>
            <g
               id="g218">
              <path
                 d="m 11.33856,-283.4681 c 0,15.65572 -12.69108,28.34682 -28.3468,28.34682 -15.65572,0 -28.34682,-12.6911 -28.34682,-28.34682 0,-15.65571 12.6911,-28.3468 28.34682,-28.3468 15.65572,0 28.3468,12.69109 28.3468,28.3468 z"
                 style="fill:#00adef;fill-opacity:0.4;fill-rule:nonzero;stroke:#ff0000;stroke-width:1.19553;stroke-linecap:butt;stroke-linejoin:miter;stroke-miterlimit:10;stroke-dasharray:none;stroke-opacity:1"
                 id="path220" />
            </g>
            <g
               id="g222">
              <g
                 id="g224">
                <path
                   d="m 107.71796,-345.83098 v 124.72578 h 181.4194 v -124.72578 z"
                   style="fill:#ffffff;fill-opacity:0;fill-rule:nonzero;stroke:none"
                   id="path226" />
              </g>
              <g
                 id="g228">
                <path
                   d="M 113.38724,-340.16171 H 283.4681 M 113.38724,-311.8149 H 283.4681 m -170.08086,28.3468 H 283.4681 m -170.08086,28.34682 H 283.4681 m -170.08086,28.33686 H 283.4681 M 113.38724,-340.16171 v 113.38723 m 28.3468,-113.38723 v 113.38723 m 28.34682,-113.38723 v 113.38723 m 28.3468,-113.38723 v 113.38723 m 28.34682,-113.38723 v 113.38723 m 28.3468,-113.38723 v 113.38723 m 28.33685,-113.38723 v 113.38723"
                   style="fill:none;stroke:#808080;stroke-width:0.19925;stroke-linecap:butt;stroke-linejoin:miter;stroke-miterlimit:10;stroke-dasharray:none;stroke-opacity:1"
                   id="path230" />
              </g>
              <path
                 d="M 113.38724,-283.4681 H 283.00981"
                 style="fill:none;stroke:#000000;stroke-width:0.3985;stroke-linecap:butt;stroke-linejoin:miter;stroke-miterlimit:10;stroke-dasharray:none;stroke-opacity:1"
                 id="path232" />
              <g
                 id="g234"
                 transform="translate(283.00981,-283.4681)">
                <g
                   id="g236">
                  <path
                     d="M -1.19551,1.59401 C -1.09587,0.99626 0,0.09961 0.29886,0 0,-0.09961 -1.09587,-0.99626 -1.19551,-1.59401"
                     style="fill:none;stroke:#000000;stroke-width:0.31879;stroke-linecap:round;stroke-linejoin:round;stroke-miterlimit:10;stroke-dasharray:none;stroke-opacity:1"
                     id="path238" />
                </g>
              </g>
              <path
                 d="m 198.42766,-340.16171 v 112.92895"
                 style="fill:none;stroke:#000000;stroke-width:0.3985;stroke-linecap:butt;stroke-linejoin:miter;stroke-miterlimit:10;stroke-dasharray:none;stroke-opacity:1"
                 id="path240" />
              <g
                 id="g242"
                 transform="rotate(90,212.83021,-14.40255)">
                <g
                   id="g244">
                  <path
                     d="M -1.19551,1.59401 C -1.09587,0.99626 0,0.09961 0.29886,0 0,-0.09961 -1.09587,-0.99626 -1.19551,-1.59401"
                     style="fill:none;stroke:#000000;stroke-width:0.31879;stroke-linecap:round;stroke-linejoin:round;stroke-miterlimit:10;stroke-dasharray:none;stroke-opacity:1"
                     id="path246" />
                </g>
              </g>
              <g
                 id="g248">
                <path
                   d="m 243.78271,-283.4681 c 0,15.65572 -12.6911,28.34682 -28.3468,28.34682 -15.65571,0 -28.34681,-12.6911 -28.34681,-28.34682 0,-15.65571 12.6911,-28.3468 28.34681,-28.3468 15.6557,0 28.3468,12.69109 28.3468,28.3468 z"
                   style="fill:#fff200;fill-opacity:0.4;fill-rule:nonzero;stroke:#ff0000;stroke-width:1.19553;stroke-linecap:butt;stroke-linejoin:miter;stroke-miterlimit:10;stroke-dasharray:none;stroke-opacity:1"
                   id="path250" />
              </g>
            </g>
            <g
               id="g252">
              <g
                 id="g254">
                <path
                   d="m 306.14563,-345.83098 v 124.72578 h 181.4194 v -124.72578 z"
                   style="fill:#ffffff;fill-opacity:0;fill-rule:nonzero;stroke:none"
                   id="path256" />
              </g>
              <g
                 id="g258">
                <path
                   d="M 311.8149,-340.16171 H 481.89577 M 311.8149,-311.8149 H 481.89577 M 311.8149,-283.4681 H 481.89577 M 311.8149,-255.12128 H 481.89577 M 311.8149,-226.78442 H 481.89577 M 311.8149,-340.16171 v 113.38723 m 28.34681,-113.38723 v 113.38723 m 28.3468,-113.38723 v 113.38723 m 28.34682,-113.38723 v 113.38723 m 28.3468,-113.38723 v 113.38723 m 28.34682,-113.38723 v 113.38723 m 28.33685,-113.38723 v 113.38723"
                   style="fill:none;stroke:#808080;stroke-width:0.19925;stroke-linecap:butt;stroke-linejoin:miter;stroke-miterlimit:10;stroke-dasharray:none;stroke-opacity:1"
                   id="path260" />
              </g>
              <path
                 d="M 311.8149,-283.4681 H 481.43748"
                 style="fill:none;stroke:#000000;stroke-width:0.3985;stroke-linecap:butt;stroke-linejoin:miter;stroke-miterlimit:10;stroke-dasharray:none;stroke-opacity:1"
                 id="path262" />
              <g
                 id="g264"
                 transform="translate(481.43748,-283.4681)">
                <g
                   id="g266">
                  <path
                     d="M -1.19551,1.59401 C -1.09587,0.99626 0,0.09961 0.29886,0 0,-0.09961 -1.09587,-0.99626 -1.19551,-1.59401"
                     style="fill:none;stroke:#000000;stroke-width:0.31879;stroke-linecap:round;stroke-linejoin:round;stroke-miterlimit:10;stroke-dasharray:none;stroke-opacity:1"
                     id="path268" />
                </g>
              </g>
              <path
                 d="m 396.85533,-340.16171 v 112.92895"
                 style="fill:none;stroke:#000000;stroke-width:0.3985;stroke-linecap:butt;stroke-linejoin:miter;stroke-miterlimit:10;stroke-dasharray:none;stroke-opacity:1"
                 id="path270" />
              <g
                 id="g272"
                 transform="rotate(90,312.04404,84.811285)">
                <g
                   id="g274">
                  <path
                     d="M -1.19551,1.59401 C -1.09587,0.99626 0,0.09961 0.29886,0 0,-0.09961 -1.09587,-0.99626 -1.19551,-1.59401"
                     style="fill:none;stroke:#000000;stroke-width:0.31879;stroke-linecap:round;stroke-linejoin:round;stroke-miterlimit:10;stroke-dasharray:none;stroke-opacity:1"
                     id="path276" />
                </g>
              </g>
              <g
                 id="g278">
                <path
                   d="m 396.85446,-260.79144 c -12.52414,9.39299 -30.29104,6.85487 -39.68403,-5.66927 -9.39298,-12.52414 -6.85486,-30.29104 5.66927,-39.68403 10.0777,-7.55817 23.93706,-7.55817 34.01476,0 m 0.002,0 c 12.52413,-9.39299 30.29105,-6.85486 39.68404,5.66928 9.39297,12.52412 6.85486,30.29104 -5.66928,39.68402 -10.0777,7.55816 -23.93706,7.55816 -34.01476,0"
                   style="fill:#00ff00;fill-opacity:0.4;fill-rule:nonzero;stroke:#ff0000;stroke-width:1.19553;stroke-linecap:butt;stroke-linejoin:miter;stroke-miterlimit:10;stroke-dasharray:none;stroke-opacity:1"
                   id="path280" />
              </g>
            </g>
          </g>
          <g
             id="g282">
            <g
               id="g284">
              <path
                 d="m -90.7097,-487.56503 v 124.72578 H 90.7097 v -124.72578 z"
                 style="fill:#ffffff;fill-opacity:0;fill-rule:nonzero;stroke:none"
                 id="path286" />
            </g>
            <g
               id="g288">
              <path
                 d="M -85.04042,-481.89577 H 85.04042 m -170.08084,28.34682 H 85.04042 m -170.08084,28.34682 H 85.04042 m -170.08084,28.3468 H 85.04042 m -170.08084,28.33685 H 85.04042 M -85.04042,-481.89577 v 113.38726 m 28.3468,-113.38726 v 113.38726 m 28.34682,-113.38726 v 113.38726 M 0,-481.89577 v 113.38726 m 28.3468,-113.38726 v 113.38726 m 28.34682,-113.38726 v 113.38726 m 28.33685,-113.38726 v 113.38726"
                 style="fill:none;stroke:#808080;stroke-width:0.19925;stroke-linecap:butt;stroke-linejoin:miter;stroke-miterlimit:10;stroke-dasharray:none;stroke-opacity:1"
                 id="path290" />
            </g>
            <path
               d="M -85.04042,-425.20213 H 84.58214"
               style="fill:none;stroke:#000000;stroke-width:0.3985;stroke-linecap:butt;stroke-linejoin:miter;stroke-miterlimit:10;stroke-dasharray:none;stroke-opacity:1"
               id="path292" />
            <g
               id="g294"
               transform="translate(84.58214,-425.20213)">
              <g
                 id="g296">
                <path
                   d="M -1.19551,1.59401 C -1.09587,0.99626 0,0.09961 0.29886,0 0,-0.09961 -1.09587,-0.99626 -1.19551,-1.59401"
                   style="fill:none;stroke:#000000;stroke-width:0.31879;stroke-linecap:round;stroke-linejoin:round;stroke-miterlimit:10;stroke-dasharray:none;stroke-opacity:1"
                   id="path298" />
              </g>
            </g>
            <path
               d="M 0,-481.89577 V -368.9668"
               style="fill:none;stroke:#000000;stroke-width:0.3985;stroke-linecap:butt;stroke-linejoin:miter;stroke-miterlimit:10;stroke-dasharray:none;stroke-opacity:1"
               id="path300" />
            <g
               id="g302"
               transform="rotate(90,184.4834,-184.4834)">
              <g
                 id="g304">
                <path
                   d="M -1.19551,1.59401 C -1.09587,0.99626 0,0.09961 0.29886,0 0,-0.09961 -1.09587,-0.99626 -1.19551,-1.59401"
                   style="fill:none;stroke:#000000;stroke-width:0.31879;stroke-linecap:round;stroke-linejoin:round;stroke-miterlimit:10;stroke-dasharray:none;stroke-opacity:1"
                   id="path306" />
              </g>
            </g>
            <g
               id="g308">
              <path
                 d="m 42.5202,-425.20213 c 0,23.48355 -19.03665,42.5202 -42.5202,42.5202 -23.48355,0 -42.5202,-19.03665 -42.5202,-42.5202 0,-23.48357 19.03665,-42.52022 42.5202,-42.52022 23.48355,0 42.5202,19.03665 42.5202,42.52022 z"
                 style="fill:#00adef;fill-opacity:0.4;fill-rule:nonzero;stroke:#ff0000;stroke-width:1.19553;stroke-linecap:butt;stroke-linejoin:miter;stroke-miterlimit:10;stroke-dasharray:none;stroke-opacity:1"
                 id="path310" />
            </g>
            <g
               id="g312">
              <g
                 id="g314">
                <path
                   d="m 107.71796,-487.56503 v 124.72578 h 181.4194 v -124.72578 z"
                   style="fill:#ffffff;fill-opacity:0;fill-rule:nonzero;stroke:none"
                   id="path316" />
              </g>
              <g
                 id="g318">
                <path
                   d="M 113.38724,-481.89577 H 283.4681 m -170.08086,28.34682 H 283.4681 m -170.08086,28.34682 H 283.4681 m -170.08086,28.3468 H 283.4681 m -170.08086,28.33685 H 283.4681 M 113.38724,-481.89577 v 113.38726 m 28.3468,-113.38726 v 113.38726 m 28.34682,-113.38726 v 113.38726 m 28.3468,-113.38726 v 113.38726 m 28.34682,-113.38726 v 113.38726 m 28.3468,-113.38726 v 113.38726 m 28.33685,-113.38726 v 113.38726"
                   style="fill:none;stroke:#808080;stroke-width:0.19925;stroke-linecap:butt;stroke-linejoin:miter;stroke-miterlimit:10;stroke-dasharray:none;stroke-opacity:1"
                   id="path320" />
              </g>
              <path
                 d="M 113.38724,-425.20213 H 283.00981"
                 style="fill:none;stroke:#000000;stroke-width:0.3985;stroke-linecap:butt;stroke-linejoin:miter;stroke-miterlimit:10;stroke-dasharray:none;stroke-opacity:1"
                 id="path322" />
              <g
                 id="g324"
                 transform="translate(283.00981,-425.20213)">
                <g
                   id="g326">
                  <path
                     d="M -1.19551,1.59401 C -1.09587,0.99626 0,0.09961 0.29886,0 0,-0.09961 -1.09587,-0.99626 -1.19551,-1.59401"
                     style="fill:none;stroke:#000000;stroke-width:0.31879;stroke-linecap:round;stroke-linejoin:round;stroke-miterlimit:10;stroke-dasharray:none;stroke-opacity:1"
                     id="path328" />
                </g>
              </g>
              <path
                 d="M 198.42766,-481.89577 V -368.9668"
                 style="fill:none;stroke:#000000;stroke-width:0.3985;stroke-linecap:butt;stroke-linejoin:miter;stroke-miterlimit:10;stroke-dasharray:none;stroke-opacity:1"
                 id="path330" />
              <g
                 id="g332"
                 transform="rotate(90,283.69723,-85.26957)">
                <g
                   id="g334">
                  <path
                     d="M -1.19551,1.59401 C -1.09587,0.99626 0,0.09961 0.29886,0 0,-0.09961 -1.09587,-0.99626 -1.19551,-1.59401"
                     style="fill:none;stroke:#000000;stroke-width:0.31879;stroke-linecap:round;stroke-linejoin:round;stroke-miterlimit:10;stroke-dasharray:none;stroke-opacity:1"
                     id="path336" />
                </g>
              </g>
              <g
                 id="g338">
                <path
                   d="m 221.10518,-425.20213 c 0,12.52459 -10.15291,22.67752 -22.67752,22.67752 -12.5246,0 -22.67752,-10.15293 -22.67752,-22.67752 0,-12.52462 10.15292,-22.67752 22.67752,-22.67752 12.52461,0 22.67752,10.1529 22.67752,22.67752 z"
                   style="fill:#fff200;fill-opacity:0.4;fill-rule:nonzero;stroke:#ff0000;stroke-width:1.19553;stroke-linecap:butt;stroke-linejoin:miter;stroke-miterlimit:10;stroke-dasharray:none;stroke-opacity:1"
                   id="path340" />
              </g>
            </g>
            <g
               id="g342">
              <g
                 id="g344">
                <path
                   d="m 306.14563,-487.56503 v 124.72578 h 181.4194 v -124.72578 z"
                   style="fill:#ffffff;fill-opacity:0;fill-rule:nonzero;stroke:none"
                   id="path346" />
              </g>
              <g
                 id="g348">
                <path
                   d="m 311.8149,-481.89577 h 170.08087 m -170.08087,28.34682 h 170.08087 m -170.08087,28.34682 h 170.08087 m -170.08087,28.3468 H 481.89577 M 311.8149,-368.51848 H 481.89577 M 311.8149,-481.89577 v 113.38726 m 28.34681,-113.38726 v 113.38726 m 28.3468,-113.38726 v 113.38726 m 28.34682,-113.38726 v 113.38726 m 28.3468,-113.38726 v 113.38726 m 28.34682,-113.38726 v 113.38726 m 28.33685,-113.38726 v 113.38726"
                   style="fill:none;stroke:#808080;stroke-width:0.19925;stroke-linecap:butt;stroke-linejoin:miter;stroke-miterlimit:10;stroke-dasharray:none;stroke-opacity:1"
                   id="path350" />
              </g>
              <path
                 d="M 311.8149,-425.20213 H 481.43748"
                 style="fill:none;stroke:#000000;stroke-width:0.3985;stroke-linecap:butt;stroke-linejoin:miter;stroke-miterlimit:10;stroke-dasharray:none;stroke-opacity:1"
                 id="path352" />
              <g
                 id="g354"
                 transform="translate(481.43748,-425.20213)">
                <g
                   id="g356">
                  <path
                     d="M -1.19551,1.59401 C -1.09587,0.99626 0,0.09961 0.29886,0 0,-0.09961 -1.09587,-0.99626 -1.19551,-1.59401"
                     style="fill:none;stroke:#000000;stroke-width:0.31879;stroke-linecap:round;stroke-linejoin:round;stroke-miterlimit:10;stroke-dasharray:none;stroke-opacity:1"
                     id="path358" />
                </g>
              </g>
              <path
                 d="M 396.85533,-481.89577 V -368.9668"
                 style="fill:none;stroke:#000000;stroke-width:0.3985;stroke-linecap:butt;stroke-linejoin:miter;stroke-miterlimit:10;stroke-dasharray:none;stroke-opacity:1"
                 id="path360" />
              <g
                 id="g362"
                 transform="rotate(90,382.91106,13.944265)">
                <g
                   id="g364">
                  <path
                     d="M -1.19551,1.59401 C -1.09587,0.99626 0,0.09961 0.29886,0 0,-0.09961 -1.09587,-0.99626 -1.19551,-1.59401"
                     style="fill:none;stroke:#000000;stroke-width:0.31879;stroke-linecap:round;stroke-linejoin:round;stroke-miterlimit:10;stroke-dasharray:none;stroke-opacity:1"
                     id="path366" />
                </g>
              </g>
              <g
                 id="g368">
                <path
                   d="m 439.37553,-425.20213 c 0,23.48355 -19.03663,42.5202 -42.5202,42.5202 -23.48356,0 -42.5202,-19.03665 -42.5202,-42.5202 0,-23.48357 19.03664,-42.52022 42.5202,-42.52022 23.48357,0 42.5202,19.03665 42.5202,42.52022 z"
                   style="fill:#00ff00;fill-opacity:0.4;fill-rule:nonzero;stroke:#ff0000;stroke-width:1.19553;stroke-linecap:butt;stroke-linejoin:miter;stroke-miterlimit:10;stroke-dasharray:none;stroke-opacity:1"
                   id="path370" />
              </g>
            </g>
          </g>
          <g
             id="g372">
            <g
               id="g374">
              <path
                 d="M -90.7097,-629.29909 V -504.5733 H 90.7097 v -124.72579 z"
                 style="fill:#ffffff;fill-opacity:0;fill-rule:nonzero;stroke:none"
                 id="path376" />
            </g>
            <g
               id="g378">
              <path
                 d="M -85.04042,-623.6298 H 85.04042 M -85.04042,-595.283 H 85.04042 m -170.08084,28.34681 H 85.04042 m -170.08084,28.3468 H 85.04042 m -170.08084,28.33686 H 85.04042 M -85.04042,-623.6298 v 113.38723 m 28.3468,-113.38723 v 113.38723 M -28.3468,-623.6298 v 113.38723 M 0,-623.6298 v 113.38723 M 28.3468,-623.6298 v 113.38723 M 56.69362,-623.6298 v 113.38723 M 85.03047,-623.6298 v 113.38723"
                 style="fill:none;stroke:#808080;stroke-width:0.19925;stroke-linecap:butt;stroke-linejoin:miter;stroke-miterlimit:10;stroke-dasharray:none;stroke-opacity:1"
                 id="path380" />
            </g>
            <path
               d="M -85.04042,-566.93619 H 84.58214"
               style="fill:none;stroke:#000000;stroke-width:0.3985;stroke-linecap:butt;stroke-linejoin:miter;stroke-miterlimit:10;stroke-dasharray:none;stroke-opacity:1"
               id="path382" />
            <g
               id="g384"
               transform="translate(84.58214,-566.93619)">
              <g
                 id="g386">
                <path
                   d="M -1.19551,1.59401 C -1.09587,0.99626 0,0.09961 0.29886,0 0,-0.09961 -1.09587,-0.99626 -1.19551,-1.59401"
                   style="fill:none;stroke:#000000;stroke-width:0.31879;stroke-linecap:round;stroke-linejoin:round;stroke-miterlimit:10;stroke-dasharray:none;stroke-opacity:1"
                   id="path388" />
              </g>
            </g>
            <path
               d="m 0,-623.6298 v 112.92895"
               style="fill:none;stroke:#000000;stroke-width:0.3985;stroke-linecap:butt;stroke-linejoin:miter;stroke-miterlimit:10;stroke-dasharray:none;stroke-opacity:1"
               id="path390" />
            <g
               id="g392"
               transform="rotate(90,255.35042,-255.35042)">
              <g
                 id="g394">
                <path
                   d="M -1.19551,1.59401 C -1.09587,0.99626 0,0.09961 0.29886,0 0,-0.09961 -1.09587,-0.99626 -1.19551,-1.59401"
                   style="fill:none;stroke:#000000;stroke-width:0.31879;stroke-linecap:round;stroke-linejoin:round;stroke-miterlimit:10;stroke-dasharray:none;stroke-opacity:1"
                   id="path396" />
              </g>
            </g>
            <g
               id="g398">
              <path
                 d="m 22.67752,-566.93619 c 0,12.5246 -10.15292,22.67752 -22.67752,22.67752 -12.5246,0 -22.67752,-10.15292 -22.67752,-22.67752 0,-12.52461 10.15292,-22.67752 22.67752,-22.67752 12.5246,0 22.67752,10.15291 22.67752,22.67752 z"
                 style="fill:#00adef;fill-opacity:0.4;fill-rule:nonzero;stroke:#ff0000;stroke-width:1.19553;stroke-linecap:butt;stroke-linejoin:miter;stroke-miterlimit:10;stroke-dasharray:none;stroke-opacity:1"
                 id="path400" />
            </g>
            <g
               id="g402">
              <g
                 id="g404">
                <path
                   d="m 107.71796,-629.29909 v 124.72579 h 181.4194 v -124.72579 z"
                   style="fill:#ffffff;fill-opacity:0;fill-rule:nonzero;stroke:none"
                   id="path406" />
              </g>
              <g
                 id="g408">
                <path
                   d="M 113.38724,-623.6298 H 283.4681 M 113.38724,-595.283 H 283.4681 m -170.08086,28.34681 H 283.4681 m -170.08086,28.3468 H 283.4681 m -170.08086,28.33686 H 283.4681 M 113.38724,-623.6298 v 113.38723 m 28.3468,-113.38723 v 113.38723 m 28.34682,-113.38723 v 113.38723 m 28.3468,-113.38723 v 113.38723 m 28.34682,-113.38723 v 113.38723 m 28.3468,-113.38723 v 113.38723 m 28.33685,-113.38723 v 113.38723"
                   style="fill:none;stroke:#808080;stroke-width:0.19925;stroke-linecap:butt;stroke-linejoin:miter;stroke-miterlimit:10;stroke-dasharray:none;stroke-opacity:1"
                   id="path410" />
              </g>
              <path
                 d="M 113.38724,-566.93619 H 283.00981"
                 style="fill:none;stroke:#000000;stroke-width:0.3985;stroke-linecap:butt;stroke-linejoin:miter;stroke-miterlimit:10;stroke-dasharray:none;stroke-opacity:1"
                 id="path412" />
              <g
                 id="g414"
                 transform="translate(283.00981,-566.93619)">
                <g
                   id="g416">
                  <path
                     d="M -1.19551,1.59401 C -1.09587,0.99626 0,0.09961 0.29886,0 0,-0.09961 -1.09587,-0.99626 -1.19551,-1.59401"
                     style="fill:none;stroke:#000000;stroke-width:0.31879;stroke-linecap:round;stroke-linejoin:round;stroke-miterlimit:10;stroke-dasharray:none;stroke-opacity:1"
                     id="path418" />
                </g>
              </g>
              <path
                 d="m 198.42766,-623.6298 v 112.92895"
                 style="fill:none;stroke:#000000;stroke-width:0.3985;stroke-linecap:butt;stroke-linejoin:miter;stroke-miterlimit:10;stroke-dasharray:none;stroke-opacity:1"
                 id="path420" />
              <g
                 id="g422"
                 transform="rotate(90,354.56425,-156.13659)">
                <g
                   id="g424">
                  <path
                     d="M -1.19551,1.59401 C -1.09587,0.99626 0,0.09961 0.29886,0 0,-0.09961 -1.09587,-0.99626 -1.19551,-1.59401"
                     style="fill:none;stroke:#000000;stroke-width:0.31879;stroke-linecap:round;stroke-linejoin:round;stroke-miterlimit:10;stroke-dasharray:none;stroke-opacity:1"
                     id="path426" />
                </g>
              </g>
              <g
                 id="g428">
                <path
                   d="m 240.94788,-566.93619 c 0,23.48355 -19.03666,42.5202 -42.52022,42.5202 -23.48356,0 -42.5202,-19.03665 -42.5202,-42.5202 0,-23.48356 19.03664,-42.5202 42.5202,-42.5202 23.48356,0 42.52022,19.03664 42.52022,42.5202 z"
                   style="fill:#fff200;fill-opacity:0.4;fill-rule:nonzero;stroke:#ff0000;stroke-width:1.19553;stroke-linecap:butt;stroke-linejoin:miter;stroke-miterlimit:10;stroke-dasharray:none;stroke-opacity:1"
                   id="path430" />
              </g>
            </g>
            <g
               id="g432">
              <g
                 id="g434">
                <path
                   d="m 306.14563,-629.29909 v 124.72579 h 181.4194 v -124.72579 z"
                   style="fill:#ffffff;fill-opacity:0;fill-rule:nonzero;stroke:none"
                   id="path436" />
              </g>
              <g
                 id="g438">
                <path
                   d="M 311.8149,-623.6298 H 481.89577 M 311.8149,-595.283 h 170.08087 m -170.08087,28.34681 h 170.08087 m -170.08087,28.3468 H 481.89577 M 311.8149,-510.25253 H 481.89577 M 311.8149,-623.6298 v 113.38723 m 28.34681,-113.38723 v 113.38723 m 28.3468,-113.38723 v 113.38723 m 28.34682,-113.38723 v 113.38723 m 28.3468,-113.38723 v 113.38723 m 28.34682,-113.38723 v 113.38723 M 481.8858,-623.6298 v 113.38723"
                   style="fill:none;stroke:#808080;stroke-width:0.19925;stroke-linecap:butt;stroke-linejoin:miter;stroke-miterlimit:10;stroke-dasharray:none;stroke-opacity:1"
                   id="path440" />
              </g>
              <path
                 d="M 311.8149,-566.93619 H 481.43748"
                 style="fill:none;stroke:#000000;stroke-width:0.3985;stroke-linecap:butt;stroke-linejoin:miter;stroke-miterlimit:10;stroke-dasharray:none;stroke-opacity:1"
                 id="path442" />
              <g
                 id="g444"
                 transform="translate(481.43748,-566.93619)">
                <g
                   id="g446">
                  <path
                     d="M -1.19551,1.59401 C -1.09587,0.99626 0,0.09961 0.29886,0 0,-0.09961 -1.09587,-0.99626 -1.19551,-1.59401"
                     style="fill:none;stroke:#000000;stroke-width:0.31879;stroke-linecap:round;stroke-linejoin:round;stroke-miterlimit:10;stroke-dasharray:none;stroke-opacity:1"
                     id="path448" />
                </g>
              </g>
              <path
                 d="m 396.85533,-623.6298 v 112.92895"
                 style="fill:none;stroke:#000000;stroke-width:0.3985;stroke-linecap:butt;stroke-linejoin:miter;stroke-miterlimit:10;stroke-dasharray:none;stroke-opacity:1"
                 id="path450" />
              <g
                 id="g452"
                 transform="rotate(90,453.77809,-56.92276)">
                <g
                   id="g454">
                  <path
                     d="M -1.19551,1.59401 C -1.09587,0.99626 0,0.09961 0.29886,0 0,-0.09961 -1.09587,-0.99626 -1.19551,-1.59401"
                     style="fill:none;stroke:#000000;stroke-width:0.31879;stroke-linecap:round;stroke-linejoin:round;stroke-miterlimit:10;stroke-dasharray:none;stroke-opacity:1"
                     id="path456" />
                </g>
              </g>
              <g
                 id="g458">
                <path
                   d="m 439.37553,-566.93619 c 0,23.48355 -19.03663,42.5202 -42.5202,42.5202 -23.48356,0 -42.5202,-19.03665 -42.5202,-42.5202 0,-23.48356 19.03664,-42.5202 42.5202,-42.5202 23.48357,0 42.5202,19.03664 42.5202,42.5202 z"
                   style="fill:#00ff00;fill-opacity:0.4;fill-rule:nonzero;stroke:#ff0000;stroke-width:1.19553;stroke-linecap:butt;stroke-linejoin:miter;stroke-miterlimit:10;stroke-dasharray:none;stroke-opacity:1"
                   id="path460" />
              </g>
            </g>
          </g>
        </g>
      </g>
    </g>
  </g>
</svg>
