<?xml version="1.0" encoding="UTF-8" standalone="no"?>
<!-- Created with Inkscape (http://www.inkscape.org/) -->

<svg
   version="1.1"
   id="svg388"
   width="544.25842"
   height="166.30103"
   viewBox="0 0 544.25842 166.30103"
   sodipodi:docname="StandaloneTikz_Shape (11).pdf"
   xmlns:inkscape="http://www.inkscape.org/namespaces/inkscape"
   xmlns:sodipodi="http://sodipodi.sourceforge.net/DTD/sodipodi-0.dtd"
   xmlns="http://www.w3.org/2000/svg"
   xmlns:svg="http://www.w3.org/2000/svg">
  <defs
     id="defs392" />
  <sodipodi:namedview
     id="namedview390"
     pagecolor="#ffffff"
     bordercolor="#000000"
     borderopacity="0.25"
     inkscape:showpageshadow="2"
     inkscape:pageopacity="0.0"
     inkscape:pagecheckerboard="0"
     inkscape:deskcolor="#d1d1d1"
     showgrid="false" />
  <g
     id="g396"
     inkscape:groupmode="layer"
     inkscape:label="Page 1"
     transform="matrix(1.3333333,0,0,-1.3333333,0.00117333,166.29984)">
    <g
       id="g398"
       transform="translate(62.362,62.362)">
      <g
         id="g400">
        <g
           id="g402">
          <g
             id="g404">
            <path
               d="M -62.36288,-62.36288 V 62.36288 H 62.36288 V -62.36288 Z"
               style="fill:#ffffff;fill-opacity:1;fill-rule:nonzero;stroke:none"
               id="path406" />
          </g>
          <g
             id="g408">
            <path
               d="M -56.69362,-56.69362 H 56.69362 M -56.69362,-28.3468 H 56.69362 M -56.69362,0 H 56.69362 M -56.69362,28.3468 H 56.69362 M -56.69362,56.68365 H 56.69362 M -56.69362,-56.69362 V 56.69362 M -28.3468,-56.69362 V 56.69362 M 0,-56.69362 V 56.69362 M 28.3468,-56.69362 V 56.69362 M 56.68365,-56.69362 V 56.69362"
               style="fill:none;stroke:#808080;stroke-width:0.19925;stroke-linecap:butt;stroke-linejoin:miter;stroke-miterlimit:10;stroke-dasharray:none;stroke-opacity:1"
               id="path410" />
          </g>
          <path
             d="M -56.69362,0 H 56.23534"
             style="fill:none;stroke:#000000;stroke-width:0.3985;stroke-linecap:butt;stroke-linejoin:miter;stroke-miterlimit:10;stroke-dasharray:none;stroke-opacity:1"
             id="path412" />
          <g
             id="g414"
             transform="translate(56.23534)">
            <g
               id="g416">
              <path
                 d="M -1.19551,1.59401 C -1.09587,0.99626 0,0.09961 0.29886,0 0,-0.09961 -1.09587,-0.99626 -1.19551,-1.59401"
                 style="fill:none;stroke:#000000;stroke-width:0.31879;stroke-linecap:round;stroke-linejoin:round;stroke-miterlimit:10;stroke-dasharray:none;stroke-opacity:1"
                 id="path418" />
            </g>
          </g>
          <path
             d="M 0,-56.69362 V 56.23534"
             style="fill:none;stroke:#000000;stroke-width:0.3985;stroke-linecap:butt;stroke-linejoin:miter;stroke-miterlimit:10;stroke-dasharray:none;stroke-opacity:1"
             id="path420" />
          <g
             id="g422"
             transform="rotate(90,-28.11767,28.11767)">
            <g
               id="g424">
              <path
                 d="M -1.19551,1.59401 C -1.09587,0.99626 0,0.09961 0.29886,0 0,-0.09961 -1.09587,-0.99626 -1.19551,-1.59401"
                 style="fill:none;stroke:#000000;stroke-width:0.31879;stroke-linecap:round;stroke-linejoin:round;stroke-miterlimit:10;stroke-dasharray:none;stroke-opacity:1"
                 id="path426" />
            </g>
          </g>
          <g
             id="g428">
            <path
               d="m -27.84866,-28.3468 h 55.69732 c 0.27512,0 0.49814,0.22302 0.49814,0.49814 v 55.69732 c 0,0.27512 -0.22302,0.49814 -0.49814,0.49814 h -55.69732 c -0.27512,0 -0.49814,-0.22302 -0.49814,-0.49814 v -55.69732 c 0,-0.27512 0.22302,-0.49814 0.49814,-0.49814 z"
               style="fill:#00ff00;fill-opacity:0.4;fill-rule:nonzero;stroke:#ff0000;stroke-width:1.19553;stroke-linecap:butt;stroke-linejoin:miter;stroke-miterlimit:10;stroke-dasharray:none;stroke-opacity:1"
               id="path430" />
          </g>
          <g
             id="g432">
            <path
               d="M 0.85036,0 C 0.85036,0.46964 0.46964,0.85036 0,0.85036 -0.46964,0.85036 -0.85036,0.46964 -0.85036,0 c 0,-0.46964 0.38072,-0.85036 0.85036,-0.85036 0.46964,0 0.85036,0.38072 0.85036,0.85036 z"
               style="fill:#000000;fill-opacity:1;fill-rule:nonzero;stroke:#000000;stroke-width:0.3985;stroke-linecap:butt;stroke-linejoin:miter;stroke-miterlimit:10;stroke-dasharray:none;stroke-opacity:1"
               id="path434" />
          </g>
          <g
             id="g436">
            <g
               id="g438">
              <path
                 d="M 79.37115,-62.36288 V 62.36288 H 204.09694 V -62.36288 Z"
                 style="fill:#ffffff;fill-opacity:1;fill-rule:nonzero;stroke:none"
                 id="path440" />
            </g>
            <g
               id="g442">
              <path
                 d="M 85.04042,-56.69362 H 198.42766 M 85.04042,-28.3468 H 198.42766 M 85.04042,0 H 198.42766 M 85.04042,28.3468 H 198.42766 M 85.04042,56.68365 H 198.42766 M 85.04042,-56.69362 V 56.69362 M 113.38724,-56.69362 V 56.69362 m 28.3468,-113.38724 V 56.69362 M 170.08086,-56.69362 V 56.69362 M 198.41771,-56.69362 V 56.69362"
                 style="fill:none;stroke:#808080;stroke-width:0.19925;stroke-linecap:butt;stroke-linejoin:miter;stroke-miterlimit:10;stroke-dasharray:none;stroke-opacity:1"
                 id="path444" />
            </g>
            <path
               d="M 85.04042,0 H 197.96938"
               style="fill:none;stroke:#000000;stroke-width:0.3985;stroke-linecap:butt;stroke-linejoin:miter;stroke-miterlimit:10;stroke-dasharray:none;stroke-opacity:1"
               id="path446" />
            <g
               id="g448"
               transform="translate(197.96938)">
              <g
                 id="g450">
                <path
                   d="M -1.19551,1.59401 C -1.09587,0.99626 0,0.09961 0.29886,0 0,-0.09961 -1.09587,-0.99626 -1.19551,-1.59401"
                   style="fill:none;stroke:#000000;stroke-width:0.31879;stroke-linecap:round;stroke-linejoin:round;stroke-miterlimit:10;stroke-dasharray:none;stroke-opacity:1"
                   id="path452" />
              </g>
            </g>
            <path
               d="M 141.73404,-56.69362 V 56.23534"
               style="fill:none;stroke:#000000;stroke-width:0.3985;stroke-linecap:butt;stroke-linejoin:miter;stroke-miterlimit:10;stroke-dasharray:none;stroke-opacity:1"
               id="path454" />
            <g
               id="g456"
               transform="rotate(90,42.74935,98.98469)">
              <g
                 id="g458">
                <path
                   d="M -1.19551,1.59401 C -1.09587,0.99626 0,0.09961 0.29886,0 0,-0.09961 -1.09587,-0.99626 -1.19551,-1.59401"
                   style="fill:none;stroke:#000000;stroke-width:0.31879;stroke-linecap:round;stroke-linejoin:round;stroke-miterlimit:10;stroke-dasharray:none;stroke-opacity:1"
                   id="path460" />
              </g>
            </g>
            <g
               id="g462">
              <g
                 id="g464">
                <path
                   d="m 131.78972,-38.47345 48.23544,27.84869 c 0.23825,0.13755 0.31989,0.44219 0.18234,0.68044 l -27.84869,48.23544 c -0.13754,0.23824 -0.4422,0.31988 -0.68043,0.18233 L 103.44292,10.62476 c -0.23825,-0.13755 -0.31989,-0.44219 -0.18233,-0.68044 l 27.84868,-48.23544 c 0.13756,-0.23824 0.4422,-0.31988 0.68045,-0.18233 z"
                   style="fill:#00ff00;fill-opacity:0.4;fill-rule:nonzero;stroke:#ff0000;stroke-width:1.19553;stroke-linecap:butt;stroke-linejoin:miter;stroke-miterlimit:10;stroke-dasharray:none;stroke-opacity:1"
                   id="path466" />
              </g>
              <g
                 id="g468">
                <path
                   d="m 142.47047,0.42517 c -0.23483,0.40673 -0.75489,0.54608 -1.16162,0.31125 -0.4067,-0.23482 -0.54606,-0.75488 -0.31123,-1.16159 0.23482,-0.40673 0.7549,-0.54608 1.16161,-0.31125 0.4067,0.23482 0.54606,0.75488 0.31124,1.16159 z"
                   style="fill:#000000;fill-opacity:1;fill-rule:nonzero;stroke:#000000;stroke-width:0.3985;stroke-linecap:butt;stroke-linejoin:miter;stroke-miterlimit:10;stroke-dasharray:none;stroke-opacity:1"
                   id="path470" />
              </g>
            </g>
          </g>
          <g
             id="g472">
            <g
               id="g474">
              <path
                 d="M 221.1052,-62.36288 V 62.36288 H 345.83098 V -62.36288 Z"
                 style="fill:#ffffff;fill-opacity:1;fill-rule:nonzero;stroke:none"
                 id="path476" />
            </g>
            <g
               id="g478">
              <path
                 d="M 226.77448,-56.69362 H 340.16171 M 226.77448,-28.3468 H 340.16171 M 226.77448,0 H 340.16171 M 226.77448,28.3468 H 340.16171 M 226.77448,56.68365 H 340.16171 M 226.77448,-56.69362 V 56.69362 m 28.3468,-113.38724 V 56.69362 M 283.4681,-56.69362 V 56.69362 M 311.8149,-56.69362 V 56.69362 M 340.15175,-56.69362 V 56.69362"
                 style="fill:none;stroke:#808080;stroke-width:0.19925;stroke-linecap:butt;stroke-linejoin:miter;stroke-miterlimit:10;stroke-dasharray:none;stroke-opacity:1"
                 id="path480" />
            </g>
            <path
               d="M 226.77448,0 H 339.70343"
               style="fill:none;stroke:#000000;stroke-width:0.3985;stroke-linecap:butt;stroke-linejoin:miter;stroke-miterlimit:10;stroke-dasharray:none;stroke-opacity:1"
               id="path482" />
            <g
               id="g484"
               transform="translate(339.70343)">
              <g
                 id="g486">
                <path
                   d="M -1.19551,1.59401 C -1.09587,0.99626 0,0.09961 0.29886,0 0,-0.09961 -1.09587,-0.99626 -1.19551,-1.59401"
                   style="fill:none;stroke:#000000;stroke-width:0.31879;stroke-linecap:round;stroke-linejoin:round;stroke-miterlimit:10;stroke-dasharray:none;stroke-opacity:1"
                   id="path488" />
              </g>
            </g>
            <path
               d="M 283.4681,-56.69362 V 56.23534"
               style="fill:none;stroke:#000000;stroke-width:0.3985;stroke-linecap:butt;stroke-linejoin:miter;stroke-miterlimit:10;stroke-dasharray:none;stroke-opacity:1"
               id="path490" />
            <g
               id="g492"
               transform="rotate(90,113.61638,169.85172)">
              <g
                 id="g494">
                <path
                   d="M -1.19551,1.59401 C -1.09587,0.99626 0,0.09961 0.29886,0 0,-0.09961 -1.09587,-0.99626 -1.19551,-1.59401"
                   style="fill:none;stroke:#000000;stroke-width:0.31879;stroke-linecap:round;stroke-linejoin:round;stroke-miterlimit:10;stroke-dasharray:none;stroke-opacity:1"
                   id="path496" />
              </g>
            </g>
            <g
               id="g498">
              <g
                 id="g500">
                <path
                   d="m 294.09286,-38.29112 27.84868,48.23544 c 0.13756,0.23825 0.0559,0.54289 -0.18232,0.68044 l -48.23546,27.84869 c -0.23824,0.13755 -0.54289,0.05591 -0.68044,-0.18233 L 244.99463,-9.94432 c -0.13754,-0.23825 -0.0559,-0.54289 0.18234,-0.68044 l 48.23544,-27.84869 c 0.23826,-0.13755 0.54289,-0.05591 0.68045,0.18233 z"
                   style="fill:#00ff00;fill-opacity:0.4;fill-rule:nonzero;stroke:#ff0000;stroke-width:1.19553;stroke-linecap:butt;stroke-linejoin:miter;stroke-miterlimit:10;stroke-dasharray:none;stroke-opacity:1"
                   id="path502" />
              </g>
              <g
                 id="g504">
                <path
                   d="m 283.89328,0.73642 c -0.40672,0.23483 -0.92679,0.09548 -1.16162,-0.31125 -0.23482,-0.40671 -0.0955,-0.92677 0.31125,-1.16159 0.40671,-0.23483 0.92679,-0.09548 1.1616,0.31125 0.23484,0.40671 0.0955,0.92677 -0.31123,1.16159 z"
                   style="fill:#000000;fill-opacity:1;fill-rule:nonzero;stroke:#000000;stroke-width:0.3985;stroke-linecap:butt;stroke-linejoin:miter;stroke-miterlimit:10;stroke-dasharray:none;stroke-opacity:1"
                   id="path506" />
              </g>
            </g>
          </g>
          <path
             d="M 2.83484,2.83484 C 48.78726,29.36542 92.94676,29.36542 138.50232,3.06396"
             style="fill:none;stroke:#000000;stroke-width:0.3985;stroke-linecap:butt;stroke-linejoin:miter;stroke-miterlimit:10;stroke-dasharray:none;stroke-opacity:1"
             id="path508" />
          <g
             id="g510"
             transform="matrix(0.86601,-0.49998,0.49998,0.86601,138.5023,3.06398)">
            <g
               id="g512">
              <path
                 d="M -1.19551,1.59401 C -1.09587,0.99626 0,0.09961 0.29886,0 0,-0.09961 -1.09587,-0.99626 -1.19551,-1.59401"
                 style="fill:none;stroke:#000000;stroke-width:0.31879;stroke-linecap:round;stroke-linejoin:round;stroke-miterlimit:10;stroke-dasharray:none;stroke-opacity:1"
                 id="path514" />
            </g>
          </g>
          <g
             id="g516">
            <g
               id="g518">
              <path
                 d="m 42.65154,22.932 h 56.4309 v 16.6039 h -56.4309 z"
                 style="fill:#ffffff;fill-opacity:1;fill-rule:nonzero;stroke:none"
                 id="path520" />
            </g>
            <g
               id="g522"
               transform="translate(45.972,28.743)">
              <g
                 id="g524">
                <g
                   id="g526"
                   transform="translate(-108.334,-91.105)">
                  <text
                     xml:space="preserve"
                     transform="matrix(1,0,0,-1,108.334,91.105)"
                     style="font-variant:normal;font-weight:normal;font-size:9.9626px;font-family:CMR10;-inkscape-font-specification:CMR10;writing-mode:lr-tb;fill:#000000;fill-opacity:1;fill-rule:nonzero;stroke:none"
                     id="text530"><tspan
                       x="0 3.9023504 8.8836508 12.758105 17.739405 21.613861 26.041241"
                       y="0"
                       sodipodi:role="line"
                       id="tspan528">rotate(</tspan></text>
                  <text
                     xml:space="preserve"
                     transform="matrix(1,0,0,-1,138.249,91.105)"
                     style="font-variant:normal;font-weight:normal;font-size:9.9626px;font-family:CMMI10;-inkscape-font-specification:CMMI10;writing-mode:lr-tb;fill:#000000;fill-opacity:1;fill-rule:nonzero;stroke:none"
                     id="text534"><tspan
                       x="0 6.0373354"
                       y="0"
                       sodipodi:role="line"
                       id="tspan532">π/</tspan></text>
                  <text
                     xml:space="preserve"
                     transform="matrix(1,0,0,-1,149.267,91.105)"
                     style="font-variant:normal;font-weight:normal;font-size:9.9626px;font-family:CMR10;-inkscape-font-specification:CMR10;writing-mode:lr-tb;fill:#000000;fill-opacity:1;fill-rule:nonzero;stroke:none"
                     id="text538"><tspan
                       x="0 4.9812999"
                       y="0"
                       sodipodi:role="line"
                       id="tspan536">6)</tspan></text>
                  <g
                     id="g540"
                     transform="translate(108.334,91.105)" />
                </g>
              </g>
              <g
                 id="g542"
                 transform="translate(-45.972,-28.743)" />
            </g>
          </g>
          <path
             d="m 144.5689,2.83484 c 45.95242,26.53058 90.1119,26.53058 135.66746,0.22912"
             style="fill:none;stroke:#000000;stroke-width:0.3985;stroke-linecap:butt;stroke-linejoin:miter;stroke-miterlimit:10;stroke-dasharray:none;stroke-opacity:1"
             id="path544" />
          <g
             id="g546"
             transform="matrix(0.86601,-0.49998,0.49998,0.86601,280.23634,3.06398)">
            <g
               id="g548">
              <path
                 d="M -1.19551,1.59401 C -1.09587,0.99626 0,0.09961 0.29886,0 0,-0.09961 -1.09587,-0.99626 -1.19551,-1.59401"
                 style="fill:none;stroke:#000000;stroke-width:0.31879;stroke-linecap:round;stroke-linejoin:round;stroke-miterlimit:10;stroke-dasharray:none;stroke-opacity:1"
                 id="path550" />
            </g>
          </g>
          <g
             id="g552">
            <g
               id="g554">
              <path
                 d="m 174.24467,22.932 h 76.71274 v 16.6039 h -76.71274 z"
                 style="fill:#ffffff;fill-opacity:1;fill-rule:nonzero;stroke:none"
                 id="path556" />
            </g>
            <g
               id="g558"
               transform="translate(177.563,28.743)">
              <g
                 id="g560">
                <g
                   id="g562"
                   transform="translate(-239.925,-91.105)">
                  <text
                     xml:space="preserve"
                     transform="matrix(1,0,0,-1,239.925,91.105)"
                     style="font-variant:normal;font-weight:normal;font-size:9.9626px;font-family:CMR10;-inkscape-font-specification:CMR10;writing-mode:lr-tb;fill:#000000;fill-opacity:1;fill-rule:nonzero;stroke:none"
                     id="text566"><tspan
                       x="0 3.9023504 8.8836508 12.758105 17.739405 21.613861 26.041241 29.915695 34.896996 39.878296 45.963451 52.331547 56.233894 61.769115 66.196495"
                       y="0"
                       sodipodi:role="line"
                       id="tspan564">rotate(30,True)</tspan></text>
                  <g
                     id="g568"
                     transform="translate(239.925,91.105)" />
                </g>
              </g>
              <g
                 id="g570"
                 transform="translate(-177.563,-28.743)" />
            </g>
          </g>
        </g>
      </g>
    </g>
  </g>
</svg>
