<?xml version="1.0" encoding="UTF-8" standalone="no"?>
<!-- Created with Inkscape (http://www.inkscape.org/) -->

<svg
   version="1.1"
   id="svg2"
   width="506.46271"
   height="241.89253"
   viewBox="0 0 506.4627 241.89253"
   sodipodi:docname="StandaloneTikz_Shape (9).pdf"
   xmlns:inkscape="http://www.inkscape.org/namespaces/inkscape"
   xmlns:sodipodi="http://sodipodi.sourceforge.net/DTD/sodipodi-0.dtd"
   xmlns="http://www.w3.org/2000/svg"
   xmlns:svg="http://www.w3.org/2000/svg">
  <defs
     id="defs6" />
  <sodipodi:namedview
     id="namedview4"
     pagecolor="#ffffff"
     bordercolor="#000000"
     borderopacity="0.25"
     inkscape:showpageshadow="2"
     inkscape:pageopacity="0.0"
     inkscape:pagecheckerboard="0"
     inkscape:deskcolor="#d1d1d1"
     showgrid="false" />
  <g
     id="g10"
     inkscape:groupmode="layer"
     inkscape:label="Page 1"
     transform="matrix(1.3333333,0,0,-1.3333333,9.3333331e-4,241.89159)">
    <g
       id="g12"
       transform="translate(90.709,90.709)">
      <g
         id="g14">
        <g
           id="g16">
          <g
             id="g18">
            <g
               id="g20">
              <path
                 d="M -90.7097,-90.7097 V 90.7097 H 90.7097 V -90.7097 Z"
                 style="fill:#ffffff;fill-opacity:0;fill-rule:nonzero;stroke:none"
                 id="path22" />
            </g>
            <g
               id="g24">
              <path
                 d="M -85.04042,-85.04042 H 85.04042 m -170.08084,28.3468 H 85.04042 M -85.04042,-28.3468 H 85.04042 M -85.04042,0 H 85.04042 M -85.04042,28.3468 H 85.04042 M -85.04042,56.69362 H 85.04042 M -85.04042,85.03047 H 85.04042 M -85.04042,-85.04042 V 85.04042 m 28.3468,-170.08084 V 85.04042 M -28.3468,-85.04042 V 85.04042 M 0,-85.04042 V 85.04042 M 28.3468,-85.04042 V 85.04042 M 56.69362,-85.04042 V 85.04042 M 85.03047,-85.04042 V 85.04042"
                 style="fill:none;stroke:#808080;stroke-width:0.19925;stroke-linecap:butt;stroke-linejoin:miter;stroke-miterlimit:10;stroke-dasharray:none;stroke-opacity:1"
                 id="path26" />
            </g>
            <path
               d="M -85.04042,0 H 84.58214"
               style="fill:none;stroke:#000000;stroke-width:0.3985;stroke-linecap:butt;stroke-linejoin:miter;stroke-miterlimit:10;stroke-dasharray:none;stroke-opacity:1"
               id="path28" />
            <g
               id="g30"
               transform="translate(84.58214)">
              <g
                 id="g32">
                <path
                   d="M -1.19551,1.59401 C -1.09587,0.99626 0,0.09961 0.29886,0 0,-0.09961 -1.09587,-0.99626 -1.19551,-1.59401"
                   style="fill:none;stroke:#000000;stroke-width:0.31879;stroke-linecap:round;stroke-linejoin:round;stroke-miterlimit:10;stroke-dasharray:none;stroke-opacity:1"
                   id="path34" />
              </g>
            </g>
            <path
               d="M 0,-85.04042 V 84.58214"
               style="fill:none;stroke:#000000;stroke-width:0.3985;stroke-linecap:butt;stroke-linejoin:miter;stroke-miterlimit:10;stroke-dasharray:none;stroke-opacity:1"
               id="path36" />
            <g
               id="g38"
               transform="rotate(90,-42.29107,42.29107)">
              <g
                 id="g40">
                <path
                   d="M -1.19551,1.59401 C -1.09587,0.99626 0,0.09961 0.29886,0 0,-0.09961 -1.09587,-0.99626 -1.19551,-1.59401"
                   style="fill:none;stroke:#000000;stroke-width:0.31879;stroke-linecap:round;stroke-linejoin:round;stroke-miterlimit:10;stroke-dasharray:none;stroke-opacity:1"
                   id="path42" />
              </g>
            </g>
            <g
               id="g44">
              <path
                 d="M 28.3468,0 C 28.3468,15.6557 15.6557,28.3468 0,28.3468 -15.6557,28.3468 -28.3468,15.6557 -28.3468,0 c 0,-15.6557 12.6911,-28.3468 28.3468,-28.3468 15.6557,0 28.3468,12.6911 28.3468,28.3468 z"
                 style="fill:#00ff00;fill-opacity:0.4;fill-rule:nonzero;stroke:#ff0000;stroke-width:1.19553;stroke-linecap:butt;stroke-linejoin:miter;stroke-miterlimit:10;stroke-dasharray:none;stroke-opacity:1"
                 id="path46" />
            </g>
            <g
               id="g48">
              <path
                 d="M 0.85036,0 C 0.85036,0.46964 0.46964,0.85036 0,0.85036 -0.46964,0.85036 -0.85036,0.46964 -0.85036,0 c 0,-0.46964 0.38072,-0.85036 0.85036,-0.85036 0.46964,0 0.85036,0.38072 0.85036,0.85036 z"
                 style="fill:#000000;fill-opacity:1;fill-rule:nonzero;stroke:#000000;stroke-width:0.3985;stroke-linecap:butt;stroke-linejoin:miter;stroke-miterlimit:10;stroke-dasharray:none;stroke-opacity:1"
                 id="path50" />
            </g>
          </g>
          <g
             id="g52">
            <g
               id="g54">
              <path
                 d="M 107.71796,-90.7097 V 90.7097 h 181.4194 V -90.7097 Z"
                 style="fill:#ffffff;fill-opacity:0;fill-rule:nonzero;stroke:none"
                 id="path56" />
            </g>
            <g
               id="g58">
              <path
                 d="M 113.38724,-85.04042 H 283.4681 m -170.08086,28.3468 H 283.4681 M 113.38724,-28.3468 H 283.4681 M 113.38724,0 H 283.4681 M 113.38724,28.3468 H 283.4681 M 113.38724,56.69362 H 283.4681 M 113.38724,85.03047 H 283.4681 M 113.38724,-85.04042 V 85.04042 m 28.3468,-170.08084 V 85.04042 M 170.08086,-85.04042 V 85.04042 m 28.3468,-170.08084 V 85.04042 M 226.77448,-85.04042 V 85.04042 m 28.3468,-170.08084 V 85.04042 M 283.45813,-85.04042 V 85.04042"
                 style="fill:none;stroke:#808080;stroke-width:0.19925;stroke-linecap:butt;stroke-linejoin:miter;stroke-miterlimit:10;stroke-dasharray:none;stroke-opacity:1"
                 id="path60" />
            </g>
            <path
               d="M 113.38724,0 H 283.00981"
               style="fill:none;stroke:#000000;stroke-width:0.3985;stroke-linecap:butt;stroke-linejoin:miter;stroke-miterlimit:10;stroke-dasharray:none;stroke-opacity:1"
               id="path62" />
            <g
               id="g64"
               transform="translate(283.00981)">
              <g
                 id="g66">
                <path
                   d="M -1.19551,1.59401 C -1.09587,0.99626 0,0.09961 0.29886,0 0,-0.09961 -1.09587,-0.99626 -1.19551,-1.59401"
                   style="fill:none;stroke:#000000;stroke-width:0.31879;stroke-linecap:round;stroke-linejoin:round;stroke-miterlimit:10;stroke-dasharray:none;stroke-opacity:1"
                   id="path68" />
              </g>
            </g>
            <path
               d="M 198.42766,-85.04042 V 84.58214"
               style="fill:none;stroke:#000000;stroke-width:0.3985;stroke-linecap:butt;stroke-linejoin:miter;stroke-miterlimit:10;stroke-dasharray:none;stroke-opacity:1"
               id="path70" />
            <g
               id="g72"
               transform="rotate(90,56.92276,141.5049)">
              <g
                 id="g74">
                <path
                   d="M -1.19551,1.59401 C -1.09587,0.99626 0,0.09961 0.29886,0 0,-0.09961 -1.09587,-0.99626 -1.19551,-1.59401"
                   style="fill:none;stroke:#000000;stroke-width:0.31879;stroke-linecap:round;stroke-linejoin:round;stroke-miterlimit:10;stroke-dasharray:none;stroke-opacity:1"
                   id="path76" />
              </g>
            </g>
            <g
               id="g78">
              <path
                 d="m 255.12128,56.69362 c 0,15.6557 -12.6911,28.3468 -28.3468,28.3468 -15.65572,0 -28.34682,-12.6911 -28.34682,-28.3468 0,-15.65572 12.6911,-28.34682 28.34682,-28.34682 15.6557,0 28.3468,12.6911 28.3468,28.34682 z"
                 style="fill:#00ff00;fill-opacity:0.4;fill-rule:nonzero;stroke:#ff0000;stroke-width:1.19553;stroke-linecap:butt;stroke-linejoin:miter;stroke-miterlimit:10;stroke-dasharray:none;stroke-opacity:1"
                 id="path80" />
            </g>
            <g
               id="g82">
              <path
                 d="m 227.62483,56.69362 c 0,0.46965 -0.3807,0.85036 -0.85035,0.85036 -0.46966,0 -0.85038,-0.38071 -0.85038,-0.85036 0,-0.46965 0.38072,-0.85037 0.85038,-0.85037 0.46965,0 0.85035,0.38072 0.85035,0.85037 z"
                 style="fill:#000000;fill-opacity:1;fill-rule:nonzero;stroke:#000000;stroke-width:0.3985;stroke-linecap:butt;stroke-linejoin:miter;stroke-miterlimit:10;stroke-dasharray:none;stroke-opacity:1"
                 id="path84" />
            </g>
          </g>
          <path
             d="m 2.83484,2.83484 c 77.38274,44.67682 143.72203,101.37044 220.7079,56.92274"
             style="fill:none;stroke:#000000;stroke-width:0.3985;stroke-linecap:butt;stroke-linejoin:miter;stroke-miterlimit:10;stroke-dasharray:none;stroke-opacity:1"
             id="path86" />
          <g
             id="g88"
             transform="matrix(0.86601,-0.49998,0.49998,0.86601,223.54272,59.7576)">
            <g
               id="g90">
              <path
                 d="M -1.19551,1.59401 C -1.09587,0.99626 0,0.09961 0.29886,0 0,-0.09961 -1.09587,-0.99626 -1.19551,-1.59401"
                 style="fill:none;stroke:#000000;stroke-width:0.31879;stroke-linecap:round;stroke-linejoin:round;stroke-miterlimit:10;stroke-dasharray:none;stroke-opacity:1"
                 id="path92" />
            </g>
          </g>
          <g
             id="g94">
            <g
               id="g96">
              <path
                 d="M 128.73355,90.38573 83.8381,69.45049 90.85526,54.4022 135.75072,75.33743 Z"
                 style="fill:#ffffff;fill-opacity:1;fill-rule:nonzero;stroke:none"
                 id="path98" />
            </g>
            <g
               id="g100"
               transform="matrix(0.90631,0.42262,-0.42262,0.90631,91.407,61.071)">
              <g
                 id="g102">
                <g
                   id="g104"
                   transform="translate(-182.116,-151.78)">
                  <text
                     xml:space="preserve"
                     transform="matrix(1,0,0,-1,182.116,151.78)"
                     style="font-variant:normal;font-weight:normal;font-size:9.9626px;font-family:CMR10;-inkscape-font-specification:CMR10;writing-mode:lr-tb;fill:#000000;fill-opacity:1;fill-rule:nonzero;stroke:none"
                     id="text108"><tspan
                       x="0 8.3018341 13.004182 17.98349 22.420832 26.295286 31.276587 34.034233 39.015533"
                       y="0"
                       sodipodi:role="line"
                       id="tspan106">move(1,2)</tspan></text>
                  <g
                     id="g110"
                     transform="translate(182.116,151.78)" />
                </g>
              </g>
              <g
                 id="g112"
                 transform="translate(-91.407,-61.071)" />
            </g>
          </g>
        </g>
      </g>
    </g>
  </g>
</svg>
