<?xml version="1.0" encoding="UTF-8" standalone="no"?>
<!-- Created with Inkscape (http://www.inkscape.org/) -->

<svg
   version="1.1"
   id="svg850"
   width="506.46271"
   height="241.89252"
   viewBox="0 0 506.4627 241.89252"
   sodipodi:docname="StandaloneTikz_Shape (12).pdf"
   xmlns:inkscape="http://www.inkscape.org/namespaces/inkscape"
   xmlns:sodipodi="http://sodipodi.sourceforge.net/DTD/sodipodi-0.dtd"
   xmlns="http://www.w3.org/2000/svg"
   xmlns:svg="http://www.w3.org/2000/svg">
  <defs
     id="defs854" />
  <sodipodi:namedview
     id="namedview852"
     pagecolor="#ffffff"
     bordercolor="#000000"
     borderopacity="0.25"
     inkscape:showpageshadow="2"
     inkscape:pageopacity="0.0"
     inkscape:pagecheckerboard="0"
     inkscape:deskcolor="#d1d1d1"
     showgrid="false" />
  <g
     id="g858"
     inkscape:groupmode="layer"
     inkscape:label="Page 1"
     transform="matrix(1.3333333,0,0,-1.3333333,9.3333331e-4,241.89159)">
    <g
       id="g860"
       transform="translate(90.709,90.709)">
      <g
         id="g862">
        <g
           id="g864">
          <g
             id="g866">
            <g
               id="g868">
              <path
                 d="M -90.7097,-90.7097 V 90.7097 H 90.7097 V -90.7097 Z"
                 style="fill:#ffffff;fill-opacity:0;fill-rule:nonzero;stroke:none"
                 id="path870" />
            </g>
            <g
               id="g872">
              <path
                 d="M -85.04042,-85.04042 H 85.04042 m -170.08084,28.3468 H 85.04042 M -85.04042,-28.3468 H 85.04042 M -85.04042,0 H 85.04042 M -85.04042,28.3468 H 85.04042 M -85.04042,56.69362 H 85.04042 M -85.04042,85.03047 H 85.04042 M -85.04042,-85.04042 V 85.04042 m 28.3468,-170.08084 V 85.04042 M -28.3468,-85.04042 V 85.04042 M 0,-85.04042 V 85.04042 M 28.3468,-85.04042 V 85.04042 M 56.69362,-85.04042 V 85.04042 M 85.03047,-85.04042 V 85.04042"
                 style="fill:none;stroke:#808080;stroke-width:0.19925;stroke-linecap:butt;stroke-linejoin:miter;stroke-miterlimit:10;stroke-dasharray:none;stroke-opacity:1"
                 id="path874" />
            </g>
            <path
               d="M -85.04042,0 H 84.58214"
               style="fill:none;stroke:#000000;stroke-width:0.3985;stroke-linecap:butt;stroke-linejoin:miter;stroke-miterlimit:10;stroke-dasharray:none;stroke-opacity:1"
               id="path876" />
            <g
               id="g878"
               transform="translate(84.58214)">
              <g
                 id="g880">
                <path
                   d="M -1.19551,1.59401 C -1.09587,0.99626 0,0.09961 0.29886,0 0,-0.09961 -1.09587,-0.99626 -1.19551,-1.59401"
                   style="fill:none;stroke:#000000;stroke-width:0.31879;stroke-linecap:round;stroke-linejoin:round;stroke-miterlimit:10;stroke-dasharray:none;stroke-opacity:1"
                   id="path882" />
              </g>
            </g>
            <path
               d="M 0,-85.04042 V 84.58214"
               style="fill:none;stroke:#000000;stroke-width:0.3985;stroke-linecap:butt;stroke-linejoin:miter;stroke-miterlimit:10;stroke-dasharray:none;stroke-opacity:1"
               id="path884" />
            <g
               id="g886"
               transform="rotate(90,-42.29107,42.29107)">
              <g
                 id="g888">
                <path
                   d="M -1.19551,1.59401 C -1.09587,0.99626 0,0.09961 0.29886,0 0,-0.09961 -1.09587,-0.99626 -1.19551,-1.59401"
                   style="fill:none;stroke:#000000;stroke-width:0.31879;stroke-linecap:round;stroke-linejoin:round;stroke-miterlimit:10;stroke-dasharray:none;stroke-opacity:1"
                   id="path890" />
              </g>
            </g>
            <g
               id="g892">
              <path
                 d="m -27.84866,-28.3468 h 55.69732 c 0.27512,0 0.49814,0.22302 0.49814,0.49814 v 55.69732 c 0,0.27512 -0.22302,0.49814 -0.49814,0.49814 h -55.69732 c -0.27512,0 -0.49814,-0.22302 -0.49814,-0.49814 v -55.69732 c 0,-0.27512 0.22302,-0.49814 0.49814,-0.49814 z"
                 style="fill:#00ff00;fill-opacity:0.4;fill-rule:nonzero;stroke:#ff0000;stroke-width:1.19553;stroke-linecap:butt;stroke-linejoin:miter;stroke-miterlimit:10;stroke-dasharray:none;stroke-opacity:1"
                 id="path894" />
            </g>
            <g
               id="g896">
              <path
                 d="M 0.85036,0 C 0.85036,0.46964 0.46964,0.85036 0,0.85036 -0.46964,0.85036 -0.85036,0.46964 -0.85036,0 c 0,-0.46964 0.38072,-0.85036 0.85036,-0.85036 0.46964,0 0.85036,0.38072 0.85036,0.85036 z"
                 style="fill:#000000;fill-opacity:1;fill-rule:nonzero;stroke:#000000;stroke-width:0.3985;stroke-linecap:butt;stroke-linejoin:miter;stroke-miterlimit:10;stroke-dasharray:none;stroke-opacity:1"
                 id="path898" />
            </g>
          </g>
          <g
             id="g900">
            <g
               id="g902">
              <path
                 d="M 107.71796,-90.7097 V 90.7097 h 181.4194 V -90.7097 Z"
                 style="fill:#ffffff;fill-opacity:0;fill-rule:nonzero;stroke:none"
                 id="path904" />
            </g>
            <g
               id="g906">
              <path
                 d="M 113.38724,-85.04042 H 283.4681 m -170.08086,28.3468 H 283.4681 M 113.38724,-28.3468 H 283.4681 M 113.38724,0 H 283.4681 M 113.38724,28.3468 H 283.4681 M 113.38724,56.69362 H 283.4681 M 113.38724,85.03047 H 283.4681 M 113.38724,-85.04042 V 85.04042 m 28.3468,-170.08084 V 85.04042 M 170.08086,-85.04042 V 85.04042 m 28.3468,-170.08084 V 85.04042 M 226.77448,-85.04042 V 85.04042 m 28.3468,-170.08084 V 85.04042 M 283.45813,-85.04042 V 85.04042"
                 style="fill:none;stroke:#808080;stroke-width:0.19925;stroke-linecap:butt;stroke-linejoin:miter;stroke-miterlimit:10;stroke-dasharray:none;stroke-opacity:1"
                 id="path908" />
            </g>
            <path
               d="M 113.38724,0 H 283.00981"
               style="fill:none;stroke:#000000;stroke-width:0.3985;stroke-linecap:butt;stroke-linejoin:miter;stroke-miterlimit:10;stroke-dasharray:none;stroke-opacity:1"
               id="path910" />
            <g
               id="g912"
               transform="translate(283.00981)">
              <g
                 id="g914">
                <path
                   d="M -1.19551,1.59401 C -1.09587,0.99626 0,0.09961 0.29886,0 0,-0.09961 -1.09587,-0.99626 -1.19551,-1.59401"
                   style="fill:none;stroke:#000000;stroke-width:0.31879;stroke-linecap:round;stroke-linejoin:round;stroke-miterlimit:10;stroke-dasharray:none;stroke-opacity:1"
                   id="path916" />
              </g>
            </g>
            <path
               d="M 198.42766,-85.04042 V 84.58214"
               style="fill:none;stroke:#000000;stroke-width:0.3985;stroke-linecap:butt;stroke-linejoin:miter;stroke-miterlimit:10;stroke-dasharray:none;stroke-opacity:1"
               id="path918" />
            <g
               id="g920"
               transform="rotate(90,56.92276,141.5049)">
              <g
                 id="g922">
                <path
                   d="M -1.19551,1.59401 C -1.09587,0.99626 0,0.09961 0.29886,0 0,-0.09961 -1.09587,-0.99626 -1.19551,-1.59401"
                   style="fill:none;stroke:#000000;stroke-width:0.31879;stroke-linecap:round;stroke-linejoin:round;stroke-miterlimit:10;stroke-dasharray:none;stroke-opacity:1"
                   id="path924" />
              </g>
            </g>
            <g
               id="g926">
              <path
                 d="m 142.23218,-14.17339 h 112.39096 c 0.27511,0 0.49814,0.22303 0.49814,0.49814 v 27.3505 c 0,0.27511 -0.22303,0.49814 -0.49814,0.49814 H 142.23218 c -0.2751,0 -0.49814,-0.22303 -0.49814,-0.49814 v -27.3505 c 0,-0.27511 0.22304,-0.49814 0.49814,-0.49814 z"
                 style="fill:#00ff00;fill-opacity:0.4;fill-rule:nonzero;stroke:#ff0000;stroke-width:1.19553;stroke-linecap:butt;stroke-linejoin:miter;stroke-miterlimit:10;stroke-dasharray:none;stroke-opacity:1"
                 id="path928" />
            </g>
            <g
               id="g930">
              <path
                 d="m 199.27803,0 c 0,0.46964 -0.38072,0.85036 -0.85037,0.85036 -0.46965,0 -0.85037,-0.38072 -0.85037,-0.85036 0,-0.46964 0.38072,-0.85036 0.85037,-0.85036 0.46965,0 0.85037,0.38072 0.85037,0.85036 z"
                 style="fill:#000000;fill-opacity:1;fill-rule:nonzero;stroke:#000000;stroke-width:0.3985;stroke-linecap:butt;stroke-linejoin:miter;stroke-miterlimit:10;stroke-dasharray:none;stroke-opacity:1"
                 id="path932" />
            </g>
          </g>
          <path
             d="m 2.83484,2.83484 c 65.09935,37.58502 127.65861,37.58502 192.3611,0.22914"
             style="fill:none;stroke:#000000;stroke-width:0.3985;stroke-linecap:butt;stroke-linejoin:miter;stroke-miterlimit:10;stroke-dasharray:none;stroke-opacity:1"
             id="path934" />
          <g
             id="g936"
             transform="matrix(0.86601,-0.5,0.5,0.86601,195.19592,3.06398)">
            <g
               id="g938">
              <path
                 d="M -1.19551,1.59401 C -1.09587,0.99626 0,0.09961 0.29886,0 0,-0.09961 -1.09587,-0.99626 -1.19551,-1.59401"
                 style="fill:none;stroke:#000000;stroke-width:0.31879;stroke-linecap:round;stroke-linejoin:round;stroke-miterlimit:10;stroke-dasharray:none;stroke-opacity:1"
                 id="path940" />
            </g>
          </g>
          <g
             id="g942">
            <g
               id="g944">
              <path
                 d="m 69.8516,31.22284 h 58.72435 v 16.6039 H 69.8516 Z"
                 style="fill:#ffffff;fill-opacity:1;fill-rule:nonzero;stroke:none"
                 id="path946" />
            </g>
            <g
               id="g948"
               transform="translate(73.171,37.033)">
              <g
                 id="g950">
                <g
                   id="g952"
                   transform="translate(-163.88,-127.742)">
                  <text
                     xml:space="preserve"
                     transform="matrix(1,0,0,-1,163.88,127.742)"
                     style="font-variant:normal;font-weight:normal;font-size:9.9626px;font-family:CMR10;-inkscape-font-specification:CMR10;writing-mode:lr-tb;fill:#000000;fill-opacity:1;fill-rule:nonzero;stroke:none"
                     id="text956"><tspan
                       x="0 3.9292495 8.3566284 13.337929 16.105539 20.532919 24.407373 29.388674 35.473831 40.455132 43.22274 48.204041"
                       y="0"
                       sodipodi:role="line"
                       id="tspan954">scale(2,0.5)</tspan></text>
                  <g
                     id="g958"
                     transform="translate(163.88,127.742)" />
                </g>
              </g>
              <g
                 id="g960"
                 transform="translate(-73.171,-37.033)" />
            </g>
          </g>
        </g>
      </g>
    </g>
  </g>
</svg>
