<?xml version="1.0" encoding="utf-8" standalone="no"?>
<!DOCTYPE svg PUBLIC "-//W3C//DTD SVG 1.1//EN"
  "http://www.w3.org/Graphics/SVG/1.1/DTD/svg11.dtd">
<svg xmlns:xlink="http://www.w3.org/1999/xlink" width="460.8pt" height="345.6pt" viewBox="0 0 460.8 345.6" xmlns="http://www.w3.org/2000/svg" version="1.1">
 <metadata>
  <rdf:RDF xmlns:dc="http://purl.org/dc/elements/1.1/" xmlns:cc="http://creativecommons.org/ns#" xmlns:rdf="http://www.w3.org/1999/02/22-rdf-syntax-ns#">
   <cc:Work>
    <dc:type rdf:resource="http://purl.org/dc/dcmitype/StillImage"/>
    <dc:date>2023-09-16T12:20:22.595015</dc:date>
    <dc:format>image/svg+xml</dc:format>
    <dc:creator>
     <cc:Agent>
      <dc:title>Matplotlib v3.7.0, https://matplotlib.org/</dc:title>
     </cc:Agent>
    </dc:creator>
   </cc:Work>
  </rdf:RDF>
 </metadata>
 <defs>
  <style type="text/css">*{stroke-linejoin: round; stroke-linecap: butt}</style>
 </defs>
 <g id="figure_1">
  <g id="patch_1">
   <path d="M 0 345.6 
L 460.8 345.6 
L 460.8 0 
L 0 0 
z
" style="fill: #ffffff"/>
  </g>
  <g id="axes_1">
   <g id="patch_2">
    <path d="M 77.130172 334.8 
L 383.669828 334.8 
L 383.669828 10.8 
L 77.130172 10.8 
z
" style="fill: #ffffff"/>
   </g>
   <g id="PathCollection_1">
    <defs>
     <path id="m3e39bc6220" d="M 0 3 
C 0.795609 3 1.55874 2.683901 2.12132 2.12132 
C 2.683901 1.55874 3 0.795609 3 0 
C 3 -0.795609 2.683901 -1.55874 2.12132 -2.12132 
C 1.55874 -2.683901 0.795609 -3 0 -3 
C -0.795609 -3 -1.55874 -2.683901 -2.12132 -2.12132 
C -2.683901 -1.55874 -3 -0.795609 -3 0 
C -3 0.795609 -2.683901 1.55874 -2.12132 2.12132 
C -1.55874 2.683901 -0.795609 3 0 3 
z
" style="stroke: #0000ff"/>
    </defs>
    <g clip-path="url(#p18739752c7)">
     <use xlink:href="#m3e39bc6220" x="369.736208" y="25.527273" style="fill: #0000ff; stroke: #0000ff"/>
     <use xlink:href="#m3e39bc6220" x="96.229714" y="88.644156" style="fill: #0000ff; stroke: #0000ff"/>
     <use xlink:href="#m3e39bc6220" x="243.502441" y="320.072727" style="fill: #0000ff; stroke: #0000ff"/>
     <use xlink:href="#m3e39bc6220" x="285.580364" y="183.319481" style="fill: #0000ff; stroke: #0000ff"/>
    </g>
   </g>
   <g id="matplotlib.axis_1"/>
   <g id="matplotlib.axis_2"/>
   <g id="line2d_1">
    <path d="M 369.736208 25.527273 
L 324.240905 25.638045 
L 301.122961 25.913319 
L 281.256552 26.37126 
L 264.578169 26.97376 
L 249.631452 27.731133 
L 236.37018 28.615646 
L 223.458431 29.709871 
L 212.167429 30.892418 
L 201.216765 32.279168 
L 191.790469 33.696411 
L 182.673538 35.299272 
L 174.964964 36.863021 
L 167.520577 38.585281 
L 160.353129 40.473705 
L 153.475376 42.535946 
L 147.820399 44.447725 
L 142.39566 46.497647 
L 137.20919 48.690531 
L 132.269022 51.031195 
L 127.583187 53.524459 
L 123.8784 55.722225 
L 120.360459 58.032098 
L 117.034011 60.456867 
L 113.903704 62.999321 
L 110.974186 65.662248 
L 108.250106 68.448437 
L 105.736109 71.360677 
L 103.436846 74.401756 
L 101.356963 77.574464 
L 99.501109 80.88159 
L 97.873931 84.325921 
L 96.480077 87.910246 
L 95.073585 92.304905 
L 93.697586 97.358533 
L 92.745155 101.632594 
L 92.003953 105.861947 
L 91.475588 110.054622 
L 91.161666 114.218652 
L 91.063792 118.362067 
L 91.183574 122.492899 
L 91.522617 126.61918 
L 92.082529 130.748942 
L 92.864914 134.890215 
L 93.87138 139.051032 
L 95.103533 143.239423 
L 96.562979 147.463422 
L 98.251325 151.731058 
L 100.170176 156.050364 
L 102.702313 161.165575 
L 105.55293 166.374799 
L 108.72458 171.690791 
L 112.219812 177.126304 
L 116.041178 182.694093 
L 120.811072 189.23561 
L 126.014075 195.985591 
L 132.389896 203.852204 
L 139.324111 212.033854 
L 147.690295 221.527034 
L 156.759984 231.479798 
L 167.558066 243.003036 
L 181.442039 257.464037 
L 198.993509 275.385628 
L 223.618594 300.175275 
L 243.502441 320.072727 
L 246.347666 317.091903 
L 249.41693 313.532672 
L 252.22893 309.891634 
L 254.796422 306.175166 
L 257.132158 302.389646 
L 259.248893 298.54145 
L 261.159381 294.636954 
L 263.106608 290.113917 
L 264.820146 285.535193 
L 266.319033 280.910304 
L 267.772411 275.663971 
L 269.005323 270.38481 
L 270.149622 264.497057 
L 271.177012 258.015231 
L 272.144483 250.380608 
L 273.083323 241.079902 
L 275.361187 217.17381 
L 276.223464 210.93099 
L 277.204227 205.42446 
L 278.296767 200.619331 
L 279.475465 196.474125 
L 280.701369 192.943565 
L 282.114795 189.567925 
L 283.520335 186.748806 
L 285.096777 184.061962 
L 286.855324 181.512221 
L 288.791961 179.089191 
L 291.207091 176.450749 
L 293.819262 173.924392 
L 296.969775 171.18066 
L 301.086808 167.911467 
L 307.088614 163.475955 
L 318.646632 154.998693 
L 323.496373 151.157207 
L 327.913558 147.376424 
L 331.864015 143.691093 
L 335.332885 140.156329 
L 338.741787 136.348134 
L 341.660416 132.769217 
L 344.505802 128.939961 
L 347.265191 124.841234 
L 349.925829 120.453907 
L 352.474962 115.758848 
L 354.561516 111.475082 
L 356.548748 106.939124 
L 358.428624 102.138929 
L 360.193113 97.062447 
L 361.834184 91.697632 
L 363.343805 86.032437 
L 364.713944 80.054815 
L 365.936571 73.752717 
L 367.003653 67.114097 
L 367.907159 60.126907 
L 368.639057 52.779101 
L 369.191316 45.058629 
L 369.555904 36.953446 
L 369.72479 28.451504 
L 369.736208 25.527273 
L 369.736208 25.527273 
" clip-path="url(#p18739752c7)" style="fill: none; stroke: #0000ff; stroke-width: 1.5; stroke-linecap: square"/>
   </g>
  </g>
 </g>
 <defs>
  <clipPath id="p18739752c7">
   <rect x="77.130172" y="10.8" width="306.539657" height="324"/>
  </clipPath>
 </defs>
</svg>
