<?xml version="1.0" encoding="UTF-8" standalone="no"?>
<svg
   xmlns:dc="http://purl.org/dc/elements/1.1/"
   xmlns:cc="http://creativecommons.org/ns#"
   xmlns:rdf="http://www.w3.org/1999/02/22-rdf-syntax-ns#"
   xmlns:svg="http://www.w3.org/2000/svg"
   xmlns="http://www.w3.org/2000/svg"
   viewBox="0 0 241.88933 166.29868"
   height="166.29868"
   width="241.88933"
   xml:space="preserve"
   id="svg2"
   version="1.1"><metadata
     id="metadata8"><rdf:RDF><cc:Work
         rdf:about=""><dc:format>image/svg+xml</dc:format><dc:type
           rdf:resource="http://purl.org/dc/dcmitype/StillImage" /></cc:Work></rdf:RDF></metadata><defs
     id="defs6" /><g
     transform="matrix(1.3333333,0,0,-1.3333333,0,166.29867)"
     id="g10"><g
       transform="translate(90.709,62.362)"
       id="g12"><g
         id="g14"><g
           id="g16"><g
             id="g18"><path
               id="path20"
               style="fill:#ffffff;fill-opacity:0;fill-rule:nonzero;stroke:none"
               d="M -90.7097,-62.36288 V 62.36288 H 90.7097 V -62.36288 Z" /></g><g
             id="g22"><path
               id="path24"
               style="fill:none;stroke:#808080;stroke-width:0.19925;stroke-linecap:butt;stroke-linejoin:miter;stroke-miterlimit:10;stroke-dasharray:none;stroke-opacity:1"
               d="M -85.04042,-56.69362 H 85.04042 M -85.04042,-28.3468 H 85.04042 M -85.04042,0 H 85.04042 M -85.04042,28.3468 H 85.04042 M -85.04042,56.68365 H 85.04042 M -85.04042,-56.69362 V 56.69362 m 28.3468,-113.38724 V 56.69362 M -28.3468,-56.69362 V 56.69362 M 0,-56.69362 V 56.69362 M 28.3468,-56.69362 V 56.69362 M 56.69362,-56.69362 V 56.69362 M 85.03047,-56.69362 V 56.69362" /></g><path
             id="path26"
             style="fill:none;stroke:#000000;stroke-width:0.3985;stroke-linecap:butt;stroke-linejoin:miter;stroke-miterlimit:10;stroke-dasharray:none;stroke-opacity:1"
             d="M -85.04042,0 H 84.58214" /><g
             transform="translate(84.58214)"
             id="g28"><g
               id="g30"><path
                 id="path32"
                 style="fill:none;stroke:#000000;stroke-width:0.31878999;stroke-linecap:round;stroke-linejoin:round;stroke-miterlimit:10;stroke-dasharray:none;stroke-opacity:1"
                 d="M -1.19551,1.59401 C -1.09587,0.99626 0,0.09961 0.29886,0 0,-0.09961 -1.09587,-0.99626 -1.19551,-1.59401" /></g></g><path
             id="path34"
             style="fill:none;stroke:#000000;stroke-width:0.3985;stroke-linecap:butt;stroke-linejoin:miter;stroke-miterlimit:10;stroke-dasharray:none;stroke-opacity:1"
             d="M 0,-56.69362 V 56.23534" /><g
             transform="rotate(90,-28.11767,28.11767)"
             id="g36"><g
               id="g38"><path
                 id="path40"
                 style="fill:none;stroke:#000000;stroke-width:0.31878999;stroke-linecap:round;stroke-linejoin:round;stroke-miterlimit:10;stroke-dasharray:none;stroke-opacity:1"
                 d="M -1.19551,1.59401 C -1.09587,0.99626 0,0.09961 0.29886,0 0,-0.09961 -1.09587,-0.99626 -1.19551,-1.59401" /></g></g><g
             id="g42"><path
               id="path44"
               style="fill:#199619;fill-opacity:1;fill-rule:nonzero;stroke:none"
               d="m 35.43349,17.00824 c 0,0.78282 -0.63459,1.41742 -1.41741,1.41742 -0.78283,0 -1.41742,-0.6346 -1.41742,-1.41742 0,-0.78282 0.63459,-1.41742 1.41742,-1.41742 0.78282,0 1.41741,0.6346 1.41741,1.41742 z" /><g
               id="g46"><g
                 transform="translate(30.279,6.681)"
                 id="g48"><g
                   id="g50"><g
                     transform="translate(-120.988,-69.043)"
                     id="g52"><text
                       id="text56"
                       style="font-variant:normal;font-weight:normal;font-size:9.96259975px;font-family:CMR10;-inkscape-font-specification:CMR10;writing-mode:lr-tb;fill:#199619;fill-opacity:1;fill-rule:nonzero;stroke:none"
                       transform="matrix(1,0,0,-1,120.988,69.043)"><tspan
                         id="tspan54"
                         y="0"
                         x="0">A</tspan></text>
<g
                       transform="translate(120.988,69.043)"
                       id="g58" /></g></g><g
                   transform="translate(-30.279,-6.681)"
                   id="g60" /></g></g></g><g
             id="g62"><path
               id="path64"
               style="fill:#199619;fill-opacity:1;fill-rule:nonzero;stroke:none"
               d="m -10.21654,31.96454 c 0,0.78282 -0.6346,1.41742 -1.41742,1.41742 -0.78282,0 -1.41742,-0.6346 -1.41742,-1.41742 0,-0.78282 0.6346,-1.41742 1.41742,-1.41742 0.78282,0 1.41742,0.6346 1.41742,1.41742 z" /><g
               id="g66"><g
                 transform="translate(-15.163,21.637)"
                 id="g68"><g
                   id="g70"><g
                     transform="translate(-75.546,-83.999)"
                     id="g72"><text
                       id="text76"
                       style="font-variant:normal;font-weight:normal;font-size:9.96259975px;font-family:CMR10;-inkscape-font-specification:CMR10;writing-mode:lr-tb;fill:#199619;fill-opacity:1;fill-rule:nonzero;stroke:none"
                       transform="matrix(1,0,0,-1,75.546,83.999)"><tspan
                         id="tspan74"
                         y="0"
                         x="0">B</tspan></text>
<g
                       transform="translate(75.546,83.999)"
                       id="g78" /></g></g><g
                   transform="translate(15.163,-21.637)"
                   id="g80" /></g></g></g></g></g></g></g></svg>