<svg xmlns="http://www.w3.org/2000/svg" width="241.889" height="166.299" viewBox="0 0 181.417 124.724"><g fill="none"><path d="M0 124.725V-.001h181.419v124.726zM181.418-.001"/><path stroke-width=".199" stroke-miterlimit="10" stroke="#929292" d="M5.669 119.056h170.08M5.67 90.709h170.08M5.67 62.362h170.08M5.67 34.015h170.08M5.67 5.678h170.08M5.67 119.056V5.668m28.346 113.388V5.668m28.347 113.388V5.668M90.71 119.056V5.668m28.347 113.388V5.668m28.347 113.388V5.668m28.336 113.388V5.668m.01 0"/><path stroke-width=".399" stroke-miterlimit="10" stroke="#000" d="M5.669 62.362H175.29"/><path stroke-width=".319" stroke-linecap="round" stroke-linejoin="round" stroke="#000" d="M174.096 60.768c.1.598 1.195 1.494 1.494 1.594-.299.1-1.395.996-1.494 1.594"/><path stroke-width=".399" stroke-miterlimit="10" stroke="#000" d="M90.709 119.056V6.126"/><path stroke-width=".319" stroke-linecap="round" stroke-linejoin="round" stroke="#000" d="M89.115 7.322c.598-.1 1.494-1.195 1.594-1.494.1.299.996 1.395 1.594 1.494"/><path stroke-width="1.196" stroke-miterlimit="10" stroke="#199619" d="M124.725 45.354 73.701 96.378c-39.686-5.67-39.686-5.67-17.008-39.685l53.859-25.513"/></g></svg>